<svg width="40" height="40" viewBox="0 0 40 40" fill="none" xmlns="http://www.w3.org/2000/svg">
<g clip-path="url(#clip0_544_437)">
<path d="M7.41941 29.997L5.42945 32.1373C5.30447 32.2722 5.29077 32.3181 5.35758 32.3807C5.4284 32.4467 5.46991 32.4336 5.60079 32.2966L7.59118 30.1557L7.99836 30.5351L6.09249 32.5847L5.98627 32.6989C5.92995 32.7587 5.86702 32.8119 5.79869 32.8574C5.56454 33.0233 5.28487 32.9847 5.02332 32.7411C4.85303 32.583 4.76557 32.3988 4.77126 32.2266C4.77589 32.1425 4.80392 32.0568 4.85029 31.9754C4.88991 31.9088 4.93733 31.8414 4.99592 31.7788L5.10257 31.6633L7.00865 29.6139L7.41941 29.997Z" fill="#798086"/>
<path d="M9.3924 31.8449L9.89021 32.1592L9.17553 33.8741L10.1532 32.3255L10.5828 32.5969L8.65834 35.6436L8.16559 35.3323L8.8771 33.6225L7.90214 35.166L7.46777 34.8916L9.3924 31.8449Z" fill="#798086"/>
<path d="M12.2945 33.5994L12.7824 33.8562L11.1061 37.0474L10.6167 36.7888L12.2945 33.5994Z" fill="#798086"/>
<path d="M14.2983 34.5094L14.8263 34.6477L14.452 36.924L15.2111 34.7484L15.7386 34.8871L14.437 38.2716L13.7896 38.1017L14.2983 34.5094Z" fill="#798086"/>
<path d="M17.6146 34.9354L18.6578 34.94L18.657 35.4319L18.1651 35.4296L18.1598 36.4674L18.6519 36.4695L18.649 36.9551L18.1566 36.9527L18.1535 38.0504L18.6439 38.0516L18.6429 38.5444L17.5996 38.5391L17.6146 34.9354Z" fill="#798086"/>
<path d="M21.6357 38.3594L22.1767 38.2509L21.8733 36.741C22.0541 36.7048 22.0977 36.729 22.1293 36.8934L22.326 37.8739C22.3607 38.0431 22.3913 38.1141 22.4511 38.1955L22.9816 38.0899C22.9171 37.9872 22.8998 37.9299 22.8649 37.759L22.6882 36.8751C22.6446 36.6532 22.5744 36.5288 22.453 36.4757C22.405 36.4527 22.382 36.4464 22.2962 36.4304C22.4446 36.3176 22.4897 36.2428 22.4958 36.1033C22.4955 35.9761 22.4826 35.8492 22.4573 35.7246L22.3759 35.3125C22.3066 34.9728 22.2328 34.8225 22.1064 34.7382C21.9673 34.6552 21.8433 34.6417 21.5689 34.6969L20.9282 34.8251L21.6357 38.3594ZM21.5643 35.1981C21.7455 35.1637 21.7894 35.1935 21.8225 35.3566L21.9563 36.024C21.9883 36.1889 21.9586 36.2331 21.7793 36.2694L21.5643 35.1981Z" fill="#798086"/>
<path d="M25.7498 34.8634L26.1235 34.9776C26.4341 35.0674 26.5385 35.1673 26.682 35.4769L26.8565 35.859L26.9233 36.0027C26.9593 36.0811 26.9836 36.1587 27.0009 36.2339C27.0651 36.5064 26.9193 36.7574 26.6067 36.9029C26.4103 36.9941 26.2004 37.0059 26.0487 36.9338C25.9705 36.9052 25.9001 36.8428 25.8413 36.7667C25.7945 36.7045 25.7559 36.6335 25.7155 36.5576L25.6499 36.416L25.4332 35.9439L25.9342 35.7144L26.2036 36.2984C26.2282 36.3519 26.244 36.3863 26.2598 36.4084C26.2914 36.4651 26.3416 36.4835 26.4004 36.4558C26.4881 36.4156 26.49 36.3675 26.4139 36.2004L26.2324 35.8073C26.1427 35.612 26.1009 35.5721 25.9028 35.5186L25.5285 35.4006C25.2048 35.3062 25.0996 35.2189 24.9673 34.9329L24.8157 34.6039L24.7502 34.4619C24.7194 34.3809 24.6905 34.3047 24.6741 34.2296C24.6119 33.9537 24.7603 33.7074 25.0653 33.5679C25.2613 33.477 25.4687 33.4646 25.62 33.5331C25.6956 33.5691 25.7684 33.6243 25.8213 33.7008C25.8967 33.7978 25.9064 33.8178 26.0133 34.0532L26.1975 34.4511L25.7106 34.6735L25.4756 34.1632C25.3993 33.9972 25.3618 33.9672 25.2739 34.0077C25.1907 34.0458 25.189 34.0947 25.2651 34.2608L25.4183 34.5949C25.4998 34.7711 25.5357 34.7966 25.7498 34.8634Z" fill="#798086"/>
<path d="M27.6406 32.2209L28.0893 31.8999L30.1914 34.8267L29.744 35.1485L27.6406 32.2209Z" fill="#798086"/>
<path d="M30.3197 30.9457L30.064 31.2237L29.7021 30.8905L30.5894 29.9299L30.9515 30.2627L30.6853 30.5483L32.9746 32.6584L32.6081 33.0554L30.3197 30.9457Z" fill="#798086"/>
<path d="M31.8259 27.9259L32.8936 28.3512L32.0516 27.5712L32.3484 27.1054L34.0062 28.7205L35.135 29.4392L34.833 29.9127L33.6907 29.1854L31.5205 28.4052L31.8259 27.9259Z" fill="#798086"/>
<path d="M18.8872 2.27951L18.8883 1.71257C18.8883 1.65356 18.8883 1.62089 18.883 1.58865C18.8779 1.52437 18.8345 1.48601 18.7744 1.48601C18.6775 1.48622 18.6562 1.52879 18.656 1.71215L18.6537 3.9546C18.6533 4.13901 18.6745 4.18137 18.7713 4.18158C18.864 4.182 18.8853 4.1447 18.8855 3.95375L18.8864 3.24709L18.7791 3.24667L18.7785 2.75476L19.4381 2.75624L19.4356 4.63703L19.1386 4.63682L19.1015 4.49456C19.0252 4.62017 18.9114 4.6737 18.7327 4.67328C18.539 4.67328 18.3392 4.59235 18.236 4.468C18.1765 4.40857 18.1396 4.32026 18.1184 4.229C18.1019 4.15355 18.0958 4.07262 18.0903 3.98663L18.0912 3.82878L18.0935 1.83607L18.0943 1.67843C18.0996 1.59265 18.1053 1.51193 18.1215 1.43648C18.1816 1.15997 18.4191 0.999372 18.7648 1C18.9917 0.999582 19.1863 1.07082 19.2935 1.20001C19.3528 1.26429 19.392 1.34543 19.413 1.43648C19.4341 1.55598 19.4396 1.57811 19.439 1.83713L19.4383 2.28014L18.8872 2.27951Z" fill="#798086"/>
<path d="M10.3935 7.1281L9.94527 7.44992L9.04934 6.21004L8.86556 6.34324L9.7617 7.58354L9.31363 7.90558L7.20459 4.98407L7.65055 4.66056L8.58104 5.94892L8.76524 5.81635L7.83581 4.52989L8.28113 4.20617L10.3935 7.1281Z" fill="#798086"/>
<path d="M15.9671 4.82856L15.3883 4.94069L14.7333 3.20047L15.0806 4.9997L14.582 5.09644L13.8989 1.55763L14.4728 1.4474L15.1262 3.17961L14.7801 1.38797L15.284 1.2906L15.9671 4.82856Z" fill="#798086"/>
<path d="M27.1611 6.94806L26.6578 6.6412L27.3423 4.91384L26.391 6.47786L25.957 6.21421L27.8313 3.13674L28.3299 3.44044L27.6481 5.16295L28.5991 3.60293L29.0358 3.87017L27.1611 6.94806Z" fill="#798086"/>
<path d="M7.48665 8.46018L7.59898 8.5683C7.65673 8.63279 7.7111 8.69286 7.75388 8.75651C7.9168 8.99508 7.86854 9.27855 7.623 9.53104C7.46262 9.69838 7.27441 9.78563 7.10412 9.77341C7.01666 9.77109 6.93215 9.742 6.85164 9.69416C6.7863 9.6537 6.7235 9.60143 6.65627 9.54495L6.54435 9.43598L5.1091 8.05174L4.99719 7.94341C4.93923 7.87934 4.88317 7.81885 4.83891 7.75478C4.67916 7.51684 4.73143 7.23716 4.97612 6.98447C5.13713 6.81691 5.32176 6.72629 5.4912 6.73872C5.5793 6.74083 5.6636 6.76971 5.74411 6.81776C5.80924 6.85801 5.8712 6.91028 5.93716 6.96655L6.05139 7.07615L6.46406 7.47279L6.07331 7.87786L5.57171 7.39354C5.52935 7.35224 5.50617 7.33011 5.47919 7.31156C5.42777 7.27046 5.36918 7.27531 5.3285 7.3183C5.26106 7.38764 5.27729 7.43422 5.40985 7.56131L7.02382 9.11816C7.15576 9.24525 7.20107 9.25958 7.2702 9.19003C7.33469 9.12449 7.32268 9.08191 7.18421 8.95061L6.64826 8.43257L7.039 8.02813L7.48665 8.46018Z" fill="#798086"/>
<path d="M10.7668 2.72659L11.9411 5.40425C12.0142 5.57201 12.0513 5.60236 12.1348 5.5659C12.2246 5.52628 12.229 5.48328 12.1535 5.31089L10.9796 2.63323L11.4901 2.41067L12.6128 4.97368L12.6758 5.11678C12.7087 5.19199 12.7336 5.27048 12.75 5.35093C12.8071 5.63166 12.6598 5.87382 12.3331 6.01608C12.1204 6.10944 11.9166 6.11682 11.7615 6.04411C11.6859 6.00575 11.6182 5.94611 11.5615 5.87065C11.5138 5.8049 11.473 5.73433 11.4399 5.66011L11.3758 5.51532L10.2529 2.95252L10.7668 2.72659Z" fill="#798086"/>
<path d="M23.1357 5.02692L23.6504 5.21049L23.9872 4.45915L24.2831 4.56452L24.0818 5.36561L24.6016 5.55023L25.4098 2.01121L24.7025 1.75936L23.1357 5.02692ZM24.1784 4.02267L24.7168 2.82157L24.3965 4.10107L24.1784 4.02267Z" fill="#798086"/>
<path d="M30.5305 6.65238L30.9064 6.22855C30.9456 6.18408 30.9671 6.15963 30.9846 6.13139C31.0236 6.07955 31.0165 6.02264 30.9722 5.98344C30.9003 5.91895 30.8557 5.93665 30.7336 6.07301L29.241 7.74831C29.1192 7.88489 29.1066 7.93188 29.1789 7.99659C29.2465 8.05749 29.2887 8.0438 29.4158 7.90217L29.886 7.37401L29.8046 7.30235L30.1332 6.9348L30.6247 7.37359L29.374 8.77765L29.1508 8.57954L29.216 8.44971C29.0775 8.49228 28.9572 8.45751 28.825 8.33822C28.6781 8.20903 28.5833 8.01534 28.5894 7.85433C28.5845 7.77002 28.6138 7.68087 28.6585 7.59762C28.6969 7.53039 28.7464 7.46653 28.7997 7.39846L28.9053 7.28128L30.2318 5.79229L30.3355 5.67595C30.3973 5.61546 30.4544 5.55729 30.5168 5.51177C30.7458 5.34569 31.0295 5.38257 31.2892 5.61293C31.4574 5.76447 31.5558 5.94529 31.5507 6.11453C31.5526 6.20221 31.5265 6.28841 31.4803 6.37102C31.4175 6.47408 31.4074 6.49453 31.2359 6.68779L30.9412 7.01847L30.5305 6.65238Z" fill="#798086"/>
<path d="M4.61586 10.9686C4.61706 11.0201 4.60796 11.0713 4.58911 11.1191C4.57025 11.167 4.54201 11.2107 4.50604 11.2475C4.47008 11.2843 4.42712 11.3135 4.37969 11.3335C4.33226 11.3535 4.28132 11.3638 4.22986 11.3638C4.17839 11.3638 4.12745 11.3535 4.08002 11.3335C4.03259 11.3135 3.98963 11.2843 3.95367 11.2475C3.9177 11.2107 3.88946 11.167 3.87061 11.1191C3.85175 11.0713 3.84265 11.0201 3.84386 10.9686C3.84621 10.8678 3.88791 10.7719 3.96005 10.7015C4.03218 10.631 4.12902 10.5916 4.22986 10.5916C4.3307 10.5916 4.42753 10.631 4.49967 10.7015C4.5718 10.7719 4.6135 10.8678 4.61586 10.9686Z" fill="#798086"/>
<path d="M4.61586 28.7316C4.61706 28.7831 4.60796 28.8343 4.58911 28.8821C4.57025 28.93 4.54201 28.9737 4.50604 29.0105C4.47008 29.0473 4.42712 29.0765 4.37969 29.0965C4.33226 29.1165 4.28132 29.1268 4.22986 29.1268C4.17839 29.1268 4.12745 29.1165 4.08002 29.0965C4.03259 29.0765 3.98963 29.0473 3.95367 29.0105C3.9177 28.9737 3.88946 28.93 3.87061 28.8821C3.85175 28.8343 3.84265 28.7831 3.84386 28.7316C3.84621 28.6308 3.88791 28.5349 3.96005 28.4645C4.03218 28.394 4.12902 28.3546 4.22986 28.3546C4.3307 28.3546 4.42753 28.394 4.49967 28.4645C4.5718 28.5349 4.6135 28.6308 4.61586 28.7316Z" fill="#798086"/>
<path d="M21.59 3.11821L21.0576 3.02821L21.1316 2.58099L22.4062 2.80566L22.3316 3.25372L21.59 3.11821Z" fill="#798086"/>
<path d="M1.74597 25.7886L1.83132 26.0219L1.45575 26.1593C1.33267 25.9812 1.18346 25.9323 0.921697 25.9768L0.769531 25.5608L4.14964 24.3143L4.34164 24.8315L1.74597 25.7886Z" fill="#798086"/>
<path d="M2.50485 22.4003L2.84965 22.3889C3.11541 22.3817 3.13164 22.3815 3.24903 22.3507C3.33966 22.3265 3.42564 22.2856 3.48824 22.2245C3.60879 22.1124 3.67961 21.9214 3.67286 21.6955C3.66148 21.3438 3.48866 21.1111 3.21025 21.0649C3.13026 21.0497 3.04886 21.0431 2.96746 21.0453L2.81024 21.0502L0.816059 21.1085L0.66031 21.1132C0.578619 21.1159 0.497477 21.1276 0.418362 21.1482C0.332096 21.1696 0.252001 21.2108 0.184422 21.2685C0.0573359 21.3842 -0.00589106 21.5769 0.000431628 21.8089C0.00991566 22.1644 0.174727 22.3927 0.455455 22.4435C0.536281 22.4594 0.618649 22.4661 0.700986 22.4635L0.856946 22.4589L1.75814 22.4321C2.10504 22.4222 2.27744 22.2439 2.2688 21.9153C2.26543 21.8009 2.24541 21.7197 2.18893 21.63L2.95039 21.6068C3.07073 21.6053 3.10255 21.6038 3.13037 21.6196C3.16304 21.6403 3.1799 21.6717 3.18159 21.7147C3.18391 21.8059 3.14154 21.8342 2.9584 21.8407L2.48841 21.854L2.50485 22.4003ZM0.709838 21.6746L1.54591 21.6494C1.74086 21.6432 1.78048 21.6593 1.78322 21.7558C1.78448 21.8215 1.74802 21.8601 1.68374 21.873C1.65171 21.8738 1.61946 21.8799 1.55328 21.8808L0.716371 21.9061C0.602773 21.9098 0.565259 21.9056 0.53765 21.8905C0.522871 21.8791 0.510681 21.8647 0.501888 21.8482C0.493096 21.8317 0.4879 21.8136 0.486647 21.795C0.483907 21.702 0.527112 21.6801 0.709838 21.6746Z" fill="#798086"/>
<path d="M0.817626 18.1456L0.780744 18.3909L0.3841 18.33C0.363446 18.1144 0.255328 17.9999 0.00537109 17.9121L0.0726024 17.4754L3.6346 18.0141L3.55282 18.5591L0.817626 18.1456Z" fill="#798086"/>
<path d="M2.0203 13.4121L1.81608 13.3468C1.56338 13.2638 1.54821 13.2585 1.42723 13.2475C1.33366 13.24 1.23924 13.2496 1.15936 13.2857C1.00804 13.3504 0.87716 13.5066 0.806978 13.7211C0.699071 14.0564 0.782741 14.3336 1.02975 14.4712C1.09614 14.5098 1.16885 14.545 1.25146 14.5715L1.4011 14.6202L3.2977 15.2388L3.44586 15.287C3.52371 15.3119 3.60407 15.3282 3.68549 15.3355C3.77885 15.3437 3.86716 15.3328 3.9464 15.3016C4.10489 15.2356 4.22966 15.0756 4.30195 14.8548C4.41323 14.5173 4.33504 14.2467 4.08782 14.1043C4.02059 14.0642 3.94577 14.028 3.86337 14.0023L3.71521 13.9538L2.85827 13.6747C2.52844 13.5668 2.30588 13.6764 2.20282 13.9886C2.16741 14.0973 2.15877 14.1806 2.18174 14.2843L1.45716 14.0488C1.34335 14.0096 1.31279 14.0002 1.29214 13.9757C1.26832 13.9458 1.26305 13.9102 1.27591 13.8691C1.30457 13.7827 1.3541 13.7702 1.52861 13.8256L1.85149 13.9319L2.0203 13.4121ZM3.58896 14.7418L2.79357 14.4834C2.6081 14.4231 2.57607 14.3947 2.60621 14.3028C2.62686 14.2406 2.67449 14.2166 2.73919 14.2263C2.76975 14.2364 2.80221 14.2413 2.86459 14.263L3.66083 14.5218C3.76895 14.5565 3.80288 14.5732 3.82374 14.5966C3.83392 14.6123 3.84059 14.63 3.84332 14.6485C3.84605 14.667 3.84476 14.6859 3.83955 14.7039C3.8111 14.7922 3.76284 14.7983 3.58896 14.7418Z" fill="#798086"/>
<path d="M20.0073 18.9937C20.0086 18.9909 20.824 17.915 20.9184 17.8002C20.8286 17.8223 20.8767 17.73 20.8855 17.6573C20.9601 17.6419 21.5235 16.8026 21.7195 16.6328L21.7262 16.5816C21.7353 16.5797 21.8797 17.0389 21.9688 17.1325C21.8422 17.4783 21.7144 17.8273 21.5871 18.1713C21.5298 18.4602 21.5836 18.745 21.4955 19.0219C21.4059 19.306 21.0598 19.6552 20.7517 19.7425C20.5953 19.7899 20.4729 19.7872 20.3247 19.8597C20.0283 20.0432 19.7329 20.2282 19.4385 20.4148C19.0391 20.2306 19.9578 19.3576 20.0073 18.9937ZM23.6612 18.1397L23.6561 18.1774C23.7107 18.1738 23.6987 18.1633 23.6911 18.2145L23.6561 18.1774C23.6152 18.1801 23.6302 18.1679 23.6612 18.1397ZM13.3409 25.1534C13.4285 25.1111 13.5177 25.0698 13.6052 25.0264C13.9196 25.0055 14.1055 24.8708 14.3772 24.7709C14.4562 24.7416 14.5382 24.7151 14.6181 24.6885L14.6581 24.6866C14.5713 25.3166 14.124 25.941 14.3921 26.5312C14.4469 26.6136 14.504 26.6983 14.5576 26.7832C14.6446 26.814 14.7304 26.846 14.8202 26.877C14.9175 26.9242 14.9913 27.0195 15.0937 27.0585C15.1565 27.0545 15.1601 27.0956 15.201 27.1211C15.3816 27.2401 15.5205 27.1676 15.703 27.0195L15.7085 26.9796C15.8704 26.9695 15.9424 27.0292 16.1155 26.9533C16.1319 26.8254 16.0874 26.7451 16.1241 26.6039C16.0628 26.6075 16.2571 26.4917 16.3073 26.438C16.3812 26.434 16.3064 26.2966 16.2948 26.2443C16.2405 26.2479 16.2514 26.2603 16.258 26.2076L16.3132 26.1883C16.4392 25.9705 16.5673 25.7501 16.6925 25.533C16.8327 25.3604 16.9741 25.1905 17.1166 25.0205C17.1545 24.9349 17.16 24.8702 17.1402 24.7949C17.3912 24.7793 17.47 24.2029 17.4454 24.0406C17.536 24.0354 17.9585 23.593 18.0924 23.5055C18.2252 23.4453 18.3615 23.3852 18.496 23.3228L18.5128 23.3123C18.5786 23.3081 18.5598 23.2103 18.5763 23.1536C18.5851 23.0906 18.5581 23.1169 18.4996 23.1196L18.505 23.0821C18.5839 23.0874 18.6614 23.0939 18.7392 23.1013C18.9118 23.04 19.0827 22.9793 19.2526 22.9175C19.2595 22.8646 19.3441 22.8081 19.3177 22.7805C19.4353 22.7702 19.5559 22.7618 19.6743 22.7527C19.8931 22.704 20.5098 22.4117 20.6756 22.2416C20.702 22.2402 20.7298 22.2385 20.7555 22.2366C20.7494 22.2903 20.7382 22.277 20.7909 22.2737C20.7998 22.2123 20.8788 22.2075 20.9241 22.1875C20.9317 22.1367 20.918 22.1495 20.9707 22.1464L20.9646 22.1854C21.0543 22.1784 21.0116 23.0147 21.1488 23.1797L21.1888 23.1772C21.1679 23.2284 21.1488 23.2823 21.1273 23.3361C21.1184 23.3363 21.126 23.4912 21.0942 23.5713L21.1357 23.5694C21.1169 23.7011 21.5248 23.5224 21.588 23.5011L21.5941 23.4611C21.5926 23.4895 21.5918 23.518 21.5916 23.5464C21.5659 23.6678 21.487 23.7587 21.3878 23.8381C20.9245 24.2093 21.134 24.718 21.1888 25.1199C21.197 25.2531 21.2036 25.3899 21.2109 25.5275C21.2463 25.6089 21.2809 25.6923 21.3157 25.7752C21.3024 25.8593 21.29 25.948 21.2784 26.035C21.2643 26.2353 21.2973 26.4108 21.3625 26.5733L21.3564 26.6119C21.3981 26.6091 21.4881 26.3623 21.6443 26.2823L21.6331 26.3092C21.5842 26.4129 21.5351 26.5153 21.4877 26.6169C21.4135 26.8821 21.4527 27.3487 21.6371 27.485C21.6101 27.681 21.5709 27.8355 21.7802 27.8996C21.7859 27.8604 21.7911 27.822 21.7971 27.783C21.8097 27.6857 21.9026 27.5862 21.9484 27.5004C21.9937 27.3795 22.0405 27.2631 22.0871 27.1447C22.1743 27.1394 22.0221 27.0049 21.9924 26.959C21.9351 26.963 21.9817 26.8275 21.9789 26.7647C22.0316 26.7611 22.0871 26.7577 22.1423 26.7548C22.1787 26.4882 22.1161 26.2911 21.9899 26.1067C21.9324 26.1105 22.0068 26.0801 22.0352 26.065L22.0407 26.0258C22.1001 26.0228 22.0533 26.0342 22.0761 26.0635L22.071 26.1012C22.1233 26.0978 22.1178 26.0985 22.1324 26.0525C22.2578 25.6917 22.3926 25.3338 22.5484 24.9869C22.6146 24.9827 22.5889 24.952 22.5868 24.9035C22.6038 24.7728 22.6217 24.6451 22.6392 24.5178C22.6675 24.2042 22.6662 23.8362 22.7899 23.5386C22.7402 23.5414 22.7208 23.2044 22.6472 23.122C22.6555 23.0619 22.7004 23.0389 22.7446 22.9999C22.761 22.8834 22.7771 22.7637 22.7931 22.6475C22.8055 22.5599 22.9181 22.4646 22.988 22.4037C23.0055 22.2716 22.9817 22.1609 23.0013 22.0149C22.9345 22.0187 22.921 21.9866 22.8913 21.9457C22.8378 21.9485 22.8494 21.9609 22.8565 21.9097C22.9368 21.9038 23.0112 21.7898 23.0388 21.7276C23.0681 21.6134 23.0991 21.5006 23.1286 21.3885C23.368 20.8951 23.6675 20.8116 24.1141 20.5611C24.1805 20.513 24.245 20.4669 24.3093 20.4207C24.3202 20.3482 24.2203 20.3611 24.159 20.3545L24.1649 20.3124C24.2852 20.3041 24.872 19.7929 24.9632 19.6708C24.9942 19.5912 25.0269 19.5115 25.0585 19.4331C25.1559 19.3949 25.2602 19.4426 25.3279 19.4641L25.3335 19.4251C25.4221 19.3806 25.5083 19.3372 25.594 19.29C25.6023 19.2316 25.6257 19.2497 25.6817 19.2457C25.6908 19.1829 25.6216 19.1886 25.5704 19.1755C25.5803 19.1062 25.6471 19.1102 25.703 19.0906L25.7087 19.0516C25.6722 19.0539 25.641 19.0508 25.6334 19.0179C25.6651 18.7861 25.7997 18.7677 25.985 18.7998C25.9888 18.7728 26.2145 18.4337 26.2425 18.3983C26.2994 18.3943 26.3085 18.2819 26.3448 18.2354C26.3351 18.3039 26.4248 18.2436 26.4683 18.2269C26.4573 18.3022 26.569 18.1445 26.6048 18.1022C26.5429 18.1064 26.5357 18.0634 26.4948 18.0326L26.5001 17.9932C26.5684 17.9755 26.6396 17.9591 26.7087 17.9422L26.7144 17.9036C27.0946 17.8781 27.2957 17.6086 27.6512 17.5321C27.6626 17.4482 27.7254 17.4155 27.7939 17.3677C27.8 17.3295 27.8059 17.2876 27.8112 17.2494C27.7823 17.2507 27.7558 17.2526 27.7296 17.2539C27.7204 17.3255 27.6002 17.3772 27.5463 17.4227C27.4963 17.4252 27.4131 17.338 27.3581 17.3194L27.3642 17.2779C27.5166 17.268 27.5435 17.0766 27.7058 17.1409L27.7459 17.1373C27.7513 17.0941 27.7406 17.087 27.7161 17.0623C27.7307 16.9653 27.701 17.0153 27.6923 16.9487C27.701 16.8916 27.2755 17.0728 27.189 17.0969C27.1979 17.0343 27.2508 17.1302 27.2027 17.1017L27.2074 17.0633C27.3343 17.0549 27.404 16.8743 27.4666 16.7898C27.474 16.7337 27.424 16.735 27.3781 16.7245C27.1269 16.6675 26.2449 17.0239 25.9721 17.1232C25.7637 17.1963 25.5555 17.2714 25.3475 17.3479C25.2079 17.4235 25.0682 17.5011 24.9299 17.5791C24.4692 17.7883 23.9908 17.918 23.539 18.1471L23.5444 18.1081C23.4991 18.1112 23.4979 18.1013 23.4696 18.0748C23.4909 17.9199 23.5183 17.8048 23.4426 17.688C23.4667 17.6221 23.4932 17.5559 23.5164 17.4895C23.5604 17.151 23.6068 16.8155 23.6511 16.4758C23.5817 16.48 23.6789 16.4028 23.7084 16.356C23.7801 16.3514 23.7229 16.288 23.7078 16.2471C23.5798 15.9255 23.7415 15.5295 23.7166 15.1537C23.7031 14.9343 23.6047 14.8211 23.7141 14.5743C23.654 14.5785 23.6696 14.5518 23.6582 14.513C23.5594 14.1981 23.4235 14.3107 23.1587 14.2215C23.1628 14.1968 23.1672 14.1688 23.1697 14.1442C23.2277 14.1399 23.2985 14.0809 23.3429 14.0563C23.3661 13.8953 23.0877 13.7882 22.9853 13.7309C22.9798 13.7734 22.7172 13.8152 22.6536 13.8417C22.4966 13.9115 22.329 13.9713 22.1532 13.9606C22.0382 13.9538 21.937 13.8934 21.7992 13.9248C21.4316 14.0137 20.6341 14.7678 20.3032 15.0671L20.3454 15.0643C20.3357 15.1316 20.4385 15.1265 20.4958 15.1316C20.4926 15.1577 20.4889 15.1837 20.4849 15.2097C20.432 15.2131 20.4463 15.2001 20.4396 15.2506C20.3302 15.258 20.0659 15.368 19.9767 15.4458C19.7966 15.6091 19.7287 15.8806 19.5809 16.0707C19.4962 16.179 19.3234 16.2068 19.2669 16.3514C19.2661 16.3845 19.2661 16.4174 19.2652 16.4515L19.2604 16.4903C18.8625 16.5156 18.1054 18.3646 17.7193 18.6029C17.7136 18.6293 17.7113 18.6546 17.7075 18.6807L17.6673 18.6828C17.6494 18.9418 17.4951 19.0478 17.388 19.2582C17.325 19.3884 17.3041 19.4894 17.2167 19.604C17.2858 19.5992 17.2348 19.6398 17.2064 19.6807C17.2639 19.6778 17.1682 19.7749 17.1518 19.8407C17.0989 20.0508 16.9199 20.1935 16.8226 20.3811C16.6099 20.7899 16.3806 21.1423 16.2544 21.6014C16.0141 21.6169 16.1096 21.893 16.2055 21.9546L16.1998 21.9929C15.9351 22.0102 15.9058 22.2869 15.8914 22.4777L15.8516 22.48C15.8594 22.4216 15.8337 22.4448 15.7926 22.4574C15.447 22.575 15.1523 22.6684 14.863 22.9321C14.7881 22.9371 14.8636 22.9822 14.892 23.0063L14.887 23.0459C14.6347 23.0625 14.5011 23.0901 14.2579 23.2444C14.048 23.3816 13.7799 23.7123 13.512 23.676L13.4699 23.6796L13.4637 23.7176C13.3982 23.7224 13.4216 23.788 13.4075 23.8375C13.3984 23.9018 13.2494 23.9955 13.2066 24.059C13.1426 24.157 13.0424 24.2162 12.9666 24.31C12.8344 24.4828 12.7137 24.6754 12.6772 24.8875C12.6509 25.0483 13.1906 25.1802 13.3409 25.1534Z" fill="#2C71BC"/>
<path d="M39.5428 17.0186C39.3173 17.0051 39.1154 17.1589 38.9367 17.2949L38.7647 17.4226L38.0184 17.8614L37.3057 18.2778C36.8951 18.4703 36.5482 18.6018 36.2144 18.6937L35.9901 18.7754C35.933 18.8028 35.8799 18.8311 35.7785 18.8545L35.7646 18.8581L35.7598 18.8665L35.7208 18.8399L35.6822 18.8094C35.5675 18.7394 35.5366 18.5643 35.5366 18.3596C35.5366 18.2304 35.5482 18.0926 35.5602 17.9617C35.5711 17.8291 35.5827 17.6987 35.5827 17.5853C35.5823 17.5349 35.578 17.4847 35.5699 17.435C35.713 17.3853 35.7343 17.07 35.7518 16.7857C35.7591 16.6628 35.7667 16.5471 35.7829 16.502C35.8103 16.4329 35.8879 16.3675 35.9568 16.3102L35.9735 16.2959L35.9794 16.2676L35.9716 16.067C36.089 15.933 36.2576 15.3669 36.2593 15.3603C36.2675 15.3287 36.2711 15.2988 36.2711 15.2672C36.2711 15.2305 36.2643 15.1974 36.2584 15.1643C36.2976 15.1443 36.3136 15.0986 36.3227 15.0699L36.3313 15.0453L36.3364 15.0217L36.3457 15.0181L36.4268 14.9827L36.4049 14.9489C36.4091 14.9393 36.4793 14.7883 36.4942 14.754L36.5339 14.7293L36.5429 14.6998L36.5326 14.6701C36.5838 14.6415 36.6279 14.5772 36.6683 14.5184L36.7217 14.448L36.8949 14.2787C37.0066 14.1725 37.1111 14.0741 37.2028 13.9472L37.2909 13.723L37.3328 13.6142L37.3897 13.54C37.462 13.449 37.5436 13.3457 37.5436 13.211L37.5398 13.1622C37.5103 12.9552 37.3288 12.8785 37.1822 12.8163L37.1512 12.803L37.1564 12.7634L37.1103 12.7628L37.0808 12.7602C37.0436 12.7595 37.0066 12.7566 36.9697 12.7518C37.015 12.6979 37.0384 12.6102 37.0523 12.5476C37.0784 12.5418 37.1021 12.5281 37.1202 12.5084L37.1756 12.4496L37.0829 12.4346L37.0768 12.4135L37.0624 12.3617L37.0317 12.3611L36.8983 12.3528L36.85 12.486C36.8123 12.4753 36.7838 12.4544 36.7579 12.4026L36.7474 12.3817L36.7058 12.3771L36.7029 12.3731L36.705 12.3687L36.7113 12.3347L36.6458 12.3075L36.666 12.2721L36.6068 12.2639L36.6091 12.2496L36.6152 12.2047L36.6003 12.1577L36.5667 12.1423C36.5625 12.126 36.555 12.1106 36.5447 12.0973C36.5344 12.0839 36.5214 12.0728 36.5067 12.0645L36.4972 12.0588L36.5075 12.0171L36.4599 12.0024C36.4152 11.9994 36.3488 11.9745 36.2782 11.9482C36.1307 11.8932 35.9644 11.8312 35.8441 11.9033C35.788 11.9372 35.7547 12.0043 35.7347 12.0898C35.7149 12.082 35.6944 12.0768 35.6733 12.0618L35.6369 12.038L35.6282 12.0026L35.5644 11.9838H35.5018L35.4946 12.0217C35.4771 12.1668 35.4502 12.1977 35.3433 12.2707L35.2442 12.3358L35.3347 12.3455L35.3256 12.3596L35.2689 12.4664C35.1068 12.7664 34.9534 13.0673 34.9534 13.2349C34.9534 13.2543 34.9591 13.2688 34.9633 13.2854C34.9157 13.2829 34.7966 13.2751 34.7966 13.2751L34.7915 13.3156C34.7578 13.5978 34.6784 13.7006 34.5492 13.8732L34.44 14.0185L34.3028 14.2792L34.2583 14.3643C34.1532 14.4986 34.0779 14.6602 34.0052 14.8185C33.9317 14.9744 33.863 15.122 33.7643 15.2507L33.5595 15.4699C33.4821 15.5738 33.4132 15.715 33.342 15.8668C33.2579 16.0409 33.1704 16.2215 33.0739 16.33L33.06 16.3406L32.9236 16.4434C32.6939 16.6605 32.3866 16.9836 32.2816 17.3229L32.2427 17.3313L32.2363 17.3353C31.8557 17.5802 31.513 17.9798 31.2097 18.3324L31.0936 18.4658L30.9368 18.6604L30.8944 18.7133L30.7197 18.8385C30.6415 18.8859 30.5627 18.9354 30.4877 19.0119L30.3003 19.2549L30.2759 19.2863C30.2299 19.3308 30.1454 19.3205 30.0565 19.3116C29.9737 19.3038 29.8837 19.3009 29.8114 19.3451C29.8832 18.7896 30.015 18.3398 30.2584 17.8163L30.2974 17.7914L30.3081 17.7587L30.2989 17.7189L30.2929 17.7002C30.2895 17.6832 30.2879 17.666 30.2883 17.6487C30.2883 17.4382 30.4639 16.9488 30.5674 16.7267L30.5813 16.6972L30.5545 16.6812L30.5636 16.666L30.5926 16.6108L30.6245 16.4344L30.6614 16.2194C30.7109 15.9583 30.8182 15.4718 30.9931 15.1197L31.0462 15.1232L31.0422 15.071L31.0392 15.0425C31.033 14.9968 31.0298 14.9507 31.0298 14.9045C31.0298 14.739 31.0713 14.5746 31.149 14.4088L31.207 14.4126L31.1899 14.3289C31.0955 13.9801 30.7585 13.4353 30.2478 13.4321C29.6137 13.4288 28.9698 15.0278 28.8533 15.6014C28.8196 15.6078 28.7403 15.6234 28.7403 15.6234L28.7102 15.6301L28.7064 15.6605C28.6908 15.793 28.641 15.9018 28.5892 16.0171L28.5165 16.1924L28.3059 16.7372L28.1873 17.0365L28.2343 17.0491C28.2343 17.0491 28.2895 17.0639 28.3376 17.0776L28.1599 17.0683L28.1557 17.1077C28.1432 17.212 28.099 17.3151 28.056 17.4116L27.994 17.567L27.9837 17.6258L27.9369 17.9078L27.8503 18.0711L27.806 18.1592C27.7316 18.3539 27.6992 18.5419 27.6648 18.7417L27.6275 18.9506L27.5965 19.1053C27.5651 19.2576 27.5348 19.4081 27.5348 19.5514C27.5348 19.6992 27.5721 19.8438 27.6711 19.9784L27.6703 19.9875L27.5057 19.9424L27.4893 20.0562L27.5207 20.0718C27.5207 20.0718 27.5615 20.0897 27.5894 20.1011C27.5816 20.1666 27.5774 20.2324 27.5767 20.2984C27.5767 20.6569 27.6903 20.9665 27.9247 21.2546L27.9955 21.338C28.0665 21.4213 28.1219 21.4849 28.1624 21.6L28.1717 21.6272L28.6415 21.655L28.6429 21.635C28.6931 21.6542 28.9268 21.745 28.9268 21.745L28.9428 21.7431L29.1762 21.7203C29.3677 21.7098 29.5804 21.695 29.6898 21.6091C29.6982 21.6097 29.7119 21.6107 29.7342 21.6118L29.7302 21.6415L29.7233 21.721H29.7675C29.9766 21.7336 30.1092 21.6169 30.2384 21.5045L30.3918 21.3787L30.3966 21.3606L30.3985 21.3262C30.3985 21.2858 30.3851 21.2565 30.3737 21.2267C30.404 21.2213 30.4411 21.2038 30.4898 21.1757L30.5678 21.1336L30.564 21.1153L30.5454 21.0531L30.5149 21.0358C30.592 21.0291 30.6599 21.0116 30.7157 20.9901C30.7876 20.9631 30.8272 20.9211 30.8652 20.8807L30.9514 20.8021L31.149 20.6912C31.3265 20.5981 31.5257 20.4914 31.6374 20.3112C31.6675 20.303 31.7206 20.2691 31.8308 20.1386L31.8393 20.1287L31.8422 20.1011C31.8677 20.0864 31.888 20.0642 31.9006 20.0377L31.9198 20.0056L31.9217 20.0054C32.1689 19.9392 32.3276 19.6836 32.4814 19.4389C32.5826 19.2739 32.6882 19.1059 32.8106 19.0043L32.8235 18.9931L32.8248 18.9813L32.8593 18.9839L32.8638 18.9407L32.8703 18.889L32.8456 18.8642L32.8231 18.8532C32.8002 18.8429 32.7791 18.8289 32.7607 18.8119C32.8842 18.7788 32.9959 18.6956 33.0404 18.5887C33.0551 18.555 33.0621 18.5189 33.0621 18.484C33.0621 18.4456 33.0499 18.4077 33.0326 18.3704L33.2309 18.3522C33.2473 18.3817 33.2627 18.4233 33.2754 18.4665C33.3118 18.586 33.362 18.7381 33.4908 18.8275L33.4067 18.822L33.4018 18.8574L33.3679 18.8553L33.3628 18.8954L33.3595 18.9457C33.3595 19.1548 33.5135 19.3464 33.6699 19.4248L33.6743 19.4269L33.6712 19.4496L33.6564 19.456L33.6467 19.4924C33.6467 19.5396 33.6865 19.5989 33.7371 19.6741C33.7894 19.7529 33.8575 19.8587 33.8575 19.9276L33.8545 19.9449L33.8347 19.9664L33.8309 19.9858C33.8309 20.0296 33.9003 20.1049 34.3376 20.4231L34.3863 20.4585L34.4809 20.5709C34.5138 20.6174 34.5502 20.6617 34.5981 20.699C34.5876 20.7233 34.5731 20.7457 34.5553 20.7652L34.4777 20.8661L34.5608 20.8697C34.6052 20.8729 34.7098 20.946 34.7934 21.005C34.8801 21.0659 34.9625 21.1239 35.0272 21.1469L35.078 21.165L35.1051 20.9372C35.1551 20.9399 35.3694 20.9532 35.3694 20.9532L35.4352 20.9359L35.4558 20.8733C35.494 20.8927 35.5298 20.9184 35.5652 20.9504L35.7437 21.0845L35.7465 21.0086L35.7477 21.0027C35.8314 20.9871 35.9052 20.9235 35.9427 20.8834L36.0618 20.8872C36.4061 20.9072 36.5278 20.731 36.6795 20.5123L36.7394 20.4269L36.749 20.3315L36.7029 20.3312L36.6692 20.3291L36.6506 20.3083C36.6243 20.2931 36.5977 20.3091 36.5703 20.3262L36.5345 20.3209L36.5341 20.3175C36.5341 20.3003 36.5461 20.2516 36.6199 20.1319L36.7689 20.1816L36.775 20.1289L36.7823 20.1127C36.8062 20.1019 36.8776 20.1312 36.9324 20.1669L36.9488 20.209C36.9727 20.2316 37.0041 20.2309 37.034 20.2271C37.0441 20.2587 37.0605 20.2851 37.078 20.3045V20.3062C37.078 20.3256 37.0816 20.3458 37.0951 20.3605C37.1149 20.3801 37.1402 20.378 37.159 20.3761L37.2184 20.3738L37.2283 20.3346L37.234 20.2952L37.2224 20.2667L37.1918 20.2547L37.1864 20.2271L37.1954 20.2185L37.2053 20.1938L37.2827 20.1991V20.1976C37.3107 20.2018 37.3375 20.1837 37.3581 20.1685L37.3636 20.165L37.5274 20.1409L37.5242 20.0625L37.5339 20.0729L37.5362 20.0842L37.5339 20.0965C37.544 20.0802 37.602 20.032 37.8806 19.8893L37.9023 19.8762L37.9685 19.8798L37.9714 19.8395L37.9822 19.7481L37.9284 19.7542C37.9284 19.7542 37.7645 19.7725 37.74 19.7757L37.7472 19.7186L37.748 19.7068C37.7484 19.6968 37.7466 19.6869 37.743 19.6776C37.7393 19.6683 37.7338 19.6599 37.7267 19.6528C37.7017 19.6258 37.6616 19.621 37.6203 19.621L37.6235 19.6189L37.6243 19.6031L37.6338 19.5264C37.7959 19.5084 37.9771 19.3464 38.0604 19.2349L38.1124 19.2387L38.132 19.0808L38.0956 19.0793L38.1046 19.0406L38.1209 19.0351L38.1681 19.0163L38.3316 18.9413C38.5358 18.8522 38.6718 18.7862 38.7002 18.7282L38.8954 18.2707L38.8903 18.2646C38.9441 18.1923 39.2541 17.9413 39.3479 17.92L39.3774 17.9137L39.3806 17.8833L39.381 17.8719C39.381 17.8085 39.3281 17.7301 39.2798 17.6618C39.2798 17.6618 39.2627 17.6365 39.2505 17.6173C39.2619 17.5986 39.2775 17.5754 39.3009 17.5375C39.3628 17.4365 39.5085 17.1967 39.5546 17.1688L39.5723 17.1579L39.5877 17.0224L39.5428 17.0186Z" fill="#2C71BC"/>
<path d="M39.4819 15.4846H32.9918V8.99311H39.4819V15.4846ZM39.7409 8.47459H32.4736V16.0014H40.0001V8.47459H39.7409Z" fill="#EB222C"/>
<path d="M13.2445 14.6728C12.9927 14.6113 12.7379 14.5628 12.4811 14.5274L12.4672 14.5371L12.3817 14.6007L12.3793 14.6092C12.3459 14.6066 12.3124 14.6102 12.2803 14.6197L12.282 14.614L12.2478 14.6073L12.0946 14.5809C12.0584 14.5746 12.0181 14.6066 11.9791 14.6372L11.9555 14.6543L11.902 14.5824L11.887 14.6429L11.8813 14.6621L11.8697 14.6602C11.8657 14.6471 11.8425 14.6414 11.7568 14.7289C11.7361 14.7192 11.6843 14.6922 11.6843 14.6922L11.6642 14.7173C11.6537 14.7293 11.5922 14.7523 11.5688 14.7605L11.5669 14.7613L11.5631 14.7557C11.5549 14.7529 11.5431 14.7508 11.5256 14.7723L11.4893 14.7578L11.4609 14.7548L11.4484 14.7702L11.3698 14.8821L11.3622 14.8808L11.3635 14.8334L11.2729 14.8182L11.2524 14.8846L11.2362 14.8823L11.2301 14.8966L11.1561 14.8572L11.1481 14.8943C11.1462 14.9019 11.1302 14.9289 11.0202 14.9664L11.0052 14.9715L11.0008 14.9862C10.9964 15.0014 10.974 15.0164 10.9542 15.0296L10.9163 15.0583L10.9146 15.0648C10.8166 15.0598 10.7211 15.1002 10.6284 15.1388L10.4988 15.19L10.4929 15.2046C10.4676 15.2876 10.4286 15.406 10.3704 15.4587L10.3472 15.4311L10.3588 15.3915L10.3249 15.3869C10.2773 15.3782 10.2408 15.449 10.2138 15.5247L10.2134 15.5064L10.1889 15.504L10.1841 15.5034L10.1881 15.4908L10.1567 15.4754C10.1261 15.4699 10.1051 15.4861 10.0897 15.5095L10.0853 15.4659L10.0623 15.4587C10.0277 15.453 9.9491 15.4861 9.79104 15.5578L9.62243 15.6295L9.61548 15.644C9.59651 15.7072 9.54635 15.7525 9.49324 15.8027C9.45003 15.8404 9.40746 15.8813 9.37585 15.9323C9.27321 15.9171 9.20366 15.934 9.1221 16.0366L9.10355 16.0438C9.09027 16.0571 9.08585 16.0763 9.08585 16.0992L9.08943 16.1399L9.05697 16.1344L9.07742 16.1865L9.08205 16.1974C9.07594 16.208 9.06435 16.2122 9.034 16.2149L9.01672 16.2177L9.03821 16.17L9.03737 16.1696L9.03969 16.1662L8.983 16.1447L8.98047 16.1494C8.9733 16.1707 8.93515 16.1998 8.90438 16.224L8.75917 16.3561L8.87214 16.33L8.89321 16.3262C8.88855 16.3533 8.88426 16.3805 8.88036 16.4078C8.7655 16.4723 8.4658 16.8306 8.46264 16.835L8.42555 16.9054L8.39815 16.9602C8.37602 16.9635 8.3385 16.981 8.25568 17.0438L8.25378 17.0415L8.24851 17.0234L8.22617 17.0076C8.17411 16.9989 8.16189 17.0396 8.15599 17.0609L8.12269 17.1724C8.09065 17.2862 8.08201 17.3109 7.94355 17.3821L7.93512 17.274L7.88643 17.3726C7.88643 17.3726 7.78674 17.5511 7.7741 17.573L7.66282 17.4887C7.63584 17.5054 7.62741 17.533 7.6213 17.569L7.59116 17.564L7.58442 17.5861L7.5703 17.5836L7.56039 17.6028L7.46955 17.7566L7.38293 17.932L7.28367 18.0576C7.1863 18.1729 7.08766 18.2938 7.05963 18.453C6.94582 18.4865 6.83497 18.9012 6.49228 19.5103L6.28827 19.8583L6.27499 19.94V19.9462C6.27499 19.9715 6.27225 19.9805 6.23199 20.0018L6.22103 20.0077L6.21724 20.0199C6.1812 20.1367 6.1538 20.1999 6.07667 20.2897L6.06655 20.3129L6.05454 20.351L6.06655 20.3552C6.04456 20.3945 6.02236 20.4336 5.99995 20.4726L5.99489 20.5042C5.99489 20.5356 6.00986 20.5626 6.02229 20.5856L6.04547 20.6341L6.07266 20.6438L6.08678 20.6463C6.04189 20.7441 5.99742 20.8459 5.99742 20.9239C5.99703 20.9457 6.00134 20.9673 6.01007 20.9873C6.02271 21.0149 6.04969 21.0299 6.07983 21.0423C6.05032 21.1121 6.00311 21.2301 6.00206 21.3167L6.02229 21.3112L6.00775 21.3612L6.03915 21.3753L6.1028 21.3869C6.09985 21.4101 6.08446 21.5207 6.08446 21.5207L6.09732 21.5235L6.08257 21.5595C6.08257 21.5861 6.091 21.6257 6.10427 21.6801L6.0813 21.6674L6.03072 21.8839L6.01365 21.9509L6.01217 22.212C6.00775 22.27 5.97529 22.3307 5.94368 22.3852L5.93904 22.392L5.93799 22.4236L5.95401 22.4455L5.96201 22.4725L5.96939 22.5018L5.96201 22.505L5.94663 22.5555L6.01618 22.5404C6.0714 22.5273 6.15949 22.6603 6.20691 22.7319L6.23874 22.7787L6.23768 22.781L6.19237 22.8143L6.1968 22.824L6.19638 22.8287L6.21534 22.8599L6.21366 22.8875L6.22715 22.8923L6.21366 22.9975L6.21324 22.9983H6.21366L6.21176 23.0097L6.27288 23.0139L6.26023 23.0217L6.24548 23.0192L6.28152 23.0852L6.2929 23.0906L6.29101 23.1048L6.30513 23.1414C6.3829 23.2232 6.41388 23.2772 6.41388 23.356C6.41388 23.4173 6.39702 23.4881 6.37046 23.5948L6.36498 23.6184L6.3517 23.6333L6.33695 23.6538L6.3359 23.6532L6.33484 23.6561C6.3125 23.6846 6.25897 23.7547 6.25897 23.7547L6.25539 23.7668L6.25138 23.8121L6.27836 23.8226C6.33084 23.8317 6.3536 23.7771 6.37046 23.732L6.40819 23.7592L6.41893 23.7885L6.43242 23.7792C6.43242 23.7792 6.45856 23.7689 6.48258 23.7602L6.4575 23.8416L6.45265 23.858L6.47689 23.8698C6.48595 23.8883 6.49043 23.9087 6.48996 23.9292C6.49017 23.9558 6.48302 23.9818 6.46931 24.0045L6.46614 24.0279C6.46614 24.0675 6.49354 24.1151 6.53127 24.1756L6.55382 24.2131L6.54497 24.2125L6.53485 24.2458L6.62843 24.2625L6.63917 24.2431L6.67479 24.1781L6.7005 24.1847C6.7005 24.1847 6.77722 24.1944 6.80146 24.1969L6.80904 24.2515L6.83497 24.25L6.99894 24.2513L7.00547 24.2294C7.02423 24.1678 7.04214 24.1541 7.08535 24.1263L7.12265 24.1259C7.1492 24.1223 7.15511 24.1229 7.16396 24.1347L7.17154 24.144L7.1766 24.1448L7.17681 24.1457C7.17681 24.175 7.14309 24.2492 7.13171 24.2755L7.10178 24.3449L7.14035 24.3503L7.18503 24.3579L7.19346 24.3364L7.20758 24.3398L7.2177 24.3206L7.29125 24.2018L7.29947 24.1859L7.30074 24.1817L7.32013 24.1921H7.32434L7.32203 24.2144L7.29758 24.3495L7.27608 24.4715L7.30833 24.5659L7.349 24.6698L7.34711 24.6726L7.33509 24.7086L7.3549 24.7152L7.3412 24.759L7.38083 24.7472L7.45522 24.7299C7.49126 24.7267 7.57198 24.7278 7.58631 24.7668L7.59221 24.7834L7.66387 24.7957L7.68263 24.7723C7.69253 24.7411 7.75197 24.7482 7.77009 24.7512L7.82025 24.7689L7.81119 24.7982L7.84554 24.8037C7.87484 24.8089 7.89191 24.7923 7.90287 24.7708C7.92334 24.8019 7.95294 24.8258 7.98759 24.8393L8.02131 24.8703L8.06199 24.9082C8.16273 24.9493 8.26495 24.9257 8.35368 24.9057L8.46095 24.8829L8.50943 24.9643L8.52861 24.8968C8.54547 24.8382 8.61101 24.8127 8.7303 24.8153C8.77603 24.8231 8.81502 24.7605 8.86497 24.6726L8.88057 24.6462L8.96614 24.6294L8.96108 24.6441L8.99733 24.6492L8.95749 24.7453C8.92736 24.807 8.89638 24.8709 8.8871 24.9569L8.88415 24.9858L8.95918 24.9984L8.96698 24.9727C8.983 24.9213 9.02557 24.8648 9.06624 24.8252L9.07236 24.8277L9.08205 24.8288L9.11746 24.8996L9.13369 24.9354L9.18912 24.9436L9.28164 24.7931L9.28627 24.7786L9.37795 24.7626L9.47532 24.7459L9.67154 24.7575L9.76575 24.7242C9.81443 24.7004 9.84604 24.6865 9.86817 24.7027L9.90316 24.7278L9.91854 24.677C9.94552 24.6679 9.97777 24.6505 10.0087 24.6285L9.99357 24.6568L10.0996 24.6751L10.1046 24.6599L10.1356 24.6726L10.1955 24.7004L10.2035 24.6656L10.2184 24.6172L10.1881 24.6058L10.1864 24.5813L10.1879 24.5786L10.2035 24.5876L10.26 24.6226L10.2692 24.5834C10.2794 24.5489 10.3127 24.5206 10.3605 24.5044C10.4149 24.4861 10.4714 24.4896 10.4916 24.5042L10.5264 24.5291L10.5392 24.4882C10.5571 24.4287 10.6737 24.3935 10.7346 24.3815L10.7593 24.3769L11.0655 24.3061L11.1154 24.3002L11.123 24.2802L11.1378 24.2298L11.1336 24.2285L11.1462 24.2148C11.1957 24.2112 11.3932 24.1918 11.4451 24.171L11.459 24.1657L11.475 24.1143C11.5015 24.1094 11.5329 24.1038 11.5616 24.0997C11.6191 24.1109 11.7192 24.0302 11.7519 23.96L11.7547 23.9594C11.7804 23.9773 11.7993 23.9497 11.8337 23.8972L11.8472 23.878L11.8463 23.886L12.4109 23.5939L12.4442 23.5697H12.4799L12.4849 23.5448C12.5009 23.4635 12.5395 23.4053 12.5964 23.376C12.6502 23.3461 12.717 23.3471 12.7806 23.3796L12.8282 23.4019L12.823 23.3488C12.8207 23.3199 12.8323 23.1187 12.8457 23.09C12.8702 23.0626 12.9003 23.058 12.9393 23.0523C12.9787 23.046 13.024 23.0396 13.0628 23L13.0999 22.9478L13.1343 22.8991L13.2243 22.8616C13.2734 22.8464 13.3277 22.8304 13.3659 22.7865C13.4097 22.7334 13.426 22.6641 13.4411 22.5968L13.4843 22.4647C13.5282 22.3829 13.8747 22.1865 13.9366 22.2097L13.972 22.2217L13.9743 22.2032C14.0464 22.1612 14.3029 21.5182 14.3069 21.511L14.4618 21.5313L14.4665 21.5136V21.5085C14.6216 21.4822 14.7358 21.3597 14.8471 21.2349C14.948 21.1222 15.0096 20.871 15.1287 20.848L15.1514 20.841L15.1533 20.8168L15.1544 20.7982C15.1544 20.7555 15.1424 20.7262 15.1179 20.7083C15.0717 20.6745 15.0033 20.7013 14.948 20.7236L14.9031 20.7411L14.9008 20.7616C14.7972 20.7777 14.6971 20.8118 14.6051 20.8621L14.6058 20.8549L14.5697 20.8579C14.5326 20.8613 14.4976 20.8897 14.4681 20.9148L14.4275 20.9456L14.3227 20.9873L14.3183 20.9789C14.2936 20.9679 14.2753 20.9875 14.262 21.0021L14.2525 21.0109C14.0957 21.1437 13.7271 21.4238 13.5948 21.4309L13.5697 21.4326L13.5669 21.4543H13.5398L13.5263 21.4765C13.5132 21.4914 13.4283 21.5039 13.3724 21.5024H13.353L13.3423 21.5247C13.3161 21.5766 12.9467 21.8033 12.8849 21.7913C12.8392 21.7909 12.8299 21.8103 12.8268 21.8282L12.7621 21.8095L12.7461 21.8409C12.742 21.8758 12.6698 21.9446 12.2546 22.0434L12.2558 22.0373L12.2086 22.0299L12.1823 22.0316L12.1696 22.0541C12.1606 22.07 12.0942 22.0963 12.0653 22.1075L12 22.1353L12.0004 22.1427C11.9776 22.1448 11.9471 22.1625 11.8921 22.1985C11.8459 22.2278 11.7764 22.2727 11.75 22.2754L11.7285 22.2773L11.7245 22.2927C11.706 22.2927 11.6765 22.3014 11.6139 22.321L11.4885 22.356L11.4802 22.3741C11.3578 22.3642 11.1835 22.4188 11.0754 22.4816L11.0733 22.4744L11.0313 22.4575L11.0214 22.4565L10.9877 22.4508L10.9679 22.4738L10.9114 22.4807L10.8758 22.4816L10.8349 22.423L10.8086 22.4695C10.7966 22.4877 10.704 22.5117 10.6539 22.5248L10.5415 22.5621L10.511 22.5566L10.5004 22.5385C10.4756 22.526 10.4539 22.5465 10.4241 22.5829C10.4039 22.5728 10.3774 22.5589 10.3774 22.5589L10.3508 22.553L10.3242 22.5488L10.315 22.5737C10.3099 22.5901 10.2756 22.5949 10.2503 22.599L10.2022 22.6067L10.1993 22.6192C10.1736 22.6124 10.1108 22.5971 10.1108 22.5971L9.90168 22.643L9.78682 22.6344L9.64182 22.6242C9.37058 22.5646 9.03864 22.2978 8.98363 21.9753C8.97554 21.927 8.97173 21.8781 8.97225 21.8291C8.97225 21.7513 8.98005 21.6714 8.98932 21.5842L8.991 21.5688L8.99691 21.463C8.99901 21.3924 9.00133 21.3235 9.02325 21.2442L9.11451 21.0208L9.17162 20.8963L9.2338 20.6924L9.32063 20.5236L9.33348 20.398L9.33622 20.3702L9.35772 20.2817L9.37142 20.2296L9.3729 20.252C9.3729 20.2756 9.37121 20.3091 9.36489 20.3586L9.36046 20.3883L9.43254 20.4001L9.4416 20.3799L9.49113 20.2764L9.58302 20.1885L9.76216 19.9651L9.87702 19.7879C9.94805 19.6713 10.0292 19.5396 10.1057 19.492L10.1133 19.4869L10.1143 19.4848L10.1295 19.4937L10.1864 19.5263L10.1953 19.4884C10.2022 19.4661 10.2048 19.4437 10.2048 19.4214C10.2048 19.3855 10.1978 19.3501 10.1911 19.3143L10.1885 19.2994C10.2056 19.3227 10.2284 19.3491 10.2699 19.3468C10.3656 19.3407 10.6631 19.0679 10.7474 18.9573L10.7803 18.9803L10.8233 19.0254L10.8497 18.9868L10.9072 18.913C10.9475 18.8728 10.9938 18.8205 11.0183 18.7503L11.1475 18.7196C11.1572 18.7409 11.1719 18.7594 11.1905 18.7737L11.1808 18.8053L11.2242 18.8184L11.2598 18.826L11.2724 18.7847L11.2701 18.7855C11.2897 18.7711 11.3034 18.75 11.3087 18.7263L11.3188 18.6953L11.3835 18.6355L11.3907 18.6298L11.4181 18.6395L11.4271 18.6407C11.4488 18.6464 11.5277 18.732 11.5431 18.7651L11.5768 18.8391L11.6 18.7609C11.6037 18.7457 11.6111 18.7316 11.6213 18.7199C11.6316 18.7081 11.6445 18.6989 11.659 18.693C11.7034 18.6749 11.7654 18.6846 11.8002 18.7035L11.8175 18.7124L11.8375 18.6964C11.8621 18.6772 12.086 18.6102 12.1285 18.6062L12.3117 18.618C12.385 18.6289 12.4613 18.6399 12.5425 18.6249C12.6468 18.6055 12.749 18.5446 12.8462 18.485L13.0084 18.3944L13.2331 18.3204L13.4622 18.2424C13.6125 18.1708 13.7646 18.0936 13.8818 18.0083L14.1322 17.792L14.223 17.7353C14.286 17.6995 14.3493 17.663 14.4077 17.5977C14.4787 17.5166 14.5097 17.4127 14.5392 17.3117L14.5992 17.133L14.6753 17.0089C14.7345 16.847 14.7647 16.6864 14.7647 16.5247C14.7647 16.3985 14.7463 16.2672 14.7111 16.1327L14.6719 16.0048L14.5541 15.851C14.4511 15.7285 14.3545 15.6147 14.3545 15.4434C14.3545 15.4174 14.3569 15.3894 14.3615 15.3603L14.3674 15.3253L14.1678 15.3245L14.1609 15.3481L14.1531 15.3342C14.0747 15.2657 14.0721 15.2265 14.0675 15.1491L14.057 15.0446L14.0785 14.9725L14.0032 14.9597L13.9901 14.9852L13.9845 15.0035L13.9347 14.9947L13.9615 15.0549L13.9554 15.0566C13.9088 15.0589 13.8344 15.014 13.8253 14.9909L13.8192 14.9751L13.7573 14.9639L13.748 14.9898L13.7372 15.009L13.7309 15.0069L13.7044 15.0027L13.7016 15.0105C13.6677 14.9538 13.6407 14.9103 13.6173 14.8954L13.6095 14.8935L13.599 14.8737C13.5747 14.8581 13.5124 14.9146 13.5124 14.9146C13.3001 14.755 13.2445 14.6728 13.2445 14.6728Z" fill="#2C71BC"/>
</g>
<defs>
<clipPath id="clip0_544_437">
<rect width="40" height="37.5444" fill="white" transform="translate(0 1)"/>
</clipPath>
</defs>
</svg>
