<svg width="40" height="40" viewBox="0 0 40 40" fill="none" xmlns="http://www.w3.org/2000/svg">
<g clip-path="url(#clip0_544_437)">
<path d="M4.73691 14.0302C4.79597 14.0323 4.85485 14.0226 4.91004 14.0014C4.96523 13.9803 5.01559 13.9483 5.05813 13.9073C5.10067 13.8663 5.1345 13.8171 5.15761 13.7627C5.18072 13.7083 5.19263 13.6498 5.19263 13.5907C5.19263 13.5317 5.18072 13.4732 5.15761 13.4188C5.1345 13.3644 5.10067 13.3152 5.05813 13.2742C5.01559 13.2332 4.96523 13.2012 4.91004 13.1801C4.85485 13.1589 4.79597 13.1492 4.73691 13.1513C4.62313 13.1554 4.51539 13.2036 4.43636 13.2855C4.35732 13.3675 4.31316 13.4769 4.31316 13.5907C4.31316 13.7046 4.35732 13.814 4.43636 13.896C4.51539 13.9779 4.62313 14.0261 4.73691 14.0302ZM13.9608 3.203C13.9794 3.26574 14.0945 3.68514 14.0945 3.68514C14.1485 3.88845 14.1752 4.06388 14.1752 4.06388L11.8156 5.11529L11.9858 5.49693L13.38 4.87248C13.4049 4.92708 13.5995 5.36507 13.6222 5.41851L12.6143 5.86986L12.7869 6.24744L14.8874 5.30756L15.222 6.05168L15.6721 5.85186L15.1691 4.729L14.0764 5.21636L13.8319 4.67149L15.3434 3.99475L15.1749 3.6166L14.6196 3.86638C14.5942 3.64377 14.5481 3.42402 14.4819 3.20997L14.2931 2.59772L11.6687 3.77402L11.84 4.15159C11.84 4.15159 13.8906 3.23263 13.9608 3.203ZM9.60302 7.91459C9.32942 7.99766 9.03143 8.1969 8.69335 8.52801C8.35353 8.8597 8.14557 9.15363 8.05728 9.42606C7.96724 9.70431 7.99686 9.92447 8.14557 10.0772C8.29544 10.2306 8.51385 10.2643 8.79733 10.1783C9.0686 10.1028 9.37705 9.89775 9.7099 9.57187C10.041 9.25122 10.2548 8.94683 10.3419 8.67207C10.4319 8.39324 10.4012 8.17367 10.2536 8.02031L10.2513 8.01915C10.1003 7.86812 9.87952 7.83443 9.60302 7.91459ZM9.85513 8.73829C9.78077 8.90675 9.63555 9.09438 9.43689 9.2913C9.23357 9.48822 9.04362 9.62647 8.86878 9.69966C8.70613 9.76763 8.59111 9.76763 8.52721 9.69966C8.5103 9.68204 8.49715 9.66116 8.48856 9.63829C8.47997 9.61542 8.47613 9.59104 8.47726 9.56664C8.48146 9.4927 8.50167 9.42055 8.53651 9.3552C8.61202 9.18442 8.75492 8.99737 8.95823 8.80161C9.16154 8.60295 9.35324 8.4676 9.5217 8.39615C9.68551 8.32877 9.79936 8.32877 9.86616 8.39789C9.93297 8.46411 9.92948 8.57971 9.85513 8.73829ZM7.87429 8.0482L8.10375 8.28636L6.97043 9.3947L7.25681 9.68805L9.88824 7.12052L9.6036 6.82833L8.45925 7.94073L8.22689 7.70257L9.05873 6.89223L8.77351 6.59714L7.12379 8.20736L6.82463 7.896L8.4424 6.31947L8.15486 6.02612L6.19378 7.94248L7.06628 8.83704L7.87429 8.0482ZM36.6416 19.7694C36.0015 19.7618 35.201 19.9111 35.1941 20.7197C35.1825 21.4708 35.9277 21.688 36.6202 21.695C37.2005 21.702 38.0451 21.6038 38.0555 20.7517C38.0631 19.9489 37.2847 19.7752 36.6416 19.7694ZM36.6248 21.1409C36.2705 21.1368 35.599 21.1281 35.6065 20.7244C35.6088 20.3119 36.2803 20.3189 36.6335 20.3235C36.985 20.3276 37.6477 20.3305 37.6425 20.7482C37.6379 21.1548 36.9733 21.1432 36.6248 21.1409ZM3.5124 23.4266C4.3483 23.3413 4.88098 22.7993 4.795 21.9338C4.70729 21.0584 4.08632 20.643 3.24113 20.7278C2.4 20.8103 1.85571 21.3366 1.94574 22.2207C2.03288 23.0926 2.68115 23.5103 3.5124 23.4266ZM2.37909 22.1766C2.32332 21.6125 2.80314 21.354 3.3027 21.3029C3.78716 21.2541 4.30648 21.4296 4.35992 21.9767C4.41626 22.5257 3.94168 22.8004 3.45606 22.8498C2.9594 22.8986 2.4366 22.7406 2.37909 22.1766ZM5.61696 27.9924L5.23183 28.1969L5.51066 28.7139L4.874 29.0572C4.79453 28.9637 4.72521 28.8621 4.66721 28.754C4.38838 28.2323 4.59576 27.7235 5.093 27.4592C5.59256 27.192 6.14731 27.2989 6.45228 27.8687C6.55684 28.065 6.64397 28.3317 6.6614 28.5669L7.09068 28.3787C7.03341 28.1086 6.93693 27.8483 6.8043 27.6061C6.36282 26.7784 5.62103 26.5193 4.78629 26.9672C3.96143 27.4086 3.85745 28.1713 4.28266 28.9596C4.42324 29.221 4.6219 29.4621 4.83218 29.6828L6.14731 28.9799L5.61696 27.9924ZM5.72907 25.3749L3.75231 25.9866L5.41481 24.3601L5.2115 23.7055L2.56497 24.5274L2.72414 25.0351L4.71252 24.4159L3.04072 26.0528L3.24229 26.7017L5.88417 25.8809L5.72907 25.3749ZM3.17491 20.1243C4.26581 20.2329 4.6219 19.5173 4.70961 18.6721L4.78513 17.9181L2.03055 17.6427L1.95504 18.3979C1.87197 19.2413 2.08051 20.0157 3.17491 20.1243ZM2.37909 18.5483L2.40871 18.2393L4.2937 18.4269L4.26465 18.7348C4.2176 19.1972 3.83015 19.6085 3.23299 19.5481C2.62887 19.4888 2.33145 19.009 2.37909 18.5483ZM36.278 22.1841C35.6355 22.0807 34.9791 22.1469 34.8572 22.9079C34.7584 23.5248 35.1023 23.8792 35.6931 23.9744C36.1996 24.0534 36.5748 23.8251 36.6568 23.3087C36.6939 23.0775 36.637 22.8963 36.4662 22.7366L36.4773 22.7296C36.8781 22.8097 37.2928 23.0398 37.2179 23.5138C37.1888 23.6991 37.1162 23.8397 37.032 23.9762L37.4653 24.1173C37.5583 23.9422 37.6219 23.753 37.6536 23.5573C37.793 22.6738 37.0204 22.3003 36.278 22.1841ZM36.2664 23.1217C36.2263 23.3837 35.962 23.4545 35.6965 23.4121C35.4526 23.3732 35.2231 23.2251 35.262 22.9724C35.3085 22.7034 35.5525 22.6291 35.811 22.6709C36.0852 22.7145 36.31 22.8562 36.2664 23.1217ZM7.30793 30.5187L6.9652 30.7912L7.33697 31.2472L6.77525 31.7032C6.67877 31.6269 6.59144 31.5398 6.51502 31.4435C6.14325 30.984 6.25362 30.4461 6.69161 30.0923C7.13076 29.7363 7.6977 29.7409 8.10317 30.2422C8.2449 30.4147 8.38199 30.6605 8.43776 30.8893L8.82405 30.6221C8.72011 30.3669 8.57748 30.1293 8.40116 29.9175C7.81214 29.1867 7.03433 29.0694 6.2966 29.6654C5.57223 30.255 5.6129 31.0218 6.17694 31.7177C6.36282 31.9494 6.60273 32.1469 6.85019 32.3253L8.00848 31.3877L7.30793 30.5187ZM31.9016 9.08276L32.2327 9.41154C33.2353 8.72261 33.8081 8.17135 33.8081 8.17135L31.7227 6.13068L31.4328 6.43216L33.143 8.10396C33.143 8.10396 32.6091 8.60585 31.9016 9.08276Z" fill="#92837B"/>
<path d="M32.4148 10.1452L31.4145 9.16413C31.461 9.11824 32.2771 8.28176 32.2771 8.28176L31.9344 7.94077L31.0683 8.82837L30.7343 8.49959L31.5975 7.61548L31.2548 7.27566L30.3852 8.16384L29.7822 7.57307L29.4947 7.86874L32.1238 10.4409L32.4148 10.1452ZM27.1212 3.08048L25.9478 2.59253L25.802 2.94571L26.973 3.4354L27.1212 3.08048ZM27.4052 5.78103C27.4052 5.78103 27.7485 4.96314 27.7723 4.90389L28.2469 5.10023L28.4107 4.70697L27.9373 4.51121C27.9629 4.45196 28.3195 3.59747 28.3195 3.59747L27.8798 3.41565L26.9696 5.59863L27.4052 5.78103ZM35.1357 17.7346C35.0964 17.9293 35.0906 18.1292 35.1183 18.3259C35.2437 19.2135 36.093 19.3384 36.8359 19.2321C37.4807 19.1421 38.0889 18.8836 37.982 18.1226C37.8943 17.5016 37.461 17.2664 36.8667 17.3518C36.3602 17.4215 36.0727 17.7514 36.1441 18.2696C36.1778 18.5019 36.2876 18.6582 36.4955 18.7598L36.4874 18.7691C36.0785 18.8121 35.6167 18.7134 35.5493 18.237C35.5202 18.0511 35.5493 17.8966 35.5882 17.7433L35.1351 17.7351M37.0294 17.8879C37.2734 17.8536 37.5382 17.9257 37.5731 18.1813C37.6114 18.4502 37.3982 18.592 37.1398 18.6297C36.865 18.668 36.6077 18.6007 36.5705 18.3335C36.5345 18.0703 36.7645 17.9257 37.0294 17.8879ZM35.0985 14.0302C35.2103 14.0232 35.3152 13.9738 35.3918 13.8922C35.4685 13.8106 35.5111 13.7028 35.5111 13.5908C35.5111 13.4788 35.4685 13.371 35.3918 13.2894C35.3152 13.2078 35.2103 13.1584 35.0985 13.1513C35.0395 13.1492 34.9806 13.159 34.9254 13.1801C34.8702 13.2012 34.8198 13.2332 34.7773 13.2743C34.7348 13.3153 34.7009 13.3644 34.6778 13.4188C34.6547 13.4732 34.6428 13.5317 34.6428 13.5908C34.6428 13.6499 34.6547 13.7084 34.6778 13.7628C34.7009 13.8171 34.7348 13.8663 34.7773 13.9073C34.8198 13.9483 34.8702 13.9804 34.9254 14.0015C34.9806 14.0226 35.0395 14.0324 35.0985 14.0302ZM27.4075 3.80078L25.2362 2.89459L25.0869 3.24894L27.26 4.15803L27.4075 3.80078ZM19.9797 4.39096V3.96575C19.4163 4.03778 18.8505 4.02268 18.8505 4.02268V2.43976H19.8409L19.8391 2.01861H18.3765V4.4566C18.3765 4.4566 19.2757 4.47171 19.9797 4.39038V4.39096ZM26.4537 6.80688L26.9062 6.99509L27.3535 5.92567L24.8313 4.8702L24.6756 5.23209L26.7517 6.09878L26.4537 6.80688ZM20.6181 3.40868H21.0125V5.23848L21.4772 5.23964L21.4819 1.60386H21.0125V2.96488H20.6175V1.59979H20.1493V5.0526L20.6181 5.05376V3.40868ZM25.644 4.96546C25.9332 5.08745 26.1854 5.12927 26.402 5.08919C26.6146 5.04562 26.7569 4.93932 26.8284 4.77319C26.8952 4.60938 26.872 4.43453 26.7523 4.25271C26.6344 4.0767 26.4328 3.92858 26.1348 3.80601C25.8519 3.68751 25.6004 3.64743 25.3895 3.68344C25.1653 3.72004 25.0218 3.82111 24.9515 3.99015C24.9265 4.04811 24.9134 4.11056 24.9132 4.17371C24.9132 4.28408 24.9562 4.40258 25.0375 4.5205C25.1618 4.70058 25.3657 4.85045 25.644 4.96546ZM25.4232 4.18881C25.4534 4.11795 25.5133 4.07786 25.6033 4.06799C25.7044 4.05172 25.8328 4.07961 25.9948 4.14699C26.154 4.21379 26.2644 4.28815 26.3224 4.36308C26.377 4.43627 26.3869 4.5054 26.3614 4.57278C26.3306 4.64481 26.2702 4.68606 26.1778 4.70232C26.0837 4.71858 25.9524 4.69535 25.7927 4.62797C25.6347 4.56116 25.5255 4.48681 25.4645 4.40607C25.4087 4.32881 25.3942 4.25736 25.4232 4.18881Z" fill="#92837B"/>
<path d="M20.0023 0C8.97241 0 0 8.97183 0 20C0 31.027 8.97241 39.9994 20.0023 39.9994C31.0299 39.9994 40.0012 31.027 40.0012 19.9994C40.0012 8.97183 31.0299 0 20.0023 0ZM20.0023 39.2425C9.39123 39.2425 0.75806 30.6105 0.75806 20C0.75806 9.38774 9.39123 0.755155 20.0029 0.755155C30.6128 0.755155 39.2448 9.38716 39.2448 20C39.2448 30.6111 30.6134 39.2425 20.0023 39.2425Z" fill="#92837B"/>
<path d="M10.6001 32.1238L9.56441 33.3413C9.25887 33.7015 8.94461 33.8397 8.62047 33.5649C8.29692 33.2908 8.38463 32.9573 8.6896 32.5978L9.72474 31.3802L9.29953 31.0183L8.15576 32.3666C7.67711 32.9335 7.79735 33.4383 8.3399 33.8972C8.88071 34.3573 9.39944 34.3956 9.87693 33.8316L11.0242 32.4839L10.6001 32.1238ZM28.0442 34.7395L28.0419 34.732C28.3329 34.5286 28.4015 34.1888 28.2516 33.9001C27.899 33.217 27.2786 33.5591 26.7488 33.8316L26.2179 34.1081L27.4883 36.5676L27.9792 36.3114L27.4535 35.2908L27.6115 35.2094C27.8183 35.1008 27.9205 35.1392 28.0843 35.2832L28.7767 35.899L29.3274 35.6166L28.4352 34.8586C28.3306 34.7755 28.1831 34.6808 28.0442 34.7395ZM27.4169 34.8197L27.2525 34.9027L26.9103 34.2394L27.073 34.1551C27.3181 34.0297 27.6062 33.9117 27.7613 34.2086C27.9205 34.5141 27.6579 34.6948 27.4169 34.8197ZM25.4622 36.8586L25.2124 36.122L26.1488 35.8078L26.0105 35.3942L25.0753 35.709L24.8569 35.0619L25.8769 34.718L25.7387 34.3056L24.1889 34.8266L25.0759 37.4488L26.6315 36.9248L26.4909 36.5112L25.4622 36.8586ZM32.5165 29.6834L32.1854 29.3959L30.7796 31.0108L31.1061 31.2954L31.6301 30.6988L33.3867 32.2324L33.7515 31.8141L31.9931 30.2829L32.5165 29.6834ZM29.2269 33.2675C29.0503 33.0212 29.2002 32.8104 29.353 32.6983C29.5108 32.5859 29.6893 32.5058 29.8781 32.4624L29.651 32.0645C29.438 32.1347 29.2378 32.2386 29.0579 32.3724C28.6623 32.6593 28.4096 33.1264 28.7738 33.6248C29.3123 34.366 30.1645 33.4772 30.4741 33.9019C30.6245 34.1028 30.4584 34.3561 30.2882 34.4798C30.1128 34.6071 29.8961 34.6826 29.6823 34.7105L29.9333 35.145C30.1947 35.0404 30.3271 34.9928 30.5711 34.8156C31.0219 34.4851 31.2746 34.0169 30.9173 33.5254C30.3724 32.7744 29.511 33.655 29.2269 33.2675ZM30.1046 31.5928L31.9728 33.6358L32.3811 33.26L30.5113 31.2187L30.1046 31.5928ZM20.4404 35.3692L20.5542 38.1348L21.1102 38.1116L20.994 35.3477L20.4404 35.3692ZM22.9858 37.3018H22.9783L21.9188 35.2745L21.3303 35.3733L22.7303 37.9478L23.4006 37.8333L23.8624 34.9498L23.3187 35.0398L22.9858 37.3018ZM32.0617 18.9748C31.4976 18.9748 31.0346 19.4348 31.0346 20.0006C31.0346 20.2727 31.1427 20.5336 31.3351 20.726C31.5275 20.9184 31.7884 21.0265 32.0605 21.0265C32.3326 21.0265 32.5935 20.9184 32.7859 20.726C32.9783 20.5336 33.0863 20.2727 33.0863 20.0006C33.0863 19.4348 32.6257 18.9748 32.0617 18.9748ZM20.0024 10.8069C14.9278 10.8069 10.8069 14.9312 10.8069 20C10.8069 25.0683 14.9278 29.1926 20.0024 29.1926C25.0701 29.1926 29.1955 25.0683 29.1955 20C29.1955 14.9312 25.0701 10.8069 20.0024 10.8069ZM20.0024 28.743C15.1764 28.743 11.256 24.822 11.256 20C11.256 15.1757 15.1764 11.2547 20.0024 11.2547C24.8209 11.2547 28.7448 15.1757 28.7448 20C28.7448 24.8214 24.8209 28.743 20.0024 28.743Z" fill="#92837B"/>
<path d="M20.0034 12.2521C15.7304 12.2521 12.2515 15.7275 12.2515 20C12.2515 24.2724 15.7304 27.7467 20.0034 27.7467C24.2741 27.7467 27.749 24.2724 27.749 20C27.749 15.7275 24.2741 12.2521 20.0034 12.2521ZM20.0034 27.3017C15.9732 27.3017 12.6987 24.0284 12.6987 20C12.6987 15.9727 15.9732 12.6965 20.0034 12.6965C24.0301 12.6965 27.3052 15.9727 27.3052 20C27.3052 24.0284 24.0301 27.3017 20.0034 27.3017Z" fill="#92837B"/>
<path d="M20.0037 13.7003C16.5282 13.7003 13.6987 16.5263 13.6987 20C13.6987 23.4737 16.5282 26.2997 20.0037 26.2997C23.4751 26.2997 26.3034 23.4737 26.3034 20C26.3034 16.5263 23.4751 13.7003 20.0037 13.7003ZM20.2361 14.158C21.345 14.2016 22.3766 14.5542 23.2451 15.1339H20.2361V14.158ZM20.2361 16.6245H22.4864C22.5364 16.6245 22.9 16.7505 22.9 17.1833H20.2366V16.6245M20.2366 17.6544H22.9023C22.9023 18.1092 22.5294 18.212 22.4864 18.212H20.2366V17.6544ZM19.7673 14.1574V15.1333H16.7589C17.6523 14.5368 18.6938 14.199 19.7673 14.1574ZM16.6462 22.395V24.7854C15.9184 24.2776 15.3161 23.6106 14.8849 22.835C14.4538 22.0595 14.2053 21.1958 14.1582 20.3097C14.1112 19.4236 14.2668 18.5384 14.6134 17.7215C14.96 16.9047 15.4883 16.1776 16.1582 15.5957H19.7667V16.1551H17.4315C17.4315 16.1551 16.5927 16.2027 16.5927 17.4365C16.5927 18.668 17.4321 18.6779 17.4321 18.6779H19.7667V19.2373H17.6557C17.3519 19.2518 17.1144 19.3523 16.9261 19.5481C16.6462 19.8397 16.6462 20.2196 16.6462 20.2602V21.0485C16.6462 21.1809 16.7565 21.2907 16.8919 21.2907C16.9558 21.2903 17.0169 21.2645 17.0618 21.2191C17.1068 21.1737 17.1319 21.1124 17.1318 21.0485V20.2324C17.1318 20.2068 17.137 20.007 17.2793 19.8641C17.3874 19.752 17.5233 19.7049 17.7266 19.7014H19.7667V21.3709H17.6557C17.3519 21.3854 17.1144 21.4859 16.9261 21.6805C16.6462 21.9733 16.6462 22.3532 16.6462 22.3944M17.1022 17.1827C17.1022 16.7499 17.4658 16.6239 17.5157 16.6239H19.7667V17.1827H17.1022ZM19.7667 17.6532V18.2109H17.5157C17.4722 18.2109 17.0998 18.1086 17.0998 17.6532H19.7667ZM18.4045 25.6236C17.9608 25.4978 17.5335 25.3198 17.1318 25.0932V22.366C17.1318 22.341 17.137 22.1417 17.2793 21.9988C17.3874 21.8861 17.5233 21.8391 17.7266 21.8362H18.4045V25.6236ZM21.1236 25.7386C20.7606 25.8083 20.3859 25.8472 20.0025 25.8472C19.6174 25.8472 19.2416 25.8083 18.8774 25.738V21.8362H21.1236V25.7386ZM22.8698 25.0944C22.4685 25.3221 22.0412 25.5006 21.5971 25.6259V21.8373H22.2767C22.4777 21.8403 22.6125 21.8873 22.7223 22C22.864 22.1429 22.8698 22.3421 22.8698 22.3671V25.0944ZM23.3566 24.7877V22.3956C23.3566 22.3549 23.3566 21.9744 23.0754 21.6817C22.8861 21.4871 22.6485 21.3866 22.3453 21.3721H20.2366V19.7026H22.2767C22.4777 19.7061 22.6125 19.7531 22.7223 19.8652C22.864 20.0081 22.8698 20.208 22.8698 20.2335V21.0491C22.8698 21.1815 22.9767 21.2913 23.1103 21.2913C23.175 21.2915 23.2371 21.2661 23.2832 21.2208C23.3293 21.1754 23.3557 21.1137 23.3566 21.0491V20.2608C23.3566 20.2202 23.3566 19.8403 23.0754 19.5486C22.8861 19.3529 22.6485 19.2524 22.3453 19.2379H20.2366V18.6785H22.5701C22.5701 18.6785 23.4089 18.6686 23.4089 17.4371C23.4089 16.2033 22.5701 16.1557 22.5701 16.1557H20.2366V15.5969H23.844C24.4739 16.1446 24.9789 16.8211 25.3251 17.5807C25.6712 18.3402 25.8503 19.1653 25.8503 20C25.8503 21.9797 24.8623 23.7281 23.3566 24.7877Z" fill="#92837B"/>
<path d="M33.9631 20C33.9631 12.3032 27.6993 6.03778 20.0014 6.03778C12.3 6.03778 6.03857 12.3027 6.03857 20C6.03857 27.6968 12.3 33.9617 20.0014 33.9617C27.6993 33.9617 33.9631 27.6962 33.9631 20ZM20.0014 33.5812C12.5097 33.5812 6.41615 27.4877 6.41615 20C6.41615 12.5089 12.5097 6.41594 20.0014 6.41594C27.492 6.41594 33.5837 12.5089 33.5837 20C33.5837 27.4877 27.492 33.5812 20.0014 33.5812ZM34.4034 25.0235L34.7769 25.9913L35.2067 25.8385L34.9837 25.2757L37.0203 25.928L37.1887 25.3994L34.5538 24.5548L34.4034 25.0235ZM19.1521 37.4261L18.2733 35.2716L17.5936 35.2123L17.3525 37.9704L17.8841 38.0169L18.0647 35.9402L18.9465 38.1098L19.6227 38.1679L19.8631 35.4116L19.3334 35.3657L19.1521 37.4261Z" fill="#92837B"/>
<path d="M28.5287 12.4978C28.6971 12.498 28.8629 12.4566 29.0116 12.3774C29.1602 12.2982 29.287 12.1836 29.3808 12.0437C29.4746 11.9038 29.5324 11.7429 29.5492 11.5753C29.566 11.4077 29.5412 11.2386 29.4771 11.0829C29.4129 10.9271 29.3114 10.7896 29.1814 10.6825C29.0514 10.5753 28.8971 10.5019 28.732 10.4686C28.5669 10.4354 28.3961 10.4433 28.2348 10.4918C28.0735 10.5402 27.9266 10.6277 27.8072 10.7465C27.711 10.8412 27.6347 10.9542 27.5826 11.0788C27.5305 11.2033 27.5037 11.337 27.5037 11.472C27.5037 11.607 27.5305 11.7407 27.5826 11.8652C27.6347 11.9898 27.711 12.1027 27.8072 12.1975C27.9989 12.391 28.2545 12.4978 28.5287 12.4978ZM20.0024 8.96487C20.5647 8.96487 21.0276 8.50539 21.0276 7.94076C21.0267 7.66918 20.9184 7.409 20.7263 7.21701C20.5342 7.02503 20.2739 6.91684 20.0024 6.91608C19.7303 6.91608 19.4693 7.02392 19.2766 7.21599C19.0838 7.40805 18.9751 7.66868 18.9742 7.94076C18.9742 8.50539 19.4354 8.96487 20.0024 8.96487ZM16.0825 36.506C15.9571 36.9626 15.7293 37.2193 15.3216 37.1078C14.912 36.9945 14.8493 36.6576 14.9707 36.2022L15.3988 34.6616L14.8632 34.5124L14.3927 36.2184C14.1981 36.9341 14.5199 37.3395 15.2031 37.526C15.8897 37.7171 16.3765 37.5336 16.5728 36.8191L17.0433 35.1142L16.5072 34.9649L16.0825 36.506ZM12.8592 33.5946L11.3965 34.1237L11.9948 33.0938L11.5138 32.815L10.1284 35.2123L10.6082 35.4906L11.2507 34.377L11.2588 34.3817L11.4761 35.9919L12.104 36.3555L11.8095 34.4955L13.4488 33.9373L12.8592 33.5946ZM10.75 12.1998C10.9447 12.3814 11.2024 12.4802 11.4686 12.4753C11.7348 12.4705 11.9887 12.3624 12.1767 12.1738C12.3647 11.9853 12.4721 11.7311 12.4762 11.4649C12.4803 11.1987 12.3808 10.9413 12.1987 10.747C12.0053 10.556 11.7443 10.4489 11.4725 10.449C11.2006 10.4491 10.9397 10.5564 10.7465 10.7476C10.5552 10.9397 10.448 11.1998 10.4485 11.4708C10.4485 11.7473 10.5548 12.0041 10.7471 12.1981L10.7494 12.1998H10.75Z" fill="#92837B"/>
<path d="M20.0026 9.37555C14.1425 9.37555 9.37694 14.1429 9.37694 20C9.37694 25.8577 14.1425 30.6256 20.0026 30.6256C25.862 30.6256 30.6258 25.8577 30.6258 20C30.6258 14.1429 25.862 9.37555 20.0026 9.37555ZM20.0026 30.1778C14.3871 30.1778 9.82074 25.6131 9.82074 20C9.82074 14.3857 14.3871 9.82051 20.0026 9.82051C25.6122 9.82051 30.1797 14.3863 30.1797 20C30.1797 25.6131 25.6122 30.1778 20.0026 30.1778ZM7.94098 18.9747C7.66876 18.9747 7.40768 19.0829 7.21519 19.2754C7.02269 19.4679 6.91455 19.7289 6.91455 20.0012C6.91455 20.2734 7.02269 20.5345 7.21519 20.727C7.40768 20.9195 7.66876 21.0276 7.94098 21.0276C8.50793 21.0276 8.97032 20.5699 8.97032 20.0006C8.97032 19.4348 8.50735 18.9747 7.94098 18.9747ZM33.5832 27.181L33.277 27.6817L33.9143 28.8591L32.5805 28.8016L32.2378 29.3564L34.1942 29.3779L35.1243 29.9541L35.4153 29.4813L34.4853 28.905L33.5832 27.181Z" fill="#92837B"/>
<path d="M27.8073 27.8042C27.7119 27.899 27.6361 28.0118 27.5844 28.136C27.5327 28.2602 27.5061 28.3935 27.5061 28.528C27.5061 28.6626 27.5327 28.7958 27.5844 28.92C27.6361 29.0442 27.7119 29.157 27.8073 29.2518C27.9996 29.4429 28.2597 29.5501 28.5308 29.5501C28.8019 29.5501 29.062 29.4429 29.2543 29.2518C29.4489 29.0601 29.5558 28.8022 29.5558 28.5268C29.5565 28.3923 29.5301 28.2591 29.4783 28.135C29.4266 28.0108 29.3504 27.8984 29.2543 27.8042C29.1596 27.7086 29.047 27.6327 28.9228 27.5809C28.7986 27.5292 28.6654 27.5025 28.5308 27.5025C28.3963 27.5025 28.2631 27.5292 28.1389 27.5809C28.0147 27.6327 27.902 27.7086 27.8073 27.8042ZM10.7501 27.8019L10.7478 27.8042C10.5561 27.9947 10.4492 28.2527 10.4492 28.5274C10.4492 28.8022 10.5561 29.0601 10.7478 29.2524C10.941 29.4435 11.2018 29.5506 11.4736 29.5506C11.7454 29.5506 12.0062 29.4435 12.1994 29.2524C12.2949 29.1573 12.3707 29.0444 12.4224 28.9199C12.4741 28.7955 12.5007 28.6621 12.5007 28.5274C12.5007 28.3927 12.4741 28.2593 12.4224 28.1349C12.3707 28.0105 12.2949 27.8975 12.1994 27.8025C12.1043 27.7072 11.9914 27.6317 11.867 27.5801C11.7427 27.5286 11.6094 27.502 11.4748 27.502C11.3402 27.502 11.2069 27.5286 11.0825 27.5801C10.9582 27.6317 10.8452 27.7066 10.7501 27.8019ZM20.0025 31.0345C19.7305 31.0345 19.4696 31.1423 19.2769 31.3342C19.0842 31.5262 18.9754 31.7867 18.9743 32.0586C18.9753 32.3307 19.084 32.5914 19.2767 32.7834C19.4694 32.9755 19.7304 33.0833 20.0025 33.0833C20.2741 33.0827 20.5344 32.9747 20.7266 32.7828C20.9188 32.5909 21.0273 32.3308 21.0284 32.0592C21.0273 31.7877 20.9189 31.5277 20.7268 31.3359C20.5347 31.144 20.2746 31.0359 20.0031 31.0351L20.0025 31.0345Z" fill="#92837B"/>
</g>
<defs>
<clipPath id="clip0_544_437">
<rect width="40" height="39.9942" fill="white"/>
</clipPath>
</defs>
</svg>
