<svg width="40" height="40" viewBox="0 0 40 40" fill="none" xmlns="http://www.w3.org/2000/svg">
<g clip-path="url(#clip0_544_437)">
<path d="M0.0771484 20.0008C0.0771484 31.0031 8.99925 39.9236 20.0011 39.9236C31.0013 39.9236 39.9221 31.0031 39.9221 20.0008C39.9221 8.99715 31.0013 0.0771462 20.0011 0.0771462C8.99925 0.0771462 0.0771484 8.99715 0.0771484 20.0008Z" fill="url(#paint0_radial_544_437)"/>
<path d="M0 20.0008C0 31.0282 8.97206 39.9999 20.0009 39.9999C31.028 39.9999 39.9992 31.0282 39.9992 20.0008C39.9992 8.97269 31.028 3.36027e-05 20.0009 3.36027e-05C8.97206 3.36027e-05 0 8.97269 0 20.0008ZM0.153312 20.0008C0.153312 9.05745 9.05636 0.153946 20.0009 0.153946C30.9429 0.153946 39.8452 9.05745 39.8452 20.0008C39.8452 30.9442 30.9429 39.8469 20.0009 39.8469C9.05636 39.8469 0.153312 30.9442 0.153312 20.0008Z" fill="url(#paint1_radial_544_437)"/>
<path d="M0.864746 20.0005C0.864746 30.5684 9.43357 39.136 19.9997 39.136C30.566 39.136 39.1347 30.5684 39.1347 20.0005C39.1347 9.43191 30.566 0.864585 19.9997 0.864585C9.43357 0.864585 0.864746 9.43191 0.864746 20.0005Z" fill="url(#paint2_linear_544_437)"/>
<path d="M1.1001 20.0005C1.1001 30.4388 9.56391 38.9001 19.9998 38.9001C30.4373 38.9001 38.899 30.4388 38.899 20.0005C38.899 9.56108 30.4373 1.09936 19.9998 1.09936C9.56391 1.09936 1.1001 9.56108 1.1001 20.0005Z" fill="url(#paint3_radial_544_437)"/>
<path d="M6.81104 20.0006C6.81104 27.2845 12.716 33.1911 20.0008 33.1911C27.2839 33.1911 33.1879 27.2845 33.1879 20.0006C33.1879 12.7164 27.2839 6.80972 20.0008 6.80972C12.716 6.80972 6.81104 12.7164 6.81104 20.0006Z" fill="url(#paint4_linear_544_437)"/>
<path d="M7.13477 19.9888C7.13477 27.0935 12.8961 32.855 20.001 32.855C27.1048 32.855 32.8637 27.0935 32.8637 19.9888C32.8637 12.8835 27.1048 7.12217 20.001 7.12217C12.8961 7.12217 7.13477 12.8835 7.13477 19.9888Z" fill="url(#paint5_radial_544_437)"/>
<path d="M25.6974 14.1614V14.7959H17.9859V14.1614H16.1479V14.7959H11.3079V16.4283H12.764C11.7547 16.8698 11.103 17.8327 11.103 19.2399C11.103 21.1266 12.8786 22.2018 14.3082 22.2018H19.6465V21.6286H21.1583V22.2018H28.7924V20.5702H27.5352V16.4283H28.7924V14.7959H27.5352V14.1614H25.6974Z" fill="url(#paint6_radial_544_437)"/>
<path d="M25.1132 13.5386V14.2015H18.6635V13.544L15.5656 13.5386V14.2015H10.662V16.9793C10.662 16.9793 10.9772 16.9779 11.1372 16.9779C10.6486 17.5964 10.4097 18.3309 10.4097 19.2848C10.4097 20.0569 10.7442 20.9091 11.304 21.5636C11.9572 22.409 13.1037 22.9364 14.2924 22.9364H20.2897V22.3367H20.6303V22.9216L29.494 22.9364L29.4886 20.0587H28.2129V17.046H29.494L29.4994 14.2015H28.2564V13.5332L25.1132 13.5386ZM25.2712 14.3596V13.6967C25.4171 13.6967 27.952 13.6921 28.0976 13.6913V14.3596H29.3409C29.3409 14.5042 29.3359 16.7436 29.3353 16.8884H28.0548V20.2173H29.331C29.331 20.362 29.3352 22.6329 29.3352 22.7789C29.1806 22.778 20.9418 22.7643 20.7884 22.7643V22.1794H20.1322V22.7789H14.2924C13.151 22.7789 12.0533 22.2747 11.4269 21.4642C10.8875 20.8341 10.5681 20.0206 10.5681 19.2848C10.5681 18.3063 10.8171 17.5642 11.3514 16.9497L11.4658 16.8188L10.8195 16.8209V14.3596H15.724V13.697C15.8693 13.697 18.3594 13.7015 18.5049 13.7024V14.3596H25.2712Z" fill="url(#paint7_radial_544_437)"/>
<path d="M24.3362 15.8538V18.9029C24.088 18.7843 23.792 18.7152 23.4729 18.7152C22.5797 18.7152 21.8682 19.2518 21.8633 19.9101C21.8682 20.5685 22.5797 21.1058 23.4729 21.1058C24.3674 21.1058 25.0768 20.5685 25.083 19.9101H25.084V17.9665H25.7178V17.5365H25.084V16.9162H25.7178V16.4849H25.084V15.8538H24.3362ZM22.61 19.9101C22.61 19.4224 23.0188 19.1294 23.4729 19.1294C23.9285 19.1294 24.3362 19.4224 24.3362 19.9101C24.3362 20.3931 23.9285 20.6902 23.4729 20.6902C23.0188 20.6902 22.61 20.3931 22.61 19.9101ZM17.5041 15.8538V19.3681H18.251V17.5365H18.8607V17.1059H18.251V15.8538H17.5041ZM14.9446 16.2837H16.4072V15.8536H14.9446V16.2837ZM21.1588 17.1485C21.1588 17.8194 21.7997 18.3611 22.6434 18.3611C23.4902 18.3611 24.1292 17.8194 24.1292 17.1485C24.1292 16.4805 23.4902 15.9367 22.6434 15.9367C21.7997 15.9367 21.1588 16.4805 21.1588 17.1485ZM21.9216 17.1485C21.9216 16.6457 22.2451 16.308 22.6434 16.308C23.0424 16.308 23.3667 16.6457 23.3667 17.1485C23.3667 17.6641 23.0428 17.9919 22.6434 17.9919C22.2472 17.9919 21.9216 17.6641 21.9216 17.1485ZM14.3003 16.4628V16.8941H14.8184C14.5057 17.0855 14.3118 17.3795 14.3118 17.7114C14.3118 18.2883 14.8985 18.7568 15.6744 18.7568C16.45 18.7568 17.0367 18.2883 17.0367 17.7114C17.0367 17.3795 16.8425 17.0855 16.531 16.8941H17.0499V16.4628H14.3003ZM15.0127 17.7114C15.0127 17.282 15.3087 16.9564 15.6744 16.9564C16.0406 16.9564 16.336 17.282 16.336 17.7114C16.336 18.1487 16.0406 18.4671 15.6744 18.4671C15.3087 18.4671 15.0127 18.1487 15.0127 17.7114ZM14.8831 19.1567V20.1545C14.8831 20.6555 15.2092 20.9606 15.7382 20.9606L18.3004 20.9639V20.5323H15.6945V19.1567H14.8831Z" fill="url(#paint8_radial_544_437)"/>
<path d="M35.3062 22.8038C35.3004 23.3182 35.6214 23.7369 35.6214 23.7369C35.6214 23.7369 35.951 23.3243 35.9559 22.8101C35.9616 22.2975 35.6423 21.8766 35.6423 21.8766C35.6423 21.8766 35.3121 22.2905 35.3062 22.8038Z" fill="url(#paint9_radial_544_437)"/>
<path d="M36.0362 24.0179C35.4169 24.7204 35.2896 25.6194 35.2896 25.6194C35.2896 25.6194 36.1665 25.3827 36.7873 24.6818C37.407 23.9802 37.4985 23.1676 37.4985 23.1676C37.4985 23.1676 36.6569 23.317 36.0362 24.0179Z" fill="url(#paint10_radial_544_437)"/>
<path d="M34.3236 24.2163C34.5028 24.9907 35.0475 25.5246 35.0475 25.5246C35.0475 25.5246 35.2703 24.878 35.09 24.1059C34.9115 23.331 34.3555 22.9046 34.3555 22.9046C34.3555 22.9046 34.1455 23.4436 34.3236 24.2163Z" fill="url(#paint11_radial_544_437)"/>
<path d="M35.1534 26.5117C34.4215 27.0952 34.1396 27.9597 34.1396 27.9597C34.1396 27.9597 35.045 27.8771 35.7769 27.294C36.5044 26.7161 36.7382 25.9424 36.7422 25.9292V25.9289C36.7329 25.9289 35.8834 25.9316 35.1534 26.5117Z" fill="url(#paint12_radial_544_437)"/>
<path d="M33.4317 26.3918C33.4731 27.1846 33.9183 27.8063 33.9183 27.8063C33.9183 27.8063 34.2491 27.2086 34.2068 26.4133C34.1642 25.6217 33.6897 25.105 33.6897 25.105C33.6897 25.105 33.3903 25.5995 33.4317 26.3918Z" fill="url(#paint13_radial_544_437)"/>
<path d="M30.5754 32.7149C29.7139 32.9127 29.1201 33.5328 29.1201 33.5328C29.1201 33.5328 29.9249 33.8327 30.7837 33.6366C31.6459 33.4382 32.1618 32.8684 32.1618 32.8684C32.1618 32.8684 31.718 32.6558 31.1135 32.6558C30.9325 32.6554 30.752 32.6752 30.5754 32.7149Z" fill="url(#paint14_radial_544_437)"/>
<path d="M29.0756 31.8212C28.765 32.5705 28.8997 33.3369 28.8997 33.3369C28.8997 33.3369 29.4651 32.9319 29.7784 32.1853C30.0884 31.4397 29.88 30.7543 29.88 30.7543C29.88 30.7543 29.3868 31.0779 29.0756 31.8212Z" fill="url(#paint15_radial_544_437)"/>
<path d="M28.3565 34.2128C27.5203 34.2128 26.8438 34.6562 26.8438 34.6562C26.8438 34.6562 27.5257 35.1085 28.367 35.1108C29.2093 35.1129 29.8116 34.6931 29.8116 34.6931C29.8116 34.6931 29.2118 34.2136 28.3706 34.2128H28.3565Z" fill="url(#paint16_radial_544_437)"/>
<path d="M27.1971 32.9484C26.7263 33.6056 26.6836 34.3829 26.6836 34.3829C26.6836 34.3829 27.3288 34.1171 27.7974 33.4587C28.2709 32.8033 28.2227 32.09 28.2227 32.09C28.2227 32.09 27.6681 32.2918 27.1971 32.9484Z" fill="url(#paint17_radial_544_437)"/>
<path d="M24.8738 34.2616C24.7686 34.472 24.7221 34.6878 24.7319 34.8685C24.6275 34.7221 24.4613 34.5757 24.2496 34.4723C23.8078 34.2556 23.1811 34.2101 23.0538 34.4699C22.9239 34.7319 23.342 35.2005 23.7833 35.4173C23.9958 35.5212 24.21 35.5677 24.3924 35.5598C24.2437 35.6625 24.0994 35.8305 23.9967 36.041C23.7784 36.4834 23.7316 37.1088 23.9934 37.235C24.2532 37.3665 24.7221 36.9474 24.9384 36.5074C25.0419 36.295 25.0892 36.0802 25.0807 35.8987C25.1849 36.0476 25.3523 36.1906 25.5649 36.2947C26.0037 36.5124 26.6304 36.5574 26.7596 36.2975C26.8874 36.0374 26.4717 35.5677 26.0286 35.3499C25.8172 35.2457 25.6033 35.2021 25.4212 35.2102C25.5706 35.1048 25.7128 34.9384 25.8169 34.7272C26.0335 34.2862 26.0811 33.6594 25.8199 33.5307C25.7865 33.5149 25.7498 33.507 25.7128 33.5076C25.4462 33.5076 25.0641 33.8745 24.8738 34.2616ZM24.672 35.8598C24.6093 35.8292 24.5532 35.7866 24.5069 35.7343C24.4607 35.682 24.4252 35.6211 24.4026 35.555C24.3799 35.489 24.3705 35.4192 24.3749 35.3495C24.3793 35.2798 24.3973 35.2117 24.4281 35.149C24.459 35.0863 24.502 35.0302 24.5546 34.984C24.6072 34.9378 24.6683 34.9025 24.7346 34.88C24.8009 34.8575 24.8709 34.8483 24.9407 34.8529C25.0106 34.8575 25.0788 34.8758 25.1416 34.9068C25.2043 34.9376 25.2604 34.9805 25.3066 35.0331C25.3528 35.0856 25.3881 35.1467 25.4107 35.2129C25.4333 35.2791 25.4426 35.3491 25.4381 35.4188C25.4336 35.4886 25.4154 35.5569 25.3846 35.6196C25.3406 35.7085 25.2726 35.7833 25.1883 35.8356C25.1041 35.8879 25.0069 35.9155 24.9077 35.9155C24.8282 35.9155 24.7475 35.8975 24.672 35.8598Z" fill="url(#paint18_radial_544_437)"/>
<path d="M32.4865 27.5745C32.1918 27.6168 32.037 28.2385 32.1092 28.7374C32.1432 28.9753 32.2286 29.1828 32.342 29.3306C32.1678 29.2642 31.9442 29.2417 31.7065 29.277C31.2084 29.3468 30.653 29.6699 30.6962 29.963C30.7373 30.2573 31.3602 30.412 31.8584 30.3391C32.0976 30.3062 32.3042 30.2204 32.4535 30.1075C32.3872 30.2821 32.364 30.5065 32.3984 30.7452C32.4686 31.2416 32.791 31.7946 33.0862 31.7525C33.3798 31.7105 33.5337 31.0887 33.4624 30.5913C33.4279 30.3535 33.3423 30.1447 33.2302 29.996C33.4035 30.0632 33.6283 30.086 33.8642 30.0527C34.3636 29.981 34.9185 29.6568 34.8748 29.3634C34.8326 29.0709 34.2101 28.9168 33.7127 28.9878C33.4732 29.0215 33.2664 29.1069 33.1191 29.2192C33.184 29.0463 33.2085 28.8219 33.175 28.5844C33.1044 28.1038 32.8037 27.5718 32.5186 27.5718C32.5076 27.5718 32.4968 27.5727 32.4865 27.5745ZM32.2478 29.741C32.2046 29.4438 32.4121 29.169 32.7082 29.1235C32.8511 29.1036 32.9961 29.1412 33.1113 29.228C33.2265 29.3149 33.3026 29.4439 33.3228 29.5868C33.3331 29.6575 33.3294 29.7295 33.3119 29.7988C33.2944 29.868 33.2633 29.9332 33.2206 29.9904C33.1778 30.0477 33.1242 30.0959 33.0627 30.1324C33.0013 30.1689 32.9333 30.1929 32.8625 30.203C32.7198 30.2231 32.5749 30.1857 32.4597 30.0991C32.3444 30.0125 32.2682 29.8837 32.2478 29.741Z" fill="url(#paint19_radial_544_437)"/>
<path d="M4.16313 22.8101C4.17018 23.3244 4.49826 23.7371 4.49826 23.7371C4.49826 23.7371 4.81973 23.3182 4.81403 22.8038C4.80743 22.2905 4.47801 21.8766 4.47801 21.8766C4.47801 21.8766 4.15863 22.2975 4.16313 22.8101Z" fill="url(#paint20_radial_544_437)"/>
<path d="M3.33403 24.6818C3.94817 25.3765 4.81599 25.6152 4.83129 25.6193L4.83144 25.6185C4.82694 25.5882 4.69223 24.7081 4.08244 24.0179C3.46259 23.317 2.62207 23.1676 2.62207 23.1676C2.62207 23.1676 2.71238 23.9802 3.33403 24.6818Z" fill="url(#paint21_radial_544_437)"/>
<path d="M5.02954 24.1059C4.84952 24.878 5.07079 25.5246 5.07079 25.5246C5.07079 25.5246 5.61743 24.9907 5.79655 24.2163C5.97446 23.4436 5.7646 22.9046 5.7646 22.9046C5.7646 22.9046 5.20745 23.331 5.02954 24.1059Z" fill="url(#paint22_radial_544_437)"/>
<path d="M3.37744 25.9293C3.38299 25.9481 3.61776 26.7182 4.34097 27.294C5.07512 27.8771 5.9797 27.9597 5.9797 27.9597C5.9797 27.9597 5.69752 27.0952 4.96577 26.5117C4.23806 25.9334 3.39034 25.929 3.37744 25.9289V25.9293Z" fill="url(#paint23_radial_544_437)"/>
<path d="M5.91163 26.4133C5.87127 27.2086 6.201 27.8063 6.201 27.8063C6.201 27.8063 6.64578 27.1848 6.68779 26.3918C6.72874 25.5995 6.43052 25.105 6.43052 25.105C6.43052 25.105 5.95513 25.6217 5.91163 26.4133Z" fill="url(#paint24_radial_544_437)"/>
<path d="M7.9585 32.8684C7.9585 32.8684 8.47364 33.4382 9.3356 33.6366C10.1955 33.8327 10.9992 33.5328 10.9992 33.5328C10.9992 33.5328 10.4059 32.9127 9.54487 32.7149C9.35736 32.6722 9.17524 32.6558 9.00648 32.6558C8.40238 32.6558 7.9585 32.8684 7.9585 32.8684Z" fill="url(#paint25_radial_544_437)"/>
<path d="M10.3413 32.1853C10.6538 32.9319 11.2192 33.3369 11.2192 33.3369C11.2192 33.3369 11.3544 32.5705 11.0433 31.8212C10.7332 31.0779 10.2392 30.7543 10.2392 30.7543C10.2392 30.7543 10.0311 31.4397 10.3413 32.1853Z" fill="url(#paint26_radial_544_437)"/>
<path d="M11.7494 34.2128C10.9071 34.2136 10.3081 34.6931 10.3081 34.6931C10.3081 34.6931 10.9097 35.1129 11.7526 35.1108C12.5931 35.1085 13.2761 34.6562 13.2761 34.6562C13.2761 34.6562 12.5991 34.2128 11.7626 34.2128H11.7494Z" fill="url(#paint27_radial_544_437)"/>
<path d="M12.3211 33.4587C12.7889 34.1132 13.4285 34.3798 13.4357 34.3829L13.4359 34.3825C13.4347 34.3622 13.3882 33.5967 12.9228 32.9484C12.4506 32.2918 11.8969 32.09 11.8969 32.09C11.8969 32.09 11.8486 32.8033 12.3211 33.4587Z" fill="url(#paint28_radial_544_437)"/>
<path d="M14.3003 33.5307C14.0393 33.6594 14.085 34.2862 14.3026 34.7272C14.407 34.9384 14.5496 35.1048 14.6983 35.2102C14.5159 35.2021 14.3006 35.2457 14.09 35.3499C13.6479 35.5677 13.2321 36.0374 13.3599 36.2975C13.4892 36.5574 14.1146 36.5124 14.555 36.2947C14.7683 36.1906 14.9347 36.0476 15.0384 35.8987C15.0301 36.0802 15.0753 36.295 15.1803 36.5074C15.3978 36.9474 15.8655 37.3665 16.1276 37.235C16.3874 37.1088 16.3411 36.4834 16.1231 36.041C16.0199 35.8305 15.8765 35.6625 15.7274 35.5598C15.9098 35.5677 16.1245 35.5212 16.336 35.4173C16.7764 35.2005 17.1951 34.7319 17.0662 34.4699C16.9384 34.2101 16.312 34.2556 15.8705 34.4723C15.6572 34.5757 15.491 34.7221 15.3877 34.8685C15.3966 34.6878 15.351 34.472 15.2466 34.2616C15.055 33.8745 14.6741 33.5076 14.407 33.5076C14.3701 33.507 14.3336 33.5149 14.3003 33.5307ZM14.7347 35.6196C14.6729 35.4929 14.6636 35.3469 14.7089 35.2133C14.7543 35.0798 14.8506 34.9696 14.9769 34.9068C15.0397 34.8757 15.108 34.8574 15.1779 34.8528C15.2478 34.8482 15.3179 34.8574 15.3842 34.8799C15.4506 34.9024 15.5118 34.9377 15.5645 34.9839C15.6172 35.0301 15.6602 35.0862 15.6912 35.149C15.8204 35.4113 15.7128 35.7315 15.4491 35.8598C15.3225 35.9226 15.1762 35.9326 15.0422 35.8876C14.9083 35.8425 14.7977 35.7462 14.7347 35.6196Z" fill="url(#paint29_radial_544_437)"/>
<path d="M6.94479 28.5844C6.90969 28.8219 6.93504 29.0463 6.9997 29.2192C6.85314 29.107 6.64582 29.0215 6.40595 28.9878C5.90911 28.9168 5.28761 29.0709 5.24456 29.3634C5.20136 29.6568 5.7561 29.981 6.25429 30.0527C6.49071 30.086 6.71528 30.0632 6.88899 29.996C6.77603 30.1447 6.69187 30.3535 6.65572 30.5913C6.58507 31.0887 6.73943 31.7105 7.0348 31.7525C7.32792 31.7946 7.65075 31.2416 7.72231 30.7452C7.75606 30.5066 7.73326 30.2821 7.66635 30.1075C7.81396 30.2204 8.02278 30.3062 8.26085 30.3391C8.75934 30.412 9.38129 30.2573 9.42404 29.963C9.46514 29.6699 8.91085 29.3468 8.41386 29.277C8.17579 29.2417 7.95212 29.2642 7.77706 29.3306C7.89107 29.1828 7.97583 28.9753 8.00973 28.7374C8.08203 28.2385 7.92677 27.6168 7.63305 27.5745C7.62254 27.5727 7.6119 27.5718 7.60125 27.5718C7.31622 27.5718 7.01425 28.1038 6.94479 28.5844ZM7.25607 30.203C7.1854 30.1928 7.11745 30.1688 7.05609 30.1322C6.99474 30.0957 6.94119 30.0475 6.89852 29.9902C6.85585 29.933 6.8249 29.8679 6.80743 29.7986C6.78996 29.7294 6.78633 29.6574 6.79673 29.5868C6.83754 29.2896 7.11371 29.082 7.41163 29.1235C7.5541 29.1452 7.68228 29.2222 7.76831 29.3378C7.85434 29.4534 7.89129 29.5983 7.87112 29.741C7.85265 29.8704 7.78814 29.9889 7.68943 30.0747C7.59071 30.1604 7.46439 30.2078 7.33362 30.208C7.30827 30.208 7.28262 30.2066 7.25607 30.203Z" fill="url(#paint30_radial_544_437)"/>
<path d="M19.332 36.2545C19.332 36.3423 19.3493 36.4294 19.383 36.5106C19.4166 36.5918 19.466 36.6655 19.5282 36.7276C19.5904 36.7897 19.6642 36.8389 19.7455 36.8724C19.8267 36.9059 19.9138 36.9231 20.0017 36.9229C20.0894 36.9229 20.1762 36.9056 20.2573 36.872C20.3383 36.8384 20.4119 36.7891 20.4738 36.727C20.5358 36.6649 20.5849 36.5912 20.6183 36.5102C20.6517 36.4291 20.6688 36.3422 20.6686 36.2545C20.6687 36.1669 20.6515 36.0801 20.618 35.9992C20.5845 35.9182 20.5353 35.8447 20.4734 35.7827C20.4114 35.7208 20.3379 35.6716 20.257 35.6381C20.176 35.6046 20.0893 35.5873 20.0017 35.5874C19.9139 35.5872 19.8269 35.6043 19.7458 35.6377C19.6646 35.6711 19.5908 35.7202 19.5286 35.7822C19.4664 35.8441 19.4171 35.9177 19.3833 35.9987C19.3496 36.0798 19.3322 36.1667 19.332 36.2545Z" fill="url(#paint31_radial_544_437)"/>
<path d="M2.55403 17.32L3.89933 17.494L3.81248 18.1587L2.47692 17.9847L2.41602 18.6213L5.72438 19.0553L5.77448 18.4192L4.40427 18.2374L4.49173 17.5726L5.86254 17.7538L5.98045 17.1162L2.67179 16.6832L2.55403 17.32Z" fill="url(#paint32_radial_544_437)"/>
<path d="M3.18457 14.6499L6.141 16.4325L6.31742 15.8231L5.64941 15.442L5.83948 14.8793L6.59929 14.9876L6.82356 14.4018L3.42654 13.9424L3.18457 14.6499ZM4.58538 14.8856C4.41407 14.7927 4.10534 14.6346 3.90748 14.5321L3.91258 14.5179C4.13114 14.5608 4.45637 14.6249 4.65724 14.6574L5.34639 14.7761L5.19563 15.2212L4.58538 14.8856Z" fill="url(#paint33_radial_544_437)"/>
<path d="M4.91753 10.8428L6.93504 11.9199L6.92964 11.929L4.50725 11.5456L4.23633 12.0622L7.14026 13.7244L7.39588 13.217L5.42352 12.1348L5.45172 12.1477L7.79731 12.5156L8.11803 12.0181L5.21876 10.3617L4.91753 10.8428Z" fill="url(#paint34_radial_544_437)"/>
<path d="M6.8378 8.25039L7.31319 8.91255C7.45412 9.11177 7.603 9.30524 7.75948 9.49249L7.75453 9.49924C7.54324 9.38356 7.32767 9.27587 7.10827 9.17642L6.34141 8.82914L5.91748 9.36063L7.94114 10.1267L8.91202 10.9533L9.3301 10.4646L8.33852 9.6227L7.28664 7.76646L6.8378 8.25039Z" fill="url(#paint35_radial_544_437)"/>
<path d="M8.35645 6.74579L9.97687 9.78503L10.4373 9.35195L10.0508 8.66489L10.5039 8.28086L11.115 8.78251L11.6206 8.39637L8.94404 6.25001L8.35645 6.74579ZM9.42678 7.63821C9.32972 7.47065 9.14611 7.17693 9.0294 6.98656L9.04095 6.97606C9.20596 7.12667 9.45213 7.34809 9.60724 7.47965L10.1354 7.93824L9.77601 8.24141L9.42678 7.63821Z" fill="url(#paint36_radial_544_437)"/>
<path d="M11.8189 4.36359L12.177 5.01179C12.4716 5.54358 12.788 6.02407 12.974 6.31824L12.9648 6.32259C12.744 6.11527 12.3981 5.82605 12.1885 5.64934L11.1066 4.75646L10.605 5.06039L12.2223 7.97992L12.7054 7.68424L12.3366 7.01924C12.013 6.436 11.7455 6.00201 11.5715 5.71789L11.5796 5.71204C11.789 5.93811 12.1235 6.22883 12.3532 6.421L13.42 7.28596L13.9453 7.02914L12.3223 4.10661L11.8189 4.36359Z" fill="url(#paint37_radial_544_437)"/>
<path d="M14.9691 3.06448C14.3023 3.279 13.8019 3.96425 14.1553 5.11259C14.3191 5.65684 14.6142 6.07657 14.9675 6.25178C15.2447 6.39399 15.5488 6.40974 15.9083 6.29438C16.1365 6.22148 16.4083 6.07267 16.525 5.97291L15.9868 4.29248L15.1418 4.56355L15.3018 5.06369L15.5821 4.97398L15.8264 5.73439C15.8048 5.75089 15.7649 5.76904 15.7094 5.7866C15.4246 5.8775 15.0437 5.70244 14.8008 4.94623C14.5381 4.12446 14.7777 3.73398 15.1923 3.60047C15.3476 3.55082 15.4724 3.54152 15.5749 3.55562L15.5135 2.99353C15.481 2.98973 15.4484 2.98778 15.4157 2.98767C15.3027 2.98767 15.1497 3.00838 14.9691 3.06448Z" fill="url(#paint38_radial_544_437)"/>
<path d="M19.7847 4.50688C19.8032 5.00642 19.674 5.14323 19.4887 5.15028C19.3219 5.15568 19.1695 5.01347 19.1526 4.52939L19.0812 2.37477L18.439 2.42352L18.508 4.44343C18.5363 5.27104 18.8215 5.73743 19.5124 5.71328C20.1483 5.69078 20.4515 5.21959 20.4229 4.37337L20.354 2.36036L19.709 2.35602L19.7847 4.50688Z" fill="url(#paint39_radial_544_437)"/>
<path d="M21.4053 5.75015L21.968 5.81615L22.3085 3.57438L22.3172 3.57603L22.7686 5.95596L23.3392 6.07507L23.8992 2.78561L23.3425 2.66966L23.0274 4.91998L23.0185 4.91848L22.5404 2.53554L21.9677 2.46309L21.4053 5.75015Z" fill="url(#paint40_radial_544_437)"/>
<path d="M24.2661 6.3322L24.8749 6.53967L25.9462 3.38522L25.3381 3.17896L24.2661 6.3322Z" fill="url(#paint41_radial_544_437)"/>
<path d="M26.1885 7.09008L26.8221 7.41486L29.0072 4.8243L28.3986 4.47297L26.8661 6.60689L26.8581 6.60224L27.6811 4.10379L27.0354 3.81172L26.1885 7.09008Z" fill="url(#paint42_radial_544_437)"/>
<path d="M28.0469 8.1589L29.2399 9.05792L29.5834 8.59649L28.9027 8.08299L29.4396 7.37164L30.0428 7.82557L30.3637 7.39924L29.7614 6.94455L30.2184 6.33866L30.8525 6.81585L31.2 6.35951L30.0534 5.49544L28.0469 8.1589Z" fill="url(#paint43_radial_544_437)"/>
<path d="M29.9487 9.73316L30.4076 10.1853L31.3728 9.28762L31.4362 9.35618C31.5819 9.51444 31.5663 9.66895 31.3053 9.99297C31.0729 10.2762 30.8784 10.5566 30.8372 10.6484L31.2778 11.1851C31.3273 11.0587 31.5813 10.6725 31.8074 10.3761C32.0226 10.0884 32.1008 9.86262 32.0111 9.637L32.0196 9.63115C32.3639 9.77036 32.7133 9.68005 32.9721 9.43958C33.1812 9.24667 33.3027 9.0524 33.2973 8.78328C33.2947 8.49166 33.1305 8.21774 32.8906 7.95927C32.7238 7.78015 32.5408 7.60464 32.3936 7.46333L29.9487 9.73316ZM31.8131 9.03365L31.7351 8.9513L32.4568 8.27909C32.4902 8.29454 32.5372 8.3382 32.5738 8.37825C32.7637 8.59682 32.6933 8.81613 32.4892 9.0065C32.3747 9.11241 32.2423 9.17136 32.1146 9.17136C32.0054 9.17136 31.9002 9.12801 31.8131 9.03365Z" fill="url(#paint44_radial_544_437)"/>
<path d="M33.6159 10.3749C33.3646 10.5372 33.1646 10.8696 33.1781 11.3978C33.1768 11.7293 33.1579 11.9169 32.9561 12.0471C32.7749 12.165 32.5631 12.1248 32.3987 11.8697C32.2973 11.7127 32.2212 11.4938 32.2121 11.3437L31.6948 11.5648C31.6993 11.6896 31.783 11.946 31.926 12.1675C32.2761 12.7113 32.851 12.8718 33.3585 12.5451C33.651 12.357 33.8431 12.0405 33.8299 11.5312C33.8173 11.1138 33.8509 10.9752 34.0158 10.8696C34.1642 10.7736 34.3767 10.7948 34.5239 11.0253C34.6256 11.1827 34.6574 11.3315 34.6586 11.4407L35.179 11.2283C35.1755 11.1138 35.1128 10.9085 34.9972 10.7267C34.765 10.3662 34.4597 10.2066 34.1556 10.2066C33.9702 10.2066 33.7843 10.2663 33.6159 10.3749Z" fill="url(#paint45_radial_544_437)"/>
<path d="M32.8867 13.7645L33.1564 14.3475L36.1645 12.9458L35.8949 12.3633L32.8867 13.7645Z" fill="url(#paint46_radial_544_437)"/>
<path d="M36.0591 14.2645L36.2451 14.8178L33.6255 15.6227L33.8138 16.2363L36.4336 15.431L36.5866 15.9988L37.1544 15.8243L36.6263 14.0911L36.0591 14.2645Z" fill="url(#paint47_radial_544_437)"/>
<path d="M35.4092 17.6878L34.1548 17.8431L34.2385 18.4818L35.5136 18.3222L37.6018 18.8101L37.5499 18.1535L35.9999 17.9856L35.9983 17.9761L37.4573 17.399L37.3448 16.7187L35.4092 17.6878Z" fill="url(#paint48_radial_544_437)"/>
<path d="M17.8126 25.7122C17.6831 25.7472 17.561 25.8052 17.4521 25.8835C17.3434 25.9616 17.2537 26.0632 17.1899 26.1809C17.121 26.2998 17.0879 26.4461 17.0879 26.6136C17.0879 26.7542 17.1177 26.8742 17.1753 26.9735C17.2309 27.0705 17.3074 27.1538 17.3993 27.2173C17.4904 27.2821 17.594 27.3268 17.7077 27.3574C17.8163 27.3857 17.928 27.4005 18.0402 27.4015C18.1783 27.4015 18.3091 27.3766 18.436 27.3268C18.5615 27.277 18.6872 27.2168 18.8136 27.1463C18.783 27.6702 18.5343 27.933 18.0682 27.933C18.0211 27.933 17.9661 27.9285 17.9068 27.9199C17.8462 27.9125 17.7866 27.8981 17.7293 27.877C17.672 27.8579 17.6171 27.8321 17.5658 27.8001C17.5183 27.7717 17.477 27.734 17.4443 27.6892C17.4329 27.6723 17.4248 27.6511 17.4211 27.6288C17.4162 27.6092 17.4136 27.5892 17.4134 27.5691L17.3591 27.5388L17.0909 28.086L17.1269 28.1211C17.1503 28.1009 17.1803 28.0899 17.2112 28.0902C17.2352 28.0902 17.267 28.1037 17.3071 28.1283C17.3558 28.1592 17.4065 28.1869 17.4587 28.2113C17.5202 28.2446 17.5999 28.2698 17.6947 28.2926C17.7874 28.3136 17.9028 28.3245 18.037 28.3245C18.2308 28.3245 18.4072 28.2912 18.564 28.2278C18.719 28.1639 18.8578 28.0664 18.9705 27.9423C19.0835 27.8187 19.1704 27.6685 19.2316 27.4947C19.2932 27.3215 19.3241 27.1256 19.3241 26.9093C19.3241 26.7251 19.2961 26.558 19.2418 26.4041C19.193 26.2585 19.1157 26.1241 19.0145 26.0086C18.9168 25.898 18.7964 25.8098 18.6615 25.75C18.5249 25.6881 18.3738 25.6585 18.2095 25.6585C18.0754 25.658 17.9418 25.6761 17.8126 25.7122ZM17.9581 26.9683C17.8928 26.9546 17.8303 26.9296 17.7737 26.8942C17.72 26.8593 17.6758 26.8117 17.645 26.7556C17.6143 26.6969 17.5982 26.6256 17.5982 26.5389C17.5982 26.4528 17.6143 26.3817 17.645 26.3235C17.6764 26.2652 17.7202 26.2191 17.7737 26.1852C17.8279 26.1507 17.8893 26.1245 17.9581 26.111C18.0277 26.0958 18.0986 26.0879 18.1698 26.0875C18.2415 26.0875 18.3102 26.0962 18.3807 26.111C18.4495 26.1245 18.5109 26.1507 18.5649 26.1852C18.6194 26.2191 18.6615 26.2652 18.6933 26.3235C18.7239 26.3817 18.7389 26.4528 18.7389 26.5389C18.7389 26.6256 18.7239 26.6969 18.6933 26.7556C18.6628 26.8118 18.6186 26.8594 18.5649 26.8942C18.5084 26.9296 18.446 26.9547 18.3807 26.9683C18.2414 26.9978 18.0974 26.9978 17.9581 26.9683Z" fill="url(#paint49_radial_544_437)"/>
<path d="M22.6775 25.7122C22.5476 25.7472 22.4251 25.8053 22.3158 25.8835C22.2074 25.9618 22.118 26.0634 22.054 26.1809C21.9853 26.2998 21.9521 26.4461 21.9521 26.6136C21.9521 26.7542 21.9817 26.8742 22.0393 26.9735C22.0953 27.0703 22.172 27.1535 22.2639 27.2173C22.3543 27.2821 22.4584 27.3268 22.5718 27.3574C22.6808 27.3857 22.7928 27.4005 22.9053 27.4015C23.0421 27.4015 23.1741 27.3766 23.3008 27.3268C23.4303 27.2751 23.5562 27.2148 23.6777 27.1463C23.6474 27.6702 23.3999 27.933 22.9335 27.933C22.8857 27.933 22.8314 27.9285 22.7718 27.9199C22.7112 27.9125 22.6516 27.8981 22.5942 27.877C22.5351 27.8581 22.4817 27.8316 22.4307 27.8001C22.3801 27.769 22.3407 27.7317 22.3095 27.6892C22.297 27.6712 22.289 27.6505 22.2862 27.6288C22.2816 27.6092 22.2788 27.5892 22.278 27.5691L22.2246 27.5388L21.9553 28.086L21.9915 28.1211C22.0151 28.1009 22.0453 28.09 22.0764 28.0902C22.0996 28.0902 22.1313 28.1037 22.1713 28.1283C22.2091 28.1535 22.2597 28.1808 22.3224 28.2113C22.3849 28.2446 22.4649 28.2698 22.5591 28.2926C22.653 28.3136 22.7684 28.3245 22.9013 28.3245C23.0954 28.3245 23.272 28.2912 23.4289 28.2278C23.5835 28.1637 23.722 28.0662 23.8345 27.9423C23.9482 27.8187 24.0361 27.6685 24.0954 27.4947C24.1582 27.3215 24.1881 27.1256 24.1881 26.9093C24.1881 26.7251 24.1615 26.558 24.1074 26.4041C24.0574 26.2589 23.98 26.1246 23.8794 26.0086C23.7817 25.8978 23.6611 25.8096 23.5259 25.75C23.389 25.6881 23.238 25.6585 23.0741 25.6585C22.94 25.6579 22.8065 25.676 22.6775 25.7122ZM22.8233 26.9683C22.7574 26.9547 22.6945 26.9297 22.6374 26.8942C22.5845 26.8586 22.5407 26.8111 22.5094 26.7556C22.4796 26.6969 22.4628 26.6256 22.4628 26.5389C22.4628 26.4528 22.4796 26.3817 22.5094 26.3235C22.5411 26.2652 22.5859 26.2191 22.6374 26.1852C22.692 26.1507 22.7534 26.1245 22.8233 26.1109C22.892 26.0962 22.9611 26.0875 23.0342 26.0875C23.1066 26.0875 23.1747 26.0962 23.2445 26.1109C23.3132 26.1245 23.375 26.1507 23.4296 26.1852C23.4833 26.2191 23.5259 26.2652 23.5582 26.3235C23.5886 26.3817 23.6045 26.4528 23.6045 26.5389C23.6045 26.6256 23.5886 26.6969 23.5582 26.7556C23.5272 26.8115 23.4831 26.8591 23.4296 26.8942C23.3727 26.9295 23.31 26.9545 23.2445 26.9683C23.1754 26.983 23.1049 26.9904 23.0342 26.9903C22.9611 26.9903 22.892 26.983 22.8233 26.9683Z" fill="url(#paint50_radial_544_437)"/>
<path d="M20.1998 25.7159C20.0774 25.7532 19.9787 25.7948 19.9011 25.8428C19.8228 25.8897 19.7643 25.932 19.7235 25.9712C19.6828 26.0087 19.656 26.0283 19.6402 26.0283C19.613 26.0275 19.5867 26.0188 19.5643 26.0033L19.5112 26.0481L19.8706 26.558L19.9094 26.5268C19.9033 26.5096 19.8989 26.4918 19.8963 26.4737C19.8945 26.4575 19.8918 26.4415 19.8918 26.4269C19.8918 26.3876 19.9142 26.3476 19.9599 26.3075C20.0036 26.2685 20.0622 26.2298 20.1291 26.198C20.198 26.1644 20.2755 26.1375 20.3586 26.1191C20.4429 26.0984 20.525 26.0876 20.6054 26.0876C20.6744 26.0876 20.743 26.093 20.8091 26.1006C20.8723 26.1073 20.9341 26.1236 20.9923 26.1491C21.0479 26.1719 21.0926 26.2034 21.1255 26.2446C21.16 26.2871 21.1773 26.339 21.1773 26.4058C21.1773 26.4743 21.157 26.5337 21.1187 26.579C21.0805 26.6252 21.0329 26.6627 20.9791 26.689C20.9237 26.7157 20.8646 26.7341 20.8039 26.7436C20.7489 26.7531 20.6933 26.758 20.6375 26.7584C20.5649 26.7584 20.4993 26.749 20.4413 26.7251C20.3834 26.7044 20.3514 26.66 20.3448 26.594H20.291V27.2713H20.3448C20.3634 27.2113 20.3978 27.1744 20.45 27.16C20.5025 27.1438 20.5649 27.1372 20.6375 27.1372C20.6876 27.1372 20.7482 27.1411 20.8187 27.1497C20.8866 27.1579 20.953 27.1752 21.0163 27.2011C21.0764 27.2274 21.1301 27.2663 21.1739 27.3151C21.2154 27.3628 21.2374 27.4269 21.2374 27.508C21.2374 27.5907 21.2139 27.6578 21.1696 27.7109C21.124 27.7618 21.0688 27.8031 21.0071 27.8327C20.9421 27.863 20.8732 27.884 20.8024 27.8951C20.7391 27.9068 20.675 27.9131 20.6107 27.9138C20.5426 27.9138 20.4582 27.9012 20.3568 27.8819C20.2589 27.8586 20.1617 27.8267 20.0703 27.7851C19.9839 27.7482 19.9045 27.6968 19.8355 27.633C19.7692 27.5745 19.7361 27.5043 19.7361 27.4281V27.3942C19.7361 27.3766 19.7382 27.3655 19.741 27.3594L19.6912 27.3301L19.4307 28.0472L19.4724 28.0607C19.4838 28.0551 19.4947 28.0484 19.5045 28.0419C19.5168 28.035 19.5291 28.0314 19.5436 28.0314C19.566 28.0314 19.609 28.0476 19.6681 28.0781C19.7262 28.11 19.8 28.1456 19.8894 28.1831C19.9787 28.2209 20.0807 28.2551 20.198 28.2823C20.3219 28.3111 20.4489 28.3253 20.5762 28.3246C20.6942 28.3246 20.8226 28.3136 20.9573 28.2913C21.0929 28.2698 21.2179 28.2278 21.3303 28.1618C21.4434 28.097 21.5406 28.0076 21.6145 27.9002C21.6898 27.7914 21.7278 27.6512 21.7278 27.4822C21.7278 27.3318 21.6868 27.2086 21.6045 27.1102C21.5241 27.0122 21.4141 26.9429 21.291 26.9126V26.9027C21.3988 26.8762 21.484 26.8127 21.5475 26.7103C21.6108 26.6092 21.6411 26.4997 21.6411 26.3789C21.6411 26.2505 21.6108 26.1401 21.5497 26.0481C21.4887 25.9567 21.4076 25.8804 21.3126 25.8251C21.2136 25.7647 21.1054 25.721 20.9923 25.6956C20.8744 25.6694 20.7581 25.6586 20.6414 25.6586C20.468 25.6586 20.3211 25.677 20.1998 25.7159Z" fill="url(#paint51_radial_544_437)"/>
<path d="M16.071 25.6586V25.7159C16.1043 25.7232 16.1304 25.7331 16.1502 25.7478C16.1694 25.7598 16.1782 25.7904 16.1782 25.8354C16.1782 25.8863 16.162 25.9289 16.1263 25.9632C16.1097 25.9803 16.0899 25.9938 16.0679 26.003C16.0459 26.0121 16.0223 26.0166 15.9985 26.0163C15.9736 26.0163 15.9494 26.0105 15.9221 25.9979C15.8944 25.9881 15.8806 25.9662 15.8806 25.937H15.8276V26.5646H15.8806C15.8888 26.5394 15.9052 26.5176 15.9271 26.5027C15.9503 26.4875 15.9736 26.4769 16.0009 26.4673C16.0293 26.459 16.0563 26.4529 16.0855 26.4515C16.1137 26.4466 16.137 26.4461 16.1589 26.4461V28.1117C16.1589 28.169 16.147 28.2055 16.1247 28.2239C16.1028 28.2424 16.0747 28.2521 16.0461 28.2511V28.3112H16.7868V28.2511C16.7573 28.2518 16.7285 28.2422 16.7054 28.2239C16.6821 28.2055 16.6698 28.169 16.6698 28.1117V25.8267C16.6698 25.7927 16.6821 25.7685 16.7054 25.7513C16.7295 25.7358 16.7601 25.7232 16.7942 25.7159V25.6586H16.071Z" fill="url(#paint52_radial_544_437)"/>
</g>
<defs>
<radialGradient id="paint0_radial_544_437" cx="0" cy="0" r="1" gradientUnits="userSpaceOnUse" gradientTransform="translate(12.7035 11.1386) scale(32.829 32.8287)">
<stop stop-color="white"/>
<stop offset="0.258423" stop-color="white"/>
<stop offset="0.880489" stop-color="#AAABAB"/>
<stop offset="0.904495" stop-color="#AAABAB"/>
<stop offset="1" stop-color="#AAABAB"/>
</radialGradient>
<radialGradient id="paint1_radial_544_437" cx="0" cy="0" r="1" gradientUnits="userSpaceOnUse" gradientTransform="translate(12.2423 11.5463) scale(33.2466 33.2463)">
<stop stop-color="#96B2DD"/>
<stop offset="0.218182" stop-color="#0F579D"/>
<stop offset="0.247192" stop-color="#0F579D"/>
<stop offset="0.567413" stop-color="#004989"/>
<stop offset="0.905419" stop-color="#000039"/>
<stop offset="1" stop-color="#000039"/>
</radialGradient>
<linearGradient id="paint2_linear_544_437" x1="7.74825" y1="7.72916" x2="34.8716" y2="34.8525" gradientUnits="userSpaceOnUse">
<stop stop-color="#C9CACB"/>
<stop offset="0.747815" stop-color="#595757"/>
<stop offset="1" stop-color="#595757"/>
</linearGradient>
<radialGradient id="paint3_radial_544_437" cx="0" cy="0" r="1" gradientUnits="userSpaceOnUse" gradientTransform="translate(12.63 10.9793) scale(35.4971 35.4969)">
<stop stop-color="#96B2DD"/>
<stop offset="0.218182" stop-color="#0F579D"/>
<stop offset="0.247192" stop-color="#0F579D"/>
<stop offset="0.567413" stop-color="#004989"/>
<stop offset="0.905419" stop-color="#000039"/>
<stop offset="1" stop-color="#000039"/>
</radialGradient>
<linearGradient id="paint4_linear_544_437" x1="30.5141" y1="30.4585" x2="11.8811" y2="11.8257" gradientUnits="userSpaceOnUse">
<stop stop-color="white"/>
<stop offset="0.747815" stop-color="#595757"/>
<stop offset="1" stop-color="#595757"/>
</linearGradient>
<radialGradient id="paint5_radial_544_437" cx="0" cy="0" r="1" gradientUnits="userSpaceOnUse" gradientTransform="translate(12.7428 11.0487) scale(32.8275 32.8273)">
<stop stop-color="white"/>
<stop offset="0.258423" stop-color="white"/>
<stop offset="0.880489" stop-color="#AAABAB"/>
<stop offset="0.904495" stop-color="#AAABAB"/>
<stop offset="1" stop-color="#AAABAB"/>
</radialGradient>
<radialGradient id="paint6_radial_544_437" cx="0" cy="0" r="1" gradientUnits="userSpaceOnUse" gradientTransform="translate(13.7693 12.6269) scale(24.3314 24.3312)">
<stop stop-color="#96B2DD"/>
<stop offset="0.218182" stop-color="#0F579D"/>
<stop offset="0.247192" stop-color="#0F579D"/>
<stop offset="0.567413" stop-color="#004989"/>
<stop offset="0.905419" stop-color="#000039"/>
<stop offset="1" stop-color="#000039"/>
</radialGradient>
<radialGradient id="paint7_radial_544_437" cx="0" cy="0" r="1" gradientUnits="userSpaceOnUse" gradientTransform="translate(11.8915 12.1855) scale(32.9024 32.9022)">
<stop stop-color="#96B2DD"/>
<stop offset="0.218182" stop-color="#0F579D"/>
<stop offset="0.247192" stop-color="#0F579D"/>
<stop offset="0.567413" stop-color="#004989"/>
<stop offset="0.905419" stop-color="#000039"/>
<stop offset="1" stop-color="#000039"/>
</radialGradient>
<radialGradient id="paint8_radial_544_437" cx="0" cy="0" r="1" gradientUnits="userSpaceOnUse" gradientTransform="translate(12.7505 11.1251) scale(32.8228 32.8226)">
<stop stop-color="white"/>
<stop offset="0.10112" stop-color="white"/>
<stop offset="0.31041" stop-color="white"/>
<stop offset="1" stop-color="#949A9D"/>
</radialGradient>
<radialGradient id="paint9_radial_544_437" cx="0" cy="0" r="1" gradientUnits="userSpaceOnUse" gradientTransform="translate(12.1318 11.1918) rotate(83.0213) scale(33.3741 33.3744)">
<stop stop-color="white"/>
<stop offset="0.258423" stop-color="white"/>
<stop offset="0.880489" stop-color="#AAABAB"/>
<stop offset="0.904495" stop-color="#AAABAB"/>
<stop offset="1" stop-color="#AAABAB"/>
</radialGradient>
<radialGradient id="paint10_radial_544_437" cx="0" cy="0" r="1" gradientUnits="userSpaceOnUse" gradientTransform="translate(12.5242 11.1648) rotate(83.0213) scale(33.0157 33.016)">
<stop stop-color="white"/>
<stop offset="0.258423" stop-color="white"/>
<stop offset="0.880489" stop-color="#AAABAB"/>
<stop offset="0.904495" stop-color="#AAABAB"/>
<stop offset="1" stop-color="#AAABAB"/>
</radialGradient>
<radialGradient id="paint11_radial_544_437" cx="0" cy="0" r="1" gradientUnits="userSpaceOnUse" gradientTransform="translate(12.7487 11.0537) rotate(83.0213) scale(32.8028 32.803)">
<stop stop-color="white"/>
<stop offset="0.258423" stop-color="white"/>
<stop offset="0.880489" stop-color="#AAABAB"/>
<stop offset="0.904495" stop-color="#AAABAB"/>
<stop offset="1" stop-color="#AAABAB"/>
</radialGradient>
<radialGradient id="paint12_radial_544_437" cx="0" cy="0" r="1" gradientUnits="userSpaceOnUse" gradientTransform="translate(12.6405 11.2399) rotate(83.0213) scale(32.7821 32.7823)">
<stop stop-color="white"/>
<stop offset="0.258423" stop-color="white"/>
<stop offset="0.880489" stop-color="#AAABAB"/>
<stop offset="0.904495" stop-color="#AAABAB"/>
<stop offset="1" stop-color="#AAABAB"/>
</radialGradient>
<radialGradient id="paint13_radial_544_437" cx="0" cy="0" r="1" gradientUnits="userSpaceOnUse" gradientTransform="translate(12.7749 11.0999) rotate(83.0213) scale(32.8237 32.8239)">
<stop stop-color="white"/>
<stop offset="0.258423" stop-color="white"/>
<stop offset="0.880489" stop-color="#AAABAB"/>
<stop offset="0.904495" stop-color="#AAABAB"/>
<stop offset="1" stop-color="#AAABAB"/>
</radialGradient>
<radialGradient id="paint14_radial_544_437" cx="0" cy="0" r="1" gradientUnits="userSpaceOnUse" gradientTransform="translate(12.7207 11.037) rotate(83.0213) scale(32.9457 32.9459)">
<stop stop-color="white"/>
<stop offset="0.258423" stop-color="white"/>
<stop offset="0.880489" stop-color="#AAABAB"/>
<stop offset="0.904495" stop-color="#AAABAB"/>
<stop offset="1" stop-color="#AAABAB"/>
</radialGradient>
<radialGradient id="paint15_radial_544_437" cx="0" cy="0" r="1" gradientUnits="userSpaceOnUse" gradientTransform="translate(12.2335 11.0878) rotate(83.0213) scale(33.1475 33.1477)">
<stop stop-color="white"/>
<stop offset="0.258423" stop-color="white"/>
<stop offset="0.880489" stop-color="#AAABAB"/>
<stop offset="0.904495" stop-color="#AAABAB"/>
<stop offset="1" stop-color="#AAABAB"/>
</radialGradient>
<radialGradient id="paint16_radial_544_437" cx="0" cy="0" r="1" gradientUnits="userSpaceOnUse" gradientTransform="translate(12.7177 11.0415) rotate(83.0213) scale(32.8818 32.8821)">
<stop stop-color="white"/>
<stop offset="0.258423" stop-color="white"/>
<stop offset="0.880489" stop-color="#AAABAB"/>
<stop offset="0.904495" stop-color="#AAABAB"/>
<stop offset="1" stop-color="#AAABAB"/>
</radialGradient>
<radialGradient id="paint17_radial_544_437" cx="0" cy="0" r="1" gradientUnits="userSpaceOnUse" gradientTransform="translate(12.689 11.0487) rotate(83.0213) scale(32.8963 32.8966)">
<stop stop-color="white"/>
<stop offset="0.258423" stop-color="white"/>
<stop offset="0.880489" stop-color="#AAABAB"/>
<stop offset="0.904495" stop-color="#AAABAB"/>
<stop offset="1" stop-color="#AAABAB"/>
</radialGradient>
<radialGradient id="paint18_radial_544_437" cx="0" cy="0" r="1" gradientUnits="userSpaceOnUse" gradientTransform="translate(12.6279 11.1364) rotate(83.0213) scale(32.8683 32.8685)">
<stop stop-color="white"/>
<stop offset="0.258423" stop-color="white"/>
<stop offset="0.880489" stop-color="#AAABAB"/>
<stop offset="0.904495" stop-color="#AAABAB"/>
<stop offset="1" stop-color="#AAABAB"/>
</radialGradient>
<radialGradient id="paint19_radial_544_437" cx="0" cy="0" r="1" gradientUnits="userSpaceOnUse" gradientTransform="translate(12.8189 11.0926) rotate(83.0213) scale(32.8207 32.8209)">
<stop stop-color="white"/>
<stop offset="0.258423" stop-color="white"/>
<stop offset="0.880489" stop-color="#AAABAB"/>
<stop offset="0.904495" stop-color="#AAABAB"/>
<stop offset="1" stop-color="#AAABAB"/>
</radialGradient>
<radialGradient id="paint20_radial_544_437" cx="0" cy="0" r="1" gradientUnits="userSpaceOnUse" gradientTransform="translate(12.676 11.0983) rotate(96.9787) scale(32.8105 32.8107)">
<stop stop-color="white"/>
<stop offset="0.258423" stop-color="white"/>
<stop offset="0.880489" stop-color="#AAABAB"/>
<stop offset="0.904495" stop-color="#AAABAB"/>
<stop offset="1" stop-color="#AAABAB"/>
</radialGradient>
<radialGradient id="paint21_radial_544_437" cx="0" cy="0" r="1" gradientUnits="userSpaceOnUse" gradientTransform="translate(12.7455 11.1169) rotate(96.9787) scale(32.8444 32.8446)">
<stop stop-color="white"/>
<stop offset="0.258423" stop-color="white"/>
<stop offset="0.880489" stop-color="#AAABAB"/>
<stop offset="0.904495" stop-color="#AAABAB"/>
<stop offset="1" stop-color="#AAABAB"/>
</radialGradient>
<radialGradient id="paint22_radial_544_437" cx="0" cy="0" r="1" gradientUnits="userSpaceOnUse" gradientTransform="translate(12.6576 11.1101) rotate(96.9787) scale(32.8504 32.8506)">
<stop stop-color="white"/>
<stop offset="0.258423" stop-color="white"/>
<stop offset="0.880489" stop-color="#AAABAB"/>
<stop offset="0.904495" stop-color="#AAABAB"/>
<stop offset="1" stop-color="#AAABAB"/>
</radialGradient>
<radialGradient id="paint23_radial_544_437" cx="0" cy="0" r="1" gradientUnits="userSpaceOnUse" gradientTransform="translate(12.6713 10.8909) rotate(96.9787) scale(33.1211 33.1214)">
<stop stop-color="white"/>
<stop offset="0.258423" stop-color="white"/>
<stop offset="0.880489" stop-color="#AAABAB"/>
<stop offset="0.904495" stop-color="#AAABAB"/>
<stop offset="1" stop-color="#AAABAB"/>
</radialGradient>
<radialGradient id="paint24_radial_544_437" cx="0" cy="0" r="1" gradientUnits="userSpaceOnUse" gradientTransform="translate(12.8384 11.2234) rotate(96.9787) scale(32.6496 32.6499)">
<stop stop-color="white"/>
<stop offset="0.258423" stop-color="white"/>
<stop offset="0.880489" stop-color="#AAABAB"/>
<stop offset="0.904495" stop-color="#AAABAB"/>
<stop offset="1" stop-color="#AAABAB"/>
</radialGradient>
<radialGradient id="paint25_radial_544_437" cx="0" cy="0" r="1" gradientUnits="userSpaceOnUse" gradientTransform="translate(12.6969 11.3377) rotate(96.9787) scale(32.485 32.4852)">
<stop stop-color="white"/>
<stop offset="0.258423" stop-color="white"/>
<stop offset="0.880489" stop-color="#AAABAB"/>
<stop offset="0.904495" stop-color="#AAABAB"/>
<stop offset="1" stop-color="#AAABAB"/>
</radialGradient>
<radialGradient id="paint26_radial_544_437" cx="0" cy="0" r="1" gradientUnits="userSpaceOnUse" gradientTransform="translate(12.7241 11.0644) rotate(96.9787) scale(32.8727 32.873)">
<stop stop-color="white"/>
<stop offset="0.258423" stop-color="white"/>
<stop offset="0.880489" stop-color="#AAABAB"/>
<stop offset="0.904495" stop-color="#AAABAB"/>
<stop offset="1" stop-color="#AAABAB"/>
</radialGradient>
<radialGradient id="paint27_radial_544_437" cx="0" cy="0" r="1" gradientUnits="userSpaceOnUse" gradientTransform="translate(12.7702 11.0783) rotate(96.9787) scale(32.8948 32.895)">
<stop stop-color="white"/>
<stop offset="0.258423" stop-color="white"/>
<stop offset="0.880489" stop-color="#AAABAB"/>
<stop offset="0.904495" stop-color="#AAABAB"/>
<stop offset="1" stop-color="#AAABAB"/>
</radialGradient>
<radialGradient id="paint28_radial_544_437" cx="0" cy="0" r="1" gradientUnits="userSpaceOnUse" gradientTransform="translate(12.8091 11.2354) rotate(96.9787) scale(32.6621 32.6623)">
<stop stop-color="white"/>
<stop offset="0.258423" stop-color="white"/>
<stop offset="0.880489" stop-color="#AAABAB"/>
<stop offset="0.904495" stop-color="#AAABAB"/>
<stop offset="1" stop-color="#AAABAB"/>
</radialGradient>
<radialGradient id="paint29_radial_544_437" cx="0" cy="0" r="1" gradientUnits="userSpaceOnUse" gradientTransform="translate(12.6905 11.0926) rotate(96.9787) scale(32.8491 32.8493)">
<stop stop-color="white"/>
<stop offset="0.258423" stop-color="white"/>
<stop offset="0.880489" stop-color="#AAABAB"/>
<stop offset="0.904495" stop-color="#AAABAB"/>
<stop offset="1" stop-color="#AAABAB"/>
</radialGradient>
<radialGradient id="paint30_radial_544_437" cx="0" cy="0" r="1" gradientUnits="userSpaceOnUse" gradientTransform="translate(12.7702 11.0474) rotate(96.9787) scale(32.8709 32.8712)">
<stop stop-color="white"/>
<stop offset="0.258423" stop-color="white"/>
<stop offset="0.880489" stop-color="#AAABAB"/>
<stop offset="0.904495" stop-color="#AAABAB"/>
<stop offset="1" stop-color="#AAABAB"/>
</radialGradient>
<radialGradient id="paint31_radial_544_437" cx="0" cy="0" r="1" gradientUnits="userSpaceOnUse" gradientTransform="translate(12.8028 10.9724) scale(32.9542 32.9539)">
<stop stop-color="white"/>
<stop offset="0.258423" stop-color="white"/>
<stop offset="0.880489" stop-color="#AAABAB"/>
<stop offset="0.904495" stop-color="#AAABAB"/>
<stop offset="1" stop-color="#AAABAB"/>
</radialGradient>
<radialGradient id="paint32_radial_544_437" cx="0" cy="0" r="1" gradientUnits="userSpaceOnUse" gradientTransform="translate(12.7686 11.1288) scale(32.8677 32.8675)">
<stop stop-color="white"/>
<stop offset="0.258423" stop-color="white"/>
<stop offset="0.880489" stop-color="#AAABAB"/>
<stop offset="0.904495" stop-color="#AAABAB"/>
<stop offset="1" stop-color="#AAABAB"/>
</radialGradient>
<radialGradient id="paint33_radial_544_437" cx="0" cy="0" r="1" gradientUnits="userSpaceOnUse" gradientTransform="translate(12.7519 11.0709) scale(33.1457 33.1454)">
<stop stop-color="white"/>
<stop offset="0.258423" stop-color="white"/>
<stop offset="0.880489" stop-color="#AAABAB"/>
<stop offset="0.904495" stop-color="#AAABAB"/>
<stop offset="1" stop-color="#AAABAB"/>
</radialGradient>
<radialGradient id="paint34_radial_544_437" cx="0" cy="0" r="1" gradientUnits="userSpaceOnUse" gradientTransform="translate(12.7216 11.1244) scale(32.907 32.9068)">
<stop stop-color="white"/>
<stop offset="0.258423" stop-color="white"/>
<stop offset="0.880489" stop-color="#AAABAB"/>
<stop offset="0.904495" stop-color="#AAABAB"/>
<stop offset="1" stop-color="#AAABAB"/>
</radialGradient>
<radialGradient id="paint35_radial_544_437" cx="0" cy="0" r="1" gradientUnits="userSpaceOnUse" gradientTransform="translate(12.7244 11.0925) scale(32.6395 32.6392)">
<stop stop-color="white"/>
<stop offset="0.258423" stop-color="white"/>
<stop offset="0.880489" stop-color="#AAABAB"/>
<stop offset="0.904495" stop-color="#AAABAB"/>
<stop offset="1" stop-color="#AAABAB"/>
</radialGradient>
<radialGradient id="paint36_radial_544_437" cx="0" cy="0" r="1" gradientUnits="userSpaceOnUse" gradientTransform="translate(12.7266 11.1035) scale(33.0369 33.0367)">
<stop stop-color="white"/>
<stop offset="0.258423" stop-color="white"/>
<stop offset="0.880489" stop-color="#AAABAB"/>
<stop offset="0.904495" stop-color="#AAABAB"/>
<stop offset="1" stop-color="#AAABAB"/>
</radialGradient>
<radialGradient id="paint37_radial_544_437" cx="0" cy="0" r="1" gradientUnits="userSpaceOnUse" gradientTransform="translate(12.7635 11.1528) scale(33.0271 33.0268)">
<stop stop-color="white"/>
<stop offset="0.258423" stop-color="white"/>
<stop offset="0.880489" stop-color="#AAABAB"/>
<stop offset="0.904495" stop-color="#AAABAB"/>
<stop offset="1" stop-color="#AAABAB"/>
</radialGradient>
<radialGradient id="paint38_radial_544_437" cx="0" cy="0" r="1" gradientUnits="userSpaceOnUse" gradientTransform="translate(12.7351 11.1407) scale(32.8215 32.8212)">
<stop stop-color="white"/>
<stop offset="0.258423" stop-color="white"/>
<stop offset="0.880489" stop-color="#AAABAB"/>
<stop offset="0.904495" stop-color="#AAABAB"/>
<stop offset="1" stop-color="#AAABAB"/>
</radialGradient>
<radialGradient id="paint39_radial_544_437" cx="0" cy="0" r="1" gradientUnits="userSpaceOnUse" gradientTransform="translate(12.7837 11.1015) scale(32.8229 32.8226)">
<stop stop-color="white"/>
<stop offset="0.258423" stop-color="white"/>
<stop offset="0.880489" stop-color="#AAABAB"/>
<stop offset="0.904495" stop-color="#AAABAB"/>
<stop offset="1" stop-color="#AAABAB"/>
</radialGradient>
<radialGradient id="paint40_radial_544_437" cx="0" cy="0" r="1" gradientUnits="userSpaceOnUse" gradientTransform="translate(12.7314 11.1683) scale(32.7768 32.7766)">
<stop stop-color="white"/>
<stop offset="0.258423" stop-color="white"/>
<stop offset="0.880489" stop-color="#AAABAB"/>
<stop offset="0.904495" stop-color="#AAABAB"/>
<stop offset="1" stop-color="#AAABAB"/>
</radialGradient>
<radialGradient id="paint41_radial_544_437" cx="0" cy="0" r="1" gradientUnits="userSpaceOnUse" gradientTransform="translate(12.564 11.0583) scale(33.2025 33.2023)">
<stop stop-color="white"/>
<stop offset="0.258423" stop-color="white"/>
<stop offset="0.880489" stop-color="#AAABAB"/>
<stop offset="0.904495" stop-color="#AAABAB"/>
<stop offset="1" stop-color="#AAABAB"/>
</radialGradient>
<radialGradient id="paint42_radial_544_437" cx="0" cy="0" r="1" gradientUnits="userSpaceOnUse" gradientTransform="translate(12.6159 11.121) scale(32.9469 32.9467)">
<stop stop-color="white"/>
<stop offset="0.258423" stop-color="white"/>
<stop offset="0.880489" stop-color="#AAABAB"/>
<stop offset="0.904495" stop-color="#AAABAB"/>
<stop offset="1" stop-color="#AAABAB"/>
</radialGradient>
<radialGradient id="paint43_radial_544_437" cx="0" cy="0" r="1" gradientUnits="userSpaceOnUse" gradientTransform="translate(12.7677 11.1312) scale(32.8001 32.7998)">
<stop stop-color="white"/>
<stop offset="0.258423" stop-color="white"/>
<stop offset="0.880489" stop-color="#AAABAB"/>
<stop offset="0.904495" stop-color="#AAABAB"/>
<stop offset="1" stop-color="#AAABAB"/>
</radialGradient>
<radialGradient id="paint44_radial_544_437" cx="0" cy="0" r="1" gradientUnits="userSpaceOnUse" gradientTransform="translate(12.8724 11.1259) scale(32.5696 32.5694)">
<stop stop-color="white"/>
<stop offset="0.258423" stop-color="white"/>
<stop offset="0.880489" stop-color="#AAABAB"/>
<stop offset="0.904495" stop-color="#AAABAB"/>
<stop offset="1" stop-color="#AAABAB"/>
</radialGradient>
<radialGradient id="paint45_radial_544_437" cx="0" cy="0" r="1" gradientUnits="userSpaceOnUse" gradientTransform="translate(12.6606 11.1219) scale(32.9219 32.9217)">
<stop stop-color="white"/>
<stop offset="0.258423" stop-color="white"/>
<stop offset="0.880489" stop-color="#AAABAB"/>
<stop offset="0.904495" stop-color="#AAABAB"/>
<stop offset="1" stop-color="#AAABAB"/>
</radialGradient>
<radialGradient id="paint46_radial_544_437" cx="0" cy="0" r="1" gradientUnits="userSpaceOnUse" gradientTransform="translate(12.6809 11.0622) scale(32.9103 32.91)">
<stop stop-color="white"/>
<stop offset="0.258423" stop-color="white"/>
<stop offset="0.880489" stop-color="#AAABAB"/>
<stop offset="0.904495" stop-color="#AAABAB"/>
<stop offset="1" stop-color="#AAABAB"/>
</radialGradient>
<radialGradient id="paint47_radial_544_437" cx="0" cy="0" r="1" gradientUnits="userSpaceOnUse" gradientTransform="translate(12.6926 11.1381) scale(32.8586 32.8583)">
<stop stop-color="white"/>
<stop offset="0.258423" stop-color="white"/>
<stop offset="0.880489" stop-color="#AAABAB"/>
<stop offset="0.904495" stop-color="#AAABAB"/>
<stop offset="1" stop-color="#AAABAB"/>
</radialGradient>
<radialGradient id="paint48_radial_544_437" cx="0" cy="0" r="1" gradientUnits="userSpaceOnUse" gradientTransform="translate(12.7002 11.1415) scale(32.8423 32.842)">
<stop stop-color="white"/>
<stop offset="0.258423" stop-color="white"/>
<stop offset="0.880489" stop-color="#AAABAB"/>
<stop offset="0.904495" stop-color="#AAABAB"/>
<stop offset="1" stop-color="#AAABAB"/>
</radialGradient>
<radialGradient id="paint49_radial_544_437" cx="0" cy="0" r="1" gradientUnits="userSpaceOnUse" gradientTransform="translate(12.8703 11.0579) scale(35.8394 35.8392)">
<stop stop-color="#96B2DD"/>
<stop offset="0.218182" stop-color="#0F579D"/>
<stop offset="0.247192" stop-color="#0F579D"/>
<stop offset="0.567413" stop-color="#004989"/>
<stop offset="0.905419" stop-color="#000039"/>
<stop offset="1" stop-color="#000039"/>
</radialGradient>
<radialGradient id="paint50_radial_544_437" cx="0" cy="0" r="1" gradientUnits="userSpaceOnUse" gradientTransform="translate(12.8497 11.019) scale(35.8778 35.8775)">
<stop stop-color="#96B2DD"/>
<stop offset="0.218182" stop-color="#0F579D"/>
<stop offset="0.247192" stop-color="#0F579D"/>
<stop offset="0.567413" stop-color="#004989"/>
<stop offset="0.905419" stop-color="#000039"/>
<stop offset="1" stop-color="#000039"/>
</radialGradient>
<radialGradient id="paint51_radial_544_437" cx="0" cy="0" r="1" gradientUnits="userSpaceOnUse" gradientTransform="translate(12.788 11.2354) scale(35.64 35.6398)">
<stop stop-color="#96B2DD"/>
<stop offset="0.218182" stop-color="#0F579D"/>
<stop offset="0.247192" stop-color="#0F579D"/>
<stop offset="0.567413" stop-color="#004989"/>
<stop offset="0.905419" stop-color="#000039"/>
<stop offset="1" stop-color="#000039"/>
</radialGradient>
<radialGradient id="paint52_radial_544_437" cx="0" cy="0" r="1" gradientUnits="userSpaceOnUse" gradientTransform="translate(12.8813 11.0227) scale(35.9398 35.9395)">
<stop stop-color="#96B2DD"/>
<stop offset="0.218182" stop-color="#0F579D"/>
<stop offset="0.247192" stop-color="#0F579D"/>
<stop offset="0.567413" stop-color="#004989"/>
<stop offset="0.905419" stop-color="#000039"/>
<stop offset="1" stop-color="#000039"/>
</radialGradient>
<clipPath id="clip0_544_437">
<rect width="39.9992" height="40" fill="white"/>
</clipPath>
</defs>
</svg>
