<svg width="40" height="40" viewBox="0 0 40 40" fill="none" xmlns="http://www.w3.org/2000/svg">
<g clip-path="url(#clip0_544_437)">
<path d="M18.4123 19.145V18.3095H16.1284V18.6159H17.9166V19.145H18.4123Z" fill="#002C62"/>
<path d="M21.2253 19.145V16.8863H20.7658V17.6661H20.5513V16.8863H20.0919V18.7133H19.2673V17.176H19.894V16.8863H18.8022V19.0057H20.0919V19.145H20.5513V17.9725H20.7658V19.145H21.2253Z" fill="#002C62"/>
<mask id="mask0_544_437" style="mask-type:luminance" maskUnits="userSpaceOnUse" x="-20" y="-21" width="80" height="81">
<path d="M-20 -20.0001H60V59.9999H-20V-20.0001Z" fill="white"/>
</mask>
<g mask="url(#mask0_544_437)">
<path d="M16.783 17.109C16.9668 17.109 17.1144 17.2595 17.1144 17.4878C17.1144 17.7161 16.9752 17.8722 16.783 17.8722C16.5909 17.8722 16.4516 17.7161 16.4516 17.4878C16.4516 17.2595 16.5963 17.109 16.783 17.109ZM16.783 18.1451C17.2426 18.1451 17.6047 17.8805 17.6047 17.4906C17.6047 17.1006 17.2426 16.8361 16.783 16.8361C16.3207 16.8361 15.9614 17.1006 15.9614 17.4906C15.9614 17.8805 16.3207 18.1451 16.783 18.1451Z" fill="#002C62"/>
<path d="M23.8991 19.145V18.3652H21.6152V18.6714H23.4089V19.145H23.8991Z" fill="#002C62"/>
<path d="M22.334 17.2398C22.5011 17.2398 22.6348 17.3791 22.6348 17.5936C22.6348 17.8053 22.5095 17.9501 22.334 17.9501C22.1585 17.9501 22.0331 17.8053 22.0331 17.5936C22.0331 17.3791 22.1641 17.2398 22.334 17.2398ZM22.334 18.223C22.7908 18.223 23.0999 17.9639 23.0999 17.6241C23.0999 17.4794 23.0414 17.3485 22.9411 17.2482H23.2196V16.9696H22.5791V16.7746H22.0889V16.9696H21.4482V17.2482H21.7268C21.6265 17.3485 21.568 17.4794 21.568 17.6241C21.568 17.9639 21.8772 18.223 22.334 18.223Z" fill="#002C62"/>
<path d="M26.6565 16.8861H24.3446V17.1924H26.1774V18.8385H25.8544V17.5964H25.4087V18.8385H25.1301V17.5964H24.6846V18.8385H24.2612V19.1448H26.8793V18.8385H26.6565V16.8861Z" fill="#002C62"/>
<path d="M23.8989 17.9028H24.2051V17.5964H23.8989V16.8862H23.4087V18.2537H23.8989V17.9028Z" fill="#002C62"/>
<path d="M17.9165 18.1981H18.4122V16.8862H17.9165V18.1981Z" fill="#002C62"/>
<path d="M13.945 18.4096C14.0618 18.3594 14.24 18.3317 14.4296 18.3317C14.6191 18.3317 14.7971 18.3594 14.9141 18.4096C15.0366 18.4627 15.098 18.5376 15.098 18.6268C15.098 18.716 15.0394 18.7912 14.9141 18.8441C14.7971 18.8943 14.6191 18.9221 14.4296 18.9221C14.24 18.9221 14.0618 18.8943 13.945 18.8441C13.8195 18.7912 13.7611 18.716 13.7611 18.6268C13.7611 18.5376 13.8224 18.4627 13.945 18.4096ZM13.9477 17.5936C13.8753 17.5603 13.8446 17.5129 13.8446 17.4598C13.8446 17.4069 13.8753 17.3596 13.9477 17.3263C14.0535 17.2762 14.2374 17.2483 14.4296 17.2483C14.6216 17.2483 14.8055 17.2762 14.9114 17.3263C14.9838 17.3596 15.0145 17.4069 15.0145 17.4598C15.0145 17.5129 14.9838 17.5603 14.9114 17.5936C14.8055 17.6465 14.6246 17.6716 14.4296 17.6716C14.2345 17.6716 14.0535 17.6465 13.9477 17.5936ZM13.2597 18.6659C13.2597 18.9806 13.7109 19.2007 14.4296 19.2007C15.148 19.2007 15.5994 18.9806 15.5994 18.6659C15.5994 18.5183 15.4989 18.4013 15.3152 18.3204H15.7386V18.028H14.6802V17.9137C15.2148 17.8749 15.5157 17.7105 15.5157 17.4989C15.5157 17.3957 15.4489 17.3123 15.3207 17.2483H15.7106V16.9697H14.6802V16.7747H14.1788V16.9697H13.1484V17.2483H13.5383C13.41 17.3123 13.3433 17.3957 13.3433 17.4989C13.3433 17.7105 13.6443 17.8749 14.1788 17.9137V18.028H13.1206V18.3204H13.5438C13.3601 18.4013 13.2597 18.5183 13.2597 18.6659Z" fill="#002C62"/>
<path d="M24.8822 21.047L25.1592 21.3497V27.0925L24.8822 26.7973V21.047ZM25.4986 27.7197H21.2795L20.6681 28.2311H19.3319L18.7231 27.7221L18.7203 27.7197H14.4614L14.7492 27.4131H18.897L19.5057 27.9218L19.5086 27.9242H20.4914L21.103 27.4131H25.2107L25.4986 27.7197ZM25.341 21.5482L25.6176 21.8503V27.581L25.341 27.2862V21.5482ZM25.9571 28.2084H21.5222L20.9106 28.7196H19.0892L18.4804 28.2108L18.4776 28.2084H14.0028L14.2908 27.9016H18.6543L19.263 28.4105L19.2659 28.4129H20.7341L21.3457 27.9016H25.6691L25.9571 28.2084ZM25.7993 22.049L26.076 22.3511V28.0697L25.7993 27.7748V22.049ZM26.4154 28.6971H21.7649L21.1534 29.2084H18.8465L18.2377 28.6993L18.2349 28.6971H13.5445L13.8324 28.3901H18.4116L19.0203 28.8993L19.0231 28.9015H20.9768L21.5884 28.3901H26.1275L26.4154 28.6971ZM26.2578 22.5498L26.5344 22.852V28.5583L26.2578 28.2634V22.5498ZM13.4255 22.852L13.7023 22.5493V28.2634L13.4255 28.5583V22.852ZM13.884 22.3503L14.1606 22.0476V27.7748L13.884 28.0697V22.3503ZM14.3423 21.8488L14.6189 21.5461V27.2862L14.3423 27.581V21.8488ZM14.8008 21.3473L15.0771 21.0449V26.798L14.8008 27.0925V21.3473ZM15.2072 26.925H19.3553L19.9933 27.4575L19.9996 27.4629L20.6451 26.925H24.7528L25.0403 27.2312H21.0369L20.4254 27.7424H19.5745L18.9657 27.2336L18.9629 27.2312H14.9196L15.2072 26.925ZM15.2589 20.9525H19.3553L19.9088 21.4163V27.1502L19.4246 26.7454L19.4219 26.7431H15.2589V20.9525ZM20.0905 21.4163L20.6451 20.9525H24.7005V26.7431H20.5785L20.0905 27.1502V21.4163ZM20.5785 20.7707L19.9996 21.2563L19.4247 20.7731L19.4219 20.7707H15.0828L13.2463 22.7784L13.2437 22.7814V28.8788H18.1689L18.7776 29.3878L18.7804 29.3902H21.2195L21.8311 28.8788H26.7162V22.7814L24.8766 20.7707H20.5785Z" fill="#002C62"/>
<path d="M17.495 14.3118H15.9293V11.4935H22.1921V12.1197H22.5053V11.1804H15.6162V14.6249H17.495V14.3118Z" fill="#002C62"/>
<path d="M17.4946 14.3115H22.1918V12.1196H17.4946V14.3115Z" fill="#002C62"/>
<path d="M22.5049 14.6249H17.4946V15.5643H24.3837V12.1197H22.5049V14.6249Z" fill="#002C62"/>
<path d="M31.2979 18.9196C31.034 19.039 30.3646 19.134 30.0958 18.639C30.0484 18.5492 30.0131 18.4535 29.9911 18.3543C29.9712 18.2338 29.9795 18.114 30.0141 18.0258C30.0425 17.9548 30.0859 17.8907 30.1414 17.838C30.1968 17.7853 30.263 17.7451 30.3354 17.7203C30.3733 17.7073 30.4117 17.7007 30.4494 17.7007C30.6293 17.7007 30.7687 17.8751 30.7745 17.8826L30.7868 17.8983L30.9685 17.7562L30.9547 17.7402C30.6001 17.3302 30.3544 16.7654 30.2781 16.5519C30.5427 16.5224 30.7961 16.5524 31.032 16.6411C31.228 16.7143 31.4061 16.8285 31.5544 16.976C31.5549 16.9764 31.6067 17.0316 31.6552 17.089C31.75 17.2061 31.8227 17.3394 31.8698 17.4824C32.1247 18.266 31.5399 18.8101 31.2979 18.9196ZM29.8226 17.8946C29.6174 17.4285 29.3818 17.1178 29.2484 16.9634C29.3109 16.9226 29.3758 16.8821 29.4414 16.843C29.6305 16.7291 29.8357 16.6446 30.0502 16.5924C30.1103 16.7798 30.2393 17.1241 30.4652 17.4742C30.3961 17.4719 30.3272 17.4822 30.2619 17.5046C30.1666 17.5375 30.0788 17.5889 30.0034 17.6558C29.928 17.7228 29.8666 17.8039 29.8226 17.8946ZM27.6496 20.1013C27.5899 22.0791 28.6793 23.4105 29.4721 23.7242C29.8325 23.8667 30.227 23.856 30.5653 23.6967C30.3427 24.089 30.0516 24.6524 29.8629 25.209C29.7412 25.5685 29.6328 25.9728 29.5182 26.4008L29.4859 26.5216C29.2855 27.2727 29.0359 28.2074 28.7333 28.8225C27.8943 30.5279 26.6872 31.6982 24.9342 32.5058C23.4865 33.1727 21.8776 33.5108 20.1522 33.5108C19.4336 33.5108 17.2469 33.5108 15.0656 32.5058C13.2992 31.6919 12.1392 30.5725 11.3047 28.8759C10.992 28.2405 10.7013 27.2221 10.483 26.4057L10.4809 26.3977C10.3666 25.9708 10.2586 25.5677 10.1371 25.209C9.94848 24.6524 9.65737 24.0891 9.43469 23.6968C9.77308 23.8563 10.1676 23.8669 10.5279 23.7242C11.2639 23.4329 12.3977 22.2046 12.307 20.148C12.2291 18.3772 11.7105 17.2647 10.6751 16.6472C10.0845 16.2948 9.44965 16.2169 8.88775 16.4276C8.86593 16.4357 8.84433 16.4444 8.82298 16.4537C9.191 15.9344 9.66598 15.2355 9.92957 14.7333C10.2966 14.0344 10.4019 13.5447 10.6327 12.4718L10.6343 12.4644C10.6968 12.1744 10.7675 11.8457 10.8554 11.4573C10.9823 10.8962 11.2758 10.4751 11.7048 10.2383L11.7057 10.2403L11.8274 10.1764C11.899 10.1445 11.9727 10.1176 12.0481 10.0961C12.4576 9.97954 12.9503 10.0166 13.3126 10.1896C12.8246 10.6811 12.1405 11.0298 12.1113 11.0446C11.7546 11.2251 11.4095 11.6461 11.5109 12.2856C11.6421 13.1138 12.4886 13.2285 12.9683 13.1658C13.2845 13.1242 13.7507 12.9203 14.0235 12.4827L14.0236 12.4826C14.0349 12.4639 15.1607 10.6152 16.3377 9.51796C17.0004 8.90032 17.5171 8.45356 17.8737 8.18968C18.0207 8.2711 18.9319 8.75046 20 8.75046C21.0664 8.75046 21.9789 8.27124 22.1262 8.18982C22.4834 8.45384 23 8.9006 23.6622 9.51796C24.5734 10.3673 25.4486 11.652 25.889 12.342C26.1912 12.8286 26.5758 13.1057 27.0318 13.1658C27.5112 13.2286 28.3578 13.1138 28.4889 12.2856C28.5905 11.6458 28.2428 11.2298 27.8839 11.054C27.8769 11.0503 27.1823 10.6888 26.6874 10.1898C27.0496 10.0164 27.5424 9.97939 27.9519 10.0961C28.0268 10.1186 28.1004 10.1453 28.1723 10.1761C28.2056 10.1912 28.2222 10.1998 28.2414 10.2095L28.2464 10.2122C28.702 10.4437 29.0126 10.8742 29.1445 11.4573C29.2208 11.7954 29.2951 12.134 29.3674 12.473C29.5982 13.5453 29.7035 14.0346 30.0704 14.7333C30.3337 15.2347 30.8088 15.934 31.177 16.4537C31.1556 16.4444 31.134 16.4357 31.1122 16.4276C30.5504 16.2168 29.9157 16.2948 29.3247 16.6472C28.2332 17.2981 27.7008 18.3958 27.6496 20.1013ZM29.2991 22.4237C29.3727 22.617 29.523 22.7631 29.7083 22.8188C29.821 22.8527 29.9125 22.8692 29.9919 22.8696C29.8809 23.0426 29.7453 23.2911 29.6808 23.5532C29.6384 23.5419 29.5966 23.5282 29.5557 23.5122C29.3353 23.425 29.0919 23.2467 28.869 23.0088C28.966 22.9094 29.1371 22.7134 29.2991 22.4237ZM29.5062 21.971C29.5584 21.7946 29.7049 21.6335 29.8886 21.5501C30.0313 21.4856 30.2636 21.4372 30.5607 21.5742C30.7827 21.6762 30.9455 21.8557 31.0316 22.0931C31.1344 22.3757 31.1177 22.709 30.9872 22.9845C30.8005 23.3789 30.3575 23.6263 29.9061 23.5928C30.0358 23.1019 30.5181 22.5367 30.5231 22.5311L30.5373 22.5146L30.3489 22.3777L30.3372 22.3939C30.1464 22.656 30.0035 22.6694 29.7738 22.6005C29.5715 22.5397 29.4091 22.2984 29.5062 21.971ZM9.01277 22.9845C8.88225 22.709 8.86574 22.3759 8.96832 22.0931C9.0544 21.8557 9.21724 21.6762 9.43921 21.5742C9.56565 21.5158 9.69152 21.4863 9.81301 21.4863C9.9173 21.4863 10.0176 21.5078 10.111 21.5501C10.3035 21.6373 10.4727 21.8161 10.5227 21.9849C10.6247 22.3287 10.4092 22.5676 10.2238 22.6275C9.99844 22.6999 9.83587 22.6323 9.66259 22.3939L9.65088 22.3777L9.46263 22.5147L9.47675 22.5312C9.49693 22.5548 9.96541 23.1049 10.094 23.5928C9.6417 23.6267 9.19975 23.3789 9.01277 22.9845ZM10.7285 22.4361C10.8963 22.7418 11.0573 22.9296 11.1314 23.0083C10.9087 23.2462 10.665 23.4249 10.4441 23.5122C10.4033 23.5283 10.3616 23.5419 10.3192 23.5532C10.2553 23.2938 10.1222 23.0485 10.0124 22.8768C10.1062 22.8842 10.2005 22.8735 10.2903 22.8453C10.4819 22.7878 10.6498 22.6297 10.7285 22.4361ZM10.1772 17.8947C10.1333 17.804 10.0719 17.7228 9.99657 17.6559C9.92121 17.5889 9.83337 17.5375 9.73809 17.5046C9.67741 17.4841 9.61588 17.4738 9.55478 17.4738C9.54815 17.4738 9.54152 17.4738 9.53502 17.4741C9.76038 17.1244 9.88964 16.78 9.94989 16.5924C10.1643 16.6447 10.3695 16.7292 10.5585 16.843C10.6234 16.8817 10.6868 16.9212 10.7514 16.9634C10.6182 17.1176 10.3825 17.4282 10.1772 17.8947ZM10.0123 18.3352L10.0059 18.3697C9.98507 18.4639 9.95076 18.5545 9.90403 18.6388C9.6355 19.1343 8.96621 19.0392 8.70205 18.9196C8.46018 18.8101 7.87528 18.2661 8.13012 17.4824C8.17741 17.3394 8.25017 17.2061 8.34489 17.089C8.38017 17.0455 8.42674 16.9919 8.44085 16.9805L8.44466 16.9771C8.5932 16.8292 8.77158 16.7146 8.9679 16.6411C9.14457 16.5746 9.33239 16.5409 9.52628 16.5409C9.59048 16.5409 9.65624 16.5446 9.72186 16.5519C9.64523 16.7657 9.39913 17.331 9.04509 17.7402L9.0314 17.7562L9.21357 17.8984L9.22585 17.8825C9.22769 17.8801 9.42044 17.6359 9.66456 17.7203C9.73693 17.7452 9.80309 17.7853 9.85853 17.838C9.91398 17.8908 9.95742 17.9548 9.98588 18.0258C10.0221 18.1184 10.031 18.2225 10.0123 18.3352ZM12.6512 10.9971C12.8994 10.8399 13.2359 10.6007 13.5135 10.3102C13.5424 10.3322 13.5685 10.3552 13.5917 10.3787C13.761 10.5502 13.8808 10.7287 13.9573 10.924C13.8266 11.0242 13.5214 11.2742 13.2129 11.6407C13.202 11.5609 13.1783 11.4835 13.1428 11.4112C13.0387 11.198 12.8653 11.0524 12.6512 10.9971ZM12.9382 11.5114C13.0669 11.7748 12.9079 12.0486 12.901 12.0602L12.8911 12.0769L13.0807 12.1979L13.0917 12.1817C13.4454 11.6549 13.8904 11.2717 14.0263 11.1605C14.0918 11.4942 14.027 11.8137 13.9622 12.0568C13.8206 12.5898 13.3323 12.888 12.9385 12.9396C12.541 12.9921 11.8401 12.906 11.7361 12.25C11.6343 11.608 12.087 11.2772 12.3245 11.2164L12.3269 11.2157C12.3683 11.2054 12.4116 11.2001 12.4556 11.2001C12.5549 11.2001 12.8008 11.2305 12.9382 11.5114ZM15.2001 8.04956C15.7854 7.60604 16.7241 6.58454 16.8456 6.45161C16.9094 6.42833 17.0798 6.38106 17.3673 6.39954C17.7024 6.42085 18.0483 6.68515 18.2086 7.04217C18.3484 7.35459 18.2001 7.7068 18.0406 7.80261C17.9042 7.88432 17.4889 8.13324 16.1825 9.35103C15.4476 10.036 14.744 10.989 14.2679 11.6939C14.3177 11.3077 14.2932 10.7645 13.7538 10.2184C13.5619 10.0243 13.1341 9.7975 12.5599 9.7975C12.5459 9.7975 12.5319 9.7975 12.518 9.79792C13.6328 9.16208 14.6308 8.48079 15.2001 8.04956ZM26.8571 11.4112C26.8216 11.4834 26.798 11.5609 26.7871 11.6406C26.4887 11.2855 26.1987 11.0432 26.0428 10.924C26.1193 10.7286 26.2389 10.55 26.4081 10.3787C26.432 10.3547 26.4582 10.3317 26.4863 10.3102C26.7644 10.601 27.101 10.8402 27.3492 10.9972C27.135 11.0525 26.9614 11.198 26.8571 11.4112ZM27.0987 12.0599C27.097 12.0571 26.9332 11.7742 27.0617 11.5114C27.1968 11.2353 27.4657 11.164 27.673 11.2157C27.9098 11.2751 28.366 11.6058 28.2639 12.25C28.1599 12.9056 27.459 12.9918 27.0615 12.9396C26.7949 12.9048 26.4022 12.7339 26.1732 12.3678C26.1479 12.3231 26.1035 12.2373 26.0996 12.23C26.0744 12.174 26.0537 12.1161 26.0377 12.0568C25.9731 11.8136 25.9084 11.4939 25.9738 11.1605C26.1098 11.2717 26.555 11.6552 26.9082 12.1817L26.9192 12.1979L27.1086 12.0766L27.0987 12.0599ZM21.7914 7.04231C21.9515 6.68515 22.2975 6.42085 22.6327 6.39954C22.6767 6.39672 22.7181 6.39545 22.7567 6.39545C22.9753 6.39545 23.1091 6.43539 23.1544 6.45161C23.276 6.58468 24.215 7.60647 24.7999 8.04956C25.3697 8.48122 26.3682 9.16278 27.4824 9.79792C26.9285 9.78734 26.4653 9.99689 26.2461 10.2184C25.7123 10.7589 25.6838 11.292 25.7291 11.6702C25.2511 10.9738 24.5463 10.0303 23.8175 9.35103C22.5108 8.1331 22.0958 7.88432 21.9594 7.80261C21.7998 7.7068 21.6515 7.35458 21.7914 7.04231ZM32.0866 17.412C32.0109 17.1796 31.871 16.9902 31.7317 16.8209C31.0158 15.8464 30.5248 15.1084 30.2722 14.6273C29.9197 13.9558 29.8164 13.4757 29.59 12.4243L29.5845 12.3979C29.5229 12.1121 29.453 11.7882 29.3669 11.4069C29.2109 10.7173 28.8316 10.2204 28.2715 9.97079C26.9192 9.25832 25.6303 8.39274 24.9375 7.86795C24.3247 7.40369 23.2977 6.27678 23.2879 6.26591L23.2706 6.25293C23.2476 6.24192 23.0341 6.14597 22.6183 6.17207C22.2023 6.19832 21.7768 6.51779 21.5835 6.94889C21.3908 7.379 21.6081 7.8575 21.8422 7.99791C21.8604 8.00892 21.8839 8.02303 21.9143 8.0425C21.6479 8.17359 20.8572 8.52242 20 8.52242C19.142 8.52242 18.3519 8.17374 18.0857 8.04264C18.1161 8.02317 18.1396 8.00892 18.1578 7.99791C18.3919 7.85736 18.609 7.37886 18.4164 6.94889C18.223 6.51779 17.7975 6.19832 17.3818 6.17207C16.9688 6.14526 16.7526 6.24178 16.7261 6.2549L16.715 6.26323L16.7121 6.26591C16.7023 6.27678 15.6688 7.40849 15.0624 7.86795C14.3703 8.39232 13.0824 9.25733 11.7317 9.96923C11.1691 10.2203 10.7892 10.7174 10.633 11.4069C10.5444 11.7989 10.471 12.1401 10.412 12.4141L10.4099 12.424C10.1836 13.4758 10.0803 13.9559 9.72778 14.6273C9.36837 15.3121 8.59057 16.3943 8.27462 16.8255C8.10769 16.9959 7.9828 17.1986 7.91338 17.412C7.61041 18.3435 8.31653 18.9953 8.60793 19.1274C8.93248 19.2745 9.75968 19.3832 10.1043 18.7475C10.1788 18.6103 10.2441 18.4145 10.2498 18.3886C10.383 17.7718 10.8251 17.2286 10.9411 17.0942C11.5727 17.564 11.9977 18.7066 12.0793 20.1569C12.1522 21.4526 11.6895 22.3261 11.2817 22.835C11.1675 22.712 10.9179 22.4052 10.74 21.9167C10.6705 21.687 10.4558 21.4562 10.2052 21.3425C10.0196 21.2584 9.71946 21.1945 9.34382 21.3671C9.06555 21.4953 8.8615 21.7196 8.75398 22.0152C8.63107 22.354 8.65082 22.7528 8.80675 23.082C8.83314 23.1376 8.86517 23.1929 8.902 23.2465L8.89692 23.2496L8.92797 23.2963C8.93446 23.3062 9.58935 24.3029 9.92125 25.2822C10.0408 25.635 10.1486 26.0378 10.2636 26.4678C10.4846 27.2932 10.7792 28.3243 11.1001 28.9766C11.9593 30.7233 13.1528 31.8755 14.9702 32.7128C17.1971 33.7387 19.4213 33.7387 20.1522 33.7387C21.9108 33.7387 23.5517 33.3936 25.0296 32.7128C26.8329 31.8821 28.0746 30.6779 28.9378 28.9233C29.2497 28.2896 29.7382 26.461 29.7382 26.461C29.8518 26.0362 29.9592 25.635 30.0787 25.2822C30.4233 24.2652 31.0567 23.3083 31.0629 23.2993C31.1221 23.2139 31.1634 23.1449 31.1933 23.0819C31.3491 22.7526 31.3689 22.354 31.246 22.0152C31.1383 21.7194 30.9344 21.4953 30.656 21.3671C30.2811 21.1942 29.9806 21.2583 29.7946 21.3425C29.5542 21.4517 29.3606 21.6657 29.2897 21.8998C29.1149 22.381 28.843 22.7045 28.7187 22.8355C28.4364 22.4817 27.8239 21.5426 27.8774 20.1092C27.9311 18.6656 28.3396 17.6237 29.0592 17.0941C29.2059 17.2613 29.5425 17.6958 29.7625 18.3769C29.7829 18.4977 29.8277 18.6223 29.8955 18.7473C30.2398 19.3826 31.0673 19.2742 31.392 19.1274C31.6834 18.9953 32.3895 18.3435 32.0866 17.412Z" fill="#002C62"/>
<path d="M22.3701 23.5544C22.6206 23.5303 22.9567 23.4951 23.282 23.4599C23.293 23.5236 23.3017 23.5829 23.3061 23.6379L23.5655 23.561C23.5347 23.2885 23.4204 22.8864 23.271 22.5723L23.0337 22.6469C23.1105 22.8161 23.1787 23.0204 23.2292 23.2116C23.071 23.2248 22.9107 23.2401 22.7613 23.2512C22.8843 22.7964 23.0096 22.1877 23.082 21.6692L22.7788 21.6296C22.7305 22.1437 22.6185 22.7986 22.4975 23.2732L22.335 23.2842L22.3701 23.5544Z" fill="#002C62"/>
<path d="M21.6296 22.157C21.6055 22.4008 21.5593 22.7041 21.5176 22.9019L21.7791 22.9458L21.7966 22.8512H22.1108C22.0844 23.1721 22.0493 23.3128 22.0075 23.3544C21.9811 23.3764 21.9614 23.3808 21.9241 23.3808C21.8757 23.3808 21.7724 23.3787 21.6691 23.3698C21.7153 23.4423 21.7462 23.5478 21.7506 23.6292C21.8647 23.6313 21.9768 23.6336 22.0427 23.6248C22.1218 23.6138 22.1746 23.5918 22.2272 23.5346C22.302 23.4511 22.3415 23.2314 22.3812 22.7217C22.3856 22.6866 22.3877 22.6161 22.3877 22.6161H21.8339C21.845 22.5459 21.856 22.4733 21.8647 22.4008H22.3812V21.6627H21.5681V21.9065H22.1284V22.157H21.6296Z" fill="#002C62"/>
<path d="M22.0776 24.6956H22.9743V24.4979C23.0773 24.6171 23.1972 24.7207 23.3301 24.8055C23.3763 24.744 23.4729 24.6494 23.5345 24.6055C23.3125 24.4935 23.1038 24.289 22.9984 24.0869H22.2206V24.3287H22.8423C22.8775 24.3792 22.917 24.4318 22.9589 24.4802H22.0776V24.6956Z" fill="#002C62"/>
<path d="M22.1765 25.0692V25.0824H22.8686C22.9258 25.1593 22.9917 25.2341 23.0665 25.3043H21.9898C22.0601 25.2318 22.1237 25.1528 22.1765 25.0692ZM22.9565 25.7701H22.8027V25.5064H22.9565V25.7701ZM22.6005 25.7701H22.4469V25.5064H22.6005V25.7701ZM22.2424 25.7701H22.0929V25.5064H22.2424V25.7701ZM21.6689 25.5614C21.7327 25.5219 21.7986 25.4758 21.8622 25.423V25.7701H21.5481V26.0054H23.4926V25.7701H23.2004V25.4143C23.2554 25.456 23.3147 25.4933 23.374 25.5263C23.418 25.4625 23.5124 25.3659 23.5741 25.3197C23.3388 25.2208 23.1235 25.0341 23.0202 24.8385H22.1765V24.9967L21.9611 24.9287C21.8601 25.1066 21.6734 25.2692 21.4756 25.3659C21.5327 25.412 21.6271 25.5132 21.6689 25.5614Z" fill="#002C62"/>
<path d="M21.7126 24.8274C21.9016 24.6933 22.0993 24.4736 22.2157 24.2473L21.9521 24.1704C21.8577 24.3528 21.6884 24.5241 21.5083 24.6341C21.5676 24.678 21.6686 24.7769 21.7126 24.8274Z" fill="#002C62"/>
<path d="M17.6316 21.7548C17.6339 21.7087 17.636 21.6648 17.6382 21.6297H17.3394C17.324 21.9196 17.3548 22.9172 16.478 23.4029C16.5659 23.4644 16.6516 23.5434 16.6977 23.6116C17.1614 23.3281 17.392 22.904 17.5108 22.5085C17.6339 22.9128 17.8798 23.3655 18.3764 23.6116C18.4182 23.5413 18.4973 23.4511 18.5786 23.3896C17.759 23.0051 17.6493 22.0581 17.6316 21.7548Z" fill="#002C62"/>
<path d="M17.8427 24.5814H18.1921V24.7109H17.8427V24.5814ZM17.8427 24.2892H18.1921V24.4056H17.8427V24.2892ZM17.6977 25.3503H17.3351V25.2185H17.6977V25.3503ZM17.6977 25.6735H17.3351V25.5371H17.6977V25.6735ZM17.5944 24.8978H18.192V25.7568C18.192 25.792 18.1789 25.8053 18.1393 25.8053C18.0742 25.8075 18.0089 25.8075 17.9438 25.8053V25.0252H17.0977V25.9766H17.335V25.8645H17.88C17.9064 25.9327 17.9305 26.014 17.9371 26.0688C18.1261 26.0688 18.2535 26.0624 18.3392 26.0183C18.4271 25.9766 18.4557 25.8997 18.4557 25.7591V24.1002H17.5944V24.8978Z" fill="#002C62"/>
<path d="M17.1987 24.4054H16.8603V24.289H17.1987V24.4054ZM17.1987 24.7066H16.8603V24.5814H17.1987V24.7066ZM17.4427 24.1001H16.6011V26.0688H16.8604V24.8932H17.4427V24.1001Z" fill="#002C62"/>
<path d="M20.0003 34.7416C11.8562 34.7416 5.23063 28.1157 5.23063 19.9713C5.23063 11.8277 11.8562 5.20222 20.0003 5.20222C28.1438 5.20222 34.769 11.8277 34.769 19.9713C34.769 28.1157 28.1438 34.7416 20.0003 34.7416ZM35.005 19.9713C35.005 11.6977 28.2739 4.96656 20.0003 4.96656C11.7264 4.96656 4.99512 11.6977 4.99512 19.9713C4.99512 28.2453 11.7264 34.9767 20.0003 34.9767C28.2739 34.9767 35.005 28.2453 35.005 19.9713Z" fill="#002C62"/>
<path d="M20.0003 39.7626C9.10238 39.7626 0.236502 30.897 0.236502 19.9997C0.236502 9.10209 9.10238 0.236214 20.0003 0.236214C30.8978 0.236214 39.7636 9.10209 39.7636 19.9997C39.7636 30.897 30.8978 39.7626 20.0003 39.7626ZM20.0003 -0.000145434C8.97199 -0.000145434 0 8.9717 0 19.9997C0 31.0278 8.97199 39.9999 20.0003 39.9999C31.0281 39.9999 39.9999 31.0278 39.9999 19.9997C39.9999 8.9717 31.0281 -0.000145434 20.0003 -0.000145434Z" fill="#002C62"/>
<path d="M4.89151 15.6417L3.59146 15.1981L4.06051 13.8235L5.36071 14.2673L5.53188 13.7653L2.53213 12.7415L2.36083 13.2434L3.60768 13.669L3.13849 15.0434L1.89163 14.618L1.72314 15.1117L4.72303 16.1355L4.89151 15.6417Z" fill="#002C62"/>
<path d="M4.06157 10.7388C4.21073 10.4821 4.43213 10.3242 4.70208 10.2823C4.7502 10.2748 4.79958 10.2712 4.84982 10.2712C5.06106 10.2712 5.28783 10.3365 5.50246 10.4613C6.00101 10.751 6.40543 11.2814 6.04517 11.9014C5.88797 12.1721 5.66403 12.326 5.37941 12.3589C5.1247 12.3887 4.82738 12.3135 4.54248 12.148C4.25221 11.9793 4.05353 11.7582 3.96745 11.5084C3.88151 11.2588 3.91411 10.9925 4.06157 10.7388ZM4.28961 12.6345C4.56943 12.7971 4.88806 12.8947 5.20373 12.8947C5.67433 12.8947 6.13788 12.6773 6.45369 12.1337C6.68469 11.7363 6.73803 11.3195 6.60792 10.9285C6.486 10.562 6.20167 10.2341 5.80754 10.005C5.37038 9.75104 4.93011 9.67667 4.53401 9.78984C4.16952 9.89413 3.8619 10.147 3.64431 10.5214C3.19981 11.2865 3.4651 12.1554 4.28961 12.6345Z" fill="#002C62"/>
<path d="M7.76521 10.1272L6.08754 8.6474L8.7472 9.01386L9.0712 8.64669L6.6939 6.54978L6.35452 6.93459L8.03586 8.41767L5.3666 8.05445L5.03711 8.42811L7.41441 10.525L7.76521 10.1272Z" fill="#002C62"/>
<path d="M9.34109 7.8163C9.43516 7.83808 9.53141 7.84911 9.62797 7.84918C9.92571 7.84918 10.2195 7.74293 10.4904 7.53507C10.7974 7.29955 10.9921 6.99193 11.0329 6.6877L11.2306 6.91827L11.5838 6.64734L10.551 5.301L9.41037 6.17603L9.69627 6.54898L10.458 5.96464C10.6993 6.39729 10.621 6.83727 10.2463 7.12472C9.68935 7.552 9.12208 7.22124 8.80529 6.80835C8.59856 6.53896 8.48497 6.26676 8.47636 6.02109C8.4669 5.74239 8.59122 5.50194 8.84607 5.30636C9.20661 5.02992 9.59297 5.03613 9.90638 5.32343L9.94589 5.3597L10.3493 5.00819L10.3014 4.96275C9.79716 4.48481 9.15341 4.46223 8.57965 4.90222C7.82922 5.47781 7.74583 6.33435 8.36206 7.13756C8.63864 7.4981 8.97716 7.73277 9.34109 7.8163Z" fill="#002C62"/>
<path d="M12.63 6.10151L11.0848 3.33376L10.6255 3.59016L12.1707 6.35791L12.63 6.10151Z" fill="#002C62"/>
<path d="M13.6998 5.56713L13.3156 4.58994L13.5628 4.04243L15.1485 4.99761L15.7979 4.74234L13.7791 3.56406L14.5458 1.82797L13.8841 2.08818L13.0758 3.97977L12.5399 2.61664L12.0542 2.80756L13.2143 5.75806L13.6998 5.56713Z" fill="#002C62"/>
<path d="M17.1979 4.04664C17.3952 4.28018 17.6897 4.39801 18.0755 4.39801C18.1518 4.39801 18.2318 4.39335 18.3155 4.38404C18.8497 4.32477 19.2073 4.05694 19.3223 3.63037C19.3795 3.42378 19.3573 3.16216 19.3319 2.93328L19.1249 1.06623L18.5935 1.12508L18.7943 2.93638C18.8437 3.38187 18.8394 3.82284 18.2132 3.89213C17.5951 3.96113 17.4996 3.57561 17.4471 3.10317L17.2445 1.27466L16.7129 1.33364L16.9086 3.09781C16.9429 3.40812 16.9858 3.79405 17.1979 4.04664Z" fill="#002C62"/>
<path d="M20.7199 2.01731L22.0209 4.36625L22.5092 4.40533L22.7626 1.24529L22.2511 1.20423L22.0717 3.43929L20.7624 1.08485L20.2658 1.04491L20.0122 4.2051L20.541 4.24757L20.7199 2.01731Z" fill="#002C62"/>
<path d="M24.3588 1.59341L23.8453 1.47869L23.1538 4.57241L23.6673 4.68713L24.3588 1.59341Z" fill="#002C62"/>
<path d="M25.5648 5.27686L27.7692 2.70637L27.2381 2.51263L25.6389 4.44515L25.6328 1.92702L25.0938 1.73045L25.1335 5.11966L25.5648 5.27686Z" fill="#002C62"/>
<path d="M28.8295 6.93347L29.0697 6.51451L27.559 5.64865L28.0042 4.87184L29.3875 5.6646L29.6277 5.24564L28.2443 4.45274L28.6465 3.75085L30.1122 4.59088L30.361 4.15697L28.4388 3.05531L26.8623 5.80599L28.8295 6.93347Z" fill="#002C62"/>
<path d="M31.3601 5.50176L31.7956 5.87076C32.1078 6.13521 32.3431 6.3813 32.0613 6.71376C31.8409 6.97411 31.5981 6.96748 31.2743 6.69302L30.7367 6.23737L31.3601 5.50176ZM29.6201 7.55507L30.4384 6.58944L30.8805 6.96395C30.948 7.0211 31.127 7.1728 31.1774 7.27637C31.2694 7.4728 31.1509 7.64975 31.0253 7.83715C31.0052 7.86721 30.9854 7.89684 30.9669 7.92619C30.8489 8.11147 30.7874 8.23198 30.7346 8.45663L30.7263 8.49233L31.2481 8.93457L31.2351 8.78908C31.2164 8.57699 31.3524 8.35474 31.484 8.13983C31.6462 7.87511 31.8138 7.60135 31.6929 7.33578C31.9723 7.40676 32.2673 7.30459 32.4838 7.04918C32.6334 6.87251 32.7117 6.69542 32.7227 6.5083C32.7494 6.10967 32.5081 5.8472 32.2435 5.62283L31.2715 4.79931L29.2222 7.21767L29.6201 7.55507Z" fill="#002C62"/>
<path d="M33.1665 9.90348C33.0564 9.99421 32.9317 10.0192 32.7957 9.97784C32.6756 9.94129 32.5545 9.85451 32.4549 9.73358C32.1535 9.3681 32.1615 9.0626 32.4806 8.74284L32.5244 8.69881L32.1271 8.32995L32.0863 8.37002C31.5975 8.84881 31.5916 9.43188 32.0696 10.0119C32.2647 10.2486 32.5037 10.4154 32.7425 10.4818C32.8193 10.5034 32.8987 10.5145 32.9785 10.5148C33.1762 10.5148 33.3656 10.4435 33.5355 10.3035C34.0825 9.85268 33.8493 9.30629 33.6425 8.82158L33.5951 8.70968C33.423 8.3013 33.3926 8.20986 33.5634 8.06889C33.6656 7.98493 33.7772 7.96094 33.8952 7.99763C33.9989 8.0298 34.1071 8.10967 34.2 8.22228C34.4476 8.5227 34.4434 8.78432 34.187 9.04594L34.1444 9.08927L34.521 9.4498L34.5625 9.41213C34.6976 9.28936 34.7889 9.14613 34.8501 8.96184C34.9607 8.63221 34.8622 8.28705 34.549 7.90675C34.2398 7.53168 33.6992 7.24184 33.1923 7.65939C32.8593 7.93413 32.8021 8.26786 33.0075 8.74143L33.1641 9.10408C33.2847 9.38024 33.4215 9.69322 33.1665 9.90348Z" fill="#002C62"/>
<path d="M33.3883 11.7894L36.0629 10.0875L35.7806 9.64369L33.106 11.3455L33.3883 11.7894Z" fill="#002C62"/>
<path d="M36.4143 11.7218L34.0068 12.8949L34.2392 13.3717L36.6466 12.1986L37.044 13.0141L37.4858 12.7988L36.455 10.6833L36.0133 10.8986L36.4143 11.7218Z" fill="#002C62"/>
<path d="M34.9185 15.079L35.074 15.5769L36.2898 15.1974L38.4596 15.7842L38.2728 15.1859L36.7371 14.7956L37.7777 13.6005L37.5925 13.0077L36.1347 14.6991L34.9185 15.079Z" fill="#002C62"/>
<path d="M3.67083 19.6707L3.67761 20.0942C3.68537 20.5674 3.65573 20.8779 3.19402 20.8856C3.07647 20.8884 2.91109 20.8589 2.80399 20.7124C2.71847 20.5925 2.71452 20.3539 2.71311 20.264L2.70366 19.6864L3.67083 19.6707ZM2.23446 20.3232C2.23968 20.6464 2.2744 21.0111 2.62153 21.252C2.78254 21.3625 2.97953 21.4207 3.19218 21.4207L3.21123 21.4205C3.5039 21.4157 3.74647 21.3196 3.91284 21.1425C4.08372 20.9606 4.17135 20.6945 4.16613 20.3732L4.14595 19.1362L1.00439 19.1873L1.013 19.7139L2.22416 19.6942L2.23446 20.3232Z" fill="#002C62"/>
<path d="M3.83958 22.3418L3.9416 22.8975C4.01738 23.3101 4.04151 23.632 3.61634 23.71C3.28501 23.7704 3.10284 23.6138 3.02678 23.2002L2.90091 22.5141L3.83958 22.3418ZM2.9438 23.9571C3.11356 24.1867 3.40369 24.2935 3.72993 24.2333C3.95557 24.1919 4.12674 24.1053 4.25289 23.9687C4.52369 23.6796 4.50365 23.3268 4.44156 22.9884L4.21352 21.7465L1.12305 22.3136L1.2166 22.8232L2.4502 22.5968L2.55377 23.161C2.56958 23.2471 2.61149 23.4758 2.58524 23.5867C2.53232 23.7946 2.33054 23.8558 2.11675 23.9206C2.0826 23.931 2.04874 23.9413 2.01628 23.9519C1.80941 24.0201 1.68636 24.074 1.50503 24.213L1.47582 24.2353L1.59845 24.9036L1.68072 24.7828C1.79925 24.6086 2.04295 24.5238 2.27875 24.4417C2.56901 24.3405 2.86916 24.2361 2.9438 23.9571Z" fill="#002C62"/>
<path d="M2.68925 26.6875C2.43412 26.0282 2.90402 25.5763 3.42881 25.3731C3.60817 25.3036 3.7823 25.2688 3.94472 25.2688C4.06297 25.2688 4.17529 25.2871 4.27901 25.3242C4.52525 25.4124 4.71095 25.6022 4.8158 25.8733C4.92205 26.1475 4.90695 26.4163 4.77247 26.6508C4.64745 26.8687 4.42238 27.0492 4.13874 27.1591C3.60605 27.3653 2.94565 27.3495 2.68925 26.6875ZM5.24336 25.6849C4.92671 24.8669 4.08978 24.534 3.20854 24.8754C2.81032 25.0294 2.49113 25.2932 2.3098 25.6179C2.10307 25.9882 2.08431 26.4177 2.25576 26.8599C2.42015 27.285 2.70971 27.5843 3.09283 27.7258C3.25801 27.7856 3.4325 27.8156 3.60817 27.8144C3.83338 27.8144 4.0696 27.769 4.303 27.6785C5.20752 27.3283 5.57667 26.5457 5.24336 25.6849Z" fill="#002C62"/>
<path d="M7.71926 30.0272L6.67263 30.8073L5.81341 29.6544L6.86003 28.8745L6.55057 28.459L4.03174 30.3362L4.34134 30.7515L5.43241 29.9384L6.29163 31.091L5.20042 31.9044L5.5151 32.3266L8.03393 30.4494L7.71926 30.0272Z" fill="#002C62"/>
<path d="M8.31521 33.9693C8.03087 34.0299 7.7684 33.9521 7.53331 33.7384C7.01021 33.263 7.22809 32.6486 7.60655 32.2321C7.83007 31.9861 8.08534 31.8395 8.34512 31.8082C8.3797 31.8041 8.41427 31.8019 8.44856 31.8019C8.67095 31.8019 8.88431 31.8896 9.07072 32.059C9.55868 32.5024 9.40699 33.1081 9.04038 33.5118C8.8201 33.7539 8.56258 33.9166 8.31521 33.9693ZM9.41969 33.9027C10.0719 33.185 10.0519 32.32 9.36874 31.6992C8.71991 31.1095 7.82245 31.186 7.18688 31.8853C6.89972 32.2014 6.73222 32.58 6.71529 32.9516C6.6961 33.3751 6.8715 33.7676 7.22244 34.0865C7.51821 34.3554 7.85674 34.4946 8.20952 34.4946C8.2589 34.4946 8.30872 34.4919 8.35853 34.4864C8.73896 34.4445 9.11573 34.2371 9.41969 33.9027Z" fill="#002C62"/>
<path d="M12.7862 34.1392L10.8248 35.6884L11.2229 33.2191L10.6968 32.9097L9.10352 35.6176L9.55056 35.8805L9.58075 35.828C9.58851 35.8144 10.2495 34.6671 10.6226 34.0254L10.2335 36.2825L10.5704 36.4805L12.3512 35.0733C11.9955 35.659 11.6413 36.2455 11.2886 36.833L11.2574 36.8848L11.708 37.1499L13.3013 34.442L12.7862 34.1392Z" fill="#002C62"/>
<path d="M13.7876 34.5842L12.5986 37.4918L13.0821 37.6895L14.2711 34.7818L13.7876 34.5842Z" fill="#002C62"/>
<path d="M16.1055 37.6634L15.2524 35.1703L15.2419 35.1399L14.7638 35.0139L13.9629 38.0515L14.472 38.1857L15.0367 36.044L15.8933 38.5606L16.3631 38.6845L17.1641 35.6468L16.6715 35.517L16.1055 37.6634Z" fill="#002C62"/>
<path d="M19.3024 37.6561C19.2871 37.8543 19.262 38.0797 19.1573 38.2445C19.043 38.4244 18.8476 38.501 18.5608 38.479C17.9453 38.4316 17.9251 38.0393 17.9613 37.5701L18.1012 35.7521L17.5718 35.7113L17.4369 37.4653C17.413 37.7738 17.3836 38.1577 17.5436 38.4429C17.7222 38.7593 18.0675 38.9392 18.5697 38.9779C18.616 38.9814 18.6613 38.9832 18.7055 38.9832C19.1687 38.9832 19.5155 38.7893 19.6895 38.4295C19.7834 38.2386 19.8101 37.9798 19.8276 37.7523L19.9704 35.8958L19.441 35.8551L19.3024 37.6561Z" fill="#002C62"/>
<path d="M22.8024 35.6303L22.1804 38.0508L21.0016 35.8455L20.3955 35.9177L20.7683 39.037L21.2832 38.9755L21.2755 38.9155C21.2735 38.8998 21.1043 37.5868 21.0124 36.8505L22.0699 38.8815L22.4578 38.8351L23.0223 36.6371C23.0969 37.3582 23.241 38.6646 23.2427 38.6803L23.2493 38.7404L23.7685 38.6786L23.3957 35.5593L22.8024 35.6303Z" fill="#002C62"/>
<path d="M26.8375 37.2088L26.3853 37.3919L26.032 36.5192L26.5912 36.2927C26.9004 36.1675 27.2437 36.0677 27.4067 36.4703C27.5697 36.8729 27.1983 37.0626 26.8375 37.2088ZM25.5597 35.3529L26.1229 35.1247C26.2475 35.0742 26.4076 35.0182 26.5411 35.0325C26.6707 35.0465 26.7599 35.1237 26.8214 35.2758C26.8771 35.4135 26.86 35.5397 26.7709 35.6509C26.6983 35.7412 26.425 35.852 26.3353 35.8882L25.8553 36.0827L25.5597 35.3529ZM27.201 35.7714C27.3645 35.5733 27.3942 35.31 27.2791 35.0259C27.1545 34.7184 26.9453 34.5528 26.657 34.5333C26.4174 34.5175 26.1682 34.6029 25.9557 34.6889L24.8965 35.1178L26.0756 38.03L27.0596 37.6315C27.4157 37.4873 28.2499 37.1496 27.9012 36.2886C27.7678 35.9591 27.5176 35.777 27.201 35.7714Z" fill="#002C62"/>
<path d="M29.1551 36.0923L28.6951 35.3353L30.0445 34.515L29.7955 34.1053L28.446 34.9256L28.0305 34.2418L29.4603 33.3727L29.2024 32.9484L27.3262 34.0887L28.9578 36.7733L30.8779 35.6062L30.6289 35.1964L29.1551 36.0923Z" fill="#002C62"/>
<path d="M30.9579 31.4587L32.4186 33.1302L29.8446 32.4317L29.4722 32.757L31.5394 35.1226L31.936 34.7761L30.4784 33.1082L33.0428 33.8088L33.4087 33.4891L31.3415 31.1235L30.9579 31.4587Z" fill="#002C62"/>
<path d="M34.0457 32.05L33.3585 31.4911L34.3549 30.2659L33.9829 29.9634L32.9865 31.1887L32.3656 30.6838L33.4214 29.3856L33.0362 29.0721L31.6509 30.7755L34.0882 32.7577L35.5058 31.0144L35.1338 30.7119L34.0457 32.05Z" fill="#002C62"/>
<path d="M35.7357 27.9719L35.3254 27.7321L34.6214 28.9367L33.9306 28.5329L34.7015 27.2137L34.2763 26.9655L33.2397 28.7392L35.9522 30.3243L36.2179 29.8697L35.0319 29.1764L35.7357 27.9719Z" fill="#002C62"/>
<path d="M34.4224 26.5606L37.3023 27.817L37.5111 27.3382L34.6312 26.0819L34.4224 26.5606Z" fill="#002C62"/>
<path d="M37.644 23.661L37.587 23.6325L37.3844 24.1069L37.428 24.1341C37.7977 24.3657 37.9505 24.735 37.8368 25.122C37.65 25.7579 37.0298 25.8215 36.5116 25.6693C36.2515 25.5928 35.4214 25.2806 35.6589 24.4729C35.7742 24.0808 36.0776 23.8828 36.5099 23.9143L36.563 23.9182L36.6629 23.4032L36.6008 23.394C35.9259 23.2952 35.4008 23.6507 35.1963 24.3458C35.0649 24.7928 35.1157 25.2029 35.3432 25.5318C35.5506 25.8317 35.8998 26.0607 36.3529 26.1939C36.5707 26.258 36.7762 26.2893 36.9668 26.2893C37.6114 26.2893 38.0856 25.9309 38.281 25.2661C38.4842 24.5749 38.2401 23.9598 37.644 23.661Z" fill="#002C62"/>
<path d="M35.6001 22.77L38.7031 23.2636L38.7851 22.7477L35.6822 22.2541L35.6001 22.77Z" fill="#002C62"/>
<path d="M38.5457 20.48C38.5381 20.7899 38.417 21.0301 38.1856 21.1943C37.9786 21.3412 37.6855 21.4174 37.3584 21.4098C37.0262 21.4016 36.7484 21.3044 36.5548 21.1286C36.3613 20.9528 36.2627 20.7062 36.2699 20.4157C36.2771 20.1219 36.3941 19.8793 36.6083 19.7144C36.7989 19.5678 37.0609 19.488 37.3497 19.488C37.3626 19.488 37.3755 19.4882 37.3885 19.4885C37.9593 19.5024 38.5631 19.7702 38.5457 20.48ZM37.379 18.945C36.4415 18.945 35.825 19.521 35.8028 20.4256C35.7918 20.8729 35.9445 21.2562 36.2443 21.5336C36.5256 21.7938 36.9256 21.9431 37.3707 21.9539C37.3875 21.9544 37.4043 21.9547 37.4209 21.9547C38.2032 21.9547 38.9873 21.5058 39.0122 20.4872C39.0235 20.0319 38.871 19.6442 38.5715 19.3665C38.291 19.1062 37.8877 18.9569 37.436 18.9457C37.4168 18.9453 37.3979 18.945 37.379 18.945Z" fill="#002C62"/>
<path d="M17.5715 30.4663C17.5324 30.667 17.3968 30.7645 17.1568 30.7645H17.1367V30.9701H17.5183V32.1484H17.7863V30.4501H17.5746L17.5715 30.4663Z" fill="#002C62"/>
<path d="M18.9205 31.3309C18.7375 31.3309 18.6046 31.194 18.6046 31.0054C18.6046 30.79 18.7285 30.651 18.9205 30.651C19.1133 30.651 19.2533 30.7991 19.2533 31.003C19.2533 31.1962 19.1164 31.3309 18.9205 31.3309ZM19.3199 30.5534C19.2094 30.4597 19.0811 30.4141 18.9277 30.4141C18.581 30.4141 18.3389 30.6543 18.3389 30.9982C18.3389 31.3404 18.5611 31.5702 18.8917 31.5702C19.0626 31.5702 19.2075 31.5048 19.3065 31.3844C19.2962 31.5556 19.2376 31.9333 18.9181 31.9333C18.7532 31.9333 18.6495 31.8367 18.6332 31.6683L18.6314 31.6487L18.366 31.6684L18.3678 31.6888C18.3953 31.9812 18.5933 32.1629 18.8845 32.1629C19.1384 32.1629 19.5646 32.0465 19.5646 31.2668C19.5646 30.9293 19.4845 30.6959 19.3199 30.5534Z" fill="#002C62"/>
<path d="M20.6338 31.5325H20.1831L20.6461 30.8699C20.6417 31.0555 20.6354 31.4412 20.6338 31.5325ZM20.8967 30.4478H20.689L19.9062 31.51V31.7669H20.6335V32.1485H20.8967V31.7669H21.1462V31.5325H20.8967V30.4478Z" fill="#002C62"/>
<path d="M22.1128 31.9286C21.9168 31.9286 21.78 31.7848 21.78 31.5791C21.78 31.3876 21.921 31.2486 22.1152 31.2486C22.3132 31.2486 22.4313 31.3758 22.4313 31.5887C22.4313 31.7888 22.3003 31.9286 22.1128 31.9286ZM22.1464 31.007C21.9738 31.007 21.8228 31.076 21.7288 31.195C21.7562 30.8275 21.8884 30.6414 22.1224 30.6414C22.2824 30.6414 22.3959 30.7478 22.4049 30.9059L22.406 30.9259L22.6654 30.909L22.663 30.8879C22.6283 30.5899 22.4279 30.4118 22.1272 30.4118C21.9728 30.4118 21.4688 30.4758 21.4688 31.2983C21.4688 31.856 21.6958 32.163 22.108 32.163C22.4588 32.163 22.6943 31.9303 22.6943 31.5839C22.6943 31.2496 22.4639 31.007 22.1464 31.007Z" fill="#002C62"/>
<path d="M2.23975 17.4399C2.23975 17.5672 2.29032 17.6893 2.38035 17.7794C2.47038 17.8694 2.59249 17.92 2.71981 17.92C2.84713 17.92 2.96923 17.8694 3.05926 17.7794C3.14929 17.6893 3.19987 17.5672 3.19987 17.4399C3.19987 17.3126 3.14929 17.1905 3.05926 17.1005C2.96923 17.0104 2.84713 16.9599 2.71981 16.9599C2.59249 16.9599 2.47038 17.0104 2.38035 17.1005C2.29032 17.1905 2.23975 17.3126 2.23975 17.4399Z" fill="#002C62"/>
<path d="M37.5997 17.4399C37.6008 17.3762 37.5892 17.3129 37.5656 17.2537C37.5419 17.1945 37.5067 17.1406 37.4621 17.0952C37.4174 17.0497 37.3641 17.0136 37.3053 16.989C37.2465 16.9643 37.1834 16.9516 37.1197 16.9516C37.056 16.9516 36.9929 16.9643 36.9341 16.989C36.8753 17.0136 36.822 17.0497 36.7774 17.0952C36.7327 17.1406 36.6975 17.1945 36.6739 17.2537C36.6502 17.3129 36.6386 17.3762 36.6397 17.4399C36.6419 17.5658 36.6934 17.6858 36.7832 17.774C36.873 17.8623 36.9938 17.9117 37.1197 17.9117C37.2456 17.9117 37.3665 17.8623 37.4562 17.774C37.546 17.6858 37.5975 17.5658 37.5997 17.4399Z" fill="#002C62"/>
</g>
</g>
<defs>
<clipPath id="clip0_544_437">
<rect width="40" height="40" fill="white"/>
</clipPath>
</defs>
</svg>
