<svg width="40" height="40" viewBox="0 0 40 40" fill="none" xmlns="http://www.w3.org/2000/svg">
<g clip-path="url(#clip0_544_437)">
<mask id="mask0_544_437" style="mask-type:luminance" maskUnits="userSpaceOnUse" x="0" y="0" width="40" height="40">
<path d="M0 19.9998C0 31.0453 8.95432 39.9999 19.9998 39.9999C31.0457 39.9999 40 31.0453 40 19.9998C40 8.95391 31.0457 -6.75036e-05 19.9998 -6.75036e-05C8.95432 -6.75036e-05 0 8.95391 0 19.9998Z" fill="white"/>
</mask>
<g mask="url(#mask0_544_437)">
<path d="M0 19.9998C0 31.0453 8.95432 39.9999 19.9998 39.9999C31.0457 39.9999 40 31.0453 40 19.9998C40 8.95391 31.0457 -6.75036e-05 19.9998 -6.75036e-05C8.95432 -6.75036e-05 0 8.95391 0 19.9998Z" fill="white"/>
</g>
<path d="M13.6187 35.0307L13.4793 34.9839L13.2095 35.6306L13.3117 35.6733C13.5437 35.7703 13.7199 35.7218 13.8217 35.4781C13.9071 35.2733 13.829 35.1185 13.6187 35.0307Z" fill="#002843"/>
<path d="M28.5105 33.9773L28.3911 34.063L28.7559 34.6608L28.8506 34.603C29.0653 34.4712 29.129 34.2998 28.9913 34.0747C28.8757 33.8854 28.7047 33.8582 28.5105 33.9773Z" fill="#002843"/>
<path d="M26.9811 34.7724C26.6559 34.9259 26.6831 35.3217 26.8448 35.6658C27.0451 36.0929 27.4213 36.3163 27.7063 36.1821C28.0474 36.0213 27.9913 35.6197 27.8295 35.2755C27.6199 34.8295 27.2682 34.6368 26.9811 34.7724Z" fill="#002843"/>
<path d="M3.60036 21.865L3.59967 21.8588L2.86865 21.7259L2.92062 22.1641L3.60036 21.865Z" fill="#002843"/>
<path d="M22.5187 3.50168C22.6457 3.5237 22.7583 3.48929 22.8594 3.39774C22.9592 3.30619 23.0212 3.19158 23.0456 3.05529C23.0701 2.91831 23.0511 2.78925 22.9902 2.66672C22.9283 2.54385 22.8343 2.47158 22.7077 2.4499C22.5893 2.42821 22.4778 2.46332 22.3731 2.5528C22.2707 2.64119 22.2026 2.76277 22.1807 2.89628C22.1559 3.02859 22.1761 3.1654 22.2382 3.28485C22.3005 3.40772 22.3941 3.47896 22.5187 3.50168Z" fill="#002843"/>
<path d="M21.409 36.2593C21.0511 36.2896 20.9385 36.6702 20.9705 37.0495C21.0098 37.5196 21.2844 37.8607 21.5976 37.8338C21.9734 37.8025 22.0608 37.4064 22.0288 37.0271C21.9879 36.5356 21.7249 36.2328 21.409 36.2593Z" fill="#002843"/>
<path d="M11.3756 5.06248C11.4658 5.0969 11.5512 5.09139 11.6314 5.04872C11.6705 5.0276 11.7045 4.99812 11.731 4.96237C11.7575 4.92662 11.7757 4.88548 11.7845 4.84187C11.8072 4.74791 11.7935 4.65499 11.7432 4.56344C11.6995 4.47705 11.6246 4.4105 11.5336 4.37724C11.4924 4.36046 11.448 4.35311 11.4035 4.35573C11.3591 4.35835 11.3158 4.37088 11.2769 4.39239C11.2376 4.41289 11.2036 4.44204 11.1773 4.47763C11.151 4.51323 11.1332 4.55434 11.1251 4.59785C11.104 4.69228 11.1188 4.79119 11.1667 4.87526C11.2163 4.9668 11.2855 5.02841 11.3756 5.06248Z" fill="#002843"/>
<path d="M14.0595 28.9014C14.1576 28.9678 14.2581 29.0305 14.3586 29.0934V26.2984C13.9662 26.1614 13.58 26.0072 13.2012 25.8362C13.3747 26.8862 13.6625 27.914 14.0595 28.9014Z" fill="#002843"/>
<path d="M13.1356 25.3752C13.5351 25.5613 13.9432 25.7284 14.3585 25.876V22.4945C13.9173 22.3445 13.4867 22.1651 13.0696 21.9576C12.9617 23.0956 12.9839 24.2422 13.1356 25.3752Z" fill="#002843"/>
<path d="M28.9058 25.9915C30.1912 24.0766 30.8182 21.7952 30.692 19.4922C30.4208 20.2718 30.0309 21.0523 29.5383 21.8019C29.5432 23.1287 29.3305 24.5278 28.9058 25.9915Z" fill="#002843"/>
<path d="M10.2181 23.9482C10.2212 23.9878 10.2215 24.0274 10.2253 24.067L10.1465 24.0742C10.857 25.8174 12.0149 27.3424 13.5032 28.4951C13.1744 27.571 12.9367 26.617 12.7935 25.6467C11.7988 25.158 10.9288 24.5791 10.2181 23.9482Z" fill="#002843"/>
<path d="M11.4589 16.3343C11.1702 15.9103 10.9203 15.4206 10.7159 14.8572C10.122 15.9183 9.71532 17.0738 9.51367 18.273C9.74263 18.6276 9.99416 18.9671 10.2667 19.2894C10.5399 18.2587 10.9403 17.266 11.4589 16.3343Z" fill="#002843"/>
<path d="M9.43444 18.8298C9.38691 19.2375 9.36267 19.6474 9.36182 20.0578C9.36182 21.0635 9.50396 22.0351 9.76415 22.9575C9.77715 22.9722 9.79035 22.9868 9.80373 23.0012C9.79289 21.9016 9.9127 20.8046 10.1606 19.7333C9.90146 19.4463 9.65899 19.1446 9.43444 18.8298Z" fill="#002843"/>
<path d="M20.0006 0.488075C9.22329 0.488075 0.488281 9.22412 0.488281 20.0004C0.488281 30.776 9.22329 39.512 20.0006 39.512C30.7765 39.512 39.5122 30.776 39.5122 20.0004C39.5122 9.22412 30.7765 0.488075 20.0006 0.488075ZM37.5845 18.8023C37.8657 18.792 38.0743 19.0061 38.086 19.3148C38.092 19.4449 38.064 19.5743 38.0048 19.6903L37.6341 19.7492L37.6313 19.6803C37.8754 19.6111 38.0017 19.5134 37.9938 19.2945C37.9852 19.0636 37.8003 19.0164 37.6912 19.0205C37.5474 19.0257 37.4582 19.0983 37.3429 19.3038C37.155 19.6411 37.0249 19.7333 36.7506 19.7436C36.5118 19.7526 36.2874 19.5839 36.2777 19.3231C36.2733 19.2088 36.2998 19.067 36.2998 18.9682L36.6429 18.9276L36.645 18.9909C36.5059 19.0291 36.361 19.1007 36.3682 19.2986C36.3741 19.4545 36.4977 19.555 36.6591 19.5488C36.8277 19.5426 36.8924 19.4952 37.0473 19.2009C37.2177 18.8763 37.3632 18.8106 37.5845 18.8023ZM36.3338 12.2063L37.1213 14.1406L37.124 14.1667L37.1034 14.1812L36.266 14.5219C36.0743 14.5997 35.915 14.6517 35.7887 14.6761C35.6704 14.7004 35.5486 14.7031 35.4294 14.684L35.2913 14.3443C35.4152 14.3615 35.5413 14.3548 35.6627 14.3247C35.7938 14.2941 35.957 14.2373 36.1535 14.155L36.6746 13.9427L36.7131 13.9134L36.7052 13.8635L36.0743 12.312L36.3338 12.2063ZM35.3351 13.0389C35.449 12.9917 35.5058 12.9033 35.5598 12.7763L35.7563 13.2595L34.6939 13.6918L34.8054 13.9654L35.5832 13.6491C35.6951 13.604 35.7563 13.5094 35.8076 13.3868L36.0041 13.8701L34.942 14.302L35.323 15.2385L35.0607 15.3445L34.031 12.8141L34.2929 12.7081L34.5565 13.3552L35.3351 13.0389ZM33.9098 8.71475C34.009 8.62836 34.031 8.51065 34.0413 8.3513L34.4096 8.77154L33.9666 9.16113L34.2341 9.46504L34.0004 9.66982L33.7333 9.36591L33.1503 9.87873L32.9049 9.59857L33.9098 8.71475ZM32.1966 7.69738C32.2479 7.6523 32.304 7.61685 32.3656 7.59241C32.4261 7.56763 32.4891 7.55318 32.5545 7.54836C32.5552 7.54973 32.4809 7.46472 32.328 7.29161L32.5366 7.1092L32.9978 7.6344L33.0315 7.60446C33.1114 7.53459 33.1733 7.44235 33.1823 7.30297L33.5289 7.69773L33.2607 7.93314L33.7261 8.46281L33.5189 8.64557L33.289 8.384C33.2754 8.44773 33.2524 8.50909 33.2208 8.56607C33.1874 8.62371 33.1449 8.67555 33.0949 8.71957C33.0313 8.77647 32.9563 8.81914 32.875 8.84472C32.7936 8.87031 32.7077 8.87821 32.623 8.8679C32.4452 8.85195 32.2807 8.76694 32.1649 8.63112C32.0449 8.49857 31.9818 8.32414 31.9894 8.14549C31.9952 7.96308 32.0648 7.81337 32.1966 7.69738ZM31.744 8.46694L33.016 9.91486L33.0329 9.95961L33.0098 10.0019L32.263 10.6586L32.0066 10.3668L32.5666 9.8746L32.5793 9.85291L32.57 9.83089L31.534 8.65176L31.744 8.46694ZM27.171 4.95849L27.678 4.05539C27.741 3.94353 27.7317 3.78625 27.6928 3.64789L28.8203 4.28116L28.6836 4.52483L28.0469 4.16724L27.477 5.18048L27.4698 5.23004L27.4987 5.26376L28.0163 5.55459C28.0941 5.59795 28.1612 5.62962 28.22 5.65164C28.2786 5.67195 28.3305 5.68434 28.3756 5.68847L29.0337 4.51623C29.077 4.43948 29.098 4.31902 29.0526 4.15864L29.4997 4.40954L29.0588 5.19562L29.2643 5.31092L29.5482 4.80567C29.5919 4.72583 29.6129 4.60743 29.5675 4.44739L30.0145 4.69795L28.6148 7.19111L28.3061 7.01765L29.1276 5.55459L28.9221 5.43963L28.1003 6.90235L27.7916 6.72889L28.2383 5.93248C28.1693 5.92167 28.102 5.90164 28.0383 5.87294C27.9671 5.84231 27.8773 5.79723 27.7709 5.73768L27.3077 5.47749C27.1992 5.41554 27.1332 5.34327 27.1094 5.25895C27.0857 5.17394 27.1063 5.07447 27.171 4.95849ZM21.8051 2.82946C21.8436 2.61125 21.9555 2.43917 22.1406 2.3132C22.229 2.25133 22.329 2.20794 22.4346 2.18564C22.5401 2.16335 22.6491 2.1626 22.755 2.18345C22.9507 2.21462 23.1281 2.31651 23.2537 2.4698C23.3821 2.62537 23.443 2.79986 23.4392 2.99535L23.8546 3.06831L23.9493 2.53347C23.9727 2.40097 23.9224 2.28464 23.8278 2.14904L24.376 2.24575L23.878 5.06071L23.5139 4.99634L23.8061 3.34399L23.3831 3.26931C23.3161 3.44159 23.1898 3.58427 23.0269 3.67164C22.86 3.76648 22.6647 3.79858 22.4762 3.76215C22.3696 3.74522 22.2674 3.70707 22.1758 3.64996C22.0842 3.59286 22.0049 3.51796 21.9427 3.42969C21.8794 3.34466 21.8345 3.24739 21.8108 3.14406C21.7871 3.04072 21.7851 2.93358 21.8051 2.82946ZM17.9266 2.4698L17.9001 2.31011L17.8802 2.26674L17.8292 2.26227L16.1366 2.53657L16.0912 2.25986L18.193 1.91982L18.2168 1.92395L18.2292 1.94873L18.309 2.44261C18.3303 2.57374 18.3376 2.67114 18.3314 2.73481C18.3255 2.79717 18.3074 2.85776 18.278 2.91309L18.6652 2.85079L18.7089 3.12682L17.5649 3.31198L17.6396 3.77282L18.4456 3.6417L18.4708 3.64548L18.4814 3.66716L18.6404 4.64873L18.2577 4.71103L18.1431 4.00514L18.1318 3.98345L18.108 3.97967L16.4663 4.24502L16.4223 3.96934L17.2283 3.8389L17.1536 3.37841L16.0065 3.5646L15.9625 3.28789L17.9129 2.97263C17.9418 2.9069 17.9569 2.83737 17.9566 2.762C17.9537 2.664 17.9437 2.56635 17.9266 2.4698ZM12.3893 3.4111L13.747 5.92698L13.4184 6.10354L13.0412 5.40315C13.0013 5.47338 12.9464 5.53391 12.8804 5.5804C12.7816 5.64853 12.6786 5.71048 12.5721 5.76591L11.2814 6.46251L11.1489 6.21574L11.8679 5.8282C11.798 5.69811 11.7106 5.60174 11.5378 5.5508L12.0062 5.29852L12.1959 5.65164L12.549 5.46097C12.6571 5.40281 12.7369 5.34946 12.7889 5.29956C12.8409 5.25068 12.8804 5.20113 12.9056 5.15191L12.2224 3.88709C12.167 3.78487 12.0441 3.72051 11.8975 3.67646L12.3893 3.4111ZM10.7979 4.54858C10.8577 4.37237 10.973 4.23883 11.1444 4.1459C11.3044 4.05489 11.4937 4.03019 11.6717 4.07707C11.7568 4.09674 11.8366 4.13458 11.9057 4.18798C11.9748 4.24139 12.0315 4.3091 12.072 4.38648C12.1587 4.5472 12.1714 4.71585 12.1112 4.89137C12.0517 5.06862 11.9353 5.20181 11.7639 5.29439C11.5919 5.38766 11.4167 5.41004 11.2377 5.36289C11.1528 5.34285 11.0732 5.30475 11.0044 5.25118C10.9356 5.19761 10.8791 5.12982 10.8388 5.05244C10.7521 4.89137 10.739 4.72411 10.7979 4.54858ZM7.34275 7.00939L7.36375 6.997L7.38887 7.00939L7.7592 7.34564C7.85797 7.4341 7.9244 7.50499 7.9595 7.55903C7.99495 7.61272 8.01801 7.67054 8.02971 7.73146L8.293 7.44098L8.50019 7.62889L7.72237 8.48794L8.0686 8.80079L8.61652 8.19471L8.63752 8.18301L8.66023 8.19264L9.39744 8.85964L9.13725 9.14771L8.60654 8.66828L8.58486 8.6583L8.56318 8.67104L7.44772 9.90351L7.24122 9.71559L7.78845 9.10951L7.4429 8.797L6.66336 9.65915L6.45617 9.47157L7.78191 8.00576C7.76374 7.93586 7.73049 7.87078 7.68451 7.81509C7.62102 7.73972 7.55187 7.6693 7.47767 7.60446L7.35824 7.49639L7.31591 7.47471L7.27323 7.50293L6.12095 8.77532L5.91445 8.58775L7.34275 7.00939ZM6.32195 12.9115L5.7052 14.3543C5.67181 14.4328 5.62879 14.4823 5.57544 14.505C5.52244 14.5271 5.45533 14.5212 5.37514 14.4872L5.04852 14.3467C4.93667 14.2999 4.80244 14.3426 4.67923 14.3922L4.90294 13.8697L5.45705 14.1058L5.4925 14.1082L5.51831 14.0817L6.0652 12.8014L6.32195 12.9115ZM3.7097 11.8291L4.42454 12.1334L4.58355 11.7627L4.8403 11.8725L4.68129 12.2439L5.59644 12.6348L5.44913 12.9776L3.8725 12.3037C3.75823 12.2549 3.62435 12.2889 3.49047 12.3426L3.7097 11.8291ZM3.15559 13.0854C3.33456 13.1624 3.44917 13.2106 3.49838 13.2323L3.77613 12.5839L4.03047 12.692L3.89211 13.0151C3.95923 12.9959 4.02875 12.9886 4.09999 12.9917C4.17158 12.9959 4.24076 13.0117 4.30752 13.0403C4.47135 13.1105 4.58527 13.233 4.65032 13.4085C4.68248 13.4928 4.6977 13.5826 4.6951 13.6728C4.6925 13.763 4.67214 13.8518 4.63517 13.9341C4.56634 14.1028 4.43341 14.2373 4.26554 14.3082C4.0938 14.3825 3.92619 14.3853 3.76271 14.3147C3.69681 14.2871 3.63651 14.2477 3.58477 14.1984C3.53365 14.1502 3.49064 14.0941 3.45743 14.0322L3.32183 14.3495L3.06817 14.2407L3.34282 13.5978L3.30978 13.5844C3.15972 13.5204 3.06921 13.5204 2.94943 13.5692L3.15559 13.0854ZM2.02121 20.1938L2.11207 20.1942C2.11482 20.3532 2.11758 20.4674 2.36366 20.4688L3.21823 20.474L3.22546 19.2622L2.37123 19.257C2.12515 19.2553 2.12067 19.3695 2.11654 19.5285L2.025 19.5278C2.02568 19.3836 2.0336 19.2549 2.03463 19.1228C2.03532 18.9789 2.03257 18.8378 2.03016 18.6881L2.12171 18.6884C2.12412 18.8474 2.12687 18.9613 2.37295 18.9631L4.13819 18.9734C4.38427 18.9748 4.38806 18.8612 4.39254 18.7018L4.48408 18.7025C4.47961 18.8436 4.47514 18.9813 4.47445 19.1166C4.47376 19.2542 4.47617 19.3926 4.47892 19.5426L4.38772 19.542C4.38531 19.383 4.38221 19.269 4.13613 19.2673L3.36966 19.2628L3.36209 20.4747L4.1289 20.4791C4.37464 20.4805 4.37877 20.3666 4.38359 20.2079L4.47479 20.2083C4.47032 20.3673 4.46619 20.5084 4.46515 20.6522C4.46447 20.7813 4.47032 20.9131 4.46997 21.0484L4.37842 21.0477C4.37601 20.8887 4.37326 20.7748 4.12684 20.7731L2.36159 20.7627C2.1162 20.7614 2.11173 20.8753 2.10725 21.0343L2.0157 21.0336C2.02018 20.8987 2.02431 20.7638 2.02534 20.6288C2.02603 20.4877 2.02362 20.3497 2.02121 20.1938ZM2.21154 22.5693C2.19755 22.4581 2.18183 22.3471 2.16438 22.2365L2.25524 22.2254L2.25972 22.2612C2.26867 22.3359 2.30205 22.4072 2.36125 22.4003L2.47379 22.3624L2.8128 22.2103L2.75257 21.7037L2.51785 21.6655C2.47138 21.6589 2.34783 21.6345 2.28484 21.6417C2.20156 21.6521 2.1988 21.7519 2.20569 21.8083L2.21016 21.8441L2.1193 21.8551C2.11069 21.7536 2.10209 21.6517 2.0897 21.5505C2.08075 21.4731 2.06698 21.3871 2.05391 21.3072L2.14442 21.2965C2.16266 21.448 2.24148 21.4841 2.31754 21.4989L3.64259 21.7722L3.76133 21.7884L3.80951 21.7766L3.93823 21.9935L2.51096 22.6181C2.35609 22.6846 2.31616 22.7348 2.33509 22.8928L2.24423 22.9035C2.23425 22.7899 2.22461 22.6794 2.21154 22.5693ZM2.55157 24.51L3.67701 23.2125L2.76186 23.4218C2.51509 23.4782 2.46347 23.5212 2.51337 23.7405L2.42423 23.7608C2.40599 23.6637 2.38396 23.5515 2.36125 23.4524C2.33853 23.3529 2.31238 23.2542 2.28622 23.1554L2.37536 23.1351C2.43008 23.3746 2.5705 23.3426 2.81727 23.2862L3.77028 23.068C3.92481 23.0329 3.89142 22.8556 3.87835 22.7971L3.96714 22.7768C3.97988 22.8477 3.99158 22.9158 4.00706 22.983C4.02118 23.0446 4.04114 23.1168 4.05835 23.1774L3.03479 24.3503L3.93272 24.1445C4.16917 24.0905 4.15471 24.011 4.11961 23.8558L4.2084 23.8355C4.2263 23.9298 4.24626 24.033 4.2676 24.1263C4.28687 24.2113 4.31165 24.3039 4.33437 24.3882L4.24523 24.4085C4.21426 24.2708 4.19257 24.2082 4.02118 24.2474L2.56775 24.5803L2.55157 24.51ZM3.07746 25.7628L2.99108 25.7924C2.95838 25.6864 2.92087 25.566 2.88232 25.4527C2.8455 25.345 2.80419 25.2352 2.76393 25.1285L2.85031 25.0989C2.89609 25.2321 2.94221 25.302 3.06852 25.2583L4.2325 24.8587C4.35881 24.8153 4.35261 24.7317 4.30718 24.5985L4.39357 24.5685C4.4273 24.6777 4.46171 24.7895 4.49854 24.8972C4.53743 25.0108 4.58148 25.1289 4.62072 25.2328L4.53433 25.2624C4.4889 25.1292 4.44244 25.0593 4.31647 25.1027L3.15215 25.5023C3.02584 25.546 3.03203 25.6293 3.07746 25.7628ZM3.33284 26.509L3.24611 26.5389C3.23096 26.4838 3.21135 26.4147 3.19276 26.3606C3.17074 26.2952 3.14492 26.2312 3.11808 26.1641L3.75169 25.2996L4.49234 25.5749L4.58389 25.5811L4.61865 25.5092L4.59731 25.4469L4.6837 25.4169C4.70848 25.5006 4.73739 25.5956 4.76561 25.6775C4.79384 25.7597 4.83066 25.8454 4.85854 25.9277L4.77215 25.9576C4.71468 25.79 4.64343 25.7449 3.92687 25.4744L3.41406 26.2243C3.35108 26.3128 3.30014 26.4126 3.33284 26.509ZM3.6598 27.5639C3.4977 27.2159 3.55689 26.9333 3.92687 26.7612L4.80347 26.3524C4.91808 26.2987 4.86508 26.1844 4.83101 26.1111L4.91395 26.0722C4.95732 26.1748 5.00447 26.2846 5.05127 26.3858C5.09567 26.4808 5.14558 26.5799 5.1917 26.6707L5.10875 26.7096C5.07089 26.6281 5.02684 26.5327 4.91843 26.5833L4.05112 26.9877C3.75823 27.1243 3.71211 27.3343 3.80917 27.5435C3.98607 27.9242 4.33368 27.7621 4.65204 27.6134L5.02822 27.4386C5.34726 27.2899 5.35999 27.2507 5.27533 27.0682L5.35827 27.0297C5.39648 27.1209 5.43674 27.2149 5.47804 27.3047C5.51349 27.3808 5.55066 27.453 5.58955 27.5274L5.50661 27.5659C5.46359 27.4737 5.41506 27.4104 5.20753 27.5071L4.56049 27.8086C4.19361 27.9796 3.84393 27.9607 3.6598 27.5639ZM4.65789 29.1591L4.57942 29.2066C4.52212 29.1024 4.46315 28.9991 4.40252 28.8968C4.34401 28.7987 4.28068 28.7003 4.21942 28.6043L4.29754 28.5575C4.37016 28.6783 4.42971 28.7368 4.54397 28.6679L5.59954 28.034C5.71414 27.9648 5.69074 27.8846 5.61847 27.7638L5.69659 27.7167C5.75235 27.8161 5.80913 27.9183 5.86764 28.0157C5.92925 28.119 5.99705 28.2253 6.05728 28.3183L5.97847 28.3654C5.90619 28.245 5.84665 28.1861 5.73204 28.2549L4.67647 28.8892C4.56187 28.9577 4.58561 29.0386 4.65789 29.1591ZM5.08294 29.5404C5.03992 29.6399 5.01032 29.7483 5.06298 29.8357L4.98451 29.8829C4.95638 29.8277 4.92654 29.7734 4.89502 29.7201C4.85957 29.6609 4.82137 29.6031 4.7811 29.5435L5.22095 28.5654L6.0029 28.68L6.09342 28.6673L6.11235 28.5895L6.07862 28.5327L6.15709 28.4855C6.19873 28.5619 6.24657 28.649 6.29132 28.7234C6.33571 28.798 6.3894 28.8741 6.43415 28.9488L6.35567 28.9959C6.26516 28.8438 6.18566 28.8146 5.42848 28.7L5.08294 29.5404ZM6.26241 31.6443C5.94336 31.2671 5.96608 30.8582 6.41625 30.4642L7.39541 29.6327C7.58298 29.4733 7.51208 29.3838 7.41227 29.2603L7.48214 29.2014C7.57025 29.3109 7.65663 29.4182 7.74371 29.5215C7.83285 29.6271 7.9244 29.7301 8.02386 29.8419L7.95434 29.9011C7.84902 29.782 7.77296 29.6974 7.58505 29.857L6.673 30.6314C6.35361 30.9026 6.12095 31.2537 6.42313 31.6106C6.74424 31.9906 7.1187 31.7355 7.30386 31.5782L8.06792 30.9291C8.50811 30.5554 8.48815 30.5485 8.32398 30.3382L8.3935 30.279C8.47231 30.3774 8.55079 30.4755 8.63235 30.5719C8.69809 30.6497 8.76727 30.7206 8.83335 30.7984L8.76348 30.8575C8.6086 30.6745 8.50604 30.7657 8.17874 31.0434L7.40642 31.6994C7.0416 32.0091 6.60348 32.047 6.26241 31.6443ZM8.14604 33.5545L8.34772 31.8477L7.70895 32.5364C7.53617 32.7223 7.51759 32.7866 7.6821 32.9394L7.62015 33.0069C7.54607 32.9325 7.4708 32.8593 7.39438 32.7873C7.32004 32.7181 7.24294 32.6514 7.16619 32.5842L7.22814 32.5171C7.4078 32.6847 7.50623 32.5787 7.67866 32.3932L8.3436 31.6753C8.45166 31.5597 8.32467 31.4316 8.28096 31.391L8.34325 31.3239C8.3935 31.3755 8.44134 31.4251 8.49193 31.4722C8.53805 31.5149 8.59518 31.5631 8.64371 31.6034L8.45579 33.1501L9.08287 32.4738C9.24773 32.2958 9.19094 32.2384 9.07495 32.1299L9.13725 32.0628C9.20505 32.1306 9.27905 32.205 9.34926 32.27C9.41293 32.3296 9.48555 32.3922 9.55128 32.4486L9.48933 32.5161C9.38608 32.4197 9.33343 32.3802 9.21365 32.5092L8.1987 33.6033L8.14604 33.5545ZM9.25599 34.2786L9.19954 34.3505C9.11488 34.2796 9.01782 34.1987 8.92352 34.1247C8.83404 34.0545 8.74008 33.9854 8.64818 33.9176L8.70463 33.8456C8.81545 33.9327 8.8922 33.9657 8.97446 33.8604L9.73369 32.8902C9.81629 32.7849 9.7657 32.7181 9.65488 32.6314L9.71132 32.5591C9.7984 32.6324 9.88823 32.7071 9.97805 32.7777C10.072 32.8517 10.1732 32.9263 10.2627 32.9924L10.2062 33.0644C10.0954 32.9773 10.019 32.9439 9.93641 33.0492L9.17717 34.0194C9.09457 34.1247 9.14516 34.1915 9.25599 34.2786ZM10.0142 34.9773L10.4017 33.4213C10.4358 33.2877 10.4406 33.2485 10.3233 33.1704L10.3738 33.0943C10.4568 33.1535 10.5446 33.2161 10.6316 33.2743C10.7242 33.3356 10.8182 33.3937 10.9128 33.4526L10.8619 33.5286L10.8023 33.4887C10.7449 33.4509 10.7008 33.4467 10.6657 33.4994L10.6327 33.5875L10.3343 34.7377L11.2098 34.0556C11.2587 34.0205 11.2976 33.9829 11.3227 33.9447C11.3737 33.8687 11.2962 33.8174 11.2088 33.7592L11.2594 33.6828C11.3375 33.7389 11.4201 33.7981 11.5003 33.8511C11.5599 33.8907 11.629 33.9327 11.6913 33.9695L11.6404 34.0459C11.5609 33.9929 11.533 33.9747 11.3478 34.1134L10.1016 35.0354L10.0142 34.9773ZM12.0551 36.1199C11.8669 36.0149 11.681 35.9113 11.491 35.8095C11.322 35.7189 11.1489 35.6301 10.9779 35.5431L11.0216 35.4622C11.1455 35.5286 11.2264 35.5479 11.2893 35.4298L11.87 34.3429C11.9329 34.2249 11.8713 34.1678 11.7474 34.1017L11.7904 34.0208C11.9078 34.0876 12.0248 34.1543 12.1436 34.218C12.36 34.334 12.581 34.4483 12.7965 34.5594L12.6368 34.8974L12.581 34.8675C12.6622 34.6393 12.6271 34.5966 12.3552 34.451L12.1597 34.3464L11.8465 34.9335L12.0658 35.0509C12.1976 35.1218 12.2575 35.1497 12.3717 34.9353L12.4402 34.9721C12.3948 35.0516 12.3473 35.1338 12.3026 35.2175C12.2578 35.3015 12.2141 35.3899 12.1704 35.4784L12.1016 35.4415C12.1928 35.2708 12.1687 35.2337 12.0124 35.1504L11.7935 35.0327L11.5513 35.4866C11.48 35.6202 11.5168 35.7038 11.7361 35.8208C12.0028 35.964 12.0427 35.9334 12.2551 35.7833L12.3212 35.8191L12.0551 36.1199ZM14.0592 35.5775C13.9818 35.763 13.8252 35.8425 13.6035 35.8373C13.6466 36.5656 13.6858 36.6737 13.8424 36.7965L13.8073 36.8812C13.7537 36.8542 13.6993 36.8289 13.6441 36.8051C13.5836 36.7797 13.524 36.7587 13.4621 36.7363C13.4139 36.5484 13.3819 36.1419 13.354 35.8057L13.26 35.7737L13.1688 35.7279L12.9489 36.2545C12.8935 36.3877 12.9723 36.4321 13.0938 36.483L13.0587 36.5673C12.9579 36.5215 12.8433 36.4696 12.7328 36.4235C12.6275 36.3794 12.5184 36.3374 12.4124 36.2968L12.4475 36.2125C12.5772 36.2665 12.6598 36.2786 12.7114 36.155L13.1864 35.0175C13.2377 34.894 13.1713 34.8434 13.0412 34.789L13.0766 34.7043C13.1805 34.7518 13.2866 34.8 13.3919 34.8441C13.5244 34.8995 13.7119 34.9704 13.8062 35.0096C14.0355 35.106 14.1676 35.318 14.0592 35.5775ZM15.2432 35.8824C15.2549 35.7382 15.2373 35.5775 15.0494 35.5169C14.901 35.4694 14.7648 35.551 14.7152 35.7055C14.6639 35.8669 14.6859 35.9444 14.9093 36.1898C15.1557 36.461 15.1674 36.6203 15.1 36.8316C15.0139 37.0997 14.7417 37.2233 14.4485 37.129C14.3241 37.0907 14.2121 37.0203 14.1236 36.9249L14.1948 36.5556L14.2602 36.5766C14.242 36.8299 14.2908 36.9824 14.4987 37.0492C14.7183 37.1197 14.8257 36.9617 14.8587 36.8578C14.9028 36.7205 14.8653 36.6121 14.7118 36.4331C14.4595 36.1412 14.4175 35.9874 14.5015 35.7258C14.5744 35.4976 14.8092 35.3438 15.0573 35.4233C15.1657 35.4581 15.29 35.5314 15.3829 35.5651L15.303 35.9017L15.2432 35.8824ZM16.4402 35.9416C16.3039 35.9079 16.2202 35.9093 16.1882 36.0394L15.8943 37.2367C15.8623 37.3665 15.936 37.4064 16.0726 37.4401L16.0506 37.5289C15.9439 37.499 15.8227 37.4656 15.7064 37.4367C15.5959 37.4095 15.4817 37.3851 15.3705 37.3613L15.3925 37.2725C15.5288 37.3062 15.6124 37.3049 15.6445 37.1748L15.938 35.9778C15.97 35.8477 15.8967 35.8077 15.7601 35.7743L15.7821 35.6856C15.8916 35.7158 16.0041 35.7472 16.1142 35.7743C16.2309 35.8033 16.3538 35.8298 16.4622 35.8525L16.4402 35.9416ZM17.905 36.5012L17.8255 36.4878C17.8447 36.2627 17.8282 36.2169 17.7074 36.1963L17.4118 36.1467L17.1846 37.4945C17.1629 37.6263 17.239 37.6607 17.3956 37.6872L17.3798 37.7774C17.2541 37.7523 17.1302 37.7282 17.0118 37.7079C16.9 37.689 16.7843 37.6731 16.6539 37.6545L16.669 37.5644C16.8253 37.5905 16.9089 37.5833 16.931 37.4515L17.1581 36.1037L16.9337 36.0659C16.7537 36.0356 16.7134 36.0573 16.6236 36.2848L16.5469 36.272L16.6656 35.8205L16.7245 35.8304C16.7131 35.8962 16.7785 35.9251 16.8401 35.9358L17.7821 36.0948C17.8499 36.1065 17.8853 36.1123 17.9528 36.038L18.0116 36.048L17.905 36.5012ZM19.6141 36.3491C19.5157 36.3419 19.4613 36.345 19.3216 36.5288L18.8955 37.0939L18.849 37.7192C18.8401 37.8387 18.9505 37.8469 19.082 37.8566L19.0751 37.9478C18.956 37.9354 18.8308 37.9226 18.7113 37.9137C18.5892 37.9048 18.4632 37.8992 18.3438 37.8934L18.3503 37.8025C18.4997 37.8132 18.5833 37.8194 18.5933 37.6824L18.6329 37.1521L18.2147 36.3543C18.1641 36.2696 18.1183 36.2379 18.0375 36.2317L18.0443 36.1405C18.14 36.1512 18.256 36.1633 18.3603 36.1712C18.4708 36.1794 18.5878 36.1846 18.6983 36.1891L18.6914 36.2803C18.6349 36.2761 18.5272 36.2682 18.5241 36.314C18.5214 36.3453 18.5355 36.3643 18.5585 36.4121L18.8487 36.9951L19.1736 36.5425C19.2097 36.4954 19.2438 36.4451 19.2469 36.4031C19.2507 36.3505 19.241 36.3216 19.0796 36.3092L19.0865 36.218C19.1756 36.2283 19.283 36.2397 19.3725 36.2462C19.4472 36.2517 19.5343 36.2514 19.6206 36.2576L19.6141 36.3491ZM20.0354 33.5672C19.9899 33.5672 19.9455 33.5644 19.9004 33.5637H14.359V32.3168C9.73404 30.172 6.52501 25.4906 6.52501 20.0579C6.52501 14.6245 9.73404 9.94343 14.359 7.79857V6.44495H26.5508V8.22224C30.7197 10.5223 33.545 14.9597 33.545 20.0579C33.545 25.1557 30.7197 29.5927 26.5508 31.8928V33.5637H20.1699C20.1248 33.5644 20.0804 33.5672 20.0354 33.5672ZM21.5745 37.9492C21.0823 37.9908 20.7258 37.6463 20.681 37.109C20.6349 36.558 21.0059 36.1805 21.4447 36.1433C21.9279 36.1027 22.2762 36.462 22.3186 36.9676C22.3551 37.403 22.0876 37.9061 21.5745 37.9492ZM23.1384 36.7432L23.4151 36.6902C23.5621 36.6623 23.6257 36.6465 23.5858 36.4355L23.6622 36.4207C23.6763 36.5112 23.6915 36.6052 23.709 36.6988C23.7269 36.7921 23.7479 36.8884 23.7696 36.9848L23.6932 36.9992C23.6515 36.7814 23.6096 36.768 23.4358 36.801L23.1597 36.854L23.2564 37.3627C23.2912 37.5461 23.3635 37.5719 23.5015 37.5451L23.5634 37.5331L23.5803 37.6232C23.465 37.6418 23.3411 37.6618 23.1821 37.6924C23.0702 37.7137 22.9563 37.7392 22.8452 37.764L22.8279 37.6742C22.9663 37.6477 23.0417 37.6115 23.0169 37.4804L22.786 36.2693C22.7608 36.1378 22.6775 36.1323 22.5395 36.1584L22.5223 36.0686C22.714 36.0356 22.903 36.0032 23.094 35.9664C23.3707 35.9137 23.5435 35.8769 23.7135 35.8408L23.7975 36.219L23.739 36.2304C23.655 35.9987 23.5903 35.9788 23.3287 36.029L23.0138 36.0893L23.1384 36.7432ZM26.1237 35.9853C26.0105 35.7675 25.9823 35.6952 25.7331 35.7812L25.3882 35.901L25.6673 36.7101C25.7479 36.9431 25.8563 36.9091 26.0074 36.8602L26.0373 36.9469C25.8945 36.9927 25.7634 37.0344 25.6333 37.0794C25.5059 37.1238 25.3772 37.172 25.2337 37.2257L25.2037 37.139C25.4498 37.0536 25.454 36.9924 25.3428 36.6695L24.8327 35.1917C24.7384 34.9187 24.6885 34.9212 24.4614 34.9886L24.4321 34.9019C24.6328 34.8324 24.8413 34.7677 25.0482 34.6957C25.3052 34.6079 25.5611 34.5167 25.8157 34.4221L25.9943 34.886L25.9337 34.9218C25.8081 34.6486 25.657 34.5966 25.3486 34.7033L25.0148 34.8193L25.3411 35.7647L25.6749 35.6487C25.9069 35.5685 25.9131 35.5217 25.868 35.2725L25.9334 35.2498C25.9492 35.3152 26.0057 35.4966 26.0473 35.6167C26.0838 35.7234 26.1437 35.8776 26.1802 35.9657L26.1237 35.9853ZM27.7241 36.2985C27.277 36.5091 26.8231 36.3102 26.5942 35.8229C26.3595 35.3225 26.5756 34.8392 26.9738 34.6513C27.4126 34.4445 27.8649 34.6596 28.08 35.1184C28.2655 35.5135 28.1901 36.0786 27.7241 36.2985ZM29.9612 34.9955C29.9062 35.03 29.8522 35.0659 29.7991 35.1032C29.6184 35.0323 29.2715 34.82 28.9827 34.6458L28.9022 34.7036L28.8117 34.7508L29.1087 35.2374C29.1837 35.3607 29.2663 35.3228 29.3785 35.2536L29.426 35.3321C29.3296 35.3868 29.2205 35.4498 29.1183 35.5124C29.0207 35.5729 28.9241 35.635 28.8285 35.6986L28.781 35.6202C28.9008 35.5465 28.959 35.4863 28.8891 35.372L28.2472 34.3209C28.1774 34.2067 28.0972 34.2311 27.9771 34.3044L27.9296 34.2263C28.0283 34.1702 28.1299 34.1117 28.2266 34.0521C28.3491 33.9771 28.5171 33.8663 28.6038 33.8129C28.8155 33.6832 29.0646 33.6997 29.2116 33.9403C29.3159 34.1113 29.2887 34.2848 29.1548 34.462C29.7691 34.8534 29.8796 34.8847 30.0706 34.8293L30.1181 34.9077C30.065 34.9355 30.0127 34.9648 29.9612 34.9955ZM30.7986 34.3953C30.6451 34.5102 30.4912 34.6303 30.3401 34.748L30.2854 34.6747C30.3979 34.5904 30.4503 34.5247 30.3697 34.4176L29.6322 33.4312C29.552 33.3242 29.4745 33.3559 29.362 33.4405L29.3069 33.3672C29.4171 33.2891 29.5272 33.211 29.6349 33.1301C29.8314 32.9824 30.028 32.83 30.22 32.6816L30.4578 32.9694L30.4076 33.0072C30.2355 32.8372 30.1822 32.851 29.9354 33.0361L29.7581 33.1697L30.1567 33.7021L30.3553 33.5527C30.475 33.4629 30.526 33.4202 30.3804 33.2258L30.4423 33.1793C30.4947 33.2543 30.5497 33.3321 30.6062 33.4082C30.6633 33.4846 30.7249 33.5613 30.7862 33.6388L30.7242 33.6852C30.6079 33.5304 30.5642 33.5369 30.4227 33.6429L30.2238 33.7923L30.5315 34.2039C30.6223 34.3251 30.7135 34.3268 30.9125 34.1777C31.1544 33.9957 31.1438 33.9468 31.0983 33.6904L31.1582 33.6453L31.3179 34.0143C31.1434 34.1406 30.9706 34.2655 30.7986 34.3953ZM31.8775 33.5242C31.7912 33.6 31.7062 33.6774 31.6225 33.7561L31.5626 33.687C31.6686 33.5944 31.7158 33.5255 31.628 33.4244L30.8196 32.4951C30.7318 32.3939 30.6574 32.4314 30.5511 32.524L30.4909 32.4548C30.579 32.3826 30.6692 32.3086 30.7552 32.2335C30.8454 32.1547 30.9376 32.0694 31.0192 31.9937L31.0794 32.0628C30.9731 32.1554 30.9262 32.2246 31.014 32.3254L31.8225 33.2547C31.9095 33.3559 31.9846 33.3187 32.0906 33.2258L32.1508 33.295C32.0585 33.3699 31.9674 33.4463 31.8775 33.5242ZM33.0742 32.4514C32.7386 32.798 32.2179 32.7642 31.8645 32.4208C31.4607 32.0284 31.4645 31.5135 31.7922 31.1756C31.8462 31.1195 31.8978 31.0816 32.0107 30.9952L32.2454 30.839L32.5624 31.1136L32.5166 31.1611C32.3256 31.0799 32.127 30.9914 31.9106 31.2155C31.6831 31.4499 31.6576 31.8102 32.0613 32.2022C32.296 32.4304 32.7349 32.6397 33.0666 32.2976C33.1186 32.2435 33.1513 32.1795 33.174 32.1052L32.984 31.9121C32.8429 31.7748 32.7882 31.7551 32.6443 31.9038L32.5789 31.8402C32.6609 31.7606 32.7552 31.6732 32.8343 31.5913C32.8973 31.5266 32.9668 31.444 33.0271 31.3772L33.0928 31.4409C32.9947 31.5421 32.9868 31.5806 33.0725 31.6639L33.2342 31.8209C33.2797 31.8653 33.3175 31.9018 33.3702 31.8777L33.418 31.9245C33.3468 32.0687 33.2432 32.2769 33.0742 32.4514ZM34.6515 30.5815L32.9365 30.5299L33.6775 31.1071C33.8775 31.263 33.9432 31.2761 34.0806 31.0985L34.1528 31.1546C34.0852 31.2349 34.019 31.3163 33.9542 31.3989C33.8922 31.4797 33.8316 31.5617 33.7725 31.6447L33.7002 31.5886C33.851 31.3945 33.7371 31.3057 33.5375 31.1501L32.7658 30.5492C32.6412 30.4518 32.5253 30.5894 32.4884 30.6369L32.4165 30.5805C32.4633 30.5261 32.5084 30.4735 32.5507 30.4191C32.5889 30.3695 32.6323 30.3079 32.6681 30.2563L34.222 30.3079L33.4951 29.7414C33.3038 29.5924 33.2515 29.654 33.1541 29.7793L33.0818 29.7232C33.1434 29.6499 33.2105 29.569 33.2693 29.4933C33.3227 29.4248 33.3788 29.3466 33.4294 29.2757L33.5017 29.3318C33.4149 29.4434 33.3802 29.4998 33.5189 29.6079L34.6956 30.5244L34.6515 30.5815ZM35.7594 28.8683C35.6802 29.0077 35.5673 29.1251 35.4311 29.2097L34.9544 29.0101L34.9881 28.9502C35.2428 29.0348 35.5488 29.0145 35.6703 28.7974C35.7832 28.596 35.7061 28.3461 35.4638 28.2099C34.8938 27.8887 34.6278 28.7578 33.9047 28.3503C33.5092 28.1279 33.439 27.7717 33.6176 27.4527C33.6782 27.3453 33.766 27.2538 33.8431 27.1595L34.2588 27.3388L34.2251 27.3987C33.9945 27.3068 33.8011 27.3563 33.6954 27.5446C33.5839 27.7435 33.6882 27.9531 33.9119 28.0794C34.4819 28.3998 34.7775 27.5067 35.4824 27.9035C35.8806 28.1279 35.9329 28.5599 35.7594 28.8683ZM36.4515 27.3763C36.4047 27.4802 36.3596 27.5883 36.3084 27.7101L36.2254 27.6723C36.2908 27.5274 36.3046 27.4448 36.1831 27.3897L34.9406 26.8263L34.8463 27.0338C34.771 27.2008 34.782 27.2452 34.9788 27.3904L34.9468 27.4616L34.5411 27.2314L34.5658 27.1767C34.6268 27.2042 34.6711 27.1488 34.6973 27.0913L35.091 26.2195C35.1193 26.1569 35.1344 26.1238 35.0797 26.0399L35.1045 25.9851L35.5147 26.2044L35.4813 26.2777C35.269 26.2013 35.2208 26.2061 35.1698 26.318L35.0466 26.5912L36.2891 27.1546C36.4109 27.21 36.4636 27.1447 36.529 26.9998L36.6123 27.0376C36.5571 27.1498 36.5036 27.2627 36.4515 27.3763ZM37.1629 25.6967C37.0408 26.0605 36.804 26.2247 36.4178 26.0943L35.5013 25.7859C35.3812 25.7453 35.3412 25.8647 35.3154 25.9418L35.2287 25.9125C35.2676 25.8082 35.3089 25.6957 35.3443 25.5904C35.3777 25.4909 35.4097 25.3846 35.4386 25.2868L35.5254 25.3161C35.4968 25.4014 35.4634 25.5009 35.577 25.5391L36.4832 25.8444C36.7895 25.9476 36.9671 25.8272 37.0408 25.6079C37.1743 25.2097 36.8112 25.0879 36.478 24.9754L36.0847 24.8432C35.7515 24.731 35.7154 24.7503 35.6513 24.9406L35.5646 24.9117C35.6318 24.7414 35.69 24.5677 35.7391 24.3913L35.8258 24.4202C35.7935 24.5169 35.7856 24.5968 36.0017 24.6697L36.6783 24.8972C37.0617 25.0263 37.3027 25.2813 37.1629 25.6967ZM37.6506 23.7549C37.6231 23.884 37.5852 24.0296 37.5608 24.1435C37.5329 24.2757 37.5095 24.4058 37.4847 24.5383L37.3952 24.5193C37.4245 24.3817 37.4207 24.298 37.2899 24.2705L36.086 24.0151C35.9552 23.9872 35.9181 24.0623 35.8888 24.2003L35.7997 24.1814C35.8258 24.0733 35.8544 23.9539 35.8806 23.8306C35.9122 23.6809 35.9373 23.5298 35.9683 23.3829C36.0929 22.793 36.5761 22.6319 36.9716 22.7155C37.6217 22.8536 37.7408 23.3264 37.6506 23.7549ZM37.916 22.1198C37.9022 22.233 37.8919 22.3493 37.8816 22.4629L37.791 22.4523C37.8079 22.3122 37.7965 22.2292 37.664 22.2134L36.4422 22.0668C36.3097 22.0506 36.2791 22.1287 36.2622 22.2685L36.1714 22.2578C36.1882 22.1449 36.2058 22.0293 36.2196 21.916C36.2337 21.797 36.2454 21.6713 36.255 21.5609L36.3459 21.5715C36.329 21.7116 36.3404 21.7945 36.4729 21.8104L37.6947 21.9573C37.8275 21.9732 37.8578 21.8954 37.8743 21.7553L37.9655 21.766C37.9472 21.8837 37.9307 22.0016 37.916 22.1198ZM38.0247 20.8371C38.0161 21.0284 38.0106 21.2236 38.0051 21.4156L37.9139 21.4115C37.9204 21.2704 37.9032 21.1885 37.7694 21.1826L36.5403 21.1258C36.4068 21.1193 36.382 21.1995 36.3755 21.3399L36.2843 21.3361C36.2939 21.2012 36.3039 21.067 36.3101 20.9317C36.3211 20.686 36.3294 20.4371 36.3369 20.1945L36.71 20.1935L36.7073 20.2565C36.4667 20.2812 36.4433 20.3315 36.4292 20.6399L36.4185 20.8618L37.0827 20.8925L37.0941 20.6436C37.101 20.4939 37.1006 20.4279 36.858 20.4165L36.8614 20.3387C36.953 20.3459 37.0476 20.3532 37.1423 20.358C37.2373 20.3621 37.3357 20.3635 37.4341 20.3652L37.4307 20.443C37.2373 20.4344 37.2142 20.4722 37.2063 20.6488L37.1949 20.8973L37.7078 20.9214C37.8585 20.9283 37.918 20.8591 37.9297 20.6103C37.9439 20.3077 37.8991 20.2847 37.6726 20.157L37.6764 20.082L38.0616 20.1928C38.0485 20.4086 38.0351 20.6213 38.0247 20.8371Z" fill="#002843"/>
<path d="M14.1952 13.1288C14.2503 13.0868 14.3026 13.0407 14.3587 12.9997V11.0218C13.8993 11.3111 13.4625 11.635 13.0522 11.9906C13.3362 12.4725 13.7292 12.8479 14.1952 13.1288Z" fill="#002843"/>
<path d="M13.1162 21.5585C13.5178 21.7644 13.9329 21.943 14.3587 22.093V18.4568C14.2069 18.4083 14.0579 18.3536 13.9112 18.2947C13.5186 19.3475 13.2517 20.443 13.1162 21.5585Z" fill="#002843"/>
<path d="M25.8717 25.423C25.727 26.4686 25.4882 27.499 25.1582 28.5016H26.5507V28.5074C27.1637 28.0343 27.7238 27.4963 28.2213 26.9029C28.7816 25.3077 29.0934 23.7892 29.153 22.3554C28.2538 23.5681 27.142 24.6074 25.8717 25.423Z" fill="#002843"/>
<path d="M13.5692 18.1444C12.8622 17.8068 12.2297 17.3277 11.7034 16.6662C11.2082 17.5803 10.8275 18.5795 10.5684 19.6271C11.2103 20.3127 11.9516 20.8979 12.7676 21.3631C12.912 20.2633 13.1809 19.1835 13.5692 18.1444Z" fill="#002843"/>
<path d="M14.3588 18.0762V17.2305C14.246 17.4699 14.1405 17.7127 14.0425 17.9585C14.1464 18.0005 14.2517 18.0397 14.3588 18.0762Z" fill="#002843"/>
<path d="M11.9014 16.3198C12.3714 16.9546 12.9891 17.4652 13.701 17.8073C13.8937 17.3336 14.1132 16.8712 14.3584 16.4224V13.6171C14.3216 13.5992 14.283 13.583 14.2465 13.5644C13.3187 14.3102 12.5305 15.2491 11.9014 16.3198Z" fill="#002843"/>
<path d="M29.1622 21.7064C29.1464 20.3717 28.9037 19.1145 28.4377 17.9395C28.257 18.2835 28.0523 18.6144 27.8251 18.9297C27.282 19.6744 26.6195 20.3311 25.8623 20.8925C26.0571 22.2113 26.0798 23.5742 25.9311 24.9437C27.205 24.0809 28.3018 22.982 29.1622 21.7064Z" fill="#002843"/>
<path d="M21.5777 10.6652H25.5904V7.40591H15.3193V32.6022H25.5904V29.4634H21.5777V10.6652Z" fill="#002843"/>
<path d="M22.7612 11.8273C24.0009 12.3611 25.1412 13.1399 26.0976 14.0189C26.4796 13.2053 26.6397 12.3834 26.5719 11.6252C26.5648 11.6195 26.5577 11.6139 26.5505 11.6084V11.6269H22.9295C22.8741 11.6944 22.8191 11.7619 22.7612 11.8273Z" fill="#002843"/>
<path d="M22.5386 28.5017H24.7629C25.0736 27.5809 25.3058 26.6354 25.4571 25.6754C24.5533 26.2013 23.5731 26.6081 22.5386 26.8514V28.5017Z" fill="#002843"/>
<path d="M22.5386 26.4669C23.6034 26.2067 24.6081 25.77 25.5256 25.2052C25.7005 23.8309 25.6991 22.4604 25.5205 21.1347C24.6363 21.7339 23.6334 22.2078 22.5386 22.5403V26.4669Z" fill="#002843"/>
<path d="M29.5189 21.1429C30.0287 20.2766 30.3959 19.3773 30.5928 18.4986C30.4035 17.2086 29.978 15.9645 29.3376 14.8288C29.2853 15.7374 29.055 16.6391 28.6616 17.4978C29.1565 18.6391 29.4436 19.8553 29.5189 21.1429Z" fill="#002843"/>
<path d="M28.4474 17.0303L28.4502 17.0361C28.8191 16.1255 28.9974 15.1725 28.9685 14.2219C28.4106 13.3705 27.7345 12.6026 26.9606 11.9414C26.9651 12.6989 26.771 13.4988 26.3838 14.2852C27.2872 15.168 28.0034 16.1306 28.4474 17.0303Z" fill="#002843"/>
<path d="M22.5386 17.516C23.069 17.2577 23.5701 16.9429 24.033 16.5771C23.6027 15.827 23.1024 15.1193 22.5386 14.4636V17.516Z" fill="#002843"/>
<path d="M26.2043 14.6317C25.7699 15.3968 25.1941 16.0845 24.5127 16.6678C24.7964 17.1925 25.0384 17.7387 25.2365 18.3013C25.4808 19.0092 25.6688 19.7354 25.7985 20.473C26.4535 19.9691 27.0341 19.3753 27.5231 18.7091C27.8012 18.3279 28.0447 17.9227 28.2507 17.4983C28.2049 17.3971 28.1612 17.2952 28.112 17.1954C27.698 16.3557 27.0358 15.4605 26.2043 14.6317Z" fill="#002843"/>
<path d="M22.5386 22.1487C23.6158 21.81 24.6001 21.3313 25.4595 20.7252C25.3337 19.943 25.1409 19.173 24.8834 18.4237C24.6995 17.9026 24.4758 17.3963 24.2143 16.9094C23.6964 17.312 23.1342 17.654 22.5386 17.9288V22.1487Z" fill="#002843"/>
<path d="M22.5386 13.89C23.2233 14.6355 23.8238 15.4543 24.3289 16.3315C24.9756 15.7664 25.5218 15.1035 25.9269 14.3656C24.9653 13.4653 23.8041 12.6665 22.5386 12.1358V13.89Z" fill="#002843"/>
<path d="M13.8992 13.362C13.4462 13.0748 13.0623 12.691 12.7752 12.2379C12.0769 12.8862 11.468 13.6246 10.9648 14.4337C11.1538 15.0278 11.3899 15.5423 11.6694 15.9835C12.2803 14.9772 13.0274 14.0858 13.8992 13.362Z" fill="#002843"/>
<path d="M10.4649 20.0653C10.2345 21.1589 10.1406 22.2768 10.185 23.3934C10.8644 24.0456 11.7283 24.6538 12.736 25.1718C12.602 24.0401 12.5941 22.8972 12.7123 21.7638C11.8847 21.3096 11.1277 20.7375 10.4649 20.0653Z" fill="#002843"/>
<path d="M3.91538 13.9578C4.00211 13.9953 4.09435 14.0018 4.18865 13.9767C4.28364 13.9519 4.34904 13.9006 4.38173 13.8222C4.41512 13.7444 4.40892 13.6625 4.3628 13.5778C4.31963 13.4949 4.24856 13.43 4.16215 13.3944C4.07575 13.356 3.97874 13.3485 3.8875 13.3734C3.79424 13.3975 3.73091 13.4484 3.69718 13.5265C3.66517 13.6009 3.67171 13.6818 3.7168 13.7695C3.76085 13.8576 3.82693 13.9203 3.91538 13.9578Z" fill="#002843"/>
<path d="M32.595 8.53852C32.6849 8.5337 32.7668 8.49963 32.8377 8.43631C32.9106 8.37229 32.9575 8.29588 32.9757 8.2064C32.9853 8.16634 32.9851 8.12454 32.9751 8.08457C32.9651 8.0446 32.9456 8.00764 32.9182 7.97684C32.8669 7.91799 32.7933 7.88908 32.7004 7.89149C32.6067 7.89321 32.5248 7.9259 32.4529 7.98923C32.3832 8.04829 32.3357 8.1294 32.3183 8.21913C32.3081 8.25944 32.308 8.30164 32.3179 8.34203C32.3278 8.38241 32.3474 8.41975 32.3751 8.45076C32.402 8.48197 32.4361 8.50623 32.4744 8.52151C32.5126 8.53678 32.554 8.54262 32.595 8.53852Z" fill="#002843"/>
<path d="M36.9521 23.0121C36.5291 22.9223 36.1602 23.019 36.0769 23.4121C36.059 23.4974 36.0349 23.6454 36.019 23.7373L37.257 23.9999C37.4566 24.0419 37.4935 23.9517 37.5234 23.8106C37.5833 23.5291 37.554 23.1398 36.9521 23.0121Z" fill="#002843"/>
</g>
<defs>
<clipPath id="clip0_544_437">
<rect width="40" height="40" fill="white"/>
</clipPath>
</defs>
</svg>
