<svg width="40" height="40" viewBox="0 0 40 40" fill="none" xmlns="http://www.w3.org/2000/svg">
<g clip-path="url(#clip0_544_437)">
<path d="M34.7387 21.6384V0H5.00015V21.6492C4.99747 21.9657 4.97888 29.5726 10.3958 34.0822L10.3838 34.0726C10.5539 34.2236 14.6053 37.7758 19.6393 39.9445L19.7384 39.9866H20.0097L20.1126 39.9372C24.9588 37.6898 29.3774 34.1225 29.4226 34.0873C34.8456 29.5712 34.7454 21.961 34.7387 21.6384Z" fill="#8B0029"/>
<path d="M6.09366 1.10291V1.31376H33.7137V1.10291H6.09366ZM6.09366 7.01592V7.22737H33.7137V7.01592H6.09366ZM6.03076 10.5462V10.757H33.652V10.5462H6.03076ZM11.2413 6.11198C11.0938 5.99956 10.9536 5.89413 10.6511 5.57681C10.6511 5.57681 9.37455 4.16432 9.1805 3.94915C9.22987 3.88848 10.6651 2.13398 10.6651 2.13309L10.7499 2.04417H10.0259L8.41366 4.03867V2.04417H7.68385V6.25681H8.41366V4.09919L10.0974 5.97354C10.2361 6.15986 10.4879 6.25666 10.8392 6.25666H11.441L11.2971 6.15406C11.2989 6.15495 11.2413 6.11198 11.2413 6.11198ZM14.6953 1.91971C14.0535 1.91599 13.5009 2.13205 13.0534 2.56134C12.6067 2.99064 12.3789 3.51807 12.3789 4.12818C12.3789 4.77071 12.6033 5.31108 13.047 5.7325C13.4779 6.14603 14.0114 6.3551 14.6349 6.3551C15.2577 6.3551 15.7986 6.13874 16.2416 5.70975C16.6831 5.28164 16.9097 4.73889 16.9097 4.09666C16.9097 3.50885 16.7009 2.99882 16.2901 2.58172C15.8645 2.14633 15.3264 1.92387 14.6953 1.91971ZM14.6648 5.80551C14.2264 5.80551 13.8549 5.62201 13.5671 5.25889C13.2965 4.92253 13.1586 4.52328 13.1586 4.07183C13.1586 3.6064 13.2963 3.21725 13.5677 2.91807C13.8391 2.62097 14.2034 2.47004 14.6525 2.47004C15.0928 2.47004 15.4584 2.6516 15.7407 3.01027C15.9988 3.34201 16.1301 3.75049 16.1301 4.22231C16.1301 4.68075 15.9975 5.06261 15.735 5.35718C15.4642 5.65383 15.1027 5.80551 14.6648 5.80551ZM24.8855 4.24238L26.2397 4.24313V3.69131L24.8855 3.6919V2.60001C25.1811 2.59302 26.5424 2.59956 26.558 2.59956L26.6043 2.60001V2.03361L24.1499 2.03198V2.07882L24.153 6.25666H26.8593L26.866 5.66305L24.8856 5.66469L24.8855 4.24238ZM30.7759 2.03212H30.0993L28.3769 6.25681H29.0288C29.0288 6.25681 29.5872 4.7658 29.6082 4.70692H31.1301C31.1512 4.76506 31.7207 6.25681 31.7207 6.25681H32.5293L30.8065 2.03212H30.7759ZM30.8947 4.14796H29.8123C29.854 4.03882 30.2864 2.94499 30.3594 2.7606C30.4299 2.94558 30.8535 4.03986 30.8947 4.14796ZM21.6088 5.30246C21.6088 5.30246 20.9085 4.42737 20.7317 4.2061C20.8767 4.15317 21.1302 4.03986 21.324 3.83718C21.5359 3.61696 21.6428 3.36491 21.6428 3.08982C21.6428 2.78053 21.5256 2.52595 21.2932 2.33294C21.0516 2.13398 20.7179 2.03302 20.2984 2.03302H18.8959V6.25681H19.6488V6.19183C19.629 6.05027 19.6279 5.83272 19.6279 5.33101V2.55926C20.3169 2.55257 20.5909 2.63971 20.6978 2.71525C20.8418 2.818 20.9127 2.9658 20.9114 3.16848C20.9087 3.63465 20.5668 3.91331 19.8667 4.01874L19.787 4.02989L21.2676 5.92521C21.443 6.14603 21.6995 6.25666 22.0311 6.25666H22.6342L22.5099 6.17146C22.2093 5.96595 21.8797 5.64937 21.6088 5.30246ZM18.9548 9.0064H19.601V8.7432L18.9548 8.7438V8.2232C19.0953 8.21963 19.7441 8.2232 19.752 8.2232H19.7731V7.95361L18.6047 7.95257V7.97502L18.6064 9.96625H19.8917L19.8996 9.68268L18.9549 9.68387L18.9548 9.0064ZM9.33857 7.95465H9.09619L9.09797 9.19525C9.09797 9.56551 9.01247 9.76699 8.55701 9.76699H8.50407C8.20147 9.76699 8.04861 9.57354 8.04861 9.19525L8.05039 7.95465H7.7008L7.69946 9.19629C7.69946 9.34707 7.70541 9.44982 7.71805 9.51257C7.73916 9.62514 7.78571 9.72343 7.85872 9.80253C7.99017 9.94528 8.17827 10.019 8.41782 10.019H8.64385C8.88251 10.019 9.0721 9.94528 9.20266 9.80253C9.27463 9.72343 9.32117 9.62514 9.34273 9.51212C9.35552 9.44982 9.36072 9.34707 9.36072 9.19629L9.36013 7.95465H9.33857ZM12.3719 7.95465L12.3714 7.97651C12.3714 7.97651 12.3691 9.3154 12.3691 9.43331C12.2941 9.33859 11.204 7.95465 11.204 7.95465H10.9015V9.97041H11.1647L11.1658 8.46305C11.2401 8.55896 12.3469 9.96967 12.3469 9.96967L12.6375 9.97041V7.95465H12.3719ZM14.1231 7.95465V9.97041H14.4694L14.4706 7.95465H14.1231ZM26.7296 9.97041H27.0767V7.95465H26.7271V9.52818L26.7296 9.97041ZM17.156 7.95465C17.156 7.95465 16.618 9.42707 16.5792 9.53458C16.5409 9.42647 16.0126 7.95465 16.0126 7.95465H15.6165L16.3676 9.97205L16.6831 9.9716L17.4617 7.95465H17.156ZM25.0242 8.94915C25.0227 8.94766 24.7533 8.81532 24.7533 8.81532L24.5219 8.70201C24.3522 8.61294 24.2669 8.51614 24.2669 8.41383C24.2669 8.32804 24.306 8.26528 24.3856 8.22172C24.4458 8.18618 24.5337 8.16908 24.6407 8.17279C24.8171 8.17785 24.9975 8.23049 25.0916 8.3035L25.1265 8.33146V7.97383L25.112 7.96922C24.9649 7.92426 24.8119 7.90165 24.6581 7.90216C24.4498 7.90216 24.2736 7.94335 24.1347 8.02484C23.9676 8.12001 23.8833 8.26186 23.8833 8.44506C23.8833 8.63138 23.9769 8.78707 24.1619 8.90618C24.163 8.90737 24.2611 8.95554 24.2611 8.95554L24.6632 9.15272C24.8324 9.24209 24.9182 9.34543 24.9182 9.46231C24.9182 9.55019 24.8734 9.62067 24.7793 9.67599C24.6994 9.72604 24.6068 9.7522 24.5125 9.75138C24.2956 9.7493 24.0914 9.69547 23.9073 9.58885L23.8682 9.56521L23.9201 9.91777L23.9335 9.92194C24.0949 9.98216 24.28 10.0135 24.4775 10.0135C24.7225 10.0135 24.9346 9.9496 25.0867 9.829C25.2306 9.71331 25.302 9.55867 25.302 9.37175C25.3023 9.20759 25.2088 9.06677 25.0242 8.94915ZM28.3975 7.94707V7.96878L28.3964 8.21086C28.3964 8.21086 28.9169 8.21086 28.9589 8.21279V9.96551H29.3056L29.3066 8.21279H29.8815V7.94707H28.3975ZM32.1527 7.9496C32.1527 7.9496 31.6385 8.74335 31.6037 8.79778C31.5682 8.74335 31.0627 7.94707 31.0627 7.94707H30.6615C30.6615 7.94707 31.3793 9.07614 31.3875 9.08729L31.385 9.96551H31.7335L31.735 9.08774L32.4904 7.9496H32.1527ZM22.5105 9.51138C22.5105 9.51138 22.1774 9.09428 22.092 8.98826C22.163 8.96283 22.2833 8.90945 22.3749 8.81354C22.4755 8.70766 22.5265 8.58737 22.5265 8.45651C22.5265 8.30915 22.4715 8.18841 22.3594 8.09547C22.2441 8.00045 22.0847 7.95361 21.8864 7.95361H21.2184V9.96625H21.5762V9.93428C21.567 9.86707 21.567 9.76922 21.567 9.52476V8.20328C21.894 8.2003 22.025 8.24179 22.076 8.27837C22.1454 8.32699 22.1793 8.39748 22.1783 8.49369C22.1772 8.71629 22.0141 8.84952 21.6806 8.89948L21.6431 8.90454L22.3481 9.80729C22.4314 9.91183 22.5527 9.96595 22.71 9.96595H23L22.9389 9.92387C22.7958 9.82737 22.6397 9.67554 22.5105 9.51138ZM33.7033 21.6492V21.6959C33.7033 22.3346 33.5893 29.272 28.7655 33.2874C28.7264 33.3181 24.5186 36.7147 19.8653 38.912C15.0696 36.8016 11.1081 33.3326 11.0681 33.2976L11.0565 33.2874C6.09173 29.1547 6.03448 21.9264 6.03448 21.6611V11.8803H33.7035L33.7033 21.6492Z" fill="#D6CABC"/>
<path d="M17.5411 35.4484H17.921C17.9736 35.4484 17.9542 35.4006 17.9542 35.4006C17.7994 34.7179 17.8801 34.1822 17.9098 34.0232C17.9098 34.0232 17.9247 33.9764 17.8703 33.9764H17.495C17.4438 33.9764 17.4631 34.0156 17.4631 34.0156C17.5904 34.5405 17.5411 35.2054 17.5079 35.3976C17.5079 35.3975 17.4844 35.4484 17.5411 35.4484ZM18.9488 33.9337C18.3439 33.9923 18.3812 34.7013 18.3812 34.7013C18.4182 35.3429 19.0835 35.4643 19.0835 35.4643C18.9018 35.9563 18.4159 36.1029 18.4159 36.1029C18.3015 36.1469 18.3852 36.18 18.3852 36.18C18.5305 36.2283 18.7418 36.1429 18.7418 36.1429C19.6301 35.745 19.6532 34.8139 19.6532 34.8139C19.6721 33.8641 18.9488 33.9337 18.9488 33.9337ZM19.165 35.2391C18.8755 35.2479 18.8059 34.7969 18.8059 34.7969C18.7315 34.3022 18.9238 34.2738 18.9238 34.2738C19.1271 34.2101 19.216 34.6313 19.216 34.6313C19.3149 35.1166 19.165 35.2391 19.165 35.2391ZM21.19 34.508C21.19 34.508 21.1103 33.9199 20.558 33.9258C20.558 33.9258 20.0124 33.912 19.9876 34.6684C19.9876 34.6684 19.9668 35.4668 20.6563 35.4323C20.6563 35.4323 21.3318 35.3902 21.19 34.508ZM20.6655 35.1794C20.4044 35.275 20.3756 34.7419 20.3756 34.7419C20.3478 34.2323 20.5555 34.182 20.5555 34.182C20.7653 34.1294 20.8239 34.5044 20.8239 34.5044C20.9185 35.0837 20.6655 35.1794 20.6655 35.1794ZM21.3524 35.6365C21.9354 35.7517 22.0896 35.3388 22.0896 35.3388C22.2756 34.7527 21.5436 34.7243 21.5436 34.7243L21.6614 33.9701C21.6614 33.9701 22.3961 34.0049 22.5925 33.9075C22.5925 33.9075 22.6383 33.8765 22.6126 33.9871C22.6126 33.9871 22.572 34.2373 22.3323 34.2561L21.9714 34.2863L21.9371 34.4988C21.9371 34.4988 22.5617 34.4852 22.55 35.16C22.55 35.16 22.5268 35.6814 21.917 35.8098C21.917 35.8098 21.6312 35.8724 21.3021 35.7385C21.3021 35.7385 21.2518 35.7142 21.2785 35.6741C21.2785 35.6741 21.302 35.6262 21.3524 35.6365ZM19.202 21.5089C19.2486 21.453 19.3079 21.4924 19.3577 21.5089C19.4047 21.5221 19.406 21.6139 19.4333 21.661C19.4477 21.694 19.5388 21.7863 19.5476 21.8146C19.6215 22.1539 19.5476 22.5987 19.395 22.8564C19.3518 22.9355 19.2816 22.9771 19.2322 22.9798C19.1681 22.9853 19.1475 22.8913 19.1247 22.8564C19.027 22.72 19.1008 22.395 19.1247 22.243C19.1501 22.0476 18.9974 21.7328 19.0948 21.5905C19.095 21.5907 19.2002 21.5089 19.202 21.5089ZM14.5876 21.8669C14.6701 21.8423 14.7887 21.8833 14.8388 21.8669L14.9495 21.8216C15.0776 21.7392 15.2049 21.7627 15.335 21.7762C15.4 21.7835 15.5922 21.8668 15.6563 21.8692C15.7591 21.8811 16.2441 21.9337 16.7607 22.0078C16.7561 22.006 17.0359 21.9712 16.9653 21.8934C17.0096 21.9438 16.9576 21.8513 16.8518 21.8147L16.8159 21.7762C16.82 21.7722 16.7265 21.6982 16.893 21.6427C16.8298 21.6611 17.0023 21.6173 17.0359 21.581C17.1029 21.509 17.0047 21.432 17.0047 21.432C16.7607 21.3496 16.4865 21.5062 16.1198 21.4677C15.9391 21.453 15.6831 21.3496 15.4287 21.3913C15.1515 21.4406 14.744 21.5968 14.55 21.7478C14.5498 21.748 14.4575 21.9095 14.5876 21.8669ZM17.6753 19.8677C17.9249 19.8528 17.936 20.1113 17.9418 20.0848C17.9134 20.2692 17.4602 20.2857 17.3528 20.4296C17.0359 20.842 17.1674 21.2363 16.4191 21.2784C16.4191 21.2784 16.2687 21.2436 16.3268 21.1819C16.3738 21.1321 16.5552 21.0842 16.622 21.0431C16.7189 20.9875 16.7109 20.8316 16.7747 20.7356C16.7881 20.7118 16.8724 20.6821 16.8932 20.6616C17.103 20.3774 17.1268 20.0898 17.4976 19.9212C17.5125 19.912 17.6477 19.8732 17.6753 19.8677Z" fill="#8B0029"/>
<path d="M20.0723 18.7576C20.1576 18.7094 20.2419 18.7576 20.298 18.8082C20.3304 18.8312 20.6049 19.4877 20.6173 19.5531C20.6522 19.7918 20.6791 20.3423 20.6141 20.5188C20.5221 20.7649 20.2943 20.9548 20.3437 21.3914C20.3704 21.6485 20.4836 21.8482 20.592 22.0714C20.6048 22.1084 20.7175 22.3265 20.7231 22.3722C20.7652 22.6071 20.6367 22.9103 20.6173 23.1005C20.5597 23.5743 20.7495 24.0044 20.6733 24.4563C20.6414 24.6507 20.5788 24.749 20.4721 24.8691L20.3868 24.9415C20.3631 24.9888 20.3209 25.0044 20.2778 25.0375L20.2257 25.0905C20.1456 25.1093 20.1379 25.1564 20.105 25.1601C19.9022 25.2053 19.8608 25.0865 19.8736 25.1143C19.6681 24.535 20.0125 23.8583 19.8364 23.2989C19.7959 23.1704 19.6442 23.0422 19.6238 22.9051C19.5536 22.404 20.0228 22.1398 20.0161 21.8022C20.0161 21.5622 19.6999 21.2495 19.6284 21.0129C19.5389 20.7354 19.4797 20.2034 19.6016 19.8574C19.6302 19.7725 19.7389 19.6306 19.7689 19.5186C19.8265 19.3023 19.9154 19.1241 19.9463 18.9801C19.957 18.9365 19.9847 18.8731 20.0079 18.8311C20.0162 18.8174 20.0579 18.7658 20.0723 18.7576ZM26.0549 17.5613C26.3932 17.5218 26.5453 17.6555 26.3869 17.9441L26.3206 18.0068C26.2934 18.0166 26.2034 18.1346 26.1848 18.1511C26.0207 18.272 25.8666 18.3463 25.742 18.4992C25.6989 18.5503 25.664 18.681 25.611 18.7256C25.5263 18.7866 25.2022 18.9294 25.12 18.9442C24.7098 19.0098 24.1524 18.6007 24.0912 18.3641C24.0382 18.1616 24.0912 17.9644 24.1792 17.9181C24.3173 17.8479 24.6819 17.8841 24.8064 17.8715C25.1225 17.848 25.3215 17.8654 25.5633 17.7817C25.7103 17.7338 25.8779 17.5815 26.0549 17.5613ZM24.3078 17.4245C24.3078 17.4245 24.5001 17.5048 24.6723 17.4633C24.7941 17.4328 25.0198 17.3295 25.1335 17.3091C25.2024 17.2932 25.299 17.3277 25.366 17.3091C25.5532 17.2522 25.8977 16.8861 25.4852 16.847C25.335 16.8328 24.8889 17.0013 24.7495 17.0401C24.6101 17.0757 24.5233 17.0987 24.4076 17.1594C24.3767 17.1775 24.217 17.3085 24.2359 17.2861C24.2357 17.2858 24.1304 17.3741 24.3078 17.4245ZM21.3587 18.1172C21.2384 18.1005 21.2384 17.8981 20.935 17.9636C20.7233 18.008 20.6656 18.3191 20.3572 18.3108L20.204 18.236C20.0703 18.2039 19.9738 18.2504 19.8565 18.1927C19.3138 17.939 20.277 16.637 20.5887 16.6544C20.6051 16.6544 20.7655 16.713 20.7851 16.7304C20.8816 16.8146 20.8816 17.178 20.9728 17.3091C21.0421 17.4016 21.1512 17.394 21.2448 17.4633C21.3431 17.5375 21.5285 17.7939 21.5512 17.9274C21.5509 17.9274 21.6014 18.1499 21.3587 18.1172ZM26.3704 28.637C26.3765 28.6291 26.3765 28.6291 26.3704 28.637ZM26.3704 28.637L26.3689 28.6385C26.3704 28.6385 26.3704 28.6385 26.3704 28.637ZM30.6928 17.1882C30.6928 17.1903 30.6932 17.1928 30.6932 17.1958C30.6932 17.1963 30.6953 17.1969 30.6953 17.1978C30.6934 17.1933 30.6934 17.1906 30.6928 17.1882ZM25.8305 16.8215C25.8336 16.8146 25.8372 16.8076 25.8399 16.8019C25.8296 16.8223 25.828 16.8257 25.8305 16.8215ZM23.4877 23.3979C23.4873 23.3979 23.4827 23.3979 23.4811 23.3964C23.4877 23.401 23.4892 23.401 23.4877 23.3979ZM19.0231 18.2132C18.8128 18.3308 18.3544 18.5111 18.2586 18.7149C18.2052 18.8218 18.2052 18.9146 18.1622 19.0428C18.1563 19.0566 18.0996 19.0794 18.0819 19.1183C17.8583 19.1183 17.6611 19.1042 17.4674 19.1561C17.3157 19.1992 17.0973 19.3598 16.9285 19.3891C16.5865 19.4482 16.3249 19.2959 16.0042 19.3499C15.8613 19.375 15.7695 19.5231 15.6522 19.5824C15.5518 19.6305 15.5111 19.6305 15.4327 19.702L15.3618 19.7841C15.3423 19.8341 15.3193 19.8828 15.2931 19.9296C15.2235 20.0345 15.1954 20.1412 15.1788 20.2541C15.1618 20.3637 15.0982 20.6266 15.0409 20.7354C15.0131 20.7879 14.8684 20.906 14.8476 20.9545C14.8366 20.9875 14.804 21.0198 14.8476 21.0691C14.7975 21.0147 14.8076 21.1225 15.0852 21.1374C15.3903 21.1436 16.0549 20.9402 16.0549 20.9402L16.3738 20.7683C16.4356 20.7207 16.683 20.5334 16.7376 20.4682C16.97 20.1801 17.5915 19.1298 18.0751 19.4046L18.1622 19.4668C18.2776 19.661 18.1319 20.215 18.0454 20.342L17.9361 20.4724C17.8497 20.5004 17.7893 20.7236 17.7765 20.8282C17.7561 20.9937 17.8042 21.1438 17.8165 21.2363C17.8415 21.4357 17.8623 21.6876 17.739 21.934C17.7124 21.9815 17.6427 22.0672 17.6613 22.2007C17.6846 22.352 17.899 22.4626 17.93 22.5879C17.9486 22.6507 18.0037 22.6605 17.93 22.781C17.8891 22.8456 17.7126 22.9557 17.6613 23.0119C17.5915 23.0828 17.6525 23.1939 17.6985 23.2375C17.8317 23.3578 17.9419 23.3732 18.0454 23.5115C18.1929 23.7007 18.1844 23.8653 18.5092 23.8968C18.764 23.9203 19.1242 23.9349 18.9721 23.5872L18.8955 23.4575C18.8048 23.2311 18.6461 23.0294 18.6248 22.7811C18.595 22.4653 18.8489 22.305 18.7422 22.0499C18.6567 21.8541 18.2721 21.8761 18.2402 21.6215C18.224 21.4797 18.3682 21.1787 18.3954 21.0433C18.425 20.8581 18.3756 20.7408 18.4356 20.5818C18.4739 20.4684 18.6425 20.3408 18.661 20.1991C18.6971 19.9447 18.5007 19.7842 18.586 19.5059C18.6284 19.3624 18.8528 19.3787 18.9353 19.2728C19.0421 19.1301 18.9834 18.9331 19.0485 18.7326C19.0549 18.7094 19.1101 18.5896 19.1212 18.5688C19.1148 18.56 19.1654 18.3108 19.1654 18.3108C19.1319 18.1545 19.0347 18.2184 19.0231 18.2132ZM16.5829 20.2467C16.3673 20.296 16.348 19.836 15.8287 20.0153C15.8019 20.0254 15.6562 20.1591 15.6439 20.1802C15.5835 20.3175 15.6161 20.6676 15.5474 20.7011C15.5474 20.7011 15.3459 20.7509 15.3853 20.4959C15.4474 20.0907 15.5254 20.0153 15.73 19.8446C15.7578 19.8223 15.8345 19.7647 15.8739 19.756C16.1187 19.7005 16.5701 19.7937 16.6513 19.9181C16.7211 20.0212 16.5735 20.2496 16.5829 20.2467Z" fill="#8B0029"/>
<path d="M30.6936 17.1958C30.6576 17.0077 30.1461 17.0211 29.94 16.7699C29.8627 16.6694 29.9199 16.6143 29.94 16.5392C29.9986 16.3197 30.4659 16.4498 30.5754 16.2544C30.6197 16.1725 30.6346 15.931 30.6051 15.898C30.3126 15.5383 29.6942 15.7096 29.2572 15.5351C29.0474 15.4487 28.7852 15.274 28.5641 15.1909C28.286 15.0846 28.0714 15.0691 27.794 14.9589C27.7306 14.9316 27.6074 14.841 27.541 14.814C27.2319 14.6899 26.9867 14.6651 26.6793 14.5337C26.6423 14.5203 26.5488 14.4669 26.5082 14.4499C26.3852 14.3973 26.3461 14.3897 26.2151 14.3415C25.7391 14.169 25.1323 14.0165 24.4419 14.0603C24.1395 14.0764 23.7914 14.0205 23.3251 14.1533C23.1638 14.1939 22.9385 14.3334 22.7873 14.3809C22.6804 14.4129 22.5889 14.4314 22.4921 14.4734C22.3581 14.528 22.2392 14.6064 22.0552 14.6499C21.5257 14.7685 20.8192 14.6385 20.2824 14.7277C19.8172 14.8025 19.5482 15.0962 19.1656 15.2285C19.0487 15.267 19.0005 15.2547 18.8854 15.2968C18.8185 15.3197 18.66 15.3616 18.6066 15.3919C18.4469 15.474 18.3428 15.4989 18.1629 15.5744C18.0726 15.615 17.9653 15.6977 17.878 15.7381C17.7485 15.8024 17.741 15.8202 17.634 15.8981L17.5468 15.9613C17.5468 15.9613 17.3586 16.1258 17.3358 16.1549C17.261 16.2333 17.1891 16.3412 17.1245 16.4229C16.9287 16.6511 16.6346 16.9374 16.391 17.114C16.3024 17.1783 16.2401 17.1646 16.1621 17.2327C16.07 17.3026 15.9889 17.3774 15.9012 17.4441C15.6992 17.589 15.4975 17.6847 15.275 17.807L15.1321 17.9021C14.9437 18.026 14.9514 18.0758 14.7561 18.1991C14.6289 18.2862 14.5733 18.4166 14.4558 18.5166C14.3785 18.5766 14.2897 18.7647 14.2378 18.845C13.9958 19.1997 13.9049 19.7218 13.7324 20.1612C13.6807 20.2861 13.2601 20.8923 13.1556 20.9308L13.0783 21.0044C13.0184 21.0548 13.0184 21.0697 12.9638 21.1232C12.8395 21.2339 12.714 21.2971 12.6181 21.4324C12.5397 21.5371 12.4937 21.6605 12.4222 21.7766C12.312 21.9577 12.1308 22.158 12.039 22.3557C12.0017 22.4285 11.9749 22.5015 11.9488 22.5716C11.9391 22.5817 11.9321 22.5942 11.9293 22.5942C11.8823 22.6543 11.8008 22.9026 11.8008 22.9026C11.7155 23.1009 11.512 23.2126 11.243 23.5961C10.9288 23.6186 9.84542 23.3438 9.10862 22.9945C9.27352 23.1781 10.1003 23.7344 11.0688 23.8403C11.0045 23.935 10.999 24.0315 10.8829 24.062C10.4954 24.1576 9.82252 23.9456 8.91724 23.6294C8.96973 23.7558 9.76661 24.2233 10.9433 24.2948C10.769 24.4993 9.15263 24.4485 7.88825 24.1042C7.84022 24.2364 9.46877 24.5986 10.3627 24.5863C10.2096 24.6648 9.80765 24.756 9.54877 24.8492C9.14178 24.8038 8.57271 24.7331 8.46222 24.6913C8.48795 24.7737 8.89092 24.8834 9.22475 24.9607C8.90401 25.0754 8.42862 25.1418 8.24393 25.1806C8.37866 25.2145 8.89419 25.1323 9.43605 25.0018C9.91085 25.0928 10.6375 25.1875 11.0372 25.1693C10.9369 25.2192 10.561 25.4614 10.264 25.6352C9.50475 25.7066 8.67843 25.7699 8.50089 25.7925C8.60051 25.8077 9.26639 25.8183 9.97642 25.8004C9.54297 26.0543 9.08051 26.3189 8.85806 26.4205C9.18743 26.336 9.77523 26.1114 10.3761 25.7885C10.9723 25.7674 11.5311 25.7185 11.7638 25.6354C11.6841 25.8092 11.2023 26.6406 10.7537 26.8334C10.9473 26.8015 11.5697 26.6263 11.9461 25.6838C12.0798 25.7415 12.2319 25.7753 12.4093 25.7861C12.5085 25.9359 12.7433 26.3192 13.1882 26.3415C13.2789 26.5995 14.1039 27.9451 15.263 27.4208C14.9282 27.2386 14.7259 27.0499 14.5608 26.5127C15.0749 26.4807 16.4364 27.2275 16.8463 28.8412C16.5239 28.7328 16.1207 28.5463 16.0778 28.3844C15.9894 28.758 15.9314 29.2394 16.7569 30.0712C16.7727 30.249 16.7697 30.4624 16.8077 30.6635C16.944 30.8058 17.1015 30.9118 17.2474 31.0357C17.2576 31.2697 17.2248 31.5914 17.8399 31.7714C18.0491 31.9442 18.7207 32.129 18.8188 32.2443C19.0192 32.3088 19.3168 32.3212 19.5334 32.3088C19.5334 32.3088 19.8252 32.2595 19.9031 32.1478C20.0487 32.1396 20.2463 32.135 21.1388 31.1844C21.326 30.9607 21.1388 29.7314 21.1836 29.4331C21.2708 29.2163 21.3101 29.0163 21.4294 28.7494C21.4294 28.7494 21.5501 28.4861 21.7781 28.3803C21.7934 28.3731 21.8068 28.3731 21.8258 28.368C22.3398 28.2519 23.0088 28.7331 23.3254 28.8678C23.4407 28.9149 23.5013 28.8893 23.5938 28.9458C23.6396 28.9693 23.7033 29.0743 23.75 29.1011C23.8631 29.1643 23.9721 29.1469 24.0987 29.2141C24.2827 29.3169 24.657 29.8578 24.983 29.7952C25.0838 29.771 25.1639 29.5396 25.2514 29.4837C25.4035 29.3905 25.6163 29.3992 25.752 29.2935C25.9073 29.171 25.8435 29.0337 25.8673 28.8678C25.8673 28.8601 25.9391 28.7824 25.9459 28.7494C26.0215 28.7421 26.1891 28.749 26.294 28.7155C26.3074 28.7105 26.3516 28.6589 26.3696 28.6392C26.4359 28.5699 26.3876 28.4963 26.3696 28.4397C26.3464 28.378 26.1891 28.3053 26.1398 28.2516C26.0242 28.1365 25.8262 27.9687 25.7522 27.8288C25.7172 27.7577 25.7616 27.7432 25.7126 27.6706C25.6618 27.5905 25.5271 27.5072 25.4859 27.4043C25.3372 27.0737 25.3963 26.3362 25.3311 26.2336C25.27 26.1344 25.1944 26.1473 25.1342 26.0545C25.0062 25.8516 25.1641 25.1974 25.1752 24.9383C25.1867 24.7307 24.983 24.8602 24.983 24.8602C24.8143 25.2758 24.8323 25.4599 24.7907 26.0545C24.7845 26.1072 24.7131 26.4248 24.7131 26.4807C24.7104 26.6886 24.8323 27.0409 24.7501 27.2892C24.7229 27.3705 24.5558 27.5267 24.3271 27.5206C24.2407 27.5206 23.8093 27.4086 23.7116 27.367C23.6927 27.3572 23.6011 27.2526 23.5938 27.249C23.38 27.0794 23.3346 27.2389 23.3254 27.3237C23.3187 27.4132 23.3547 27.4302 23.3723 27.4795C23.38 27.5289 23.4668 27.714 23.4581 27.7289C23.4549 27.7475 23.38 27.95 22.9794 27.714C22.6775 27.5308 22.3794 27.0282 22.3635 26.9418C22.3219 26.7479 22.3813 26.6025 22.4184 26.536C22.569 26.3998 22.7485 26.5888 22.8987 26.6702C22.9367 26.6902 23.0292 26.7555 23.0755 26.7643C23.1639 26.7792 23.3059 26.7479 23.3254 26.7479C23.9105 26.7136 24.5162 26.9258 24.62 26.5329C24.6848 26.2867 24.4421 26.1539 24.3995 26.0523C24.3445 25.9267 24.3727 25.9197 24.3413 25.7814C24.3361 25.7707 24.2961 25.6812 24.2868 25.6703C24.2271 25.5674 24.2703 25.478 24.2106 25.3629C24.1495 25.2376 23.9763 25.1615 23.9042 25.054C23.8045 24.9116 23.8045 24.7338 23.6707 24.6294C23.4734 24.4681 22.6841 24.233 22.5922 24.0493C22.442 23.7585 22.627 23.223 22.5541 22.8577C22.5146 22.6432 22.4451 22.5265 22.3141 22.3945C22.2637 22.343 22.2396 22.266 22.2581 22.1964C22.292 22.0685 22.3599 22.1035 22.3989 21.8159C22.4236 21.6586 22.3845 21.4807 22.3989 21.3163C22.3999 21.2895 22.475 21.0376 22.4796 21.0079C22.5146 20.578 22.4585 20.1282 22.3635 19.8169C22.3181 19.6651 22.1778 19.5343 22.1311 19.3905C22.0906 19.2699 22.1394 19.2006 22.0906 19.0807C22.0526 18.9748 21.9178 18.9011 21.8643 18.8144C21.7595 18.6612 21.7904 18.4004 21.6304 18.3119C21.5132 18.2468 21.4717 18.3377 21.4787 18.3119C21.4396 18.4531 21.4478 18.5908 21.5166 18.7734C21.5446 18.8522 21.689 18.9662 21.712 19.0441C21.7418 19.1864 21.689 19.3589 21.712 19.507L21.7861 19.6623C21.8451 20.0487 21.6349 20.5616 21.4786 20.7769C21.3685 20.9198 21.0375 21.1029 21.0173 21.3163C21.0004 21.4499 21.0548 21.4543 21.0888 21.5102C21.1385 21.5811 21.2975 21.6733 21.3221 21.7405C21.3397 21.7909 21.3592 21.7808 21.3792 21.8305L21.3992 21.9353C21.4259 22.2047 21.0743 22.266 21.245 22.5891C21.2933 22.6824 21.4588 22.6824 21.5514 22.7414C21.7263 22.8525 22.059 23.1644 22.0903 23.4319C22.1048 23.5496 22.0899 24.1696 22.0554 24.2437C21.9751 24.4154 21.5422 24.4822 21.5916 24.8221C21.6462 25.1928 22.624 25.0879 22.8987 25.2829C23.0292 25.374 23.056 25.5722 23.0955 25.7491C23.1177 25.8449 23.0219 25.8772 22.9794 25.899C22.8761 25.9591 22.802 25.9128 22.6708 25.9406C22.3532 26.0053 21.8451 26.1479 21.712 26.4038C21.5445 26.698 21.7418 27.1026 21.6708 27.4403C21.601 27.7473 21.3706 28.12 21.2051 28.3683C21.1028 28.5185 20.9733 28.6675 20.9248 28.8794C20.8112 29.334 20.8903 29.8706 20.8575 30.4043L20.8512 30.4085C20.8512 30.4085 20.8708 30.685 20.6847 30.8867C20.4728 31.1191 19.7397 31.8049 19.2195 31.8049C19.0265 31.7986 18.9476 31.735 18.7373 31.5827C18.6042 31.5714 18.2992 31.4974 18.1232 31.3139C18.0679 31.2156 17.4933 30.6333 17.8543 30.467C18.1941 30.3109 18.7437 30.6511 18.9983 30.8159C19.1016 30.8159 19.8448 30.8529 20.6343 29.8183C20.5972 29.2763 20.5525 28.5821 20.4934 28.4559C20.4112 28.1906 19.9629 27.7212 19.8668 27.4404C19.8075 27.2122 19.7006 26.7649 19.7697 26.4548C19.7397 26.1088 19.5211 26.0327 19.4304 25.7524C19.4056 25.6815 19.376 25.6264 19.3602 25.6047C19.333 25.5036 19.3141 25.4131 19.252 25.3207C19.115 25.1109 18.9812 25.0656 18.8557 24.8608C18.7248 24.648 18.7482 24.3827 18.5467 24.244C18.4356 24.1699 18.2868 24.1628 18.1626 24.0908C18.0723 24.0369 17.9584 23.9064 17.8542 23.8599C17.7326 23.8055 17.699 23.7899 17.5757 23.7354C17.5153 23.7061 17.406 23.6574 17.3531 23.6297C17.2991 23.5982 17.2445 23.6256 17.199 23.5885C17.0503 23.462 17.1574 23.3485 17.0836 23.1295C17.0765 23.102 17.0185 23.1012 17.005 23.0519C16.9434 23.0354 16.8353 22.9372 16.7517 22.9957C16.6368 23.0806 16.6041 23.0559 16.5327 23.2324C16.4914 23.3485 16.4129 23.6902 16.3345 23.7738C16.2655 23.8565 16.1776 23.9711 16.0683 24.0479C15.966 24.1012 15.8765 24.095 15.8765 24.095L15.5883 24.1371L15.445 24.3577C15.445 24.3577 15.2881 24.3366 15.2051 24.3366C15.1816 24.39 14.9916 24.536 14.932 24.5875C14.6878 24.7305 14.5381 24.6297 14.5219 24.5774C14.5095 24.5316 14.4325 24.4348 14.5972 24.3368C15.162 24.1783 15.8545 23.4223 15.9126 23.2586C15.8407 23.3686 14.6717 24.0144 14.4555 24.1012C14.6879 23.55 16.1201 22.7433 16.2072 22.6477C15.8407 22.7035 14.6206 23.4406 14.4085 23.7665C14.2057 24.095 13.9669 24.0035 13.7422 23.9937C13.5236 23.9864 13.5416 24.2215 13.5317 24.3655C13.5288 24.5063 13.4201 24.7922 13.5122 24.8435C13.6619 24.972 14.0558 24.4498 14.1813 24.7305C14.25 25.0441 13.4395 25.0297 13.4465 25.2832C13.4077 25.4168 14.1949 25.4626 14.339 25.6049C14.0868 25.7896 13.4673 25.8492 13.2832 25.8586C13.1682 25.8678 13.0646 25.8632 13.0056 25.854C12.9033 25.8358 12.769 25.7424 12.6511 25.55C12.427 25.143 12.8056 24.8627 12.8115 24.7583C12.8207 24.6493 12.769 24.7073 12.7621 24.5362C12.7558 24.3656 12.9476 24.3368 12.9964 24.3008C13.0509 24.2627 12.9822 24.2153 12.9952 24.0498C13.0951 23.6751 13.7061 23.2431 13.5498 23.1229C13.4077 23.0479 13.1113 23.3748 12.9964 23.5234C12.5761 24.0654 12.0863 23.8951 11.9204 23.902C11.5495 23.9219 11.6146 23.5167 11.8738 23.5451C12.1726 23.4834 12.1504 23.0705 12.3626 23.1116C12.431 23.4138 12.0964 23.4562 12.2529 23.5235C12.4665 23.6077 12.4868 23.3287 12.5543 23.2113C12.6181 23.0922 12.9186 22.8351 12.8848 22.7704C12.7977 22.7399 12.5761 22.8978 12.4756 22.976C12.2316 22.3667 12.8463 21.9035 12.8766 21.7228C13.0783 21.4047 14.2059 20.9974 14.2268 20.5142L14.2578 20.4876C14.2578 20.4876 14.2789 20.4742 14.3131 20.5305H14.3153C14.3229 20.5598 14.3281 20.5914 14.337 20.6238C14.3392 20.6633 14.3352 20.6989 14.3352 20.6989L14.3403 20.6519C14.3491 20.7282 14.3458 20.7934 14.3491 20.7775V20.8507C14.3596 20.8937 14.4164 20.9161 14.4258 20.9204C14.4491 20.9163 14.5114 20.8969 14.5694 20.8302C14.5787 20.8203 14.6442 20.7576 14.6442 20.7426C14.7525 20.6635 14.772 20.652 14.8484 20.5441C15.0417 20.2623 14.6688 19.8492 14.7721 19.4688C14.843 19.2157 15.0789 18.917 15.0789 18.917C15.1427 18.7728 15.0417 18.774 15.0417 18.774C14.893 18.7473 14.7895 18.9064 14.8117 18.8855C14.6212 19.0647 14.5641 19.1518 14.4258 19.3911C14.4258 19.3911 14.3095 19.496 14.2755 19.3518C14.2085 19.1133 14.4792 18.6443 14.5641 18.5844C14.7221 18.4758 14.8832 18.4287 15.0819 18.3479C15.1818 18.306 15.3299 18.1456 15.4294 18.1189C15.4781 18.1023 15.5314 18.0916 15.5821 18.1189C15.5821 18.1189 15.6572 18.1737 15.6222 18.3479C15.6222 18.3479 15.5461 18.5564 15.5729 18.6333C15.5891 18.685 15.5822 18.7344 15.6997 18.7344C15.976 18.7395 16.5943 18.6752 16.7754 18.5781C16.8167 18.5619 16.8569 18.5008 16.8939 18.4656C16.951 18.4074 16.9364 18.3212 16.8939 18.3125L16.7754 18.2736C16.8661 18.2602 16.2539 18.2557 16.3525 18.2377C16.245 18.2557 16.4973 17.9522 16.4677 17.8085C16.4554 17.7402 16.3351 17.7119 16.3138 17.6571C16.3015 17.6227 16.2363 17.5717 16.3138 17.5409L16.4024 17.5032C16.4323 17.4816 16.4642 17.4455 16.5061 17.4261C16.6994 17.3363 17.0475 17.3803 17.1996 17.4261C17.2161 17.4345 17.4646 17.5032 17.5471 17.735C17.5688 17.8001 17.5859 17.8719 17.6237 17.929C17.7398 18.088 18.0793 18.1454 18.2784 17.9563C18.318 17.9197 18.3663 17.8296 18.3959 17.7766C18.5934 17.3224 18.3006 17.0135 17.9306 16.8877C17.7818 16.8345 17.5401 16.8199 17.3535 16.7716C17.2216 16.7345 17.3007 16.6239 17.3385 16.5908L17.3949 16.5408C17.468 16.4324 17.6969 16.3359 17.7804 16.3102C17.9846 16.2328 18.185 16.1563 18.4732 16.2736C18.5162 16.2882 18.6288 16.3765 18.6615 16.3857C18.8805 16.4404 18.963 16.4566 19.1659 16.3509C19.2471 16.3114 19.235 16.3008 19.2424 16.2761C19.3144 16.0696 19.1715 15.9326 19.1757 15.9548C19.1327 15.6769 19.9254 16.0199 20.0488 15.8449C20.165 15.6867 20.0894 15.3841 20.2427 15.2687C20.2601 15.2587 20.3507 15.1948 20.358 15.1924C20.5055 15.1613 20.6346 15.2226 20.7517 15.2687L20.8772 15.3283C21.1272 15.4312 21.3436 15.4868 21.4787 15.6916C21.5635 15.8256 21.5476 16.0198 21.6304 16.1563C21.6659 16.214 21.7482 16.2514 21.7904 16.3102C21.8258 16.3522 21.8942 16.3806 21.9404 16.4067C22.0115 16.4514 22.0392 16.4694 22.1312 16.4989C22.1996 16.5265 22.2985 16.6293 22.3636 16.656C22.5986 16.7516 22.8804 16.7383 23.1343 16.732C23.2854 16.7262 23.3749 16.8144 23.5178 16.7716C23.5914 16.7466 23.5705 16.6163 23.5245 16.5612C23.4325 16.4446 23.3626 16.4724 23.2103 16.3857C23.1508 16.3491 23.0756 16.2306 23.0172 16.1952C22.8413 16.0807 22.5864 16.0645 22.4799 15.8858C22.4655 15.8577 22.4454 15.8061 22.4424 15.7734L22.3992 15.6916C22.1862 15.2596 22.1184 15.0035 22.323 14.9222C22.4505 14.874 22.7293 14.9012 22.8659 14.8453C22.8969 14.8287 22.9555 14.7421 22.9795 14.7292C23.2854 14.5839 23.8603 14.4144 24.1754 14.5759C24.2705 14.6206 24.1754 14.8657 24.2108 14.9604C24.2308 15.0022 24.3013 15.074 24.3821 15.0977C25.0432 15.2755 25.704 15.2462 26.1892 15.4755C26.4786 15.612 26.7003 15.8256 26.961 16.0513C27.1846 16.2504 26.9192 16.4755 27.1497 16.5429C26.9923 16.5637 26.8587 16.5811 26.8314 16.499C26.8237 16.4786 26.7764 16.4068 26.7543 16.3857C26.5809 16.2214 26.3794 15.9674 26.1398 15.8858C26.0154 15.8401 25.9608 15.8792 25.8292 15.8449L25.674 15.7925C25.507 15.7457 25.4945 15.7618 25.3309 15.7282C25.2579 15.7136 25.0924 15.6244 25.0204 15.6165C24.6934 15.5677 24.5098 15.6992 24.2106 15.6165C24.0729 15.5759 23.8951 15.3569 23.7834 15.2983C23.6451 15.2196 23.5175 15.1922 23.3623 15.1423C23.2997 15.1255 23.2677 15.1255 23.2209 15.1494C23.1355 15.1995 23.1638 15.2755 23.2079 15.3386C23.2337 15.3725 23.2552 15.4305 23.2851 15.4489C23.394 15.5273 23.6111 15.5273 23.6707 15.6413C23.841 15.9778 23.5911 16.0948 23.555 16.1951C23.537 16.2559 23.4899 16.3038 23.555 16.3856C23.5911 16.4287 23.6677 16.4825 23.7113 16.4989C23.867 16.5667 23.9904 16.5406 24.136 16.6162C24.2393 16.6709 24.3483 16.858 24.482 16.8876C24.7906 16.9537 24.864 16.7261 25.0203 16.692C25.2433 16.6427 25.3812 16.7603 25.6372 16.692C25.722 16.6693 25.7693 16.5686 25.8289 16.5406C25.9766 16.4623 26.123 16.4513 26.2151 16.4989C26.2151 16.4989 26.3143 16.5467 26.1755 16.6162C26.0958 16.6601 26.0285 16.6601 25.9458 16.7017C25.8899 16.7319 25.8405 16.8102 25.8311 16.823C25.805 16.8763 25.787 16.9572 25.7886 16.9625C25.8127 17.0061 25.846 17.0299 25.8673 17.0415C26.1357 17.1341 26.4096 16.9603 26.6395 16.9253C26.8102 16.8981 27.2874 16.9253 27.4246 17.0299C27.4246 17.0299 27.5516 17.0562 27.4694 17.2873C27.4184 17.426 27.1989 17.5273 27.1162 17.6449C27.0673 17.7115 27.0139 17.838 26.9639 17.9032C26.8827 18.0082 26.8688 18.0049 26.7865 18.1018L26.73 18.1839C26.6966 18.2827 26.3043 18.6154 26.2303 18.727C26.1861 18.793 26.1656 18.863 26.1187 18.9344C26.0482 19.0349 25.9968 19.0519 25.9608 19.1128C25.8477 19.2755 25.6265 19.6053 25.4441 19.6887C25.3623 19.7228 25.2477 19.6852 25.134 19.6624C25.0564 19.6413 24.9726 19.4992 24.9053 19.4682C24.6358 19.3451 24.3361 19.3799 24.0985 19.2369C23.9798 19.1661 23.8703 18.958 23.7859 18.8517C23.7299 18.7789 23.679 18.6513 23.5937 18.6177C23.4558 18.5701 23.1213 18.6141 23.0558 18.7338C22.9288 18.9759 23.2604 19.5983 23.2882 19.8541C23.3079 20.0712 23.2079 20.1699 23.2882 20.3525C23.3253 20.4455 23.4698 20.4697 23.5175 20.5457C23.7263 20.8742 23.5443 21.3386 23.5937 21.7775C23.6132 21.9143 23.6945 22.084 23.6707 22.281C23.6378 22.5884 23.2424 22.8532 23.4023 23.32C23.4079 23.3396 23.483 23.3936 23.4882 23.3991C23.5495 23.4288 23.646 23.4165 23.7113 23.3976C23.8393 23.3528 23.9638 23.0959 24.0985 23.0131C24.1119 22.9972 24.1561 22.9754 24.1798 22.9754C24.1941 22.9485 24.2307 22.9467 24.2517 22.9368C24.3083 22.8941 24.3309 22.8926 24.3648 22.8211C24.4192 22.6962 24.4008 22.5723 24.442 22.3945C24.4821 22.2476 24.6185 21.9857 24.6359 21.8159C24.6827 21.3445 24.3413 20.4226 24.5865 20.2703C24.6802 20.2122 24.7733 20.1006 24.9352 20.0761C25.0072 20.059 25.2395 20.1305 25.3398 20.128C25.3382 20.1307 25.3372 20.1316 25.3372 20.1316C25.2118 20.4266 25.674 21.1974 25.6375 21.6224C25.5476 22.6586 24.871 23.2306 24.2869 23.7833C24.2201 23.8492 24.2766 23.9237 24.3271 23.9756C24.4421 24.0852 24.7233 24.0367 24.8694 24.0138C25.0807 23.9705 25.1752 23.8748 25.3309 23.8218C25.388 23.7989 25.4579 23.8349 25.5217 23.8218C25.6813 23.7783 25.8169 23.5625 25.9074 23.4318C25.9074 23.4318 26.0961 23.2293 26.1358 23.4975L26.1398 23.5124C26.1398 23.763 26.0961 24.0367 26.1398 24.281C26.1856 24.5704 26.7131 25.4388 26.9871 25.478C27.6288 25.572 26.9723 24.7643 26.9459 24.7067C26.8411 24.4624 26.7394 24.0272 26.7543 23.7057C26.7574 23.5881 26.8555 23.3505 26.8689 23.2401C26.8752 23.185 26.8468 23.0574 26.8689 23.0129C26.9193 22.91 27.2592 22.8766 27.3327 22.7414C27.3523 22.7029 27.3235 22.633 27.3327 22.5891C27.3486 22.4962 27.4161 22.3244 27.4879 22.2443C27.5339 22.1867 27.6001 22.1543 27.6802 22.2443C27.7459 22.3183 27.7636 22.4904 27.8741 22.6148L27.9687 22.7186C28.0823 22.7922 28.2664 22.6947 28.2181 22.7059C28.3373 22.6728 28.3235 22.5516 28.3733 22.5096C28.3816 22.5027 28.4484 22.473 28.4484 22.473C28.7271 22.1867 28.1091 21.928 28.1018 21.6623C28.0955 21.3673 28.1677 21.0258 28.0658 20.6998C28.0402 20.6184 27.889 20.5035 27.8714 20.4308C27.8298 20.2449 27.9265 20.0486 27.9486 19.931C27.9917 19.6849 27.9074 19.3058 27.9888 19.1974C28.0338 19.1374 28.1091 19.0938 28.257 19.1195C28.3547 19.1374 28.42 19.2971 28.4879 19.3512C28.7404 19.5542 29.0329 19.6673 29.4526 19.6192C29.5045 19.6181 29.5477 19.5389 29.5568 19.517C29.5836 19.4401 29.5785 19.3414 29.5291 19.2739C29.3779 19.0706 28.7908 18.9158 28.7593 18.8143C28.7363 18.7387 28.6432 18.6377 28.7455 18.587C28.6894 18.6193 29.107 18.575 29.2576 18.5433C29.4539 18.5002 29.4685 18.3053 29.6041 18.237C29.7959 18.1356 30.0777 18.2242 30.185 18.0446C30.2488 17.9285 30.1989 17.7628 30.26 17.6565C30.3361 17.5204 30.565 17.4934 30.6827 17.385C30.7183 17.3525 30.7018 17.2336 30.6936 17.1958ZM15.2075 26.2055C15.1318 26.1218 15.1956 25.9577 15.3352 25.8886C15.5925 25.767 15.699 25.9082 15.7546 25.9751C16.0042 26.3628 16.3279 26.8645 16.5681 27.0642C16.3459 27.0858 15.5174 26.8328 15.2075 26.2055ZM17.3269 30.1017C17.192 30.1017 16.3343 29.3799 16.4634 28.9311C16.7178 29.1189 17.2884 29.5177 17.3607 29.5096C17.4372 29.5548 17.4976 30.0514 17.3269 30.1017ZM18.3238 30.1044C18.2118 30.0061 17.3809 29.1276 17.5883 28.7201C17.8167 28.9491 18.4517 29.5337 18.6784 29.5906C18.7422 29.7573 18.7329 30.2169 18.3238 30.1044ZM18.4133 26.7506C18.5587 26.9685 18.7587 27.0959 18.748 27.5659C18.7342 27.6806 18.7712 27.7036 18.8676 27.6953C18.9547 27.6697 18.9071 27.1287 19.17 27.163C19.3931 27.1964 19.2419 27.5064 19.3523 27.8548C19.3931 27.9792 19.645 28.426 19.5778 29.1915C19.5714 29.3894 19.1955 29.647 18.981 29.4959C18.805 29.3894 18.805 29.2583 18.704 28.4492C18.661 27.9719 18.0789 27.8077 17.832 27.5896C17.5845 27.4076 17.7257 27.3176 17.6804 26.9864C17.5379 26.5066 16.9791 26.2827 17.1662 25.9634C17.2243 25.884 17.2807 25.8085 17.4576 25.8757C17.4676 26.1131 18.0344 26.2971 18.4133 26.7506ZM14.4433 25.237C14.4288 25.2447 14.4264 25.2462 14.4485 25.2352C14.4479 25.2352 14.4456 25.2366 14.4433 25.237C14.5007 25.2123 14.7495 25.095 14.8151 25.0711C15.0783 24.9778 15.2184 25.1186 15.4606 24.9841C15.5175 24.9491 15.5815 24.8562 15.6344 24.8128C15.6796 24.7717 15.7635 24.7763 15.8175 24.7383C15.9517 24.6479 16.2016 24.3604 16.374 24.3295C16.4732 24.3111 16.4728 24.3372 16.5233 24.3418C16.5233 24.3516 16.5972 24.327 16.5779 24.4751C16.532 24.7597 17.202 24.4715 17.6429 24.5759C17.9421 24.6477 18.234 24.7491 18.1565 24.9418C18.1671 24.9212 18.0689 25.0015 18.0456 25.0159C17.8393 25.1649 17.6789 25.0015 17.5743 24.9866C17.3944 24.965 17.2667 25.0201 17.0823 24.9974C17.0823 24.9948 16.861 24.9234 16.861 24.9234C16.7214 24.9161 16.5199 24.9891 16.4129 24.9974C16.2103 25.0129 16.1126 24.9412 15.9306 24.9604C15.8419 24.9705 15.699 25.0868 15.6344 25.1096C15.5751 25.132 15.5059 25.1521 15.4478 25.1707C15.4077 25.1803 15.3079 25.2354 15.2615 25.2563C15.078 25.3469 14.9687 25.3469 14.7413 25.4067L14.61 25.4421C14.3277 25.4795 14.3555 25.2864 14.4433 25.237ZM13.7569 26.3372C14.0603 26.2661 14.1498 26.3441 14.2949 26.6893C14.4024 26.8934 14.6285 27.1638 14.7152 27.2925C14.3656 27.3328 13.8094 26.8554 13.6536 26.5948C13.555 26.4666 13.7058 26.3649 13.7569 26.3372ZM9.89687 24.8914C10.2961 24.7799 10.6488 24.6647 10.7964 24.5795C10.8499 24.5759 10.9016 24.5759 10.955 24.5726C10.9776 24.6786 11.0188 24.7864 11.0821 24.8931C11.0961 24.916 11.11 24.936 11.1227 24.9548C10.8811 24.9603 10.3935 24.9293 9.89687 24.8914ZM10.7287 25.5896C10.9302 25.4676 11.126 25.3365 11.3155 25.1967C11.4002 25.2965 11.4933 25.3891 11.5966 25.477C11.4888 25.5063 11.15 25.5484 10.7287 25.5896Z" fill="#8B0029"/>
<path d="M14.4433 25.237C14.4457 25.2366 14.4479 25.2352 14.4485 25.2352C14.4264 25.2461 14.4287 25.2447 14.4433 25.237Z" fill="#8B0029"/>
</g>
<defs>
<clipPath id="clip0_544_437">
<rect width="29.7398" height="40" fill="white" transform="translate(5)"/>
</clipPath>
</defs>
</svg>
