<svg width="40" height="40" viewBox="0 0 40 40" fill="none" xmlns="http://www.w3.org/2000/svg">
<g clip-path="url(#clip0_544_437)">
<path d="M10.2549 20.324H9.02641V21.8789H10.2549V20.324ZM4.88533 32.0823C6.6568 34.4229 9.77309 33.8884 9.77309 33.8884C10.1515 30.5748 8.81107 29.5009 8.81107 29.5009C7.97786 31.2599 9.23693 33.3832 9.23693 33.3832C7.3435 31.6347 4.88492 32.0823 4.88492 32.0823M8.11874 13.8966L7.52302 13.3399C6.08242 13.7062 5.03547 14.9834 5.03547 14.9834C5.71129 13.3653 5.3454 11.851 5.04271 11.0468L4.60961 10.6913C3.35939 13.061 4.74364 15.6608 4.74364 15.6608C6.66606 15.1987 7.64055 14.4404 8.11874 13.8966ZM12.1411 35.5193C12.0775 34.4901 11.8907 33.7402 11.6589 33.1405L10.4743 33.1421C10.7947 34.2671 11.5232 35.1152 11.5232 35.1152C9.35286 33.7201 7.01021 34.5879 7.01021 34.5879C9.16246 36.586 12.1411 35.5193 12.1411 35.5193ZM11.8493 17.9527V31.4495H18.5363C19.2918 31.4696 20.0706 32.0621 20.0706 32.0621V21.2646C16.0197 21.1777 15.2042 17.9527 15.2042 17.9527H11.8493ZM15.0142 26.158H14.5123V28.7704H13.8784V26.158H13.382V25.5619H15.0142V26.158ZM18.1684 28.8211C17.9892 28.8211 17.7683 28.7667 17.623 28.6601V28.0547C17.7735 28.1581 17.9168 28.227 18.1052 28.227C18.308 28.227 18.4711 28.0893 18.4711 27.8772C18.4711 27.6308 18.2738 27.5366 18.0959 27.4082C17.73 27.1615 17.5054 26.9244 17.5054 26.4571C17.5054 25.9499 17.7993 25.5112 18.3426 25.5112C18.5471 25.5112 18.7303 25.5675 18.9042 25.669V26.2864C18.7754 26.1761 18.6196 26.0819 18.4453 26.0819C18.2481 26.0819 18.1249 26.2015 18.1249 26.3971C18.1249 26.9244 19.0909 26.955 19.0909 27.8228C19.0909 28.392 18.7649 28.8211 18.1684 28.8211ZM18.6393 21.6575H19.2737V24.8664H18.6397V21.6575H18.6393ZM16.6448 21.6575H17.2844C17.6886 21.6575 18.4095 21.6994 18.4095 22.576C18.4095 22.9294 18.2702 23.2301 17.9566 23.404L18.5125 24.8643H17.8443L17.2881 23.3843H17.2792V24.8643H16.6452V21.6575H16.6448ZM17.313 28.7704H16.6376L16.518 28.2306H15.8748L15.7589 28.7704H15.1302L15.8748 25.5619H16.5414L17.3134 28.7704H17.313ZM16.516 21.6579V22.252H15.8732V22.9496H16.4383V23.5453H15.8732V24.2698H16.5233V24.8643H15.2409V21.6611L14.3513 24.8643H13.8329L12.9055 21.6575H13.5849L13.9689 23.1979C14.0253 23.3791 14.0454 23.5642 14.0832 23.7453H14.0917C14.1263 23.5586 14.1388 23.3774 14.1895 23.1891L14.5775 21.6579H16.516ZM27.3719 10.9791L25.3682 13.1588L25.3883 16.6429C25.3883 16.6429 25.3263 17.2173 25.2031 17.5015H26.4912L30.173 13.8201L27.3719 10.9791ZM10.2947 27.6675H9.06626V29.2196H10.2947V27.6675ZM12.2985 12.5936L14.8766 15.1299V13.168L12.2985 10.5899V12.5936ZM10.2658 34.3198C10.3432 34.3198 10.4174 34.2891 10.4721 34.2344C10.5268 34.1796 10.5576 34.1054 10.5576 34.028C10.5576 33.9506 10.5268 33.8764 10.4721 33.8217C10.4174 33.7669 10.3432 33.7362 10.2658 33.7362C10.1888 33.7368 10.1151 33.7678 10.0608 33.8225C10.0066 33.8771 9.97606 33.951 9.97595 34.028C9.97595 34.189 10.1064 34.3198 10.2658 34.3198ZM5.59899 13.554C5.59937 13.6312 5.63039 13.7051 5.68523 13.7594C5.74007 13.8137 5.81424 13.844 5.89142 13.8436C5.96861 13.8433 6.04247 13.8123 6.09678 13.7574C6.1511 13.7026 6.1814 13.6284 6.18103 13.5512C6.18084 13.513 6.17313 13.4752 6.15834 13.44C6.14354 13.4047 6.12195 13.3727 6.09479 13.3458C6.06764 13.319 6.03545 13.2977 6.00007 13.2832C5.96469 13.2688 5.92681 13.2614 5.8886 13.2616C5.85038 13.2618 5.81258 13.2695 5.77734 13.2843C5.74211 13.2991 5.71012 13.3207 5.68322 13.3478C5.65633 13.375 5.63506 13.4072 5.6206 13.4426C5.60615 13.4779 5.59881 13.5158 5.59899 13.554ZM10.2843 32.1946C10.2939 32.327 10.3205 32.1656 10.3205 32.1656V30.2689L10.0065 30.6167C10.184 31.0949 10.246 31.7816 10.2839 32.1946M14.8766 16.1012V15.7027L12.9743 13.8004H8.51763L11.0338 16.1012H14.8766ZM5.20573 10.6877C5.20573 10.6877 5.03909 9.64963 6.12226 8.0935H2.46258C2.46258 8.0935 2.61835 8.51896 5.20573 10.6877ZM2.0335 16.3982C1.37941 19.2609 3.7925 21.3061 3.7925 21.3061C6.57187 19.4654 6.53202 17.7479 6.53202 17.7479C4.65147 18.2389 3.83235 20.5707 3.83235 20.5707C3.95552 17.9926 2.0335 16.3982 2.0335 16.3982ZM4.18938 17.7245C4.75652 15.208 3.14203 13.3037 3.14203 13.3037C1.99888 16.0086 4.02072 18.4418 4.02072 18.4418C7.07904 17.1119 7.33785 15.4149 7.33785 15.4149C5.39934 15.5702 4.18938 17.7245 4.18938 17.7245ZM4.44659 18.924C4.44637 18.8467 4.41556 18.7726 4.36088 18.7179C4.30619 18.6632 4.23209 18.6324 4.15476 18.6322C4.09716 18.6323 4.04087 18.6494 3.99301 18.6815C3.94514 18.7135 3.90786 18.759 3.88585 18.8123C3.86384 18.8655 3.8581 18.9241 3.86936 18.9806C3.88062 19.037 3.90837 19.0889 3.9491 19.1297C3.98983 19.1704 4.04172 19.1981 4.09821 19.2094C4.1547 19.2207 4.21327 19.2149 4.2665 19.1929C4.31973 19.1709 4.36525 19.1336 4.3973 19.0858C4.42936 19.0379 4.44651 18.9816 4.44659 18.924ZM19.357 33.6803H21.2754C21.2754 33.6803 21.4022 32.847 21.944 32.847H29.9122V18.8274L29.1204 17.9942V31.8866H21.9858C21.9858 31.8866 21.0254 31.97 20.2735 32.8865C20.2735 32.8865 19.6903 32.0114 18.4401 31.9285H11.4725V18.1194L10.6172 18.9743V32.8466H18.3966C18.3966 32.8466 19.357 32.8869 19.357 33.6798M6.87093 7.91961C4.87244 10.0699 5.93951 13.0485 5.93951 13.0485C9.26953 12.8456 10.0919 11.3378 10.0919 11.3378C8.21655 10.8218 6.34325 12.4306 6.34325 12.4306C7.73837 10.2602 6.87093 7.91961 6.87093 7.91961ZM16.2624 26.8737L16.19 26.3879H16.1815L16.1127 26.8737L15.9767 27.727H16.4243L16.2633 26.8737H16.2624ZM34.6715 32.9066C35.1993 32.581 35.6524 32.1475 36.001 31.6347C36.001 31.6347 34.9464 31.497 33.7131 31.9136L34.6711 32.9066H34.6715ZM36.6986 20.1847C36.6986 20.1847 35.8272 17.873 33.9341 17.4254C33.9341 17.4254 33.9325 19.145 36.7566 20.9205C36.7566 20.9205 39.1209 18.8185 38.4 15.9707C38.4 15.9707 36.5159 17.6118 36.6986 20.1847ZM33.1532 27.0838C33.1532 27.0838 32.0479 28.4008 33.0699 31.5751C33.0699 31.5751 36.2313 31.4845 37.5085 28.8412C37.5085 28.8412 35.0121 28.8863 33.4974 30.9753C33.4974 30.9753 34.3145 28.6436 33.1532 27.0838ZM36.6229 23.0506C36.6229 23.0506 36.1641 20.6214 34.3777 19.855C34.3777 19.855 34.079 21.5472 36.5521 23.7848C36.5521 23.7848 39.2461 22.1268 39.0284 19.1973C39.0284 19.1973 36.889 20.4854 36.6225 23.051M34.3942 22.3224C34.3942 22.3224 33.8073 23.9385 35.8525 26.573C35.8525 26.573 38.7929 25.4077 39.0883 22.4835C39.0883 22.4835 36.7566 23.3807 36.0518 25.8606C36.0518 25.8606 36.0196 23.3895 34.3942 22.3224ZM36.2659 24.4928C36.4269 24.4928 36.5573 24.3608 36.5573 24.1994C36.557 24.1223 36.5261 24.0484 36.4714 23.9941C36.4167 23.9398 36.3426 23.9094 36.2655 23.9096C36.1045 23.9096 35.9741 24.04 35.9741 24.1994C35.9741 24.3604 36.1045 24.4932 36.2655 24.4932M34.5608 29.4788C34.5611 29.4406 34.5538 29.4027 34.5394 29.3673C34.5249 29.3319 34.5036 29.2997 34.4767 29.2726C34.4497 29.2454 34.4177 29.2239 34.3824 29.2092C34.3471 29.1945 34.3093 29.187 34.271 29.187C34.1936 29.187 34.1194 29.2177 34.0647 29.2724C34.0099 29.3272 33.9792 29.4014 33.9792 29.4788C33.9792 29.5562 34.0099 29.6304 34.0647 29.6851C34.1194 29.7399 34.1936 29.7706 34.271 29.7706C34.432 29.7706 34.5608 29.6402 34.5608 29.4788ZM9.92684 12.1171H9.92845C9.81253 12.2096 9.00267 12.9486 7.76896 13.0992L8.18919 13.4941L12.6064 13.4739L11.235 12.1046H11.2334L10.5411 11.4082C10.5411 11.4082 10.0484 12.0357 9.92684 12.1171ZM27.0024 26.408H26.9935L26.9267 26.8934L26.7911 27.7488H27.2367L27.0736 26.8934L27.0028 26.408H27.0024ZM17.7936 22.5801C17.7936 22.3498 17.6829 22.1631 17.3641 22.1796H17.2788V23.0345L17.3915 23.0401C17.6793 23.0401 17.7936 22.8449 17.7936 22.5801ZM20.5203 21.1829V32.0625C20.5203 32.0625 21.1345 31.4499 21.9931 31.4499H28.7417V17.9531H25.1021C25.1021 17.9531 24.0676 21.1358 20.5203 21.1829ZM21.3334 21.678H21.9677V24.2904H22.6307V24.8845H21.3337V21.6776L21.3334 21.678ZM23.3902 28.7925L23.2377 26.4808H23.2276L23.1262 27.2726L22.8545 28.7925H22.3654L22.0555 27.2561L21.9484 26.5408V26.4808H21.9399L21.8454 28.7925H21.1663L21.4469 25.584H22.2801L22.592 27.4775H22.5993L22.8549 25.584H23.7062L24.0415 28.7925H23.391H23.3902ZM27.448 28.7925L27.3304 28.2507H26.6872L26.5729 28.7925H25.9442L26.6872 25.584H27.3554L28.1254 28.7925H27.448ZM25.5187 21.678H26.2324L26.4155 22.1256C26.4699 22.283 26.5351 22.4476 26.5677 22.6127H26.5765C26.6107 22.4476 26.6635 22.2866 26.7214 22.1256L26.9134 21.678H27.5981L26.9138 23.2301L27.6492 24.8845H26.9138L26.711 24.3753C26.651 24.2123 26.6111 24.0565 26.5677 23.8951H26.5604C26.5133 24.0561 26.4755 24.2123 26.4212 24.3753L26.2328 24.8845H25.5187L26.1982 23.2301L25.5187 21.678ZM25.6906 25.584V26.1798H25.0478V26.8761H25.6145V27.4738H25.0478V28.1964H25.6998V28.7925H24.4154V25.5836L25.6906 25.584ZM24.0604 24.3612C24.3703 24.3612 24.3703 24.1277 24.3735 23.8902V21.678H25.0079V24.0166C25.0079 24.3576 24.9697 24.9356 24.0548 24.9356C23.4643 24.9356 23.1109 24.6603 23.1109 24.0605V21.6776H23.7448V23.7546C23.7448 23.9969 23.7142 24.3612 24.0604 24.3612ZM11.9 10.2329C11.9 10.2329 11.6134 10.6515 10.5194 10.887L11.9 12.1641V10.2329ZM15.4051 15.8166C15.4051 19.2118 17.5344 20.7788 20.1576 20.7788C22.786 20.7788 24.9169 19.217 24.9169 15.8166V6.13848H15.4071C15.4071 6.13848 15.4051 12.425 15.4051 15.8166ZM17.6974 8.95931V7.52796H22.1561V9.57355H23.6269V11.0447H22.1979V11.7008H23.6269V13.2948H22.1979V18.0815H20.9691L19.2717 16.3821L17.7192 17.9362L16.5941 16.8132L19.1702 14.2351L20.5001 15.565V8.95971L17.6974 8.95931ZM11.3417 16.4598L12.4776 17.4601H15.0396C14.9164 17.2572 14.9563 16.4799 14.9563 16.4799L11.3417 16.4598ZM31.9501 29.2558C31.9501 29.2558 31.7436 29.4731 31.6748 29.8032L32.2906 30.4428C32.256 30.0443 32.155 29.6378 31.9501 29.2558ZM7.7275 31.8721C8.67502 28.6746 7.53911 27.3865 7.53911 27.3865C6.41408 28.9696 7.28553 31.2817 7.28553 31.2817C5.72376 29.2288 3.22535 29.2433 3.22535 29.2433C4.56412 31.8577 7.7275 31.8721 7.7275 31.8721ZM7.56971 10.6825C10.8836 11.0608 11.9543 9.71846 11.9543 9.71846C10.2006 8.88525 8.07366 10.1443 8.07366 10.1443C9.82541 8.24927 9.37782 5.79231 9.37782 5.79231C7.03517 7.56419 7.56971 10.6825 7.56971 10.6825ZM14.5051 34.1186C14.6628 36.0587 16.8151 37.2675 16.8151 37.2675C14.3002 36.7003 12.3943 38.3164 12.3943 38.3164C15.1012 39.4576 17.5344 37.4377 17.5344 37.4377C16.2045 34.3778 14.5051 34.1186 14.5051 34.1186ZM6.06268 29.5299C7.54998 26.5473 6.6568 25.0801 6.6568 25.0801C5.27094 26.4442 5.7294 28.8738 5.7294 28.8738C4.546 26.5803 2.08422 26.1596 2.08422 26.1596C2.95003 28.966 6.06268 29.5299 6.06268 29.5299ZM12.7477 33.1493L12.3347 33.1457C12.3113 34.9792 14.076 36.423 14.076 36.423C11.6951 35.4268 9.53962 36.6874 9.53962 36.6874C12.007 38.2818 14.7534 36.7128 14.7534 36.7128C14.2189 34.4845 13.2802 33.5297 12.7477 33.1493ZM6.6081 34.5336C6.6081 34.5336 7.06093 34.2639 7.72025 34.1657L6.99009 33.9918L6.91964 34.0844C6.95949 34.0264 6.99009 33.9918 6.99009 33.9918L3.75103 37.3995C3.75103 37.3995 3.38314 37.9324 3.73091 38.2802C3.73091 38.2802 4.05695 38.5463 4.50777 38.24L7.66228 35.4811C7.34349 35.3161 6.64593 34.7365 6.60769 34.5336M4.82857 26.9353C6.81298 24.2537 6.18585 22.6541 6.18585 22.6541C4.58585 23.7594 4.61484 26.2305 4.61484 26.2305C3.84885 23.7667 1.49695 22.9242 1.49695 22.9242C1.86122 25.8408 4.82898 26.9353 4.82898 26.9353M6.49177 7.74733L2.65659 3.91176C2.65659 3.91176 1.05338 5.06255 2.29957 7.74733H6.49177ZM8.22582 6.35221L5.97011 4.07518C4.57338 2.68006 2.91742 3.60021 2.91742 3.60021L7.3596 8.02266C7.65706 6.88877 8.22582 6.35221 8.22582 6.35221ZM4.07184 24.5709C4.07184 24.7319 4.20186 24.8627 4.36327 24.8627C4.52427 24.8627 4.65308 24.7323 4.65308 24.5709C4.65334 24.5327 4.64604 24.4948 4.63159 24.4594C4.61715 24.424 4.59584 24.3918 4.5689 24.3647C4.54197 24.3375 4.50993 24.316 4.47464 24.3013C4.43934 24.2866 4.40149 24.2791 4.36327 24.2791C4.20226 24.2791 4.07144 24.4095 4.07144 24.5709M4.06419 24.1668C6.48291 21.8696 6.14399 20.1867 6.14399 20.1867C4.37574 20.9966 3.97564 23.435 3.97564 23.435C3.6496 20.875 1.47883 19.6377 1.47883 19.6377C1.33232 22.5724 4.06419 24.1668 4.06419 24.1668ZM6.18746 29.8141C6.18746 29.8914 6.21819 29.9656 6.27288 30.0203C6.32757 30.075 6.40175 30.1057 6.47909 30.1057C6.55644 30.1057 6.63061 30.075 6.6853 30.0203C6.73999 29.9656 6.77071 29.8914 6.77071 29.8141C6.77071 29.7367 6.73999 29.6626 6.6853 29.6079C6.63061 29.5532 6.55644 29.5225 6.47909 29.5225C6.40175 29.5225 6.32757 29.5532 6.27288 29.6079C6.21819 29.6626 6.18746 29.7367 6.18746 29.8141ZM30.5804 34.0679C30.6576 34.0679 30.7318 34.0373 30.7865 33.9827C30.8412 33.928 30.8719 33.8539 30.872 33.7767C30.872 33.6994 30.8414 33.6252 30.7868 33.5705C30.7321 33.5158 30.6581 33.4851 30.5808 33.485C30.5035 33.485 30.4293 33.5157 30.3747 33.5704C30.32 33.625 30.2893 33.6992 30.2893 33.7765C30.2893 33.8537 30.32 33.9279 30.3747 33.9825C30.4293 34.0372 30.5035 34.0679 30.5808 34.0679M32.1296 33.6895L31.104 32.8539C31.1258 33.1151 31.1604 33.3904 31.2075 33.6855C31.2075 33.6855 31.577 33.729 32.1292 33.6895M34.9976 28.5292C34.9976 28.5292 35.3981 26.0908 33.9812 24.7593C33.9812 24.7593 33.1222 26.2466 34.6804 29.1942C34.6804 29.1942 37.7786 28.5582 38.5776 25.7326C38.5776 25.7326 36.1242 26.2099 34.9976 28.5292ZM15.556 36.6657C15.556 36.5884 15.5253 36.5143 15.4707 36.4596C15.416 36.405 15.3419 36.3743 15.2646 36.3743C15.1873 36.3743 15.1132 36.405 15.0585 36.4596C15.0039 36.5143 14.9732 36.5884 14.9732 36.6657C14.9732 36.743 15.0039 36.8171 15.0585 36.8718C15.1132 36.9264 15.1873 36.9571 15.2646 36.9571C15.3419 36.9571 15.416 36.9264 15.4707 36.8718C15.5253 36.8171 15.556 36.743 15.556 36.6657ZM29.3523 34.9067C29.3523 34.9067 29.9842 34.1496 30.2942 33.0841L29.1096 33.066C28.9212 33.6476 28.7795 34.3867 28.7453 35.3253C28.7453 35.3253 31.3053 36.1746 33.3561 34.691L32.5664 34.055C31.6913 34.0063 30.4898 34.1367 29.3523 34.9067ZM30.2145 30.1816V31.7361L37.1679 37.5029H38.5574L31.4812 30.1816H30.2145ZM20.0292 36.8887V37.6152C19.6939 37.088 18.3841 35.1712 16.9041 35.077C16.9041 35.077 17.4076 36.7893 19.6235 37.7964C19.6235 37.7964 16.8421 37.9795 15.7082 39.501C15.7082 39.501 18.1321 39.7204 20.0292 37.8346V39.0176H20.7666V36.8887H20.0292ZM21.2577 37.7891C23.4659 36.7675 23.957 35.05 23.957 35.05C22.2394 35.1712 20.7666 37.7493 20.7666 37.7493C22.6886 39.7116 25.1834 39.4668 25.1834 39.4668C24.0387 37.9522 21.2577 37.7891 21.2577 37.7891ZM24.1111 37.1821C24.1111 37.1821 26.2364 35.9215 26.3467 33.9809C26.3467 33.9809 24.6545 34.28 23.397 37.3689C23.397 37.3689 25.8753 39.3308 28.5549 38.1281C28.5549 38.1281 26.6128 36.5554 24.1111 37.1821ZM26.8301 36.2725C26.8301 36.2725 28.4804 34.856 28.4953 33.0861L27.9064 33.1095C27.3739 33.5768 26.593 34.5698 26.1599 36.5808C26.1599 36.5808 28.9445 38.0826 31.3705 36.4319C31.3705 36.4319 29.1856 35.2215 26.8301 36.2725ZM25.3682 36.5534C25.3681 36.6308 25.3988 36.7049 25.4534 36.7597C25.5081 36.8144 25.5822 36.8452 25.6596 36.8452C25.7369 36.8453 25.8111 36.8146 25.8659 36.76C25.9206 36.7053 25.9514 36.6312 25.9514 36.5538C25.9514 36.4765 25.9207 36.4023 25.866 36.3476C25.8113 36.2929 25.7371 36.2622 25.6598 36.2622C25.5825 36.2622 25.5083 36.2929 25.4536 36.3476C25.3989 36.4023 25.3682 36.4761 25.3682 36.5534ZM35.6714 15.2985C35.6714 15.2985 37.1752 12.5159 35.5229 10.086C35.5229 10.086 34.3145 12.2712 35.3655 14.6283C35.3655 14.6283 33.7566 12.755 31.8253 12.9813C31.8253 12.9813 32.4122 14.5974 35.6714 15.2985ZM28.5984 8.79267L29.4807 7.87976C28.7292 7.70547 27.3176 7.4539 26.176 8.30522C26.176 8.30522 26.7633 8.97018 28.5984 8.79267ZM34.4687 13.5122C34.546 13.5122 34.6201 13.4815 34.6747 13.4268C34.7294 13.3722 34.7601 13.298 34.7601 13.2208C34.7601 13.1435 34.7294 13.0693 34.6747 13.0147C34.6201 12.96 34.546 12.9293 34.4687 12.9293C34.3914 12.9293 34.3172 12.96 34.2626 13.0147C34.2079 13.0693 34.1772 13.1435 34.1772 13.2208C34.1772 13.298 34.2079 13.3722 34.2626 13.4268C34.3172 13.4815 34.3914 13.5122 34.4687 13.5122ZM36.4611 18.0614C36.4611 18.0614 38.4254 15.5811 37.2187 12.9016C37.2187 12.9016 35.648 14.8457 36.2748 17.3494C36.2748 17.3494 35.0157 15.2225 33.0735 15.1118C33.0735 15.1118 33.3726 16.8039 36.4615 18.0614M32.2166 4.0949C33.1351 4.55136 33.8762 4.07317 33.8762 4.07317C34.8998 3.57123 35.6392 4.26718 35.6392 4.26718C36.3528 4.82507 36.2369 5.55885 36.2369 5.55885C36.2369 6.12238 36.0735 6.16021 36.0735 6.16021C35.733 6.39367 35.8183 5.99921 35.8183 5.99921C35.8284 5.99357 35.896 5.72147 35.896 5.72147C36.03 4.45193 34.8905 4.26879 34.8905 4.26879C33.6801 4.05707 33.3795 5.17445 33.3795 5.17445C33.31 5.44294 33.2935 5.72238 33.3308 5.99719L31.8197 4.48615L31.8906 5.76333L35.2656 9.13682H36.4724L35.2475 7.91237C35.6418 8.03525 36.0494 8.11065 36.4615 8.13697C38.1843 8.03191 38.3654 6.38321 38.3654 6.38321C38.8203 4.66205 37.1881 3.27055 37.1881 3.27055C36.0993 2.33591 34.4522 2.25983 34.4522 2.25983C32.1095 1.98773 31.2783 0.491577 31.2783 0.491577C31.0046 1.17263 31.0751 2.18013 31.0751 2.18013C31.2312 3.73264 32.2166 4.0949 32.2166 4.0949ZM36.0465 18.5396C36.0465 18.6169 36.0771 18.691 36.1317 18.7457C36.1864 18.8004 36.2605 18.8312 36.3377 18.8312C36.415 18.8313 36.4892 18.8006 36.5439 18.746C36.5986 18.6914 36.6293 18.6173 36.6294 18.54C36.6294 18.4627 36.5987 18.3886 36.544 18.3339C36.4894 18.2793 36.4152 18.2486 36.3379 18.2486C36.2607 18.2486 36.1865 18.2793 36.1319 18.3339C36.0772 18.3886 36.0465 18.4623 36.0465 18.5396ZM29.653 7.65476L30.367 6.93224C30.0643 5.91186 29.4501 4.68217 27.9338 3.94959C27.9338 3.94959 27.8702 6.13123 29.653 7.65476ZM31.443 27.8104H30.2145V29.3649H31.443V27.8104ZM32.3961 12.4105C32.9375 12.5646 33.6024 12.6806 34.4159 12.7132C34.4159 12.7132 34.7854 11.6135 34.626 10.2763L33.5626 11.2947C33.6769 11.5644 33.8218 11.8365 34.0029 12.1046C34.0029 12.1046 33.7091 11.8635 33.2402 11.6026L32.3961 12.4105ZM9.08477 9.09375C9.08477 9.13202 9.09231 9.16992 9.10696 9.20527C9.1216 9.24063 9.14307 9.27276 9.17013 9.29982C9.1972 9.32688 9.22933 9.34834 9.26468 9.36299C9.30004 9.37763 9.33793 9.38517 9.3762 9.38517C9.41447 9.38517 9.45236 9.37763 9.48772 9.36299C9.52308 9.34834 9.55521 9.32688 9.58227 9.29982C9.60933 9.27276 9.6308 9.24063 9.64544 9.20527C9.66009 9.16992 9.66763 9.13202 9.66763 9.09375C9.66763 9.01646 9.63692 8.94234 9.58227 8.88769C9.52762 8.83303 9.45349 8.80233 9.3762 8.80233C9.29891 8.80233 9.22479 8.83303 9.17013 8.88769C9.11548 8.94234 9.08477 9.01646 9.08477 9.09375ZM34.7532 9.44475L31.6044 6.29626L28.7815 9.36142L31.8088 12.3489L34.7528 9.44475H34.7532ZM28.0674 9.54618L27.4339 10.3037L30.8686 13.7404L31.5645 13.0449L28.0678 9.54618H28.0674ZM31.3814 20.2008H30.1529V21.7553H31.3814V20.2012V20.2008ZM16.6795 5.36122C16.6795 5.36122 17.6451 5.99921 19.3409 4.8303C19.3409 4.8303 17.241 3.96771 16.6795 5.36122ZM27.6223 6.46089C27.6223 6.46089 26.6675 6.17309 25.4624 6.58245L25.4608 7.68213C26.1945 7.66764 26.9392 7.49013 28.2872 6.77808C28.2872 6.77808 27.6496 3.67991 24.8252 2.88293C24.8252 2.88293 25.3014 5.33425 27.6227 6.46129M14.9567 7.82905L14.9804 6.75996C13.7898 6.41018 12.5871 6.6384 12.5871 6.6384C14.8786 5.45541 15.2992 2.99322 15.2992 2.99322C12.4929 3.85742 11.9273 6.97008 11.9273 6.97008C13.223 7.61491 14.2301 7.81254 14.9567 7.82905ZM14.0744 8.44852C12.4893 7.32147 10.1772 8.19292 10.1772 8.19292C12.23 6.63116 12.2156 4.13314 12.2156 4.13314C9.60121 5.47352 9.58712 8.63488 9.58712 8.63488C12.7843 9.58442 14.0744 8.44852 14.0744 8.44852ZM13.8932 6.10225C13.8932 6.14052 13.9007 6.17842 13.9154 6.21379C13.93 6.24915 13.9514 6.2813 13.9785 6.30838C14.0055 6.33546 14.0376 6.35694 14.073 6.37161C14.1083 6.38628 14.1462 6.39385 14.1845 6.39387C14.2227 6.3939 14.2606 6.38639 14.296 6.37177C14.3314 6.35715 14.3635 6.3357 14.3906 6.30866C14.4177 6.28162 14.4392 6.24951 14.4538 6.21416C14.4685 6.17881 14.4761 6.14092 14.4761 6.10265C14.4761 6.02536 14.4454 5.95124 14.3907 5.89659C14.3361 5.84194 14.262 5.81123 14.1847 5.81123C14.1074 5.81123 14.0333 5.84194 13.9786 5.89659C13.9239 5.95124 13.8932 6.02496 13.8932 6.10225ZM14.5997 5.79433L16.799 5.76333C16.1163 5.35236 15.3681 5.36685 15.3681 5.36685C17.8303 4.60046 18.533 2.40433 18.533 2.40433C15.6196 2.76861 14.524 5.73636 14.524 5.73636L14.5997 5.79433ZM26.3435 5.94285C26.3437 5.90463 26.3364 5.86672 26.322 5.83133C26.3075 5.79594 26.2862 5.76375 26.2593 5.73662C26.2324 5.7095 26.2003 5.68797 26.165 5.67328C26.1297 5.65859 26.0919 5.65103 26.0537 5.65103C25.9763 5.65103 25.902 5.68178 25.8473 5.7365C25.7926 5.79123 25.7618 5.86546 25.7618 5.94285C25.7618 6.02025 25.7926 6.09448 25.8473 6.14921C25.902 6.20393 25.9763 6.23468 26.0537 6.23468C26.2147 6.23468 26.3435 6.10426 26.3435 5.94285ZM24.7998 5.36685C24.7998 5.36685 24.0511 5.35236 23.3685 5.76333L25.5678 5.79433C25.6061 5.76534 25.6081 5.76534 25.6443 5.73636C25.6443 5.73636 24.5495 2.76861 21.6348 2.40474C21.6348 2.40474 22.3376 4.60046 24.7998 5.36685ZM20.0711 5.02995C20.1223 5.02984 20.1731 5.01964 20.2204 4.99992C20.2677 4.9802 20.3107 4.95135 20.3469 4.91502C20.3831 4.87869 20.4118 4.83559 20.4313 4.78818C20.4508 4.74077 20.4608 4.68997 20.4607 4.6387C20.4606 4.58743 20.4504 4.53668 20.4307 4.48935C20.4109 4.44202 20.3821 4.39904 20.3458 4.36285C20.3094 4.32667 20.2663 4.298 20.2189 4.27848C20.1715 4.25895 20.1207 4.24896 20.0694 4.24907C19.9659 4.24928 19.8667 4.29062 19.7936 4.36399C19.7205 4.43736 19.6796 4.53676 19.6798 4.64031C19.68 4.74386 19.7214 4.84309 19.7947 4.91616C19.8681 4.98923 19.9675 5.03016 20.0711 5.02995ZM23.4864 5.23282C22.8722 3.86104 20.8069 4.80333 20.8069 4.80333C22.5457 5.90663 23.4864 5.23282 23.4864 5.23282Z" fill="#003380"/>
</g>
<defs>
<clipPath id="clip0_544_437">
<rect width="38.5618" height="40" fill="white" transform="translate(1)"/>
</clipPath>
</defs>
</svg>
