<svg width="40" height="40" viewBox="0 0 40 40" fill="none" xmlns="http://www.w3.org/2000/svg">
<g clip-path="url(#clip0_544_437)">
<path d="M32.7842 31.5538L32.4221 31.9347C32.4655 31.9753 33.1945 32.67 33.1945 32.67L32.7828 33.1019L32.0101 32.3666C31.8806 32.5019 31.7516 32.6377 31.623 32.7739L32.3946 33.5091C32.3946 33.5091 31.8889 34.0406 31.8477 34.0835C31.8865 34.121 32.169 34.3895 32.2079 34.4267C32.2516 34.3812 34.8391 31.6648 34.8832 31.6193C34.8434 31.5821 34.5602 31.3134 34.5222 31.2759L33.5828 32.2618C33.5828 32.2618 32.8533 31.5667 32.8101 31.5266C32.7982 31.5399 32.7842 31.5538 32.7842 31.5538Z" fill="#9D9D9E"/>
<path d="M33.8778 31.1428C33.8335 31.0999 32.3312 29.6688 32.2866 29.6249L32.2608 29.6519C32.2608 29.6519 30.0136 32.0106 29.9702 32.0571L30.3295 32.3996C30.3736 32.3538 32.2593 30.3739 32.2593 30.3739C32.2593 30.3739 33.4466 31.5052 33.4926 31.5479L33.8778 31.1428ZM6.36823 32.3249C6.17934 32.5229 6.07645 32.7876 6.08201 33.0612C6.08756 33.3348 6.20111 33.5951 6.39787 33.7854C6.57466 33.9946 6.82701 34.1254 7.09986 34.1492C7.37271 34.1731 7.64393 34.0881 7.85435 33.9127C8.03072 33.7084 8.12529 33.446 8.11986 33.1762C8.11442 32.9063 8.00938 32.648 7.82493 32.4509C7.64048 32.2538 7.38966 32.1319 7.12073 32.1086C6.85181 32.0854 6.58378 32.1624 6.36823 32.3249ZM6.72873 32.701C6.84241 32.6137 6.98454 32.5717 7.12743 32.5834C7.27032 32.5951 7.40376 32.6595 7.50177 32.7641C7.59978 32.8688 7.65535 33.0061 7.65765 33.1495C7.65996 33.2928 7.60884 33.4319 7.51424 33.5396C7.40064 33.6277 7.25826 33.6702 7.11497 33.6588C6.97169 33.6474 6.83781 33.583 6.73955 33.4781C6.64129 33.3732 6.58572 33.2354 6.58372 33.0916C6.58172 32.9479 6.63343 32.8086 6.72873 32.701ZM9.96755 31.9074C9.96755 31.9074 9.65922 31.5787 9.62151 31.5393C9.58072 31.5771 9.17255 31.9596 9.17255 31.9596L8.73544 31.4917C8.69631 31.5277 8.42403 31.7827 8.38656 31.8187L8.82343 32.2857L8.23264 32.8386C8.26892 32.877 8.56468 33.1943 8.60286 33.2335C8.64697 33.1929 9.94857 31.9743 9.99198 31.9335C9.97964 31.92 9.96755 31.9074 9.96755 31.9074ZM8.3147 30.1251C8.3147 30.1251 6.33075 30.2074 6.26814 30.2105C6.27193 30.2643 6.30111 30.7 6.30514 30.7526C6.36443 30.7486 7.77181 30.6687 7.77181 30.6687C7.77181 30.6687 7.59986 31.989 7.59156 32.0483C7.64397 32.055 8.0761 32.1142 8.12899 32.1209C8.13539 32.0599 8.34909 30.1934 8.35739 30.123C8.33604 30.123 8.3147 30.1251 8.3147 30.1251ZM24.575 38.5091L25.1117 38.4166L24.5031 34.878C24.486 34.8816 24.4671 34.8847 24.4671 34.8847C24.4671 34.8847 24.0219 34.9617 23.9671 34.9705C23.9763 35.0305 24.1547 36.0584 24.1547 36.0584L23.8378 36.1127C23.8378 36.1127 23.6609 35.0848 23.6517 35.0248L23.1092 35.1197L23.4965 37.3664C23.067 37.4399 21.7946 37.6591 21.7946 37.6591L21.4967 35.9303L22.7537 35.7138L22.6774 35.266L22.6695 35.2674L20.885 35.5743C20.9953 36.2116 21.3345 38.1761 21.3428 38.2266L23.5774 37.8431L23.7181 38.659L24.2602 38.5667L23.9197 36.5892L24.2356 36.5349L24.575 38.5091ZM13.6373 35.7847L13.4713 35.6967L14.1375 34.4447C14.1216 34.4362 14.105 34.4283 14.105 34.4283C14.105 34.4283 11.2997 32.9341 11.245 32.9059L11.0158 33.3364C11.0699 33.3649 13.4222 34.6171 13.4222 34.6171C13.4222 34.6171 13.1549 35.1187 12.9858 35.4387L10.3617 34.042L10.1333 34.471L11.1646 35.0194C11.1646 35.0194 10.8897 35.5343 10.8638 35.5848L11.3552 35.8471C11.3818 35.7963 11.6569 35.2814 11.6569 35.2814L12.0947 35.5146C12.0947 35.5146 11.8208 36.0292 11.7935 36.0793L12.2859 36.3421C12.312 36.2916 12.5866 35.7769 12.5866 35.7769C12.5866 35.7769 13.389 36.2038 13.4405 36.2316L13.6689 35.8016L13.6373 35.7847ZM10.6798 35.141L10.1948 34.8832L9.594 36.0112L12.5463 37.5827L12.7766 37.1527C12.7209 37.124 10.31 35.8397 10.31 35.8397C10.31 35.8397 10.6525 35.1935 10.6798 35.141ZM15.9682 37.3209L15.9329 37.3154C15.9329 37.3154 15.4804 37.2443 15.4253 37.2364L15.2266 38.4994L18.5548 39.0212L18.6298 38.5399L15.8459 38.1033C15.8459 38.1033 15.959 37.3783 15.9682 37.3209ZM18.986 36.0975C18.986 36.0975 19.0749 35.5336 19.0833 35.4771C19.0676 35.4754 19.0491 35.4726 19.0491 35.4726C19.0491 35.4726 18.5985 35.4015 18.5418 35.3929L18.3117 36.8591L17.7622 36.773L17.9814 35.3711L17.9465 35.3656C17.9465 35.3656 15.7327 35.0184 15.6727 35.0099L15.5961 35.4923L17.3626 35.7691C17.3626 35.7691 17.2639 36.4014 17.2179 36.6886C16.9096 36.6411 16.6724 36.603 16.6724 36.603C16.6724 36.603 16.7457 36.1447 16.754 36.0897C16.7374 36.0878 16.7194 36.085 16.7194 36.085C16.7194 36.085 16.2578 36.0122 16.2028 36.0041L16.1231 36.5164L15.2838 36.385L15.2083 36.8669L18.2377 37.3413L18.1493 37.9036L18.6907 37.9888C18.7005 37.9292 18.9122 36.5757 18.9122 36.5757C18.9122 36.5757 19.4124 36.6544 19.4691 36.6637L19.5431 36.1853L18.986 36.0975ZM28.8047 32.7534C28.8047 32.7534 28.41 32.9719 28.3614 32.9991C28.3918 33.0506 29.3575 34.7936 29.3874 34.846C29.4337 34.8206 29.8143 34.6088 29.8618 34.5837C29.834 34.5317 29.3675 33.6914 29.3675 33.6914L29.8482 33.4244C29.8245 33.3791 29.6431 33.0527 29.6172 33.0079L29.1358 33.2745L28.8367 32.7352L28.8047 32.7534ZM29.946 34.822L26.9901 36.4618C27.0157 36.5093 27.1986 36.8382 27.2247 36.8835C27.2778 36.8537 29.7387 35.4899 29.7387 35.4899C29.7387 35.4899 30.0686 36.0828 30.0959 36.1348C30.1433 36.1082 30.5228 35.8976 30.5702 35.8708C30.3732 35.5152 30.1756 35.1599 29.9773 34.805C29.9614 34.8133 29.946 34.822 29.946 34.822ZM27.9023 33.3283L27.0216 33.8169H27.0188L26.8582 33.5271L26.3763 33.7934L26.538 34.0847L25.6427 34.5811L25.8668 34.9843L26.1896 34.8054C26.1738 35.0005 26.2159 35.1958 26.3106 35.3671C26.4609 35.6059 26.697 35.7782 26.9704 35.8484C27.2438 35.9186 27.5337 35.8814 27.7805 35.7445C28.0273 35.6076 28.2124 35.3813 28.2976 35.1123C28.3827 34.8432 28.3616 34.5517 28.2386 34.2977C28.1429 34.1271 27.9994 33.9882 27.8259 33.898L28.1254 33.7306L27.9023 33.3283ZM27.5353 35.2731C27.4473 35.3163 27.3486 35.3326 27.2514 35.3202C27.1542 35.3078 27.0628 35.2671 26.9885 35.2033C26.9141 35.1394 26.8602 35.0551 26.8333 34.9609C26.8064 34.8667 26.8077 34.7666 26.8371 34.6731C26.8665 34.5796 26.9226 34.4968 26.9986 34.4349C27.0746 34.3731 27.1671 34.3348 27.2646 34.325C27.3621 34.3151 27.4603 34.3341 27.5472 34.3795C27.634 34.425 27.7056 34.4949 27.7531 34.5806C27.8159 34.7014 27.8282 34.8422 27.7875 34.9721C27.7467 35.102 27.6561 35.2105 27.5356 35.2739L27.5353 35.2731ZM38.6274 21.4444L38.2124 21.1835C38.3375 21.1273 38.4454 21.0386 38.5246 20.9266C38.6039 20.8146 38.6516 20.6834 38.663 20.5467C38.6754 20.4764 38.6726 20.4042 38.6547 20.3351C38.6368 20.2659 38.6043 20.2015 38.5593 20.146C38.5143 20.0906 38.4579 20.0455 38.394 20.0137C38.33 19.982 38.26 19.9643 38.1886 19.962C37.8037 19.9651 37.6628 20.3057 37.5008 20.6992C37.3244 21.1223 37.0538 21.5663 36.5154 21.5985C35.8641 21.6379 35.4244 21.0623 35.4562 20.2704C35.4615 20.0507 35.5148 19.8348 35.6123 19.6379C35.7098 19.4409 35.8492 19.2677 36.0207 19.1303L36.5104 19.3556C36.2978 19.4399 36.1149 19.5852 35.9847 19.7732C35.8544 19.9612 35.7827 20.1835 35.7785 20.4122C35.7714 20.496 35.7819 20.5804 35.8095 20.6598C35.8372 20.7393 35.8812 20.812 35.9388 20.8734C35.9964 20.9347 36.0662 20.9832 36.1438 21.0157C36.2213 21.0483 36.3049 21.0641 36.389 21.0623C36.7744 21.0592 36.9108 20.7302 37.0694 20.3477C37.2468 19.9193 37.4475 19.4336 38.0608 19.4286C38.6606 19.4241 39.024 19.8992 38.9881 20.6382C38.9697 20.9418 38.8415 21.2283 38.6274 21.4444ZM2.61972 26.8455L3.10569 26.8981C3.0178 27.0035 2.95977 27.1306 2.93762 27.266C2.91547 27.4014 2.93002 27.5403 2.97975 27.6682C2.99934 27.7368 3.03344 27.8004 3.07975 27.8547C3.12605 27.909 3.18347 27.9527 3.24812 27.9828C3.31278 28.013 3.38316 28.0289 3.4545 28.0295C3.52583 28.0301 3.59647 28.0153 3.66162 27.9863C4.0067 27.8146 3.98394 27.4469 3.95808 27.0222C3.93128 26.5644 3.98038 26.0476 4.44998 25.7827C5.01919 25.4623 5.66738 25.7867 5.98377 26.5137C6.07521 26.7135 6.12189 26.9308 6.12053 27.1505C6.11918 27.3702 6.06983 27.587 5.97594 27.7856L5.43519 27.7977C5.58973 27.629 5.69084 27.4183 5.72574 27.1922C5.76065 26.966 5.7278 26.7347 5.63133 26.5272C5.60115 26.4486 5.55474 26.3774 5.49514 26.318C5.43553 26.2586 5.36408 26.2124 5.28543 26.1825C5.20678 26.1526 5.12271 26.1396 5.0387 26.1444C4.9547 26.1492 4.87265 26.1717 4.79791 26.2103C4.45235 26.3811 4.4737 26.7366 4.49907 27.15C4.5273 27.6132 4.55884 28.1378 4.00955 28.4101C3.47259 28.6764 2.93801 28.4084 2.64771 27.7287C2.53104 27.4475 2.52109 27.1335 2.61972 26.8455ZM2.09273 14.6608L2.05739 14.6944C1.76039 15.0236 1.56256 15.43 1.48675 15.8668C1.25195 16.9962 1.77776 17.8353 2.81492 18.0488C3.87555 18.2691 4.64683 17.7423 4.87618 16.6374C4.96669 16.2028 4.98329 15.7561 4.92527 15.3161L4.91982 15.2739L3.63055 15.0059L3.52121 15.5312L4.60888 15.7548C4.65874 15.9828 4.65874 16.2189 4.60888 16.4469C4.43148 17.3007 3.82788 17.6657 2.90931 17.4746C2.04956 17.296 1.61127 16.7306 1.77444 15.9458C1.814 15.7486 1.89309 15.5615 2.00694 15.3958C2.12079 15.23 2.26704 15.0891 2.43686 14.9814L2.46058 14.967L2.09273 14.6608ZM5.34862 7.93931L5.04718 8.36907L5.81063 9.96263L4.04916 9.78854L3.66565 10.334L5.95934 10.4654C5.98685 10.4844 7.10725 11.2702 7.10725 11.2702L7.41558 10.8316C7.41558 10.8316 6.25699 10.0203 6.23304 10.0041L5.34862 7.93931ZM36.7198 28.9741L36.93 28.4941L35.8698 27.08L37.6318 26.9071L37.9014 26.2962L35.626 26.6154L34.3434 26.0495L34.1266 26.5402L35.4486 27.1208L36.7198 28.9741ZM4.29273 12.6261L3.58122 10.5503L3.34049 11.0391L4.01121 12.9911L2.69941 12.345L2.46224 12.826L5.47433 14.3057L5.7115 13.8233L4.2517 13.108L6.31273 12.6019L6.61251 11.9909L4.29273 12.6261ZM14.3377 3.59741L15.3298 1.63931L14.8101 1.80794L13.8795 3.64887C13.847 3.55258 13.4288 2.25738 13.4288 2.25738L12.9173 2.4234L13.9563 5.61479L14.4672 5.44877L13.9632 3.90241L15.7633 5.02803L16.4106 4.81718L14.3377 3.59741ZM17.1368 4.65662L17.5385 4.6163L18.1699 1.96448L19.2528 4.44506L19.7134 4.4L20.493 0.948669L20.0315 0.994206L19.4001 3.72382L18.2837 1.16876L17.978 1.19889L17.3536 3.92352L16.2989 1.36799L15.7346 1.42278L17.1368 4.65662ZM22.3482 1.19723L22.111 1.16876L20.2734 4.37059L20.7311 4.42774L21.4082 3.22552L22.4366 3.34932L22.7924 4.67749L23.4178 4.75291L22.3482 1.19723ZM22.0828 1.93246C22.1406 2.12907 22.314 2.88731 22.3534 3.02108L21.5351 2.92241L22.0828 1.93246ZM32.7254 11.0579L35.5027 9.17759L35.8017 9.61944L33.0245 11.5L32.7254 11.0579ZM35.2916 22.7248L35.376 22.1983L38.6869 22.7282L38.6025 23.2547L35.2916 22.7248ZM30.4862 6.53217C30.0188 7.21523 29.525 7.3267 28.9992 6.96691C28.4062 6.56063 28.3858 6.15175 28.8806 5.42814L29.9386 3.88272L29.4989 3.58294L28.4155 5.16748C28.1866 5.51043 27.9736 5.90272 28.0699 6.30306C28.1815 6.68711 28.4346 7.01454 28.7781 7.21926C29.5217 7.72799 30.2166 7.60182 30.7348 6.84382L31.8623 5.19713L31.5469 4.98059L30.4862 6.53217ZM8.80849 7.11182C9.38885 7.70285 9.40284 8.20827 8.94795 8.65486C8.43471 9.15838 8.03033 9.09932 7.41653 8.47342L6.10425 7.13743L5.72478 7.51051L7.07002 8.87899C7.36316 9.17 7.70516 9.45508 8.11784 9.438C8.51651 9.40309 8.88709 9.21823 9.15476 8.92073C9.79726 8.28938 9.80746 7.58308 9.16448 6.92849L7.76517 5.50545L7.49266 5.77298L8.80849 7.11182ZM3.19226 22.9411C3.99864 22.749 4.43883 22.9974 4.58612 23.6178C4.75332 24.3175 4.49409 24.6329 3.64122 24.8366L1.81927 25.2714L1.94355 25.7893L3.80985 25.3425C4.21044 25.2417 4.63118 25.0956 4.82969 24.7325C5.01148 24.3745 5.05007 23.9608 4.9376 23.5753C4.72818 22.6992 4.11248 22.33 3.21953 22.5429L1.27686 23.0057L1.36532 23.378L3.19226 22.9411ZM33.782 12.7577L33.921 13.0276L37.5495 12.7439L37.3265 12.3123L34.4698 12.5933L36.3574 10.4322L36.0833 9.90049L33.782 12.7577ZM35.0762 14.8135C35.1758 14.7815 36.1482 14.4732 36.246 14.4421L36.5984 15.5511L36.9226 15.4477L36.5716 14.3389L37.6282 14.004L38.0108 15.2136L38.2859 15.127L37.7425 13.4113L34.5445 14.425L35.0966 16.1692L35.4685 16.0506L35.0762 14.8135Z" fill="#9D9D9E"/>
<path d="M38.5579 23.868L38.2887 23.7921L38.0074 24.7951L35.047 23.965L34.9031 24.4773L37.862 25.3074L37.5952 26.2682L37.8663 26.3422L38.5579 23.868ZM35.2436 16.6926L35.3103 17.2215L36.9276 17.0066L35.4998 18.6493L35.5757 19.2145L37.0027 17.5806C37.0976 18.1261 37.5402 18.5584 38.0226 18.4946C38.5728 18.4211 38.8071 18.0421 38.7104 17.3024L38.5709 16.252L35.2436 16.6926ZM37.243 16.9647C37.3398 16.9521 38.255 16.8304 38.3532 16.8176L38.4217 17.3218C38.4763 17.7402 38.2557 17.9492 37.9543 17.9774C37.6398 18.007 37.3813 17.8754 37.3044 17.4039L37.243 16.9647ZM11.1455 3.23382L10.8216 3.43969L12.1023 5.45565C10.9228 5.15088 8.86798 4.68318 8.86798 4.68318L8.63769 4.82833L10.4355 7.65826L10.7597 7.45263C10.7597 7.45263 10.0119 6.2746 9.41253 5.33161L12.7524 6.18709L12.9469 6.0647L11.1455 3.23382ZM1.05957 18.8663L1.06716 19.2503L3.4543 19.1995C2.58316 20.0505 1.11744 21.566 1.11744 21.566L1.12266 21.8373L4.47674 21.7662L4.46844 21.3822C4.46844 21.3822 3.07363 21.4121 1.95608 21.4356L4.41793 19.0231L4.41342 18.7928L1.05957 18.8663ZM27.3996 2.53985L27.0356 2.41724L26.275 4.67986C25.7696 3.57179 24.8399 1.67987 24.8399 1.67987L24.5823 1.59259L23.5136 4.77212L23.8772 4.89426L24.6781 2.51234L26.1142 5.6461L26.3324 5.71962L27.3996 2.53985ZM34.8357 8.19451L34.5748 7.91393L32.8266 9.53975C32.9108 8.32448 32.9971 6.21792 32.9971 6.21792L32.8122 6.01846L30.3555 8.30313L30.6164 8.58395C30.6164 8.58395 31.6389 7.63383 32.4569 6.87251L32.224 10.3115L32.3805 10.4797L34.8357 8.19451Z" fill="#9D9D9E"/>
<path d="M21.2044 15.8071C21.2009 14.9943 21.3977 14.1931 21.7774 13.4745C22.1571 12.7558 22.708 12.1418 23.3814 11.6866C24.0548 11.2314 24.8299 10.9491 25.6383 10.8646C26.4467 10.7802 27.2635 10.8962 28.0164 11.2024C25.9308 9.28489 23.194 8.23258 20.361 8.25897C17.5281 8.28535 14.8112 9.38845 12.7618 11.3444C10.7123 13.3004 9.48363 15.9628 9.32511 18.7915C9.16659 21.6201 10.0901 24.4031 11.9082 26.5759C12.9919 25.12 14.2885 23.8355 15.7544 22.7655C17.0005 21.8879 18.7316 21.0068 20.1226 20.8738C21.4401 20.7481 23.4018 20.8738 24.5905 21.443C23.7466 20.5998 22.9484 19.7122 22.1991 18.784C21.5529 17.9261 21.2037 16.8811 21.2044 15.8071Z" fill="url(#paint0_linear_544_437)"/>
<path d="M20.8576 19.4353L15.6139 9.36615C14.6268 9.84353 13.7157 10.4642 12.9102 11.208L20.8236 19.4225L20.8576 19.4353Z" fill="url(#paint1_linear_544_437)"/>
<path d="M20.8851 19.4457L21.562 8.31524C20.6572 8.2263 19.7449 8.24764 18.8452 8.3788L20.8745 19.4419L20.8851 19.4457Z" fill="url(#paint2_linear_544_437)"/>
<path d="M20.8239 19.4225L10.0414 15.4328C9.6791 16.384 9.44849 17.3802 9.35596 18.3939L20.851 19.4514L20.8239 19.4225Z" fill="url(#paint3_linear_544_437)"/>
<path d="M9.42773 21.035C9.54194 21.8165 9.73879 22.5837 10.015 23.3237L20.8198 19.4799L9.42773 21.035Z" fill="url(#paint4_linear_544_437)"/>
<path d="M11.7038 29.3035C11.2005 28.865 10.7391 28.3807 10.3254 27.8568C8.04355 25.3039 5.43324 18.6031 9.75617 12.5167C10.8317 10.9872 12.2334 9.7155 13.8601 8.79351C15.4869 7.87152 17.298 7.32223 19.1628 7.18529C21.0277 7.04834 22.8996 7.32717 24.6436 8.00163C26.3876 8.6761 27.96 9.72937 29.2474 11.0854C29.2976 11.1305 29.3381 11.1852 29.3666 11.2463C29.3951 11.3075 29.4109 11.3737 29.4131 11.4411C29.4153 11.5085 29.4039 11.5756 29.3795 11.6385C29.3551 11.7014 29.3182 11.7586 29.2712 11.8069C29.0122 12.0249 28.7788 11.9122 28.2556 11.7614C27.5221 11.5351 26.7485 11.4692 25.9873 11.5683C24.2429 11.7929 22.733 13.4133 22.9453 15.6737C23.1393 17.7371 24.7329 19.2259 25.8511 20.2085C29.7811 23.6596 28.4724 27.3661 28.1534 28.1805C27.0716 30.9452 24.2932 32.8976 20.6874 32.9021C18.6141 32.8736 16.5905 32.2632 14.8471 31.1407C14.7633 31.1034 14.681 30.991 14.7823 30.8058C15.1027 30.103 15.4903 29.4329 15.9397 28.8048C17.0224 30.0525 18.8484 31.2258 20.8746 31.2974C23.6447 31.3952 25.4283 29.8939 26.0793 27.9901C26.8117 25.852 26.0271 23.6736 23.9545 21.7114C22.1683 20.0192 20.5741 18.4534 20.4775 15.7655C20.3561 12.3237 23.3509 10.2748 26.1365 10.408C26.2202 10.4121 22.2815 7.57835 17.2333 9.27579C15.4259 9.87446 13.8159 10.9543 12.5761 12.3993C12.5404 12.4367 12.5203 12.4863 12.5198 12.538C12.5194 12.5897 12.5387 12.6396 12.5738 12.6775C12.6525 12.7902 14.3725 15.1826 14.3725 15.1826L11.275 14.4741C11.239 14.4659 11.2013 14.4686 11.1669 14.4819C11.1324 14.4953 11.1028 14.5187 11.0817 14.5491C10.0994 16.2477 8.65546 21.1567 11.9002 25.6226C11.9002 25.6226 14.6533 21.2487 20.1301 20.8692C20.4948 20.8455 20.4488 20.975 20.2093 21.0621C15.3181 22.8669 13.392 26.4582 12.1483 29.2274C12.1307 29.2686 12.103 29.3048 12.0678 29.3326C12.0326 29.3603 11.991 29.3789 11.9468 29.3864C11.9026 29.394 11.8572 29.3904 11.8148 29.3759C11.7723 29.3614 11.7342 29.3365 11.7038 29.3035Z" fill="#004483"/>
<path d="M16.7442 25.925C16.7442 25.925 17.0495 25.7884 17.1363 25.7403L17.1394 27.8625H17.5234L17.5198 25.3665L17.4577 25.3252L17.4377 25.3349C17.1733 25.4674 16.9044 25.5906 16.6313 25.7042L16.7442 25.925ZM18.7839 26.6126C19.0946 26.6126 19.2462 26.7724 19.2466 27.1019C19.2532 27.1745 19.2442 27.2477 19.2201 27.3165C19.196 27.3853 19.1574 27.4482 19.107 27.5008C19.0566 27.5535 18.9954 27.5947 18.9277 27.6218C18.86 27.6488 18.7873 27.661 18.7144 27.6576C18.6278 27.6541 18.5428 27.6324 18.4651 27.5937C18.3875 27.5551 18.3189 27.5005 18.2638 27.4334L18.2164 27.3782L18.1248 27.7086L18.1545 27.7226C18.3265 27.8079 18.5162 27.8514 18.7083 27.8497C19.2554 27.8497 19.6524 27.5155 19.652 27.0563C19.655 26.9118 19.6027 26.7716 19.5057 26.6644C19.4087 26.5572 19.2743 26.4911 19.1302 26.4798C19.2497 26.4346 19.3527 26.3543 19.4257 26.2495C19.4987 26.1447 19.5383 26.0203 19.5393 25.8925C19.5393 25.5425 19.2628 25.3273 18.8197 25.3262C18.7133 25.3235 18.6075 25.3439 18.5097 25.3862C18.4119 25.4284 18.3244 25.4913 18.2534 25.5707L18.4177 25.8553L18.4455 25.7749C18.4724 25.7004 18.5212 25.6357 18.5856 25.5894C18.6499 25.5432 18.7267 25.5175 18.806 25.5157C18.9644 25.5157 19.1482 25.6198 19.1487 25.9148C19.1487 26.1444 19.0856 26.4183 18.7856 26.4186L18.5864 26.4032V26.6389C18.651 26.6225 18.7173 26.6137 18.7839 26.6126ZM20.1752 27.353L20.2781 27.7562C20.3967 27.8168 20.528 27.8479 20.6611 27.8471C21.3015 27.844 21.7479 27.2444 21.7464 26.384C21.7464 25.4251 21.1604 25.3224 20.9099 25.3228C20.8019 25.3162 20.6936 25.3321 20.592 25.3696C20.4905 25.4071 20.3978 25.4654 20.3201 25.5407C20.2423 25.6161 20.1811 25.7068 20.1403 25.8071C20.0996 25.9074 20.0802 26.0151 20.0834 26.1233C20.0743 26.2221 20.0868 26.3217 20.12 26.4152C20.1533 26.5086 20.2064 26.5938 20.2758 26.6647C20.3452 26.7356 20.4292 26.7906 20.5219 26.8258C20.6147 26.861 20.714 26.8757 20.8129 26.8687C20.9167 26.8716 21.0197 26.8498 21.1133 26.8049C21.207 26.76 21.2886 26.6934 21.3513 26.6107C21.3257 27.1465 21.1141 27.636 20.6768 27.6393C20.5754 27.6398 20.4757 27.6137 20.3876 27.5634C20.2995 27.5132 20.2263 27.4406 20.1752 27.353ZM20.8722 26.6591C20.6042 26.6591 20.474 26.4836 20.4735 26.1235C20.4735 25.7592 20.6467 25.5142 20.9066 25.514C21.1665 25.5138 21.3411 25.7211 21.3416 26.0299C21.3421 26.3387 21.1813 26.6581 20.8722 26.6581V26.6591ZM23.2715 26.4091C23.3766 26.366 23.4668 26.2929 23.5305 26.1988C23.5943 26.1047 23.6288 25.9939 23.6298 25.8802C23.6298 25.6219 23.4417 25.32 22.9114 25.3207C22.8252 25.3126 22.7383 25.3219 22.6558 25.3481C22.5733 25.3743 22.4969 25.4168 22.4311 25.4731C22.3654 25.5294 22.3116 25.5984 22.2731 25.6759C22.2346 25.7534 22.212 25.8379 22.2068 25.9243C22.2077 26.0354 22.2429 26.1435 22.3075 26.2339C22.3721 26.3243 22.463 26.3926 22.5678 26.4295C22.4244 26.4763 22.2999 26.5679 22.2126 26.6909C22.1253 26.8138 22.0798 26.9615 22.0827 27.1123C22.0827 27.5508 22.4172 27.8452 22.9147 27.8447C23.0239 27.8495 23.1329 27.8318 23.2349 27.7926C23.3369 27.7535 23.4298 27.6938 23.5078 27.6173C23.5858 27.5408 23.6472 27.449 23.6882 27.3477C23.7293 27.2464 23.749 27.1378 23.7463 27.0286C23.7514 26.8863 23.7068 26.7466 23.6201 26.6336C23.5335 26.5205 23.4102 26.4412 23.2715 26.4091ZM22.5746 25.9283C22.5746 25.8306 22.5984 25.5119 22.9152 25.5114C23.2273 25.5114 23.2617 25.8022 23.2622 25.9274C23.2622 26.0251 23.2385 26.3439 22.9162 26.3443C22.5998 26.3448 22.5746 26.0258 22.5746 25.9283ZM22.9147 27.6519C22.6505 27.6519 22.4722 27.4282 22.4719 27.0943C22.4717 26.7603 22.6493 26.536 22.9133 26.5355C23.1773 26.535 23.3542 26.7592 23.3547 27.0929C23.3552 27.432 23.183 27.6516 22.9147 27.6519Z" fill="#9D9D9E"/>
</g>
<defs>
<linearGradient id="paint0_linear_544_437" x1="22.5477" y1="20.1774" x2="13.3812" y2="15.008" gradientUnits="userSpaceOnUse">
<stop stop-color="white"/>
<stop offset="0.2" stop-color="#E8EC8F"/>
<stop offset="0.76" stop-color="#ABCD03"/>
<stop offset="1" stop-color="#8FC31F"/>
</linearGradient>
<linearGradient id="paint1_linear_544_437" x1="21.7805" y1="16.7702" x2="13.2316" y2="11.0685" gradientUnits="userSpaceOnUse">
<stop stop-color="#E6EB91"/>
<stop offset="0.018" stop-color="#E2E989"/>
<stop offset="0.089" stop-color="#D3E16E"/>
<stop offset="0.152" stop-color="#CADD5E"/>
<stop offset="0.2" stop-color="#C7DB58"/>
<stop offset="0.4" stop-color="#A3C910"/>
<stop offset="0.746" stop-color="#7DBB23"/>
<stop offset="1" stop-color="#66B22F"/>
</linearGradient>
<linearGradient id="paint2_linear_544_437" x1="22.9419" y1="15.0283" x2="14.3939" y2="9.32733" gradientUnits="userSpaceOnUse">
<stop stop-color="#E6EB91"/>
<stop offset="0.018" stop-color="#E2E989"/>
<stop offset="0.089" stop-color="#D3E16E"/>
<stop offset="0.152" stop-color="#CADD5E"/>
<stop offset="0.2" stop-color="#C7DB58"/>
<stop offset="0.4" stop-color="#A3C910"/>
<stop offset="0.746" stop-color="#7DBB23"/>
<stop offset="1" stop-color="#66B22F"/>
</linearGradient>
<linearGradient id="paint3_linear_544_437" x1="18.7329" y1="21.3383" x2="10.1844" y2="15.6368" gradientUnits="userSpaceOnUse">
<stop stop-color="#E6EB91"/>
<stop offset="0.018" stop-color="#E2E989"/>
<stop offset="0.089" stop-color="#D3E16E"/>
<stop offset="0.152" stop-color="#CADD5E"/>
<stop offset="0.2" stop-color="#C7DB58"/>
<stop offset="0.4" stop-color="#A3C910"/>
<stop offset="0.746" stop-color="#7DBB23"/>
<stop offset="1" stop-color="#66B22F"/>
</linearGradient>
<linearGradient id="paint4_linear_544_437" x1="17.6827" y1="22.913" x2="9.13477" y2="17.2118" gradientUnits="userSpaceOnUse">
<stop stop-color="#E6EB91"/>
<stop offset="0.018" stop-color="#E2E989"/>
<stop offset="0.089" stop-color="#D3E16E"/>
<stop offset="0.152" stop-color="#CADD5E"/>
<stop offset="0.2" stop-color="#C7DB58"/>
<stop offset="0.4" stop-color="#A3C910"/>
<stop offset="0.746" stop-color="#7DBB23"/>
<stop offset="1" stop-color="#66B22F"/>
</linearGradient>
<clipPath id="clip0_544_437">
<rect width="40" height="40" fill="white"/>
</clipPath>
</defs>
</svg>
