<svg width="43" height="40" viewBox="0 0 43 40" fill="none" xmlns="http://www.w3.org/2000/svg">
<g clip-path="url(#clip0_544_437)">
<path d="M19.9072 6.35504H20.0759V33.5378H19.9072V6.35504Z" fill="#6F7271"/>
<path d="M20.6181 33.5239L19.1982 6.3786L19.3675 6.36884L20.7886 33.5146L20.6181 33.5239Z" fill="#6F7271"/>
<path d="M21.3315 33.4757L18.4849 6.4394L18.657 6.41998L21.4974 33.455L21.3315 33.4757Z" fill="#6F7271"/>
<path d="M22.0341 33.3838L17.7773 6.53465L17.9517 6.5094L22.2017 33.3586L22.0341 33.3838Z" fill="#6F7271"/>
<path d="M22.7319 33.2576L17.0811 6.66895L17.2481 6.63452L22.8994 33.2232L22.7319 33.2576Z" fill="#6F7271"/>
<path d="M23.4253 33.0969L16.3906 6.84121L16.5588 6.79761L23.5881 33.0533L23.4253 33.0969Z" fill="#6F7271"/>
<path d="M24.1082 32.8994L15.7129 7.04653L15.8713 6.99316L24.2735 32.8467L24.1082 32.8994Z" fill="#6F7271"/>
<path d="M24.7822 32.6654L15.041 7.28768L15.2029 7.22681L24.9429 32.6033L24.7822 32.6654Z" fill="#6F7271"/>
<path d="M25.4408 32.399L14.3882 7.56486L14.5403 7.49255L25.5992 32.3279L25.4408 32.399Z" fill="#6F7271"/>
<path d="M26.0861 32.096L13.7456 7.87472L13.8961 7.79907L26.2387 32.0179L26.0861 32.096Z" fill="#6F7271"/>
<path d="M26.7126 31.7585L13.1255 8.21804L13.2684 8.13251L26.8594 31.6735L26.7126 31.7585Z" fill="#6F7271"/>
<path d="M27.3223 31.3912L12.5186 8.59617L12.6609 8.50146L27.4646 31.2994L27.3223 31.3912Z" fill="#6F7271"/>
<path d="M27.9108 30.9941L11.9341 9.00025L12.0735 8.89923L28.0497 30.8908L27.9108 30.9941Z" fill="#6F7271"/>
<path d="M28.4782 30.5602L11.373 9.43816L11.5056 9.32916L28.6112 30.4568L28.4782 30.5602Z" fill="#6F7271"/>
<path d="M10.834 9.90149L10.9605 9.78759L29.1483 29.9893L29.0218 30.1032L10.834 9.90149Z" fill="#6F7271"/>
<path d="M29.542 29.6166L10.3208 10.3971L10.4396 10.2749L29.6602 29.4974L29.542 29.6166Z" fill="#6F7271"/>
<path d="M30.0354 29.1047L9.83398 10.9143L9.94942 10.7886L30.1491 28.9762L30.0354 29.1047Z" fill="#6F7271"/>
<path d="M30.4993 28.5652L9.37842 11.4601L9.48003 11.3269L30.6083 28.4344L30.4993 28.5652Z" fill="#6F7271"/>
<path d="M30.9369 28.0039L8.9458 12.0253L9.04515 11.89L31.0355 27.865L30.9369 28.0039Z" fill="#6F7271"/>
<path d="M31.3454 27.4197L8.54639 12.6148L8.63823 12.4742L31.4362 27.2773L31.3454 27.4197Z" fill="#6F7271"/>
<path d="M31.7174 26.8137L8.17969 13.2231L8.26462 13.0773L31.8045 26.6667L31.7174 26.8137Z" fill="#6F7271"/>
<path d="M32.0615 26.1915L7.84082 13.8521L7.91885 13.6978L32.1372 26.0422L32.0615 26.1915Z" fill="#6F7271"/>
<path d="M32.3726 25.5533L7.54248 14.4943L7.60907 14.3395L32.4449 25.3971L32.3726 25.5533Z" fill="#6F7271"/>
<path d="M32.6483 24.8967L7.27344 15.155L7.33145 14.9954L32.7091 24.7383L32.6483 24.8967Z" fill="#6F7271"/>
<path d="M32.8904 24.2264L7.03809 15.8264L7.09098 15.6652L32.9432 24.0634L32.8904 24.2264Z" fill="#6F7271"/>
<path d="M33.0968 23.5469L6.83936 16.51L6.88296 16.3458L33.1394 23.3815L33.0968 23.5469Z" fill="#6F7271"/>
<path d="M33.267 22.8548L6.67725 17.2022L6.71001 17.0375L33.3036 22.6882L33.267 22.8548Z" fill="#6F7271"/>
<path d="M33.3997 22.1551L6.55176 17.9064L6.57928 17.7359L33.425 21.9875L33.3997 22.1551Z" fill="#6F7271"/>
<path d="M33.4966 21.451L6.46436 18.6094L6.48377 18.439L33.515 21.2844L33.4966 21.451Z" fill="#6F7271"/>
<path d="M33.556 20.7444L6.41309 19.3199L6.42166 19.1494L33.5653 20.5717L33.556 20.7444Z" fill="#6F7271"/>
<path d="M6.39844 19.8611H33.581V20.031H6.39844V19.8611Z" fill="#6F7271"/>
<path d="M6.42166 20.7444L6.41309 20.5717L33.5584 19.1494L33.5653 19.3199L6.42166 20.7444Z" fill="#6F7271"/>
<path d="M6.48377 21.451L6.46436 21.2844L33.4966 18.4402L33.515 18.6095L6.48377 21.451Z" fill="#6F7271"/>
<path d="M6.57928 22.1551L6.55176 21.9875L33.402 17.7359L33.4262 17.9064L6.57928 22.1551Z" fill="#6F7271"/>
<path d="M6.71001 22.8558L6.67725 22.6882L33.267 17.0375L33.3036 17.2022L6.71001 22.8558Z" fill="#6F7271"/>
<path d="M6.88296 23.5469L6.83936 23.3815L33.0968 16.3458L33.1427 16.51L6.88296 23.5469Z" fill="#6F7271"/>
<path d="M7.09098 24.2275L7.03809 24.0634L32.8904 15.6652L32.9432 15.8264L7.09098 24.2275Z" fill="#6F7271"/>
<path d="M7.33145 24.8967L7.27344 24.7383L32.6483 14.9954L32.7091 15.155L7.33145 24.8967Z" fill="#6F7271"/>
<path d="M7.60801 25.5544L7.53809 25.3995L32.3727 14.3411L32.4428 14.4943L7.60801 25.5544Z" fill="#6F7271"/>
<path d="M7.91729 26.1939L7.84033 26.0422L32.0616 13.6978L32.1373 13.8521L7.91729 26.1939Z" fill="#6F7271"/>
<path d="M8.26462 26.8182L8.17969 26.6667L31.7174 13.0773L31.8023 13.2231L8.26462 26.8182Z" fill="#6F7271"/>
<path d="M8.63757 27.422L8.54346 27.2797L31.3397 12.4742L31.4349 12.6148L8.63757 27.422Z" fill="#6F7271"/>
<path d="M9.04508 28.0051L8.94287 27.8674L30.9368 11.89L31.0354 12.0253L9.04508 28.0051Z" fill="#6F7271"/>
<path d="M9.48 28.5676L9.37207 28.4367L30.4992 11.3269L30.6048 11.4601L9.48 28.5676Z" fill="#6F7271"/>
<path d="M9.94656 29.107L9.83398 28.9808L30.032 10.7886L30.1445 10.9143L9.94656 29.107Z" fill="#6F7271"/>
<path d="M10.4394 29.619L10.3188 29.4974L29.5418 10.2749L29.6601 10.3971L10.4394 29.619Z" fill="#6F7271"/>
<path d="M10.9586 30.1056L10.8335 29.9886L29.0222 9.78766L29.1485 9.9013L10.9586 30.1056Z" fill="#6F7271"/>
<path d="M11.5016 30.5625L11.3696 30.4568L28.4759 9.32916L28.6091 9.43816L11.5016 30.5625Z" fill="#6F7271"/>
<path d="M12.0706 30.9941L11.9307 30.8953L27.9086 8.89923L28.0486 9.00025L12.0706 30.9941Z" fill="#6F7271"/>
<path d="M12.6571 31.3947L12.5142 31.2994L27.3207 8.50146L27.4643 8.59617L12.6571 31.3947Z" fill="#6F7271"/>
<path d="M13.265 31.7631L13.1157 31.6759L26.7102 8.13361L26.8594 8.21807L13.265 31.7631Z" fill="#6F7271"/>
<path d="M13.8942 32.096L13.7427 32.0179L26.0861 7.79907L26.2341 7.87472L13.8942 32.096Z" fill="#6F7271"/>
<path d="M14.5378 32.399L14.3823 32.33L25.4407 7.49255L25.5968 7.56486L14.5378 32.399Z" fill="#6F7271"/>
<path d="M15.1958 32.6689L15.0386 32.6056L24.782 7.22681L24.9393 7.28935L15.1958 32.6689Z" fill="#6F7271"/>
<path d="M15.8711 32.8994L15.7075 32.8467L24.108 6.99316L24.2698 7.04653L15.8711 32.8994Z" fill="#6F7271"/>
<path d="M16.5525 33.0993L16.3906 33.0545L23.4253 6.79761L23.5881 6.84121L16.5525 33.0993Z" fill="#6F7271"/>
<path d="M17.2475 33.26L17.0811 33.2266L22.7319 6.63452L22.8983 6.66895L17.2475 33.26Z" fill="#6F7271"/>
<path d="M17.9495 33.3838L17.7773 33.3586L22.0318 6.5094L22.2017 6.53465L17.9495 33.3838Z" fill="#6F7271"/>
<path d="M18.6537 33.4757L18.4849 33.4573L21.3241 6.42102L21.4945 6.43937L18.6537 33.4757Z" fill="#6F7271"/>
<path d="M19.3658 33.5262L19.1919 33.5159L20.6146 6.36884L20.7868 6.3786L19.3658 33.5262Z" fill="#6F7271"/>
<path d="M19.9926 9.97632e-07C8.96581 0.0022644 -0.00512024 8.97379 2.1926e-06 20.0029C2.1926e-06 31.033 8.97724 40.0042 20 40C31.0311 39.9989 39.9965 31.025 39.9965 19.9925C39.9955 8.96581 31.0228 -0.00345367 19.9926 9.97632e-07ZM19.9926 39.2723C16.181 39.2721 12.455 38.1418 9.28582 36.0241C6.11662 33.9064 3.64654 30.8965 2.18792 27.3751C0.729304 23.8536 0.347657 19.9787 1.09124 16.2403C1.83483 12.5019 3.67025 9.06798 6.36541 6.37271C9.06058 3.67744 12.4944 1.8419 16.2328 1.09817C19.9711 0.354447 23.8461 0.73595 27.3676 2.19444C30.8891 3.65293 33.8991 6.12289 36.0169 9.29202C38.1347 12.4611 39.2652 16.1871 39.2655 19.9987C39.2656 22.5297 38.7672 25.036 37.7987 27.3743C36.8302 29.7127 35.4106 31.8375 33.6209 33.6272C31.8312 35.4169 29.7066 36.8366 27.3682 37.8052C25.0299 38.7738 22.5236 39.2723 19.9926 39.2723Z" fill="#6F7271"/>
<path d="M18.4951 6.99091L17.9464 7.23535C17.8049 7.29451 17.657 7.33669 17.5056 7.36103L17.3587 7.38283L17.1625 7.91771C17.1625 7.91771 17.3243 7.9189 17.419 7.92009C17.3381 8.14393 17.0913 8.80961 17.0913 8.80961C17.0872 8.8108 17.0609 8.88764 17.0448 8.91813L16.8169 8.95387L16.7521 9.08705L16.5811 9.49744H17.8145L18.0256 8.97746C18.0256 8.97746 17.8604 8.95363 17.7732 8.94077C17.8512 8.72705 18.4951 6.99091 18.4951 6.99091ZM19.946 7.41107C19.8918 7.34523 19.823 7.29286 19.7451 7.2581C19.6673 7.22333 19.5824 7.2071 19.4971 7.21069H19.4943C19.0696 7.21069 18.6466 7.5969 18.5513 8.07269C18.5437 8.12397 18.5397 8.17572 18.5394 8.22756C18.5372 8.37376 18.587 8.51598 18.6801 8.62877C18.726 8.68524 18.7838 8.73088 18.8493 8.76243C18.7239 8.86271 18.576 8.93106 18.4183 8.96161L18.2318 9.00116L18.1841 9.54355L18.4573 9.54295C18.6069 9.52841 18.7542 9.49544 18.8958 9.44479C19.192 9.33455 19.4552 9.15075 19.6608 8.91069C19.8663 8.67062 20.0073 8.3822 20.0706 8.07257C20.0986 7.91926 20.1279 7.62454 19.946 7.41107ZM19.3861 7.86089C19.3853 7.89364 19.3809 7.9262 19.3729 7.95797C19.3729 7.95797 19.3372 8.06983 19.3087 8.15072C19.2956 8.15751 19.282 8.16309 19.2679 8.1674V8.16514C19.2674 8.14276 19.2695 8.1204 19.2743 8.09854C19.2872 8.00996 19.3263 7.92724 19.3864 7.86089H19.3861Z" fill="white"/>
<path d="M21.2254 7.95797C21.2745 7.92056 21.3272 7.88804 21.3826 7.86088L21.8321 7.72544L21.8704 7.54186L21.8963 7.13898L21.5806 7.20033L21.5193 7.21069L21.1836 7.29217C20.8697 7.3858 20.5879 7.56456 20.3695 7.80861C20.1511 8.05267 20.0046 8.35247 19.9462 8.67476C19.9358 8.72443 19.93 8.77495 19.9289 8.82569C19.9225 8.83575 19.9155 8.84534 19.9077 8.8544C19.9077 8.8544 19.9267 8.84927 19.9267 8.84689C19.9267 8.8544 19.9186 8.86476 19.9186 8.86762C19.9121 9.0327 19.9664 9.19441 20.0713 9.32209C20.1277 9.38912 20.1985 9.44267 20.2783 9.47883C20.3581 9.51498 20.445 9.53282 20.5327 9.53103C20.9775 9.53103 21.4074 9.14078 21.4976 8.64497C21.506 8.59041 21.5112 8.5354 21.5131 8.48022C21.5172 8.33208 21.4699 8.18707 21.3793 8.06983C21.3348 8.02401 21.2827 7.98617 21.2254 7.95797ZM20.7887 8.52668C20.7885 8.55214 20.7858 8.57752 20.7807 8.60244C20.7693 8.71656 20.7171 8.82272 20.6337 8.90145C20.6344 8.85926 20.64 8.81729 20.6503 8.77637C20.662 8.69892 20.6852 8.62366 20.7192 8.55313C20.7412 8.54028 20.7645 8.5297 20.7887 8.52156V8.52668ZM23.1681 7.39784C23.117 7.337 23.0527 7.28855 22.9802 7.25613C22.9076 7.22371 22.8287 7.20818 22.7492 7.21069H22.7446C22.0731 7.21069 21.6655 8.14965 21.5806 8.60244C21.5284 8.82569 21.5048 9.13446 21.6789 9.34567C21.7296 9.40588 21.7932 9.45383 21.8651 9.48593C21.9369 9.51804 22.0151 9.53345 22.0938 9.53103C22.7676 9.53103 23.1773 8.58124 23.2714 8.12094C23.3173 7.90568 23.338 7.60607 23.1681 7.39784ZM22.5621 8.01932C22.4984 8.25868 22.4067 8.48968 22.2888 8.70751C22.3534 8.46846 22.4451 8.23756 22.5621 8.01932Z" fill="white"/>
<path d="M16.958 9.24405L16.9851 9.18211C17.2175 9.15519 17.2381 9.14077 17.326 8.89918L17.7093 7.86088C17.7735 7.6941 17.7639 7.68136 17.625 7.67731L17.5187 7.67385L17.5417 7.60607C17.7167 7.58586 17.8872 7.5376 18.0468 7.46312L17.5175 8.89966C17.4275 9.14125 17.4454 9.15566 17.6703 9.18258L17.645 9.24453L16.958 9.24405ZM19.4408 7.55222C19.7014 7.55222 19.6451 7.88506 19.6222 8.0049C19.5978 8.12082 19.5605 8.23363 19.5109 8.3412C19.4328 8.39165 19.343 8.42092 19.2502 8.42613C19.0488 8.42613 18.9863 8.26436 19.0264 8.05196C19.073 7.79941 19.2394 7.5527 19.4408 7.5527V7.55222ZM19.4942 7.46264C19.1987 7.46264 18.8709 7.76343 18.8066 8.12093C18.7498 8.38492 18.8893 8.57552 19.1011 8.57552C19.1544 8.57226 19.2066 8.5582 19.2543 8.53418L19.4695 8.43257C19.3677 8.62674 19.2253 8.79677 19.052 8.93114C18.8787 9.06551 18.6786 9.16109 18.4652 9.21141L18.4577 9.28885C18.5789 9.27802 18.698 9.25081 18.8119 9.20796C19.0673 9.11385 19.2943 8.95588 19.4713 8.74911C19.6484 8.54235 19.7695 8.29368 19.8231 8.02682C19.8718 7.76963 19.8207 7.46264 19.4971 7.46264H19.4942ZM20.7935 8.26901C21.0437 8.26901 21.0587 8.48343 21.0295 8.6489C20.9674 8.96744 20.7935 9.19069 20.6007 9.19069C20.3831 9.19069 20.3595 8.95363 20.4021 8.72812C20.4229 8.59998 20.4631 8.47575 20.5212 8.35966C20.6037 8.3085 20.6971 8.27745 20.7938 8.26901H20.7935ZM21.6257 7.45001C21.502 7.46766 21.3799 7.49555 21.2607 7.5334C20.9904 7.61497 20.7475 7.76902 20.5585 7.97884C20.3695 8.18865 20.2416 8.44622 20.1886 8.72359C20.1278 9.04619 20.2601 9.28039 20.5324 9.28039C20.8421 9.28039 21.1757 8.99222 21.2499 8.59565C21.2986 8.33965 21.1884 8.12272 20.9348 8.12272C20.876 8.12962 20.8186 8.14591 20.7649 8.17096L20.5772 8.26102L20.5731 8.25816C20.7346 7.97243 20.9881 7.74986 21.2923 7.62679C21.3972 7.5821 21.507 7.54976 21.6194 7.53042L21.6257 7.45001ZM22.7179 7.55222C22.9038 7.55222 22.8741 7.80239 22.837 7.97512C22.7829 8.24208 22.4696 9.19021 22.1264 9.19021C21.9531 9.19021 21.9737 8.94517 22.0128 8.75576C22.0723 8.4745 22.3755 7.55175 22.7175 7.55175L22.7179 7.55222ZM22.7443 7.46264C22.2588 7.46264 21.9053 8.2403 21.8203 8.6539C21.7555 8.95398 21.7845 9.28122 22.0935 9.28122C22.5756 9.28122 22.9383 8.49773 23.022 8.07018C23.0829 7.78726 23.0588 7.46264 22.749 7.46264H22.7443Z" fill="#6F7271"/>
<path d="M27.123 21.9881C25.1625 16.9252 26.9934 12.7388 26.9934 12.7388L24.7347 10.2661H15.272L13.0114 12.7379C13.0114 12.7379 14.8405 16.924 12.8788 21.9872C12.5424 22.8556 11.8337 25.3246 13.1439 27.4551C14.639 29.8887 18.2381 31.4485 20.0046 32.3691V32.3461L20.008 32.3691C21.7676 31.4485 25.3649 29.8887 26.8641 27.4551C28.175 25.3248 27.4587 22.8558 27.123 21.9881Z" fill="white"/>
<path d="M3.13414 18.4757C2.79153 18.5692 2.09071 18.8637 2.06784 19.4249C2.06033 19.7703 2.31002 19.992 2.67383 20.0074C3.05432 20.02 3.30401 19.7968 3.53762 19.3692C3.83543 18.8246 4.20913 18.4343 4.77951 18.4584C5.44662 18.4842 5.95505 18.9675 5.92169 19.7688C5.90294 20.0347 5.83846 20.2955 5.73109 20.5395C5.50475 20.5538 5.22885 20.5803 4.81453 20.6176L4.77546 20.3912C5.14856 20.2914 5.62257 20.1337 5.63924 19.6785C5.65354 19.333 5.39706 19.1379 5.07447 19.1263C4.76474 19.1155 4.53327 19.3084 4.29335 19.7726C4.00185 20.3444 3.61505 20.7231 2.99917 20.6977C2.27488 20.669 1.75489 20.117 1.78813 19.2933C1.79378 19.0968 1.83461 18.9028 1.90869 18.7206C1.9502 18.6055 2.00149 18.4941 2.062 18.3877C2.22377 18.347 2.64905 18.2953 3.06397 18.2523L3.13414 18.4757ZM5.22433 22.9705C5.33059 23.5193 4.79678 23.9347 3.83543 24.1184C2.92293 24.293 2.43856 24.0771 2.35648 23.6363C2.24402 23.0533 2.86729 22.6205 3.72524 22.4564C4.54888 22.2979 5.13999 22.4988 5.22433 22.9615V22.9705ZM5.47056 22.9959C5.27496 21.9564 4.26822 21.6299 3.4659 21.7831C2.54303 21.9571 1.93346 22.6813 2.10679 23.5915C2.27047 24.4513 3.08017 24.9816 4.12467 24.7819C5.08662 24.6005 5.62959 23.8269 5.4708 23.0004L5.47056 22.9959ZM4.55746 28.6295C4.41459 28.6889 4.27759 28.7615 4.14826 28.8464C3.90495 28.5953 3.70083 28.3089 3.54274 27.9969C3.11234 27.0478 3.42683 26.1697 4.35602 25.7455C5.40433 25.269 6.28848 25.7832 6.67695 26.6362C6.79536 26.9078 6.87793 27.1938 6.92259 27.4867C6.77452 27.5693 6.54556 27.7002 6.16852 27.908L6.06917 27.7473C6.56736 27.3616 6.57713 26.9816 6.425 26.6568C6.19652 26.1506 5.54752 25.9807 4.73198 26.3457C4.01448 26.6763 3.4659 27.2686 3.78207 27.9504C3.80614 28.0257 3.85809 28.0889 3.92728 28.1272C3.97394 28.1452 4.02425 28.1519 4.074 28.1465C4.12375 28.1411 4.17148 28.1238 4.21318 28.0962L4.62536 27.9102C4.92663 27.7725 4.94843 27.7346 4.7969 27.2892L4.97249 27.2089L5.53834 28.4589L5.3674 28.5404C5.22445 28.3567 5.20157 28.3338 4.91472 28.4669L4.55746 28.6295ZM6.35781 30.0217C6.70507 29.8967 7.04601 29.7681 7.40815 29.6418L7.41387 29.6538L6.77226 30.5604L6.35781 30.0217ZM6.60405 30.7874C6.50073 30.956 6.39397 31.1224 6.28384 31.2866C6.15816 31.4853 6.10515 31.499 5.89811 31.2947L5.74955 31.4118L6.53865 32.4323L6.68613 32.3164C6.567 32.1005 6.53865 32.0185 6.80204 31.6135C7.08901 31.1819 7.4483 30.6562 7.80532 30.1385L8.36259 29.3246L8.14816 29.1606L5.54251 30.0111C5.11032 30.1512 5.0323 30.111 4.84122 29.9181L4.69195 30.0317L5.32844 30.8605L5.47711 30.7434C5.29628 30.4611 5.34512 30.4289 5.58278 30.3256C5.77267 30.2464 5.9753 30.1672 6.09812 30.1282L6.60405 30.7874ZM9.11106 31.6874C9.3125 31.4336 9.39232 31.3383 9.40209 31.1926C9.41007 31.0444 9.34121 30.9458 9.21327 30.8126L9.32859 30.6657L9.98235 31.1937L9.9054 33.9876L9.91457 33.9956L10.4707 33.3103C10.6508 33.0924 10.8194 32.8653 10.9757 32.6298C11.0727 32.4667 11.0338 32.3255 10.8104 32.1109L10.9252 31.965L11.8306 32.6997L11.708 32.8467C11.5312 32.7203 11.3952 32.7089 11.2546 32.8443C11.0494 33.0441 10.856 33.2556 10.6754 33.478L9.43127 35.0092L9.19481 34.8163L9.35206 31.8159L9.34169 31.8113L8.67828 32.6354C8.49661 32.8496 8.33014 33.0763 8.18009 33.3138C8.07216 33.4806 8.11183 33.6158 8.33853 33.8234L8.21678 33.9716L7.31059 33.2323L7.42971 33.0854C7.62032 33.2185 7.75517 33.2347 7.89693 33.0973C8.10145 32.9013 8.29278 32.6919 8.46969 32.4706L9.11106 31.6874ZM13.4096 36.4967C13.3372 36.6316 13.2778 36.7731 13.2322 36.9193C12.8858 36.876 12.547 36.7848 12.2256 36.6483C11.2862 36.1903 10.9756 35.3053 11.4302 34.3916C11.937 33.3563 12.9431 33.1967 13.7913 33.6089C14.0528 33.7433 14.296 33.9107 14.515 34.1069C14.453 34.2699 14.3537 34.5155 14.2039 34.9127L14.0186 34.8554C14.1638 34.2401 13.9267 33.9394 13.6047 33.7786C13.1072 33.5376 12.4953 33.8154 12.1005 34.6188C11.7551 35.3249 11.7074 36.1307 12.3794 36.4623C12.4124 36.4842 12.4494 36.4993 12.4882 36.5067C12.5271 36.5142 12.567 36.5139 12.6058 36.5059C12.6728 36.4922 12.74 36.437 12.8071 36.3016L13.0068 35.893C13.1527 35.5934 13.1486 35.5522 12.7469 35.3053L12.8313 35.1354L14.0623 35.7392L13.9774 35.9113C13.7519 35.8563 13.722 35.8563 13.5825 36.1386L13.4096 36.4967ZM16.7516 34.9816C16.8182 34.4238 16.7754 34.374 16.3687 34.2837L16.398 34.0554L18.079 34.2579L18.047 34.4909C17.6372 34.4806 17.5734 34.5196 17.5051 35.074L17.3473 36.3768C17.2382 37.2917 17.4517 37.8277 18.047 37.9016C18.6857 37.9784 19.0357 37.4756 19.1581 36.4735L19.2332 35.8789C19.271 35.574 19.2869 35.2667 19.2809 34.9595C19.2786 34.746 19.1576 34.6485 18.7925 34.5774L18.8188 34.3477L20.2244 34.5202L20.1962 34.7497C19.9139 34.7314 19.7744 34.8049 19.7141 35.0172C19.6444 35.3145 19.5902 35.6153 19.5518 35.9183L19.4754 36.5377C19.4019 37.1461 19.2453 37.6763 18.8963 37.9955C18.7473 38.125 18.5719 38.2207 18.3822 38.2758C18.1925 38.3309 17.9932 38.3441 17.7979 38.3146C17.4219 38.2669 17.0758 38.1458 16.8262 37.8635C16.5713 37.5708 16.4926 37.1174 16.58 36.4069L16.7516 34.9816ZM21.1278 35.9665C21.0829 35.6462 21.064 35.528 20.9619 35.4213C20.8547 35.314 20.742 35.2962 20.5539 35.3007L20.5211 35.1147L21.3527 34.9931L23.361 36.9376H23.3729L23.2443 36.0674C23.2075 35.7852 23.1538 35.5054 23.0835 35.2296C23.033 35.0509 22.9022 34.9794 22.5922 35.0068L22.5624 34.8162L23.7149 34.6486L23.7424 34.8392C23.5232 34.8852 23.4256 34.977 23.4314 35.1728C23.4397 35.4596 23.4662 35.7456 23.5105 36.029L23.7917 37.977L23.49 38.0217L21.3905 35.8798H21.3795L21.5328 36.9313C21.5726 37.209 21.6266 37.4845 21.6946 37.7566C21.7514 37.9436 21.8783 38.008 22.1767 37.9829L22.2054 38.1701L21.0524 38.341L21.022 38.1516C21.2465 38.1046 21.3487 38.015 21.3457 37.8211C21.342 37.5355 21.3181 37.2505 21.2742 36.9682L21.1278 35.9665ZM24.6855 34.9885C24.5523 34.5954 24.4984 34.5715 24.169 34.6487L24.1081 34.4719L25.4235 34.0243L25.4844 34.2057C25.1733 34.3458 25.1446 34.3939 25.2801 34.7888L25.8952 36.5995C26.0284 36.9943 26.0813 37.0165 26.4075 36.937L26.4717 37.1183L25.1574 37.5665L25.0965 37.3841C25.4053 37.2428 25.4363 37.197 25.3008 36.801L24.6855 34.9885ZM28.6777 36.1374C27.9729 35.4936 26.988 34.612 26.5965 34.2642C26.2844 33.9876 26.2034 33.9876 25.9618 34.0839L25.8655 33.9165L27.0455 33.2565L27.1419 33.4252C26.8641 33.6203 26.8798 33.657 27.034 33.8085C27.2246 33.9956 27.9856 34.6843 28.5261 35.1595L28.5388 35.1526C28.4251 34.4736 28.2873 33.7764 28.1852 33.3242C28.1129 32.9947 28.0648 32.9419 27.7325 33.0946L27.6372 32.9247L28.5992 32.3921L28.6932 32.5551C28.466 32.7261 28.4167 32.7892 28.4843 33.2873C28.5383 33.6686 28.7403 34.9313 28.9286 35.9963L28.6777 36.1374ZM29.6395 32.3748C29.3663 32.0626 29.306 32.0626 29.037 32.2612L28.9119 32.1143L30.53 30.6933C30.592 30.7528 30.8516 31.0149 31.0833 31.2443L30.9523 31.3873C30.8323 31.285 30.6887 31.2144 30.5345 31.1818C30.4197 31.168 30.2889 31.2323 30.1017 31.3976L29.9629 31.5147C29.8458 31.6226 29.8367 31.6458 29.9469 31.7694L30.608 32.5199L30.8353 32.3174C31.1331 32.058 31.1279 32.0258 30.9187 31.7056L31.0576 31.5782L31.7888 32.4069L31.644 32.5321C31.3446 32.2749 31.3147 32.2646 31.0162 32.5264L30.7844 32.7289L31.3697 33.3899C31.5271 33.5736 31.6166 33.6448 31.7165 33.6151C31.835 33.5643 31.9426 33.491 32.0332 33.3992C32.1825 33.2638 32.311 33.1007 32.3007 32.9412C32.2846 32.7576 32.2369 32.5781 32.1595 32.4108L32.3283 32.3214C32.4474 32.4992 32.7139 32.9408 32.7748 33.0709L31.0162 34.616L30.8934 34.4736C31.1724 34.1797 31.1793 34.1268 30.9071 33.8147L29.6395 32.3748ZM31.9651 29.7245C31.8848 29.665 31.8503 29.6281 31.8433 29.5822C31.8447 29.5167 31.8695 29.454 31.9134 29.4054C32.0563 29.2182 32.391 29.0837 32.7916 29.3893C32.8835 29.4495 32.9615 29.5287 33.0203 29.6216C33.0791 29.7145 33.1173 29.8189 33.1324 29.9278C33.1368 30.0816 33.0813 30.2311 32.9775 30.3447L32.9061 30.4377L31.9651 29.7245ZM33.2993 31.4968C33.6276 31.7469 33.6345 31.8055 33.4451 32.1051L33.6013 32.2188L34.438 31.1157L34.2865 30.9998C34.0524 31.2534 33.9949 31.2649 33.662 31.0124L33.0801 30.5716L33.1397 30.4936C33.2291 30.3788 33.3107 30.3616 33.4692 30.3959C33.7493 30.4672 34.0338 30.5201 34.3208 30.5545C34.6812 30.5808 34.8832 30.5417 35.2563 30.094C35.2954 30.0482 35.3241 30.0115 35.3608 29.9749L35.2322 29.8487C35.135 29.9087 35.0228 29.9402 34.9085 29.9394C34.6854 29.9443 34.4623 29.9312 34.2414 29.9003C33.9751 29.8785 33.6089 29.8005 33.4574 29.7718C33.5109 29.5959 33.5068 29.4074 33.4457 29.234C33.3846 29.0605 33.2696 28.9111 33.1176 28.8076C33.0219 28.7267 32.9076 28.6708 32.7849 28.6449C32.6622 28.6191 32.535 28.6241 32.4148 28.6595C32.2082 28.7261 32.0154 28.896 31.7777 29.2105L31.0098 30.2231L31.1613 30.34C31.3921 30.0968 31.4426 30.083 31.7675 30.331L33.2993 31.4968ZM34.9885 28.4619C35.2778 28.5078 35.9021 28.5181 36.1083 28.1037C36.2323 27.8501 36.1175 27.5953 35.8455 27.4655C35.5608 27.3232 35.3002 27.4105 34.9834 27.6504C34.576 27.9706 34.1673 28.1336 33.7415 27.9293C33.2502 27.6859 33.0298 27.151 33.3167 26.561C33.4186 26.3659 33.5556 26.1912 33.7208 26.0457C33.8953 26.1112 34.1139 26.1799 34.4371 26.2925L34.3923 26.4739C34.0767 26.4233 33.668 26.3866 33.5016 26.7241C33.3788 26.9766 33.5096 27.2085 33.7438 27.3232C33.9745 27.438 34.2121 27.3668 34.5507 27.0983C34.9571 26.7647 35.3702 26.607 35.8282 26.8331C36.3678 27.0983 36.5755 27.6859 36.2737 28.2898C36.2046 28.4383 36.1089 28.5729 35.9912 28.6868C35.9212 28.7589 35.8455 28.8253 35.7649 28.8854C35.6283 28.8624 35.2943 28.758 34.9667 28.657L34.9885 28.4619ZM34.6875 25.2134C34.2881 25.0861 34.241 25.1171 34.1044 25.4269L33.9231 25.3696L34.35 24.0473L34.528 24.1069C34.4557 24.4352 34.4775 24.4925 34.8746 24.6153L36.6973 25.199C37.0944 25.3241 37.1403 25.2954 37.2792 24.9809L37.4579 25.0429L37.0355 26.3641L36.8552 26.3067C36.9253 25.9761 36.9056 25.9221 36.5075 25.7982L34.6875 25.2134ZM34.8921 22.6102L34.8749 22.7261C34.8256 23.0704 34.8783 23.1921 34.9463 23.2668C35.0832 23.3782 35.2391 23.4637 35.4065 23.5193L35.3802 23.7029C34.9841 23.6295 34.6444 23.5514 34.393 23.5078L34.4068 23.4006C34.4538 23.3863 34.4947 23.3568 34.523 23.3167C34.5513 23.2765 34.5653 23.2281 34.5629 23.179L34.8211 21.3483C34.8333 21.3013 34.8315 21.2518 34.816 21.2059C34.8005 21.1599 34.772 21.1195 34.7339 21.0894L34.7443 20.9849C34.9578 21.0131 35.3757 21.0457 35.7337 21.0715L35.721 21.2575C35.4398 21.2742 35.2745 21.3086 35.1861 21.3683C35.0908 21.432 35.0382 21.576 35.0048 21.821L34.9784 21.9954L37.2981 22.3219C37.7137 22.3815 37.7573 22.3398 37.8491 21.9397L38.0351 21.9667L37.8285 23.4641L37.6403 23.4342C37.654 23.0508 37.6322 22.9958 37.2178 22.9383L34.8921 22.6102ZM36.8618 19.3159C36.7614 19.3192 36.6638 19.3497 36.5794 19.4042C36.3016 19.5483 35.9894 19.7395 35.4523 20.0648C35.1378 20.2571 35.1148 20.3139 35.0906 20.5532L34.9012 20.5676L34.8128 19.2769L35.0023 19.2625C35.0677 19.5655 35.1148 19.5546 35.2674 19.4749C35.6038 19.2906 35.9756 19.0725 36.2947 18.8785C36.0285 18.7661 35.5292 18.5743 35.2135 18.4842C35.0299 18.4315 34.9839 18.4423 34.9679 18.7856L34.7761 18.8005L34.697 17.7078L34.8921 17.6959C34.9427 17.9777 35.0113 18.0482 35.3305 18.1962C35.6619 18.3605 36.0022 18.5063 36.3498 18.6329C36.476 18.6962 36.6187 18.7195 36.7585 18.6995L37.3358 18.6553C37.7823 18.6249 37.8099 18.5875 37.8191 18.1795L38.0085 18.1646L38.1157 19.6537L37.9216 19.6669C37.8621 19.2835 37.8287 19.2474 37.3833 19.2812L36.8618 19.3159ZM19.5925 4.65701C19.42 4.72729 19.42 4.7535 19.2692 4.75469C19.2031 4.76409 19.1358 4.7593 19.0717 4.74063C18.9934 4.71931 18.9697 4.71681 18.8855 4.69465C18.7677 4.66272 18.4769 4.62043 18.4686 4.2023C18.4543 3.75308 18.4259 3.31648 18.5002 3.23273C18.5727 3.14684 18.5418 3.06917 18.55 3.00401C18.5547 2.93754 18.6402 2.913 18.6866 2.91907C18.7705 2.9417 18.8569 2.95371 18.9439 2.95481C19.01 2.93725 19.077 2.92353 19.1447 2.91371C19.1938 2.92308 19.2443 2.92096 19.2924 2.9075C19.3405 2.89405 19.3848 2.86963 19.4219 2.83616C19.4219 2.83616 19.6483 2.65914 19.6559 2.5306C19.6639 2.39742 19.6272 2.23183 19.339 2.23278C19.1195 2.23578 18.9 2.22383 18.682 2.19705C18.5782 2.1832 18.4741 2.17101 18.3699 2.16048C18.3069 2.14003 18.2396 2.13721 18.1751 2.15233C18.1106 2.16745 18.0515 2.19993 18.0042 2.24625C17.8832 2.36716 17.9089 2.44447 17.9492 2.51237C18.0129 2.6209 18.2451 2.70727 18.2284 2.75992C18.2135 2.81627 18.1014 2.89036 18.0782 2.93361C18.0476 2.97506 17.9917 3.04141 18.02 3.1136C18.0314 3.1534 18.0312 3.19563 18.0194 3.23529C18.0075 3.27496 17.9846 3.31041 17.9532 3.33744C17.8955 3.42452 17.8702 3.52907 17.8817 3.63288L17.8996 4.60447C17.8996 4.60447 17.787 5.3097 18.9315 5.31923C19.1901 5.31971 19.4482 5.29614 19.7025 5.24883C19.7843 5.22298 19.8077 5.15019 19.8654 5.08872C19.9022 5.01184 19.9114 4.92462 19.8914 4.84177C19.8858 4.809 19.8733 4.7778 19.8547 4.75024C19.8362 4.72268 19.8119 4.69938 19.7837 4.6819C19.7554 4.66443 19.7237 4.65317 19.6908 4.64887C19.6578 4.64458 19.6243 4.64735 19.5925 4.65701ZM22.1635 3.52864C22.146 3.12618 22.1042 2.72514 22.0383 2.32773C22.0334 2.3039 22.0553 1.98048 21.9157 1.96475C21.8417 1.95121 21.7654 1.95691 21.6941 1.98131C21.6703 1.97908 21.6462 1.98236 21.6238 1.99091C21.6014 1.99946 21.5813 2.01304 21.5649 2.03061C21.5486 2.04818 21.5366 2.06927 21.5297 2.09224C21.5228 2.11521 21.5213 2.13946 21.5253 2.1631C21.5367 2.36001 21.4718 2.55216 21.4733 2.70071C21.4753 2.77946 21.5013 3.64753 21.5263 3.96726C21.396 3.97394 21.2256 3.97644 21.1167 3.97858C21.1041 3.31243 21.061 2.35001 20.8655 2.21647C20.7171 2.11568 20.6708 2.0585 20.5477 2.08793C20.5215 2.08949 20.4961 2.09768 20.4739 2.11175C20.4517 2.12582 20.4335 2.14529 20.4209 2.16834C20.403 2.21043 20.3936 2.25565 20.3933 2.30139C20.393 2.34713 20.4017 2.39248 20.419 2.43482C20.4602 2.59267 20.439 3.97036 20.4556 4.2652C20.4721 4.56004 20.4624 5.22583 20.5329 5.26753C20.5697 5.29418 20.6149 5.30666 20.6602 5.3027C20.7054 5.29874 20.7477 5.2786 20.7794 5.24597C20.8799 5.16151 21.0587 5.22667 21.1437 5.14638C21.18 5.11219 21.1444 4.75469 21.1308 4.59589C21.1273 4.57071 21.1256 4.54531 21.1257 4.51989C21.1506 4.50798 21.189 4.49368 21.2347 4.47367C21.3369 4.43767 21.4471 4.43046 21.5532 4.45282C21.5726 4.73622 21.5873 5.04178 21.5919 5.05679C21.5925 5.09172 21.6 5.12618 21.614 5.1582C21.6279 5.19021 21.6481 5.21913 21.6733 5.24329C21.6986 5.26745 21.7283 5.28637 21.7609 5.29896C21.7935 5.31154 21.8283 5.31754 21.8632 5.31661C22.1706 5.32018 22.2151 5.23405 22.2719 4.95435C22.3287 4.67464 22.178 3.95118 22.1635 3.52864ZM12.4846 5.44872C12.7553 5.27861 12.8098 4.92599 12.7943 4.65581C12.7815 4.38766 12.642 3.75665 12.3667 3.66897C12.1607 3.60155 12.0835 3.64991 12.0562 3.66409C11.9945 3.69709 11.9096 3.78381 11.8559 3.80442C11.713 3.84912 11.5747 3.9074 11.443 3.97846C11.2298 4.08279 11.0083 4.16921 10.7807 4.23685C10.6914 4.24978 10.6009 4.25377 10.5108 4.24876C10.4288 4.2565 10.3764 4.39493 10.3764 4.39493C10.3764 4.39493 10.2653 4.7205 10.3401 4.8737C10.4116 5.02689 10.5266 5.10159 10.8302 4.97793C11.0008 4.91529 11.1489 4.80333 11.2557 4.65629C11.3546 4.55754 11.6647 4.17895 11.8632 4.20969C12.0647 4.23768 12.1439 4.91372 12.0519 5.69412C12.0451 5.69519 12.0674 5.66374 12.2847 5.52734C12.3798 5.46528 12.4213 5.4891 12.4846 5.44872ZM15.1236 3.17186C15.0849 3.13935 15.0526 3.09997 15.0283 3.05571C15.0053 3.02287 14.9774 2.99378 14.9455 2.96946C14.8578 2.8962 14.6656 3.01378 14.5948 3.03308C14.4945 3.065 14.3985 3.10901 14.3089 3.16412C14.2224 3.23405 14.1245 3.28849 14.0194 3.32505C13.909 3.36079 13.805 3.41714 13.7087 3.45097C13.6632 3.46563 13.6189 3.48371 13.5762 3.50505C13.5166 3.40975 13.4555 3.3191 13.4213 3.27562C13.3747 3.22654 13.1396 2.74789 12.8628 2.87881C12.7822 2.91657 12.7816 3.0189 12.7609 3.0575C12.7412 3.24935 12.7693 3.44309 12.8427 3.62144C12.9882 3.95155 13.1527 4.27301 13.3352 4.58422C13.36 4.62714 13.3952 4.66316 13.4376 4.68902C13.4799 4.71488 13.528 4.72976 13.5776 4.73229C13.6595 4.72455 13.7366 4.69084 13.7984 4.68107C13.8376 4.67292 13.8739 4.65417 13.9031 4.62686C13.9324 4.59956 13.9536 4.56474 13.9645 4.5262C14.0201 4.38599 13.9961 4.3736 13.9545 4.26103C13.9157 4.15906 13.7822 3.87113 13.7569 3.8211C13.8031 3.80124 13.8505 3.7844 13.8989 3.77071C14.0577 3.7165 14.2431 3.78357 14.3687 3.79453C14.5333 3.77987 14.6932 3.73162 14.8384 3.65277C14.9226 3.59071 14.9597 3.50517 15.0325 3.4437C15.2322 3.27836 15.1566 3.20093 15.1236 3.17186ZM13.9703 4.90538L13.6323 5.0014C13.6059 4.95722 13.5651 4.92354 13.5167 4.9061C13.4855 4.9076 13.4553 4.91724 13.429 4.93407C13.4027 4.95089 13.3813 4.97431 13.3668 5.002C13.3474 5.04107 13.091 5.1752 13.007 5.29076C12.92 5.35985 12.8448 5.44261 12.7843 5.5358C12.698 5.68078 12.4435 6.191 12.8677 6.85501C13.2182 7.39453 13.8922 7.26611 14.0471 7.22096C14.2972 7.1471 14.8906 6.86358 15.0954 6.47047C15.3169 6.03148 15.1585 5.66898 14.9815 5.36938C14.8053 5.05501 14.3332 4.822 13.9703 4.90538ZM14.581 6.09748C14.4816 6.43866 14.0717 6.61687 13.761 6.61092C13.4194 6.60686 13.2193 6.2975 13.2299 5.97157C13.2296 5.87957 13.2525 5.78899 13.2966 5.70824C13.3407 5.6275 13.4045 5.55921 13.482 5.50971C13.76 5.35652 13.7721 5.37439 13.7721 5.37439C14.1184 5.29398 14.1956 5.38463 14.2832 5.43168C14.3373 5.45682 14.6961 5.69686 14.581 6.09665V6.09748ZM26.8262 3.21498C26.8512 3.24268 26.8817 3.26487 26.9158 3.28014C26.9498 3.29542 26.9867 3.30345 27.024 3.30371C27.0613 3.30398 27.0983 3.29649 27.1325 3.2817C27.1668 3.26692 27.1976 3.24517 27.223 3.21784C27.379 3.0432 27.3064 2.86761 27.2762 2.76075C27.2336 2.68291 27.1702 2.61846 27.0931 2.57465C27.0159 2.53083 26.9281 2.50939 26.8394 2.51273C26.8394 2.51273 26.61 2.55419 26.6451 2.76075C26.6729 2.9232 26.7346 3.07798 26.8262 3.21498ZM25.672 5.83302C25.7901 5.86295 25.9119 5.87559 26.0337 5.87055C26.1263 5.84934 26.222 5.84479 26.3162 5.85709C26.4147 5.85655 26.5116 5.83261 26.599 5.78725C26.6864 5.74189 26.7617 5.67641 26.8188 5.5962C26.9385 5.41664 27.0077 5.20821 27.0191 4.99274C27.0306 4.77726 26.9839 4.56268 26.8839 4.37146C26.8071 4.25059 26.7188 4.13749 26.6201 4.03374C26.501 3.92938 26.7946 4.03529 26.8479 4.05637C26.8947 4.0802 27.0603 4.1861 27.1815 4.0796C27.3067 3.96738 27.257 3.99157 27.3432 3.94856C27.4083 3.91211 27.4301 3.83718 27.3615 3.7121C27.3055 3.59469 27.2119 3.49944 27.0954 3.44156C26.9534 3.36639 26.5951 3.19902 26.4703 3.13386C26.3454 3.0687 25.9372 2.85736 25.9372 2.85736C25.9372 2.85736 25.6155 2.67427 25.5099 2.92503C25.404 3.17365 25.3669 3.32196 25.5609 3.49684C25.6717 3.59512 25.7928 3.68111 25.9222 3.75331C25.6472 3.78137 25.3879 3.89523 25.1812 4.07877C24.9129 4.29319 24.6783 4.76327 24.8802 5.17235C24.9615 5.32967 25.0734 5.46916 25.2094 5.58261C25.3454 5.69607 25.5027 5.7812 25.672 5.83302ZM25.5912 4.58899C25.6339 4.48904 25.7133 4.40932 25.8131 4.36636C25.9129 4.3234 26.0254 4.32049 26.1273 4.35824C26.5702 4.5131 26.6181 4.8737 26.5644 5.06299C26.4943 5.30243 26.3832 5.34961 26.3314 5.34567C26.2541 5.33273 26.176 5.32477 26.0976 5.32185C26.024 5.32661 26.0246 5.38141 25.9237 5.35413C25.8663 5.34331 25.812 5.31999 25.7647 5.28581C25.7173 5.25163 25.6781 5.20744 25.6497 5.15638C25.5734 5.02701 25.449 4.88001 25.5912 4.58899ZM29.1592 5.74213C29.0029 5.51817 28.8137 5.46683 28.4619 5.26562C28.29 5.17987 28.1462 5.04658 28.0477 4.88156C28.1436 4.67225 28.2256 4.48558 28.2564 4.40112C28.3447 4.16621 28.5588 3.79358 28.4974 3.45812C28.4465 3.15006 28.2557 3.28145 28.2509 3.28741C28.1985 3.35668 28.1382 3.41964 28.0713 3.47504C28.0146 3.50613 27.9011 3.59559 27.8991 3.65634C27.8991 3.65634 27.4332 4.69942 27.2099 5.26348C26.931 5.97538 26.8813 6.13084 27.0131 6.17849C27.0637 6.19879 27.1181 6.20752 27.1725 6.20404C27.2268 6.20055 27.2797 6.18494 27.3273 6.15835C27.4025 6.13508 27.4705 6.09285 27.5247 6.03574C27.579 5.97862 27.6176 5.90853 27.637 5.83219C27.6622 5.74213 27.763 5.51233 27.8775 5.25943C28.0118 5.33698 28.0252 5.3558 28.1024 5.54223C28.1863 5.78317 28.3612 5.98163 28.5898 6.09498C28.9265 6.26235 29.0695 6.17408 29.1182 6.11463C29.1694 6.06829 29.2018 6.00479 29.2094 5.93616C29.2169 5.86752 29.1991 5.79849 29.1592 5.74213ZM27.64 6.78234C27.64 6.78234 27.565 6.75637 27.4809 6.72444C27.382 6.69102 27.2902 6.6393 27.2104 6.57196C26.9556 6.41576 26.6882 6.28107 26.4109 6.16931C26.0977 6.03757 25.771 5.94062 25.4366 5.88019C25.1893 5.83052 25.1592 5.94798 25.1359 5.97776C25.1359 5.97776 24.9945 6.17098 25.3094 6.29487C25.5476 6.39017 25.6548 6.27331 25.9836 6.42818C26.3141 6.57792 26.8443 6.70383 27.0225 6.81736C27.2074 6.93446 27.2464 7.00498 27.1728 7.18522C27.0997 7.36987 26.9187 7.73845 26.9187 7.73845C26.9187 7.73845 26.856 7.9443 27.0124 8.00052C27.0708 8.02183 27.1329 8.03081 27.1949 8.0269C27.2569 8.02298 27.3174 8.00625 27.3727 7.97777C27.5156 7.91487 27.6553 7.56166 27.6954 7.47744C27.7369 7.39512 27.926 7.03977 27.64 6.78234ZM7.22446 8.87741C7.22446 8.87741 7.09211 8.96175 7.04934 8.84298C7.04934 8.84298 6.92938 8.43724 6.68756 8.27118C6.68756 8.27118 6.50613 8.09416 6.33208 8.12168C6.22308 8.1343 6.23237 8.19315 6.22487 8.20602C6.22832 8.2607 6.24488 8.25164 6.27526 8.34039C6.32291 8.48799 6.34114 8.53635 6.30766 9.15402C6.27609 9.70296 6.29325 9.63577 6.27347 9.81148C6.25572 9.93752 6.23321 10.4448 6.43918 10.6265C6.61715 10.785 6.81431 10.8008 6.95464 10.6047C7.08353 10.4206 7.04315 10.2393 7.06185 10.1014C7.0652 9.9874 7.08404 9.87435 7.11784 9.76538C7.15759 9.67 7.2269 9.5899 7.31557 9.53684C7.40424 9.48379 7.50759 9.4606 7.61043 9.47066C7.84451 9.49222 7.92826 9.60277 7.97805 9.93192C8.00427 9.98042 8.02382 10.0322 8.03619 10.0859C8.0212 10.3004 7.96629 10.5101 7.87429 10.7043C7.7641 10.8961 7.72229 10.8306 7.65987 10.9039C7.57857 11.069 7.5477 11.2543 7.57112 11.4368C7.61114 11.5654 7.66642 11.6193 7.90157 11.5937C8.06537 11.5754 8.16651 11.4762 8.30922 11.1845C8.42668 10.947 8.57892 10.3197 8.51698 9.95753C8.46846 9.57012 8.27297 9.21616 7.9709 8.96878C7.86885 8.8826 7.74388 8.82805 7.6113 8.81183C7.47872 8.7956 7.34428 8.81839 7.22446 8.87741ZM9.94399 8.27177C9.60496 7.97741 8.75273 7.13102 8.75273 7.13102C8.32554 6.72682 7.90133 6.6569 7.77101 6.66643C7.72515 6.68389 7.68544 6.71446 7.65683 6.75433C7.62821 6.79419 7.61195 6.84159 7.61007 6.89062C7.59077 7.0767 7.76208 7.22334 7.84225 7.30006C7.92242 7.37678 7.94624 7.37309 8.00247 7.47113C8.06204 7.56643 8.07705 7.57894 8.36783 7.85233C8.4274 7.9132 8.41953 8.03936 8.30696 8.14669C8.1982 8.25629 7.94636 8.55589 7.94636 8.55589C7.94636 8.55589 7.96447 8.51944 7.90312 8.62034C7.84189 8.71778 7.97841 8.74316 8.04714 8.77413C8.08769 8.79508 8.13224 8.80715 8.17782 8.80955C8.22339 8.81196 8.26896 8.80463 8.31149 8.78807C8.42507 8.75964 8.53269 8.71124 8.62932 8.64512C8.73022 8.55589 8.87352 8.39662 8.87352 8.39662C8.95227 8.35862 8.97002 8.33491 9.03137 8.37339C9.08986 8.41234 9.92386 9.20644 10.0746 9.27327C10.1193 9.29679 10.1704 9.30557 10.2205 9.29836C10.2706 9.29115 10.3171 9.26832 10.3534 9.23312C10.413 9.19226 10.5064 9.22991 10.5095 8.97426C10.5125 8.64786 10.2785 8.56923 9.94399 8.27177ZM32.5046 7.83053C32.6037 7.92821 32.5761 7.95061 32.6285 8.01148C32.7417 8.1187 32.8619 8.21819 32.9884 8.3093C33.1297 8.41651 33.4368 8.72624 33.432 8.82881C33.4214 8.9228 33.4402 9.086 33.0402 9.52415C32.6019 10.0148 32.5423 10.0789 32.5363 10.217C32.5309 10.3599 32.5327 10.3414 32.5903 10.4258C32.6576 10.5211 32.7323 10.5881 32.9596 10.4394C33.0969 10.3275 33.2408 10.2238 33.3903 10.1288C33.5896 10.0086 33.7559 9.84075 33.8743 9.64042C34.0232 9.40645 34.1314 9.04705 33.8207 8.58258C33.6389 8.31561 33.6208 8.34814 33.5415 8.22877C33.46 8.11036 33.1079 7.79479 32.9841 7.65113C32.865 7.50734 32.7252 7.31567 32.6586 7.24836C32.616 7.20631 32.5247 7.23931 32.4716 7.2779C32.4343 7.29361 32.4029 7.32073 32.3818 7.35537C32.3608 7.39 32.3513 7.43039 32.3546 7.47077C32.3575 7.60531 32.411 7.73381 32.5046 7.83053ZM30.5978 8.19887C30.6061 8.26464 30.6349 8.32612 30.6802 8.37458C30.742 8.42759 30.8589 8.39233 30.9103 8.40448C30.9936 8.42182 31.079 8.42668 31.1637 8.4189C31.2279 8.40639 31.2432 8.3778 31.242 8.32634C31.2379 8.27178 31.3462 8.12561 31.3893 8.03864C31.4063 7.98464 31.4113 7.92759 31.404 7.87146C31.3968 7.81532 31.3774 7.76144 31.3472 7.71355C31.3006 7.65399 31.2251 7.64684 31.1074 7.74095C31.0445 7.79335 30.968 7.82685 30.8869 7.83756C30.8258 7.84528 30.7678 7.86864 30.7184 7.90537C30.669 7.9421 30.63 7.99096 30.605 8.04722C30.588 8.096 30.5855 8.14868 30.5978 8.19887Z" fill="#6F7271"/>
<path d="M33.4584 11.5779C33.4088 11.5003 33.4044 11.4505 33.3512 11.3741C33.2995 11.2892 32.7198 10.7628 32.5769 10.6245C32.5005 10.5459 32.118 10.1044 31.5961 9.58276C31.6365 9.59064 31.6779 9.59212 31.7188 9.58717C31.8108 9.57657 31.9039 9.58148 31.9942 9.6017C32.0395 9.60897 32.4016 9.37095 32.4202 9.18726C32.4334 9.04055 32.4291 8.89278 32.4073 8.74709C32.3962 8.71597 32.3775 8.68807 32.3531 8.66581C32.3287 8.64354 32.2991 8.6276 32.2671 8.61938C32.2351 8.61115 32.2016 8.61089 32.1694 8.61862C32.1373 8.62634 32.1075 8.64182 32.0827 8.6637C32.0229 8.70173 31.9547 8.72452 31.884 8.73005C31.7668 8.77249 31.6661 8.85114 31.5966 8.95461C31.5466 9.05178 31.4895 9.14511 31.4257 9.23384C31.4019 9.26719 31.3743 9.31282 31.3543 9.34737C31.0196 9.01966 30.6662 8.71168 30.2958 8.42497C30.2111 8.37102 30.1374 8.30144 30.0787 8.21995C30.0136 8.1181 30.0675 7.99504 29.8948 7.93298C29.8297 7.9291 29.7643 7.93185 29.6997 7.9412C29.6099 7.95311 29.6024 8.00136 29.5658 8.01267C29.5245 8.02375 29.3974 8.05782 29.4544 8.19005C29.5066 8.32181 29.5229 8.41044 29.5877 8.46702C29.6444 8.52432 29.6921 8.64166 29.7652 8.70682C29.8477 8.7727 30.079 8.89743 30.2112 8.99928C30.3435 9.10113 31.5187 10.1072 31.7361 10.3516C31.9533 10.5933 32.8222 11.5161 32.9517 11.6955C32.9784 11.7493 33.0194 11.7947 33.0702 11.8268C33.121 11.8588 33.1796 11.8762 33.2397 11.877C33.292 11.8861 33.3457 11.8825 33.3964 11.8666C33.447 11.8507 33.4932 11.823 33.5309 11.7856C33.5651 11.7388 33.5118 11.6584 33.4584 11.5779Z" fill="#6F7271"/>
<path d="M26.8411 23.7304C26.831 23.6601 26.8172 23.5904 26.7998 23.5215C26.7057 23.1497 26.5898 22.7662 26.4635 22.3606C26.0346 20.9229 25.4591 19.2929 25.4591 16.9243C25.4591 15.5555 25.7392 14.4584 26.0755 12.8639C25.6943 12.4529 24.6591 11.3791 24.3273 11.0228H15.6749C15.3421 11.3791 14.305 12.4523 13.9256 12.8639C14.2631 14.4583 14.5466 15.5561 14.5466 16.9243C14.5466 19.2929 13.9715 20.9229 13.5359 22.3606C13.4149 22.7656 13.2977 23.1497 13.2013 23.5215C13.2013 23.5215 13.1829 23.595 13.1611 23.724L19.9977 17.0797L26.8411 23.7304Z" fill="#B60005"/>
<path d="M13.5645 26.5983C13.7165 26.9253 13.9042 27.2344 14.1243 27.52C15.1744 28.9141 17.035 29.9934 18.5289 30.7783C19.1286 31.0904 19.6113 31.2489 19.9969 31.5037V31.506H20.0079V31.5037C20.3884 31.2489 20.8727 31.0904 21.4742 30.7783C22.967 29.9932 24.8253 28.9141 25.8745 27.5195C26.0961 27.2358 26.284 26.9272 26.4344 26.6001L19.9967 20.5194L13.5645 26.5983Z" fill="#B60005"/>
<path d="M15.6823 13.1594C15.6823 12.9952 15.6651 12.9379 15.5107 12.9246V12.869H16.2838V12.9298C16.126 12.9425 16.1094 12.997 16.1094 13.1681V15.2676C16.1094 15.4334 16.1213 15.4884 16.2776 15.5022V15.566H15.5107V15.5046C15.6656 15.4943 15.6823 15.4409 15.6823 15.2704V13.1594ZM18.4366 14.0472V13.1727C18.4366 13.0045 18.4485 12.9489 18.3091 12.9369V12.8691H19.0289V12.9369C18.8711 12.9488 18.8556 13.0045 18.8556 13.1727V15.2622C18.8556 15.4333 18.8711 15.486 19.0265 15.5021V15.5659H18.2655V15.5045C18.425 15.4941 18.4366 15.4408 18.4366 15.2703V14.2372H17.4081V15.2703C17.4081 15.4408 17.4168 15.4941 17.5648 15.5045V15.5659H16.8185V15.5113C16.974 15.4981 16.9896 15.4418 16.9896 15.2783V13.168C16.9896 12.997 16.9798 12.9425 16.8167 12.9297V12.8688H17.5333V12.9245C17.3983 12.9378 17.4081 12.9951 17.4081 13.1593V14.0471L18.4366 14.0472ZM19.3732 15.0668C19.4151 15.176 19.6854 15.46 20.1135 15.46C20.1764 15.4634 20.2392 15.4533 20.2978 15.4303C20.3563 15.4072 20.4092 15.3718 20.4528 15.3265C20.4965 15.2812 20.5298 15.227 20.5506 15.1676C20.5714 15.1082 20.5791 15.045 20.5733 14.9824C20.5733 14.7064 20.3771 14.5297 20.0758 14.3769C19.7607 14.2133 19.3589 13.9821 19.3589 13.57C19.3589 13.165 19.6843 12.817 20.26 12.817C20.444 12.8213 20.6266 12.8514 20.8023 12.9065C20.8166 13.069 20.8338 13.1574 20.85 13.2807L20.7785 13.291C20.7309 13.1676 20.5909 12.9737 20.1891 12.9737C20.1331 12.9726 20.0775 12.9831 20.0257 13.0046C19.974 13.026 19.9272 13.0579 19.8884 13.0982C19.8495 13.1386 19.8194 13.1865 19.8 13.2391C19.7805 13.2916 19.7722 13.3476 19.7753 13.4035C19.7753 13.6509 19.9648 13.8047 20.2654 13.9515C20.6247 14.1254 21.0001 14.3492 21.0001 14.8092C21.0001 15.2815 20.607 15.6224 20.0393 15.6224C19.9104 15.6232 19.782 15.6054 19.6581 15.5697C19.561 15.5478 19.4661 15.517 19.3746 15.4778C19.344 15.3481 19.3212 15.2166 19.3063 15.0841L19.3732 15.0668ZM22.0018 25.3421L21.8049 25.9159C21.9396 25.9347 22.0732 25.9612 22.2049 25.9951L21.8695 26.8997C21.8695 26.8997 21.2117 26.7895 20.5793 26.7567L20.6151 25.7787C20.726 25.7787 20.8368 25.7856 20.9468 25.7994L21.0139 25.2265C20.6794 25.2002 20.344 25.1872 20.0085 25.1876C19.6755 25.1876 19.3414 25.2002 19.0121 25.2265L19.0781 25.7994C19.1856 25.7857 19.2939 25.7788 19.4024 25.7787L19.4414 26.7567C18.8124 26.7899 18.1576 26.8997 18.1576 26.8997L17.8144 25.9943C18.0193 25.9466 18.2179 25.9161 18.2179 25.9161L18.0217 25.3431C17.3172 25.4543 16.6235 25.6252 15.9481 25.854C16.7929 27.0202 17.6101 28.6387 17.6101 28.6387C19.1946 28.3305 20.8236 28.3305 22.4082 28.6387C22.8939 27.6707 23.4504 26.7399 24.0733 25.854C23.3992 25.6228 22.706 25.4515 22.0018 25.3421Z" fill="white"/>
<path d="M35.7443 14.1757C35.7392 14.269 35.7065 14.3586 35.6505 14.4334C35.5944 14.5081 35.5175 14.5645 35.4294 14.5955C35.3413 14.6266 35.2459 14.6307 35.1554 14.6076C35.0649 14.5844 34.9833 14.535 34.9209 14.4655C34.8585 14.3959 34.8182 14.3095 34.8049 14.217C34.7916 14.1246 34.806 14.0302 34.8464 13.946C34.8867 13.8617 34.9511 13.7913 35.0314 13.7436C35.1117 13.6959 35.2044 13.6731 35.2977 13.6781C35.3597 13.6812 35.4206 13.6966 35.4767 13.7234C35.5328 13.7501 35.583 13.7877 35.6245 13.834C35.666 13.8802 35.698 13.9342 35.7185 13.9929C35.7391 14.0515 35.7478 14.1136 35.7443 14.1757ZM5.02721 14.2948C5.02206 14.388 4.98938 14.4777 4.93331 14.5523C4.87724 14.627 4.8003 14.6833 4.7122 14.7143C4.62411 14.7452 4.52882 14.7494 4.43838 14.7262C4.34793 14.703 4.2664 14.6535 4.20408 14.5839C4.14176 14.5144 4.10145 14.428 4.08824 14.3355C4.07504 14.2431 4.08953 14.1488 4.12989 14.0646C4.17025 13.9804 4.23467 13.9101 4.315 13.8625C4.39533 13.8149 4.48797 13.7922 4.5812 13.7972C4.64318 13.8005 4.7039 13.8161 4.75988 13.8429C4.81585 13.8697 4.86599 13.9073 4.90742 13.9535C4.94885 13.9997 4.98076 14.0537 5.00131 14.1122C5.02187 14.1708 5.03067 14.2328 5.02721 14.2948Z" fill="#6F7271"/>
</g>
<defs>
<clipPath id="clip0_544_437">
<rect width="39.9965" height="40" fill="white"/>
</clipPath>
</defs>
</svg>
