<svg width="40" height="40" viewBox="0 0 40 40" fill="none" xmlns="http://www.w3.org/2000/svg">
<g clip-path="url(#clip0_544_437)">
<path d="M19.9992 40C8.97102 40 0 31.0281 0 20.0001C0 8.97197 8.97102 0.000104085 19.9992 0.000104085C31.0281 0.000104085 39.9999 8.97197 39.9999 20.0001C39.9999 31.0281 31.0281 40 19.9992 40Z" fill="#1965B6"/>
<path d="M19.999 0.433309C9.2099 0.433309 0.431641 9.2115 0.431641 20C0.431641 30.7897 9.2099 39.5668 19.999 39.5668C30.7878 39.5668 39.5657 30.7897 39.5657 20C39.5657 9.2115 30.7878 0.433309 19.999 0.433309Z" fill="white"/>
<path d="M36.7045 24.8912L36.3319 24.519L35.96 24.8912L36.3319 25.2646L36.7045 24.8912Z" fill="#1965B6"/>
<path d="M4.03901 24.8912L3.66648 24.519L3.29395 24.8912L3.66648 25.2646L4.03901 24.8912Z" fill="#1965B6"/>
<path d="M16.0571 28.2633V27.7479H17.0014V30.0892H16.3924V28.2633H16.0571Z" fill="#1965B6"/>
<path d="M18.4303 28.5209C18.4303 28.736 18.592 28.9064 18.8059 28.9064C19.0195 28.9064 19.1945 28.736 19.1945 28.5209C19.1945 28.307 19.0195 28.1365 18.8059 28.1365C18.592 28.1365 18.4303 28.307 18.4303 28.5209ZM18.2163 30.0892L18.8841 29.301L18.8781 29.2951C18.7748 29.3422 18.6624 29.3663 18.5488 29.3656C18.0879 29.3656 17.7964 28.9716 17.7964 28.5398C17.7964 27.9652 18.2694 27.6545 18.8031 27.6545C19.0303 27.6545 19.291 27.7107 19.4711 27.8569C19.6605 28.0087 19.7844 28.2573 19.7844 28.5026C19.7844 28.8407 19.6108 29.1672 19.4087 29.4342L18.9089 30.0892H18.2163Z" fill="#1965B6"/>
<path d="M20.4395 28.2633V27.7479H21.3843V30.0892H20.7767V28.2633H20.4395Z" fill="#1965B6"/>
<path d="M22.9049 28.3414C22.9049 28.4875 23.0198 28.605 23.1631 28.605C23.1973 28.6046 23.2312 28.5975 23.2626 28.5841C23.2941 28.5706 23.3226 28.5511 23.3465 28.5266C23.3704 28.5021 23.3892 28.4731 23.4019 28.4413C23.4145 28.4096 23.4208 28.3756 23.4202 28.3414C23.4207 28.3071 23.4144 28.2731 23.4018 28.2413C23.3891 28.2095 23.3703 28.1805 23.3464 28.156C23.3226 28.1314 23.2941 28.1119 23.2626 28.0983C23.2312 28.0848 23.1974 28.0776 23.1631 28.0772C23.1288 28.0775 23.0949 28.0846 23.0633 28.098C23.0317 28.1115 23.0031 28.131 22.9791 28.1556C22.9551 28.1801 22.9362 28.2092 22.9234 28.2411C22.9107 28.2729 22.9044 28.307 22.9049 28.3414ZM22.8829 29.3974C22.8825 29.4346 22.8894 29.4715 22.9033 29.5059C22.9172 29.5404 22.9377 29.5718 22.9637 29.5983C22.9898 29.6248 23.0208 29.6459 23.055 29.6604C23.0892 29.6749 23.126 29.6825 23.1631 29.6828C23.3183 29.6828 23.442 29.5555 23.442 29.3974C23.442 29.2357 23.3183 29.1053 23.1631 29.1053C23.0079 29.1053 22.8829 29.2357 22.8829 29.3974ZM23.9615 28.3224C23.9615 28.5705 23.8052 28.7822 23.5921 28.8539V28.8601C23.8704 28.9532 24.0578 29.1671 24.0578 29.475C24.0578 29.9591 23.565 30.1829 23.1631 30.1829C22.7587 30.1829 22.269 29.9591 22.269 29.475C22.269 29.1671 22.4542 28.9532 22.7341 28.8601V28.8539C22.5208 28.7822 22.3647 28.5705 22.3647 28.3224C22.3647 27.8751 22.7624 27.6547 23.1631 27.6547C23.5628 27.6547 23.9615 27.8751 23.9615 28.3224Z" fill="#1965B6"/>
<path d="M26.4839 12.6192H25.2511V19.3748L24.3723 19.1871V12.6192H22.7636V18.8442L21.922 18.6675V12.6192H19.8852V18.2343L19.2257 18.0932V12.6192H16.7071V17.5575L16.1737 17.4438V12.6192H13.334V16.8415L13.5987 16.8971V23.9155H14.8306V17.1616L15.7103 17.3473V23.9155H17.317V17.6882L18.1591 17.8683V23.9155H20.1954V18.3009L20.8564 18.4415V23.9155H23.3755V18.9752L23.9075 19.0906V23.9155H26.7489V19.6931L26.4839 19.6361V12.6192Z" fill="#1965B6"/>
<path d="M8.74512 14.3881V23.9154H9.1724V15.4846C9.41201 15.7355 9.74023 15.9296 10.1159 16.0795V23.9154H10.7588V16.2858C10.8683 16.3135 10.9772 16.3414 11.0887 16.3626L11.7327 16.504V23.9154H12.6452V16.695L12.8743 16.7424V12.6192H11.5682C9.55764 12.6192 8.74512 13.3826 8.74512 14.3881Z" fill="#1965B6"/>
<path d="M30.9077 12.6192V21.0523C30.6678 20.8006 30.3427 20.6072 29.9659 20.4548V12.6192H29.323V20.2491C29.2142 20.2204 29.1049 20.1941 28.995 20.1701L28.349 20.0341V12.6192H27.4377V19.8393L27.208 19.7911V23.9155H28.5122C30.5255 23.9155 31.3378 23.1506 31.3378 22.1471V12.6192H30.9077Z" fill="#1965B6"/>
<path d="M8.60033 31.3694L8.30597 31.0414L7.9817 31.333L8.27662 31.6612L6.8291 32.9648L7.15168 33.3243L9.45152 31.2537L9.12809 30.8944L8.60033 31.3694Z" fill="#1965B6"/>
<path d="M8.13417 30.498L8.4861 30.181L8.16127 29.8215L7.80933 30.1384L7.75289 30.1729L6.04883 30.7763L6.38411 31.1494L7.52514 30.7218L6.98129 31.8117L7.31432 32.182L8.0924 30.5508L8.13417 30.498Z" fill="#1965B6"/>
<path d="M11.7105 33.2601C11.8677 33.358 11.9228 33.5544 11.8327 33.6992C11.7433 33.8426 11.5423 33.8793 11.3848 33.7813C11.2279 33.6826 11.1712 33.4856 11.2612 33.3416C11.3518 33.1977 11.5533 33.1619 11.7105 33.2601ZM12.1912 33.923C12.3517 33.6662 12.2995 33.3303 12.0862 33.0941L12.1818 32.9403L11.8158 32.712L11.7244 32.8596C11.4102 32.7557 11.0685 32.8525 10.9031 33.1175C10.8057 33.2739 10.7862 33.4579 10.8337 33.632L10.1781 33.2214L9.97204 33.5499L10.8898 34.1237L10.7648 34.3229L10.057 33.8801L9.87919 34.1649L11.3352 35.075L11.2265 35.25L9.76968 34.3398L9.30176 35.09L11.1218 36.2274L11.3007 35.9426L9.84052 35.0307L9.95397 34.8507L11.4128 35.7625L11.8782 35.018L11.1695 34.5761L11.2945 34.3763L12.212 34.9492L12.4172 34.6207L11.7594 34.2095C11.9372 34.1764 12.0946 34.0785 12.1912 33.923Z" fill="#1965B6"/>
<path d="M15.4062 37.9215L15.8671 38.0626L16.7736 35.1035L16.3108 34.9624L15.4062 37.9215Z" fill="#1965B6"/>
<path d="M15.2466 35.1314L15.3843 34.6796L14.9215 34.5376L14.7835 34.9894L14.7524 35.0507L13.6035 36.4457L14.0802 36.5916L14.8397 35.6371L14.9333 36.8521L15.4092 36.9977L15.2384 35.1989L15.2466 35.1314Z" fill="#1965B6"/>
<path d="M20.7258 38.085H19.5949V37.8968H20.7258V38.085ZM20.7258 36.683H19.2825V36.4332H20.3591V35.389H18.8193V35.7926H19.8961V36.0271H18.8193V37.0897H20.7258V37.5057H19.5946V37.2619H19.1318V38.4827H21.1886V35.389H20.7258V36.683Z" fill="#1965B6"/>
<path d="M25.2323 35.2169L25.0127 35.2813L24.8188 34.6212L24.3915 34.7465L24.8928 36.4573L24.1229 36.6817L23.7422 35.3772L24.2925 35.2164L24.174 34.81L23.1616 35.1063L23.7817 37.2269L25.0119 36.8674L25.2594 37.7163L25.6881 37.5913L25.1437 35.732L25.3632 35.6677L25.9076 37.5269L26.333 37.4025L25.4634 34.4329L25.0395 34.5568L25.2323 35.2169Z" fill="#1965B6"/>
<path d="M28.9811 32.5214L28.5888 32.7667L29.5848 34.3621L28.2852 35.1726L28.5163 35.5417L29.8148 34.7295L30.2288 35.391L30.6206 35.1458L29.5396 33.4158L29.8526 33.2196L29.6235 32.8499L29.3091 33.0463L28.9811 32.5214Z" fill="#1965B6"/>
<path d="M27.8948 34.2854C27.8025 34.1378 27.8544 33.9377 28.0119 33.8397C28.1685 33.7418 28.3706 33.7827 28.4629 33.9303C28.5571 34.0796 28.5038 34.2783 28.3472 34.3768C28.1911 34.4742 27.9885 34.4347 27.8948 34.2854ZM28.8331 33.6986C28.7194 33.516 28.5295 33.4074 28.3223 33.3831L28.5944 33.2132L28.3912 32.8898L27.8979 33.198L27.763 32.9821L27.3515 33.2395L27.4858 33.4556L26.9902 33.7655L27.1923 34.0884L27.4652 33.9182C27.3964 34.1155 27.411 34.3339 27.525 34.5165C27.7345 34.8518 28.1965 34.9413 28.5585 34.7152C28.9201 34.4894 29.0434 34.0342 28.8331 33.6986Z" fill="#1965B6"/>
<path d="M33.8696 31.3602L31.9928 29.6415L30.5679 31.1971L30.895 31.4963L31.9973 30.294L33.5448 31.7136L33.3274 31.9515L32.5361 31.2251L32.222 31.5674L33.0139 32.2935L32.859 32.4637L32.067 31.7373L31.7538 32.0788L32.5457 32.8049L32.3456 33.0237L32.6654 33.316L34.3387 31.4903L34.0183 31.198L33.8696 31.3602Z" fill="#1965B6"/>
<path d="M1.7299 17.13L2.99878 17.2604C3.28947 17.29 3.57536 17.3315 3.77037 17.5781C3.93689 17.7861 3.97273 18.0895 3.94563 18.3528C3.91854 18.6162 3.8223 18.9057 3.61713 19.0753C3.37554 19.2771 3.08711 19.2596 2.79671 19.23L1.52783 19.0993L1.58766 18.5129L2.77639 18.6351C3.06933 18.665 3.39191 18.6768 3.43058 18.2998C3.46953 17.9225 3.15118 17.8691 2.85795 17.8386L1.66979 17.7167L1.7299 17.13Z" fill="#1965B6"/>
<path d="M2.05029 15.508L2.22809 14.9461L3.87515 14.3343L3.87684 14.3283L2.55519 13.9109L2.73299 13.3487L4.89454 14.032L4.7173 14.5942L3.06714 15.2049L3.06545 15.2108L4.3902 15.6294L4.21268 16.1913L2.05029 15.508Z" fill="#1965B6"/>
<path d="M5.68449 12.4078L5.41722 12.9336L3.39453 11.9052L3.66151 11.3788L5.68449 12.4078Z" fill="#1965B6"/>
<path d="M6.11692 10.0351L5.32133 8.78261L5.69584 8.26304L6.96979 10.3752L6.70196 10.746L4.3042 10.1934L4.67927 9.67387L6.11692 10.0351Z" fill="#1965B6"/>
<path d="M7.38989 7.20322L7.65546 7.47415L8.13044 7.00905L8.48012 7.3655L8.00485 7.83117L8.27861 8.11057L8.77956 7.61978L9.12951 7.97679L8.20721 8.88019L6.61914 7.25966L7.54116 6.3557L7.89084 6.71243L7.38989 7.20322Z" fill="#1965B6"/>
<path d="M9.80627 5.83894L9.85312 5.80621C10.0112 5.69586 10.1681 5.54233 10.0267 5.33997C9.88529 5.13762 9.68689 5.23245 9.52884 5.34251L9.48199 5.37553L9.80627 5.83894ZM11.5868 6.12173L10.9854 6.54253L10.0287 6.14657L10.0236 6.14995L10.5237 6.86511L10.0405 7.20349L8.73975 5.34364L9.46252 4.83846C9.82997 4.58136 10.231 4.5616 10.509 4.95869C10.6888 5.21523 10.7006 5.53725 10.4692 5.76811L11.5868 6.12173Z" fill="#1965B6"/>
<path d="M12.8774 3.59686C12.7414 3.56073 12.5907 3.56469 12.46 3.62593C12.3618 3.67165 12.2574 3.78962 12.311 3.9042C12.3669 4.02414 12.5328 4.00326 12.6392 3.98971L12.7947 3.96714C13.1201 3.91803 13.408 3.95923 13.5632 4.29169C13.6586 4.4963 13.7071 4.72857 13.6084 4.94363C13.5116 5.15529 13.323 5.31277 13.1162 5.40958C12.8559 5.52737 12.5658 5.56301 12.2847 5.51174L12.313 4.97467C12.5009 5.02942 12.7033 5.05115 12.8859 4.96592C13.0115 4.9075 13.1153 4.78276 13.0484 4.63854C12.9782 4.4884 12.7442 4.5344 12.6144 4.55501C12.2351 4.61597 11.9737 4.63149 11.7883 4.23412C11.5939 3.81727 11.764 3.40636 12.1747 3.21416C12.3821 3.11793 12.666 3.06515 12.8966 3.0835L12.8774 3.59686Z" fill="#1965B6"/>
<path d="M15.5151 4.43833L14.952 4.61133L14.2871 2.44527L14.8501 2.27226L15.5151 4.43833Z" fill="#1965B6"/>
<path d="M17.593 3.99094L17.0113 4.08746L16.7226 2.34361L16.2417 2.42291L16.1602 1.93043L17.7028 1.6753L17.7843 2.1675L17.3037 2.24709L17.593 3.99094Z" fill="#1965B6"/>
<path d="M18.874 1.5465L19.581 1.54707L20.0046 2.16429L20.4291 1.54791L21.136 1.54904L20.2984 2.72676L20.2976 3.81586L19.7077 3.81501L19.7091 2.72648L18.874 1.5465Z" fill="#1965B6"/>
<path d="M24.7903 3.30794C24.6684 3.67906 24.8538 4.04031 25.1879 4.14981C25.5221 4.25959 25.885 4.07784 26.0069 3.70672C26.1043 3.40954 25.9189 3.04829 25.5847 2.93907C25.2506 2.82929 24.8874 3.01076 24.7903 3.30794ZM26.5903 3.89496C26.3623 4.59149 25.7013 4.91915 25.0101 4.69224C24.319 4.4659 23.98 3.81086 24.2086 3.11405C24.422 2.46296 25.1428 2.19316 25.7628 2.39636C26.382 2.59928 26.8037 3.24359 26.5903 3.89496Z" fill="#1965B6"/>
<path d="M28.5828 4.23534L28.4007 4.5678L28.9683 4.87796L28.7284 5.31569L28.1614 5.00553L27.7341 5.78644L27.2168 5.50365L28.3056 3.51426L29.4478 4.13939L29.2082 4.57768L28.5828 4.23534Z" fill="#1965B6"/>
<path d="M32.8721 7.61244C32.8579 7.47246 32.8015 7.33276 32.6985 7.23172C32.6212 7.1558 32.4741 7.09936 32.3855 7.18967C32.2932 7.28393 32.3708 7.43182 32.4205 7.52693L32.4964 7.66493C32.6564 7.95224 32.7185 8.23672 32.4614 8.49834C32.3034 8.65892 32.1027 8.78592 31.8665 8.76899C31.6351 8.75206 31.4214 8.6307 31.2583 8.4704C31.0548 8.27058 30.9225 8.00586 30.8711 7.72815L31.3842 7.56616C31.3989 7.76174 31.4494 7.95901 31.5927 8.09984C31.6918 8.19664 31.845 8.25083 31.9565 8.13681C32.0725 8.01941 31.9475 7.81649 31.8826 7.70191C31.6924 7.36775 31.5862 7.12871 31.8939 6.81601C32.2159 6.48778 32.6604 6.50302 32.9838 6.82109C33.1467 6.98111 33.2957 7.22805 33.3592 7.45045L32.8721 7.61244Z" fill="#1965B6"/>
<path d="M34.4237 9.32999L34.1184 9.55464L34.5126 10.0903L34.1105 10.3864L33.7162 9.85097L33.4013 10.0827L33.8167 10.6474L33.4142 10.9432L32.6494 9.90347L34.4768 8.55924L35.2416 9.59895L34.8392 9.89472L34.4237 9.32999Z" fill="#1965B6"/>
<path d="M35.3397 11.8743C34.9872 12.0439 34.8554 12.4283 35.0081 12.7455C35.161 13.0625 35.5437 13.1985 35.8965 13.0292C36.1782 12.8926 36.3102 12.5087 36.1573 12.1915C36.0046 11.8743 35.6216 11.7383 35.3397 11.8743ZM36.1655 13.5806C35.5045 13.899 34.8094 13.6498 34.493 12.9936C34.1769 12.3377 34.4146 11.6389 35.0758 11.32C35.6939 11.0217 36.3887 11.3547 36.6723 11.9432C36.956 12.5313 36.7835 13.2826 36.1655 13.5806Z" fill="#1965B6"/>
<path d="M38.1269 16.4854L36.8908 16.7945C36.6077 16.8647 36.3249 16.9231 36.0571 16.7575C35.8307 16.6186 35.6942 16.346 35.6307 16.0895C35.5666 15.8332 35.5584 15.5284 35.6933 15.2992C35.8516 15.0277 36.1288 14.9462 36.4116 14.8753L37.6483 14.5669L37.7908 15.1384L36.6328 15.4271C36.3472 15.4985 36.0404 15.597 36.1319 15.9644C36.2239 16.3319 36.5408 16.2743 36.8264 16.2029L37.9844 15.9139L38.1269 16.4854Z" fill="#1965B6"/>
<path d="M36.6237 18.793L36.6757 19.4977L36.1778 19.5339L36.083 18.2419L38.3436 18.0756L38.3868 18.6629L36.6237 18.793Z" fill="#1965B6"/>
</g>
<defs>
<clipPath id="clip0_544_437">
<rect width="40" height="40" fill="white"/>
</clipPath>
</defs>
</svg>
