<svg width="40" height="40" viewBox="0 0 40 40" fill="none" xmlns="http://www.w3.org/2000/svg">
<g clip-path="url(#clip0_544_437)">
<path d="M0 19.9973C0 31.0255 8.97096 39.9983 19.9973 39.9983C31.029 39.9983 40 31.0273 40 19.9974C40 8.96743 31.029 0 19.9973 0C8.97103 0 0 8.9692 0 19.9973Z" fill="white"/>
<path d="M0.59333 19.9955C0.59333 9.29467 9.29999 0.588013 19.9991 0.588013C30.7035 0.588013 39.4083 9.29467 39.4083 19.9937C39.4083 30.6982 30.7017 39.4084 19.9991 39.4084C9.29999 39.4084 0.593262 30.7 0.593262 19.9956" fill="#003378"/>
<path d="M19.9974 34.1434C12.1898 34.1434 5.85492 27.8121 5.85492 20.0009C5.85492 12.1897 12.1881 5.8548 19.9974 5.8548C27.8105 5.8548 34.1453 12.1861 34.1453 20.0009C34.1453 27.8157 27.8105 34.1434 19.9974 34.1434ZM3.6414 24.5898C3.63963 24.8901 3.88416 25.1347 4.18442 25.1365C4.48481 25.1382 4.72927 24.8937 4.7311 24.5934C4.73287 24.2931 4.48834 24.0486 4.18809 24.0468H4.18625C3.88593 24.0486 3.64324 24.2913 3.6414 24.5898M36.562 24.6689C36.5603 24.9746 36.3122 25.2192 36.0082 25.2192C35.7025 25.2174 35.458 24.9692 35.458 24.6653C35.4598 24.3614 35.7061 24.1151 36.0101 24.1151C36.3157 24.1151 36.562 24.3632 36.562 24.6671V24.6689ZM5.22199 15.1909C5.02599 15.8058 4.37145 16.0665 3.62883 15.8292C2.70815 15.5379 2.73697 14.9751 2.83225 14.6676C2.91136 14.423 3.07141 14.227 3.30152 14.1102C3.59648 13.9591 3.97768 13.9429 4.37505 14.0706C4.78506 14.1983 5.05113 14.3907 5.17883 14.6316C5.26556 14.8053 5.28104 15.0059 5.22199 15.1909ZM4.42004 13.488C4.03877 13.3675 3.67735 13.3837 3.36989 13.5456C3.03545 13.7218 2.78366 14.049 2.63985 14.4968C2.50494 14.9338 2.52472 15.3437 2.70101 15.6836C2.87364 16.0179 3.1883 16.2769 3.5659 16.3974C4.23301 16.6096 5.09436 16.3884 5.40182 15.412C5.53665 14.9876 5.51151 14.5813 5.32985 14.2288C5.14825 13.88 4.82462 13.6175 4.42004 13.488Z" fill="white"/>
<path d="M8.26066 9.94026L7.75536 9.45834L7.85425 9.35585C7.85425 9.35585 8.0251 9.47451 8.08443 9.5051C8.36131 9.64714 8.56989 9.49252 8.66884 9.3882C8.87381 9.17419 8.84146 8.92246 8.71016 8.79483C8.58253 8.67433 8.42424 8.60603 8.06826 8.65992L7.85785 8.69051C7.37233 8.76241 7.06664 8.69771 6.83469 8.47473C6.52899 8.18344 6.55781 7.7213 6.91556 7.34371C7.21772 7.02904 7.3849 7.00566 7.3849 7.00566L7.82367 7.42635L7.71581 7.53971C7.64207 7.45516 7.54135 7.39943 7.42806 7.38679C7.33638 7.37789 7.19794 7.38679 7.05046 7.53971C6.88504 7.71593 6.8724 7.92091 7.02348 8.06655C7.12597 8.16367 7.2483 8.20138 7.64024 8.13845L7.76617 8.11874C8.32719 8.03596 8.62025 8.09169 8.87735 8.33622C8.99247 8.44775 9.17774 8.6869 9.10753 9.05193C9.07158 9.24433 8.9727 9.41878 8.80904 9.58957C8.65803 9.74962 8.41894 9.93842 8.26066 9.94026ZM32.2444 10.5894L32.8234 10.1938L32.9044 10.316C32.9044 10.316 32.7498 10.4581 32.7066 10.5103C32.5106 10.7494 32.6185 10.985 32.6994 11.1036C32.8648 11.35 33.1184 11.3698 33.2712 11.2654C33.415 11.1666 33.5158 11.0281 33.5373 10.6667L33.5499 10.4563C33.5823 9.9654 33.7082 9.67949 33.9743 9.49966C34.3267 9.2605 34.7708 9.38637 35.0639 9.81432C35.3103 10.174 35.2959 10.3431 35.2959 10.3431L34.796 10.6846L34.7061 10.5552C34.8055 10.5009 34.8807 10.4109 34.9165 10.3034C34.9453 10.2171 34.9668 10.0841 34.8446 9.90424C34.7061 9.70286 34.5065 9.6489 34.3375 9.76403C34.2188 9.84674 34.1541 9.96003 34.1361 10.3538L34.1307 10.4815C34.0947 11.0497 33.9815 11.323 33.6848 11.5244C33.5535 11.6143 33.2784 11.7438 32.9367 11.6C32.7587 11.5262 32.6076 11.3931 32.4728 11.1954C32.3505 11.0155 32.2156 10.7422 32.2462 10.5876M10.3896 6.28099C10.5371 6.1713 10.5784 6.21805 10.6953 6.37273L10.7978 6.29356L10.3447 5.68578L10.2404 5.76488C10.3537 5.91956 10.3896 5.97169 10.2404 6.08322L9.80883 6.40508L9.24244 5.65166C9.24244 5.65166 9.58048 5.39986 9.67039 5.33516C9.86816 5.18768 9.95808 5.2884 10.0696 5.44118L10.1775 5.36214L9.83221 4.9L8.37932 5.98603L8.45843 6.09219C8.55555 6.01845 8.73714 5.86023 8.89359 6.06881C9.05004 6.27738 10.1037 7.69072 10.1037 7.69072C10.2854 7.93348 10.1955 7.97303 10.0246 8.10073L10.1109 8.21219L11.5944 7.10632L11.2168 6.60646L11.1107 6.68556C11.2761 6.90848 11.2455 7.04882 11.0927 7.16388C10.9938 7.23938 10.627 7.50912 10.627 7.50912L9.95624 6.60999L9.95447 6.60822L10.3896 6.28099ZM29.6856 6.43737C29.8403 6.53992 29.808 6.59388 29.7 6.7521L29.808 6.82944L30.2305 6.19467L30.1209 6.12277C30.0129 6.28452 29.9751 6.33311 29.8223 6.23063L29.3728 5.92677L29.8979 5.14453C29.8979 5.14453 30.2467 5.37832 30.3402 5.44125C30.5452 5.58152 30.4804 5.69658 30.3726 5.8548L30.4804 5.92854L30.8005 5.45206L29.2972 4.44146L29.2236 4.55115C29.326 4.61946 29.5328 4.73818 29.389 4.95573C29.2451 5.17334 28.2633 6.63704 28.2633 6.63704C28.0961 6.88877 28.0295 6.81687 27.8515 6.6982L27.7724 6.8151L29.3116 7.84357L29.6569 7.32393L29.5454 7.24842C29.3907 7.47854 29.2469 7.49832 29.0905 7.39223C28.988 7.32209 28.6086 7.0686 28.6086 7.0686L29.2344 6.13534C29.2344 6.13534 29.2344 6.13174 29.2361 6.13174L29.6856 6.43737ZM11.9504 4.09268C11.8696 3.9308 11.945 3.88581 12.1447 3.78516L12.0835 3.66649L11.0586 4.1915L11.1197 4.30839C11.1197 4.30839 11.3787 4.12496 11.4883 4.33177C11.5405 4.43426 12.4809 6.27378 12.4809 6.27378C12.5654 6.43383 12.4845 6.48243 12.2867 6.58308L12.3479 6.69997L13.4501 6.13174L13.3926 6.01485C13.2271 6.10116 13.0473 6.22166 12.952 6.02926C12.8513 5.84046 11.9504 4.09092 11.9504 4.09268ZM17.879 3.40933L17.6542 2.28904C17.6219 2.11105 17.7045 2.09127 17.9221 2.04452L17.8951 1.91688L16.9151 2.11289L16.9421 2.24052C16.9421 2.24052 17.2424 2.13083 17.2892 2.36285C17.2982 2.40954 17.5265 3.5496 17.5265 3.5496C17.6038 3.92896 17.6488 4.23465 17.5014 4.45764C17.3683 4.66084 17.1507 4.72378 17.0644 4.74172C16.935 4.76517 16.7803 4.77774 16.6022 4.68422C16.4422 4.59968 16.275 4.44146 16.1617 3.87684L15.9118 2.63789C15.8776 2.46167 15.9621 2.44012 16.1833 2.39336L16.1546 2.2639L15.0271 2.48865L15.0505 2.61635C15.0505 2.61635 15.3525 2.51026 15.4011 2.73861C15.4101 2.7889 15.6546 3.9991 15.6546 3.9991C15.7445 4.45947 15.91 4.74532 16.1743 4.9036C16.5069 5.10137 16.8792 5.02763 17.0392 4.99535C17.2514 4.95213 17.5229 4.86758 17.7477 4.5763C18.0031 4.25266 17.9617 3.82464 17.879 3.40933ZM24.4117 2.71707C24.453 2.53901 24.5394 2.55342 24.7569 2.60377L24.7875 2.47607L23.6654 2.21537L23.6385 2.34301C23.6385 2.34301 23.955 2.36815 23.9028 2.59834C23.8777 2.71163 23.4119 4.72378 23.4119 4.72378C23.3705 4.9 23.2789 4.88383 23.0613 4.83347L23.0307 4.96117L24.239 5.24165L24.2696 5.11578C24.0862 5.07439 23.8741 5.04925 23.9226 4.84244C23.9711 4.6357 24.4099 2.71707 24.4117 2.71707ZM36.1393 12.4451C36.301 12.3642 36.3443 12.4396 36.4431 12.6393L36.5618 12.5817L36.0565 11.5478L35.9378 11.6053C35.9378 11.6053 36.1213 11.8661 35.9073 11.9703C35.8048 12.0207 33.9509 12.9342 33.9509 12.9342C33.7873 13.0115 33.7423 12.9306 33.6434 12.731L33.5247 12.7903L34.0713 13.9015L34.1865 13.8441C34.1038 13.6786 33.9887 13.497 34.181 13.4035C34.3734 13.31 36.1393 12.4451 36.1393 12.4451ZM37.0797 13.7721L36.5043 13.8548L36.5456 13.9987C36.7363 13.9699 36.8729 13.9591 36.9448 14.1983C36.9592 14.2432 36.9844 14.3295 37.1031 14.7305C36.7812 14.824 34.9417 15.3688 34.9417 15.3688C34.769 15.421 34.7385 15.3311 34.6755 15.1171L34.5479 15.1531L34.9021 16.3453L35.0262 16.3093C34.9741 16.1295 34.8859 15.9299 35.0927 15.8705C35.8122 15.6565 36.5321 15.4438 37.2523 15.2322C37.371 15.6314 37.3962 15.7195 37.4106 15.7608C37.4806 16.0018 37.3584 16.0684 37.1822 16.1475L37.2271 16.2913L37.754 16.0522L37.0797 13.7721ZM32.4836 8.03957C32.2553 8.27152 32.0629 8.28416 31.9694 8.26975C31.8974 8.26078 31.8579 8.2374 31.7572 8.13845L31.5719 7.95686L32.4279 7.09014L32.5538 7.21601C32.694 7.35268 32.8433 7.67998 32.4836 8.03957ZM33.1381 7.70329C33.0878 7.45523 32.9206 7.261 32.7605 7.10271L31.9873 6.33855L31.8974 6.43383C31.8974 6.43383 32.1545 6.62263 31.9909 6.78988C31.9082 6.87259 30.4553 8.33806 30.4553 8.33806C30.3294 8.46576 30.2575 8.40466 30.0992 8.24814L30.0093 8.34349L30.8905 9.21198L30.9804 9.1239C30.8491 8.99083 30.6783 8.85776 30.8293 8.70668L31.4101 8.11691L31.6475 8.3507L31.5432 8.98179C31.4892 9.34144 31.4713 9.55722 31.5252 9.72801C31.5576 9.83777 31.6151 9.92048 31.7589 10.0661L32.0251 10.3268L32.1096 10.2405L32.0484 10.165C32.0161 10.1165 31.9352 9.99782 31.9369 9.71727C31.9424 9.44753 31.9801 9.10766 32.0268 8.67793C32.0268 8.67793 32.0413 8.54133 32.0485 8.50171C32.471 8.53949 32.7479 8.46569 32.9619 8.24998C33.1525 8.05574 33.1597 7.80761 33.1382 7.70329M3.77599 18.1757C3.65733 18.1668 3.54948 18.1542 3.43075 18.0949C3.28694 18.0175 2.48492 17.435 2.35009 17.3001C2.26017 17.2138 2.22422 17.1743 2.19547 17.1023C2.17554 17.0552 2.16692 17.0041 2.17033 16.953C2.17386 16.9171 2.17923 16.8505 2.17923 16.8505L2.04976 16.8361L1.96169 17.7586L2.09829 17.7712C2.09829 17.7712 2.10556 17.7029 2.10733 17.6759C2.10916 17.649 2.13791 17.6291 2.1721 17.6327C2.21885 17.6363 2.27458 17.6597 2.34288 17.6975C2.39501 17.7262 3.23481 18.2962 3.23481 18.2962C3.23481 18.2962 2.24577 18.7548 2.15409 18.7872C2.13254 18.7962 2.06961 18.8195 2.04263 18.8178C2.02822 18.8159 2.01205 18.8069 2.01205 18.789C2.01205 18.7872 2.00844 18.7674 2.00844 18.7674C2.00844 18.7404 2.01021 18.7134 2.01205 18.6847L1.88258 18.6703L1.78906 19.7132L1.91853 19.7258C1.91853 19.7258 1.92573 19.5819 1.98506 19.4956C2.03182 19.4291 2.13254 19.3518 2.26017 19.2798C2.46515 19.1684 3.30135 18.7584 3.35708 18.7404C3.46854 18.7044 3.54404 18.6775 3.73291 18.6918C3.73291 18.6918 4.10874 18.7279 4.34422 18.7494C4.57801 18.7692 4.57081 18.8986 4.5564 19.0766L4.67873 19.0893L4.79019 17.8611L4.67153 17.8521C4.65352 18.0553 4.65352 18.2513 4.38201 18.2262C4.1105 18.201 3.78327 18.1686 3.78327 18.1686M36.2525 18.7494C36.3658 18.7386 36.4755 18.726 36.605 18.7692C36.7596 18.8159 37.6587 19.2349 37.8169 19.341C37.9212 19.4111 37.9644 19.4435 38.004 19.5082C38.0345 19.5496 38.0525 19.5999 38.0579 19.6502C38.0597 19.6827 38.0687 19.751 38.0687 19.751L38.1981 19.7366L38.1082 18.8159L37.9716 18.8285C37.9716 18.8285 37.9787 18.8969 37.9823 18.922C37.9825 18.9291 37.9812 18.9362 37.9785 18.9428C37.9758 18.9494 37.9719 18.9554 37.9668 18.9604C37.9618 18.9655 37.9558 18.9695 37.9492 18.9721C37.9426 18.9748 37.9356 18.9761 37.9284 18.976C37.8817 18.9814 37.8224 18.9705 37.7486 18.9472C37.6929 18.9256 36.7578 18.5228 36.7578 18.5228C36.7578 18.5228 37.6443 17.8845 37.7288 17.8378C37.7486 17.8251 37.8043 17.7892 37.8331 17.7874C37.8493 17.7838 37.8637 17.7946 37.8691 17.8089L37.8745 17.827C37.8817 17.8557 37.8853 17.8845 37.8889 17.9133L38.0165 17.8989L37.9122 16.8595L37.7846 16.8722C37.7846 16.8722 37.8026 17.016 37.7612 17.1095C37.7306 17.1832 37.6461 17.2785 37.531 17.372C37.353 17.5195 36.6067 18.0787 36.5582 18.1074C36.4557 18.165 36.3856 18.2046 36.1986 18.2243C36.1986 18.2243 35.8246 18.2603 35.5908 18.2837C35.357 18.3088 35.3373 18.1794 35.3211 18.0013L35.1988 18.014L35.3211 19.2403L35.4398 19.2259C35.4182 19.0209 35.3823 18.8303 35.6538 18.807C35.9217 18.78 36.2543 18.7458 36.2543 18.7458M7.54856 10.9526L7.45144 11.1144L4.74703 11.7222L6.06869 12.5386C6.34733 12.7112 6.44268 12.4936 6.5398 12.3372L6.65309 12.4073L6.10641 13.292L5.99135 13.2219C6.07766 13.0816 6.18014 12.9485 5.91584 12.7849C5.65147 12.6213 3.88392 11.5298 3.88392 11.5298L3.97567 11.3806C4.43781 11.2799 6.64589 10.7961 6.71602 10.78C6.71602 10.78 5.59037 10.0823 5.34585 9.93122C5.10309 9.78197 4.99516 9.98158 4.91966 10.1021L4.8082 10.0337L5.31343 9.21558L5.42488 9.28748C5.34584 9.41878 5.2541 9.53568 5.49692 9.68669C5.73962 9.83777 7.54856 10.9526 7.54856 10.9526ZM21.7936 4.77414L21.6065 4.76333L19.794 2.66847L19.7005 4.21848C19.6789 4.54578 19.9145 4.52777 20.0997 4.53858L20.0907 4.67165L19.0514 4.61048L19.0568 4.47388C19.2222 4.48462 19.3894 4.5116 19.4092 4.20231C19.429 3.88764 19.5548 1.81793 19.5548 1.81793L19.7275 1.83057C20.0367 2.18656 21.5076 3.90382 21.5562 3.95955C21.5562 3.95955 21.6371 2.63973 21.6515 2.35198C21.6695 2.06613 21.4429 2.06429 21.3027 2.05709L21.3081 1.92762L22.2683 1.98519L22.2575 2.12002C22.1046 2.10928 21.9572 2.08591 21.9374 2.37182C21.923 2.6523 21.7936 4.77414 21.7936 4.77414ZM28.5061 4.07107L28.5367 3.9416L27.6987 3.57475L27.6447 3.69884L27.7419 3.74016C27.776 3.75457 27.7994 3.78332 27.794 3.81214C27.7814 3.85889 27.7346 3.91639 27.6897 3.97389L26.9075 4.76156C26.9075 4.76156 26.4634 5.20209 26.404 5.26326C26.4059 5.19129 26.4544 4.18436 26.4778 3.7456L26.4993 3.3608C26.5029 3.33919 26.4993 3.28523 26.5245 3.26008C26.5317 3.24928 26.5659 3.23133 26.6144 3.24928L26.7116 3.29243L26.7637 3.1684L25.7873 2.74221L25.7351 2.85911C25.7351 2.85911 25.87 2.91484 25.9203 2.98857C25.9581 3.04791 25.9779 3.1612 25.9706 3.29067L25.9293 5.91059L26.0408 5.96089L27.5261 4.58894L28.0601 4.10519C28.0601 4.10519 28.2382 3.95057 28.4144 4.03152L28.5061 4.07107ZM20.916 35.2475V36.107H20.6877V35.2475H20.1051V35.3159C20.1626 35.3159 20.2166 35.4165 20.2166 35.5208V37.3765H19.01V35.715H19.8119V35.3248H18.3915V35.3931C18.4508 35.3931 18.5084 35.4903 18.5084 35.5982V37.7685H20.2166V38.3906H20.6877V36.4972H20.916V38.3906H21.4196V35.2457L20.916 35.2475ZM34.5119 30.5022C34.1091 30.1659 32.6005 28.9126 32.5771 28.8964H32.5735L30.9948 30.7988C31.0199 30.8168 31.2734 31.029 31.295 31.0506C31.3166 31.0218 32.5555 29.533 32.5555 29.533C32.5555 29.533 33.825 30.5867 34.1865 30.8888C34.0498 31.056 33.9419 31.1891 33.9419 31.1891C33.9419 31.1891 33.1148 30.504 33.0914 30.4824C33.0698 30.5075 32.8019 30.8294 32.7821 30.8528C32.8055 30.8744 33.6326 31.5577 33.6326 31.5577L33.4672 31.7555C33.4672 31.7555 32.6418 31.0722 32.6149 31.0506C32.5969 31.0739 32.2786 31.4588 32.257 31.4821C32.275 31.4965 32.2948 31.5145 32.3128 31.5253C32.3505 31.4804 32.462 31.502 32.5429 31.5684L33.1831 32.0989C33.1831 32.0989 32.845 32.5089 32.8234 32.5341C32.8468 32.552 33.104 32.7679 33.1255 32.7858C33.1471 32.7607 34.9848 30.5435 35.0082 30.5166C34.9848 30.4986 34.7277 30.2864 34.7043 30.2648C34.7007 30.2774 34.6216 30.3762 34.5119 30.5022ZM14.0453 34.0625C14.0327 34.0948 12.747 36.8892 12.7326 36.9233C12.7614 36.9342 13.1606 37.1193 13.1912 37.132C13.2038 37.0996 14.4913 34.3053 14.5074 34.2747H14.5038C14.502 34.2729 14.0759 34.0751 14.0453 34.0625ZM13.3476 33.7424C13.3404 33.7604 13.3261 33.7892 13.3189 33.8072H13.3225C13.3746 33.8305 13.3836 33.9456 13.3386 34.041L13.0959 34.5714C13.0959 34.5714 12.6463 34.3664 12.6158 34.352C12.6014 34.379 12.4665 34.6811 12.4521 34.7098C12.4809 34.7224 12.9322 34.9292 12.9322 34.9292C12.9322 34.9292 12.1554 36.6195 12.1411 36.65C12.1698 36.6626 12.5187 36.8245 12.5457 36.837C12.56 36.8065 13.8458 34.0085 13.8619 33.9798L13.8601 33.978C13.8583 33.9744 13.3782 33.7532 13.3477 33.7425" fill="white"/>
<path d="M12.0335 34.6217L12.019 34.5911L12.0281 34.5803C12.3731 34.322 12.6471 33.9805 12.8246 33.5877C12.7958 33.5734 12.1917 33.2965 12.1593 33.2821C12.1539 33.2982 12.1378 33.3288 12.1323 33.3432C12.1378 33.3487 12.2618 33.4457 12.1539 33.6777V33.6795C12.1467 33.6938 11.7907 34.4689 10.7244 34.8177C10.737 34.8483 10.8358 35.0964 10.8431 35.1198H10.8449C10.8485 35.1198 11.2027 35.0767 11.6846 34.8033L11.699 34.7943L11.708 34.8105C11.78 34.958 11.8878 35.1827 11.9921 35.7563C12.0335 35.733 12.3841 35.5334 12.4039 35.5226C12.3499 35.2816 12.2169 34.9615 12.0335 34.6217ZM26.5086 36.5223C26.5374 36.5062 28.4093 35.6107 28.4093 35.6107C28.4093 35.6107 28.6862 36.1915 28.6988 36.2203C28.7311 36.2077 29.1267 36.0153 29.1555 36.0009C29.1411 35.9721 28.7096 35.064 28.6916 35.0335C28.6592 35.0497 26.3666 36.1519 26.3342 36.1663C26.3504 36.1969 26.4942 36.4953 26.5086 36.5223ZM27.7943 33.1688C27.7655 33.1832 27.2638 33.4223 27.2369 33.4367C27.2441 33.4529 27.2585 33.4817 27.2657 33.4979C27.3214 33.4727 27.4131 33.5392 27.458 33.6345C27.458 33.6345 28.1054 34.9831 28.1216 35.0137C28.1503 34.9993 28.5477 34.8105 28.5747 34.7943C28.5603 34.7638 28.3266 34.2782 28.3266 34.2782C28.3266 34.2782 28.7455 34.0786 28.7724 34.0643C28.7599 34.0355 28.634 33.7712 28.6214 33.7442C28.5927 33.7586 28.1755 33.96 28.1755 33.96C28.1755 33.96 27.8087 33.1976 27.7943 33.1688ZM26.7316 35.3607C26.5122 35.4651 26.2461 35.3662 26.1364 35.1396C26.0267 34.913 26.1148 34.6414 26.336 34.5354C26.5572 34.4293 26.8215 34.5318 26.933 34.7583C27.0408 34.9849 26.9509 35.2565 26.7316 35.3607ZM25.7265 35.3374C25.917 35.7294 26.4313 35.875 26.8773 35.6647C27.3232 35.4489 27.53 34.9562 27.3429 34.5623C27.2495 34.3645 27.0678 34.2279 26.8539 34.1704C27.0481 34.0769 27.183 34.0121 27.1919 34.005C27.1775 33.9798 27.0372 33.6813 27.0247 33.6507C26.9942 33.6669 26.3881 33.9582 26.3881 33.9582C26.3881 33.9582 26.2857 33.746 26.2749 33.719C26.2749 33.719 25.7462 33.9708 25.7174 33.987C25.7246 34.005 25.739 34.0319 25.748 34.0517V34.0499C25.7948 34.0283 25.872 34.0786 25.9224 34.1632L25.935 34.1776C25.935 34.1776 25.2859 34.4886 25.2553 34.5048C25.2679 34.53 25.4117 34.8285 25.4243 34.8573C25.4352 34.8537 25.5556 34.7961 25.7318 34.7098C25.6401 34.9094 25.633 35.1377 25.7264 35.3374M6.39805 30.7197C6.39805 30.7197 6.01142 30.2773 5.98987 30.2558C5.97547 30.2684 5.95209 30.2881 5.93768 30.3007C5.97547 30.3457 5.93768 30.4518 5.85857 30.5219C5.85857 30.5219 5.31916 30.9912 5.29395 31.011C5.31556 31.0343 6.85476 32.802 6.87637 32.8271C6.90151 32.8056 7.14964 32.5898 7.17302 32.57C7.15148 32.5412 5.9215 31.1351 5.9215 31.1351C5.9215 31.1351 6.37284 30.7413 6.39805 30.7197ZM6.90512 29.5671C7.11553 29.3873 7.42299 29.3927 7.59384 29.5887C7.76463 29.7847 7.73045 30.0904 7.5201 30.2756C7.30969 30.4572 6.99863 30.4499 6.83138 30.2539C6.66419 30.0579 6.69654 29.7523 6.90512 29.5671ZM8.28066 30.8815L8.07392 31.0596C8.07392 31.0596 7.8977 30.8581 7.75382 30.6927C7.78155 30.6749 7.80745 30.6544 7.83116 30.6315C7.87616 30.5937 7.91605 30.5502 7.94983 30.5021C8.0595 30.6291 8.1698 30.7556 8.28073 30.8815M7.35468 30.8312C7.49849 30.9966 7.77904 31.3203 7.77904 31.3203C7.77904 31.3203 7.1892 31.8364 7.16582 31.8597C7.18559 31.8831 7.47695 32.2157 7.49672 32.2373C7.52371 32.2157 9.1834 30.7664 9.20678 30.7431C9.187 30.7179 8.82198 30.3007 8.80037 30.2773C8.7878 30.29 8.76435 30.3097 8.74824 30.3241C8.7878 30.3672 8.74824 30.477 8.66913 30.5453L8.58099 30.6244C8.58099 30.6244 8.19802 30.1892 8.11348 30.0904C8.12583 29.9568 8.11066 29.8222 8.0689 29.6948C8.02715 29.5673 7.9597 29.4498 7.87072 29.3495C7.52731 28.9575 6.95548 28.8946 6.59406 29.2092C6.23263 29.5239 6.21639 30.0993 6.55987 30.4913C6.77028 30.7359 7.0723 30.8546 7.35468 30.8311" fill="white"/>
<path d="M19.9975 13.2039C18.8503 13.193 17.9099 14.1155 17.9009 15.2627C17.8919 16.4099 18.8125 17.3504 19.9597 17.3593H19.9975C21.1447 17.3593 22.078 16.4279 22.078 15.2807C22.078 14.1353 21.1466 13.2039 19.9975 13.2039ZM14.9771 30.2001C16.2826 31.3328 17.9225 32.4117 20.0011 33.3702C22.0798 32.4117 23.7215 31.3328 25.0234 30.1982L20.0011 25.167L14.9771 30.2001Z" fill="#003378"/>
<path d="M20.0011 19.341C17.7552 19.341 15.9372 17.5248 15.9372 15.2807C15.9372 13.0366 17.757 11.2223 20.0011 11.2223C22.2452 11.2223 24.0649 13.042 24.0649 15.2807C24.0649 17.5194 22.2469 19.341 20.0011 19.341ZM30.2254 18.2207V11.2817C30.2254 11.2817 24.3095 11.4705 20.0011 8.16003C15.6945 11.4705 9.77853 11.2817 9.77853 11.2817V18.2207C9.77853 18.2207 9.73898 19.7096 9.99791 21.3387C16.6116 20.1268 23.3905 20.1268 30.0042 21.3387C30.2649 19.7096 30.2254 18.2207 30.2254 18.2207Z" fill="#003378"/>
<path d="M10.1041 21.9195C10.1489 22.1336 10.1975 22.3511 10.2551 22.5651C10.7334 24.3974 11.5893 26.5121 13.3425 28.5547L20.0011 21.8836L26.6579 28.5547C28.4093 26.5102 29.2669 24.3974 29.7471 22.5651C29.8046 22.3529 29.8532 22.1336 29.8963 21.9195C23.3534 20.7202 16.647 20.7202 10.1041 21.9195Z" fill="#003378"/>
<path d="M13.0602 16.9063H14.0168C14.0491 16.9063 14.0743 16.8811 14.0743 16.8488V14.8851C14.0748 14.8775 14.0737 14.8699 14.0711 14.8627C14.0685 14.8555 14.0645 14.8489 14.0593 14.8434C14.0541 14.8378 14.0478 14.8334 14.0407 14.8304C14.0337 14.8273 14.0262 14.8258 14.0186 14.8258H13.24C13.1762 14.8256 13.1149 14.8507 13.0694 14.8955C13.024 14.9402 12.998 15.0012 12.9972 15.065V16.8469C12.9973 16.8626 13.0036 16.8776 13.0147 16.8887C13.0258 16.8998 13.0409 16.9061 13.0566 16.9063H13.0602ZM11.7349 16.9063H12.6915C12.7239 16.9063 12.7509 16.8811 12.7509 16.8488V15.065C12.751 15.0335 12.745 15.0023 12.733 14.9732C12.721 14.9441 12.7034 14.9177 12.6812 14.8955C12.659 14.8732 12.6325 14.8556 12.6034 14.8437C12.5743 14.8317 12.5432 14.8256 12.5117 14.8258H11.7349C11.7025 14.8258 11.6773 14.8528 11.6773 14.8851V16.8488C11.6756 16.8811 11.7007 16.9063 11.7331 16.9081C11.7331 16.9063 11.7331 16.9063 11.7349 16.9063Z" fill="white"/>
<path d="M14.5202 15.1657H14.3188V17.1148H13.1105L13.1086 17.1364C13.0925 17.2641 12.9756 17.3558 12.8479 17.3396C12.7962 17.3334 12.7481 17.3099 12.7113 17.2731C12.6744 17.2363 12.651 17.1881 12.6447 17.1364L12.6411 17.1148H11.4328V15.1657H11.2314C11.2152 15.1654 11.1996 15.1714 11.1878 15.1825C11.1761 15.1936 11.1691 15.2089 11.1685 15.225V17.2929C11.1685 17.327 11.1972 17.354 11.2314 17.3522H12.4434C12.5746 17.5914 12.8731 17.6795 13.1122 17.5482C13.1951 17.5031 13.2631 17.4351 13.3082 17.3522H14.522C14.5562 17.3522 14.5832 17.3252 14.5832 17.2929V15.225C14.5814 15.1908 14.5544 15.1638 14.5202 15.1657C14.522 15.1657 14.522 15.1657 14.5202 15.1657ZM27.4184 16.6923H26.6289C26.5857 16.6923 26.5552 16.7211 26.5606 16.7606L26.8178 18.4113C26.8224 18.4448 26.839 18.4754 26.8644 18.4975C26.8899 18.5197 26.9225 18.5319 26.9562 18.5318H27.091C27.1247 18.5311 27.1569 18.5184 27.182 18.496C27.2071 18.4735 27.2233 18.4429 27.2277 18.4095L27.4849 16.7588C27.4902 16.7211 27.4615 16.6922 27.4183 16.6922M27.5317 15.9676C27.7349 15.7896 28.2095 15.2699 28.1574 14.9786C28.1053 14.6604 27.2224 14.209 27.172 13.8638C27.1415 13.7091 27.2044 13.4952 27.2871 13.3279C27.2979 13.2973 27.2656 13.292 27.2331 13.3153C27.2152 13.3279 26.4977 13.8656 26.4924 14.2378C26.4905 14.3853 26.593 14.547 26.7692 14.6927C26.9131 14.8132 27.1037 14.9211 27.2475 15.065C27.3159 15.1333 27.3752 15.1926 27.4112 15.2987C27.4831 15.4965 27.2799 15.8166 27.154 15.9676H26.87C26.9868 15.8274 27.1109 15.6439 27.1595 15.4606C27.2764 15.0146 26.1651 14.9031 26.3323 14.2342C26.3395 14.2072 26.3125 14.2 26.2855 14.2198C26.273 14.227 25.845 14.6442 25.8432 14.9337C25.8396 15.1836 26.3485 15.4156 26.5876 15.7555C26.6272 15.8274 26.62 15.8993 26.5858 15.9676H26.1345C26.1345 15.9676 26.0266 15.9532 26.0715 16.0575L26.1939 16.4388C26.1939 16.4388 26.2136 16.4891 26.2892 16.4891H27.7492C27.8247 16.4891 27.8464 16.4388 27.8464 16.4388L27.9758 16.0521C28.0082 15.9587 27.9039 15.9658 27.9039 15.9658H27.5317V15.9676ZM18.0176 29.0798C17.9439 29.1319 17.5698 29.3801 17.5573 29.3873C17.5376 29.3963 17.5231 29.4179 17.5249 29.4394C17.524 29.451 17.5276 29.4626 17.535 29.4716C17.5424 29.4806 17.5529 29.4865 17.5645 29.488H17.5662L17.6023 29.4771L17.6652 29.4502C17.7084 29.4322 17.8054 29.3873 17.8216 29.3855C17.827 29.3909 17.827 29.4269 17.827 29.4269V30.0094L17.8216 30.4572C17.8144 30.5183 17.8072 30.5291 17.7641 30.538L17.6112 30.5507C17.5987 30.5518 17.5871 30.5576 17.5788 30.567C17.5705 30.5763 17.566 30.5885 17.5663 30.601V30.6028C17.5663 30.6244 17.5753 30.646 17.6274 30.646L17.8702 30.6424H18.0554L18.3035 30.646C18.3539 30.646 18.3628 30.6244 18.3628 30.6028C18.3633 30.5965 18.3625 30.5902 18.3605 30.5843C18.3584 30.5783 18.3552 30.5728 18.351 30.5681C18.3468 30.5634 18.3418 30.5596 18.3361 30.557C18.3304 30.5543 18.3242 30.5528 18.3179 30.5525L18.192 30.5399C18.1525 30.5327 18.1381 30.5202 18.1381 30.459L18.1291 30.0113V29.6409L18.1381 29.1463V29.1176C18.1381 29.0528 18.1021 29.0492 18.0878 29.0492L18.0176 29.0798ZM18.958 29.398C18.958 29.301 19.012 29.1895 19.1738 29.1895C19.2673 29.1895 19.3662 29.2578 19.3662 29.4052C19.3662 29.5582 19.2781 29.6408 19.2008 29.675C19.021 29.5743 18.958 29.5024 18.958 29.398ZM18.6901 29.4394C18.6901 29.6282 18.8304 29.7379 18.9545 29.8081C18.7404 29.9052 18.6128 30.0688 18.6128 30.2522C18.6128 30.5166 18.8232 30.6765 19.1451 30.6765C19.5155 30.6765 19.7079 30.441 19.7079 30.2054C19.7079 29.9645 19.5137 29.8368 19.3753 29.7577C19.4651 29.7163 19.6396 29.6012 19.6396 29.3873C19.6396 29.1805 19.4633 29.051 19.2008 29.051C18.825 29.051 18.6901 29.2848 18.6901 29.4394ZM18.8969 30.2432C18.8969 30.049 19.0228 29.9411 19.1055 29.8889C19.2709 29.9879 19.4147 30.076 19.4147 30.254C19.4147 30.4176 19.3105 30.5273 19.1595 30.5273C19.012 30.5273 18.8969 30.405 18.8969 30.2432ZM20.3426 29.398C20.3426 29.301 20.402 29.1895 20.5602 29.1895C20.6555 29.1895 20.7508 29.2578 20.7508 29.4052C20.7508 29.5582 20.6645 29.6408 20.5854 29.675C20.4092 29.5743 20.3426 29.5024 20.3426 29.398ZM20.0783 29.4394C20.0783 29.6282 20.2168 29.7379 20.3409 29.8081C20.1287 29.9052 19.9992 30.0688 19.9992 30.2522C19.9992 30.5166 20.2114 30.6765 20.535 30.6765C20.9019 30.6765 21.0943 30.441 21.0943 30.2054C21.0943 29.9645 20.9 29.8368 20.7616 29.7577C20.8551 29.7163 21.0241 29.6012 21.0241 29.3873C21.0241 29.1805 20.8497 29.051 20.5854 29.051C20.2114 29.051 20.0783 29.2848 20.0783 29.4394ZM20.2851 30.2432C20.2851 30.049 20.411 29.9411 20.4901 29.8889C20.6591 29.9879 20.7993 30.076 20.7993 30.254C20.7993 30.4176 20.6951 30.5273 20.5458 30.5273C20.4038 30.5273 20.2851 30.405 20.2851 30.2432ZM22.2127 29.0726L22.0833 29.0834H21.5905C21.5366 29.0834 21.5258 29.1157 21.5258 29.1337L21.4755 29.6642C21.4755 29.6858 21.4791 29.7253 21.5366 29.7361C21.6733 29.7541 22.0185 29.8674 22.0185 30.1839C22.0185 30.4319 21.8567 30.5219 21.7164 30.5219C21.551 30.5219 21.4719 30.4428 21.4719 30.2827C21.4719 30.2252 21.4449 30.2216 21.4269 30.2216C21.3892 30.2216 21.3766 30.2648 21.3748 30.2792C21.3748 30.2828 21.3676 30.5094 21.3676 30.5094V30.5363C21.3676 30.5794 21.3694 30.6154 21.4179 30.6424H21.4215C21.4863 30.6675 21.5546 30.6784 21.6229 30.6784C22.0941 30.6784 22.3098 30.3708 22.3098 30.0849C22.3098 29.7433 21.9717 29.5635 21.6481 29.5041C21.6517 29.4646 21.6643 29.3459 21.6715 29.3081H22.0113C22.1552 29.3081 22.1552 29.3513 22.1552 29.3908C22.1552 29.4412 22.1966 29.4448 22.2037 29.4448C22.2095 29.4453 22.2154 29.4446 22.2209 29.4428C22.2264 29.441 22.2316 29.438 22.2359 29.4342C22.2403 29.4303 22.2438 29.4256 22.2463 29.4203C22.2488 29.415 22.2502 29.4093 22.2504 29.4035V29.4016L22.2793 29.1391C22.2793 29.1176 22.2793 29.0708 22.2325 29.0708L22.2127 29.0726Z" fill="white"/>
<path d="M13.3423 28.5547C13.8458 29.1421 14.3922 29.6915 14.9768 30.1982L20.0009 25.1634L25.0232 30.1964C25.6076 29.6894 26.156 29.1409 26.6595 28.5547L20.0027 21.8835L13.3423 28.5547Z" fill="white"/>
<path d="M20.0008 20.4289C16.6455 20.4289 13.2991 20.7328 9.99951 21.337C10.0301 21.5293 10.0642 21.7235 10.1038 21.9196C16.6479 20.7202 23.3555 20.7202 29.8997 21.9196C29.9382 21.726 29.973 21.5318 30.004 21.337C26.7039 20.7328 23.3558 20.4288 20.0008 20.4289ZM19.9972 17.3612C18.85 17.372 17.9096 16.4496 17.9006 15.3023C17.8916 14.1551 18.8123 13.2165 19.9595 13.2057H19.9972C21.1444 13.2057 22.0777 14.1353 22.0777 15.2826C22.0777 16.4316 21.1463 17.3612 19.9972 17.3612ZM24.0647 15.2808C24.0647 13.0421 22.2467 11.2223 20.0008 11.2223C17.755 11.2223 15.937 13.0403 15.937 15.2808C15.937 17.523 17.7567 19.341 20.0008 19.341C22.2449 19.341 24.0647 17.5249 24.0647 15.2808Z" fill="white"/>
</g>
<defs>
<clipPath id="clip0_544_437">
<rect width="40" height="39.9982" fill="white"/>
</clipPath>
</defs>
</svg>
